<svg xmlns="http://www.w3.org/2000/svg" width="19.6" height="17.297" viewBox="-0.3 -0.301 19.6 17.297"><path fill="#FFF" d="M18.657 4.388H14.85l3.799-1.716a.648.648 0 0 0 .317-.85L18.188.08a.646.646 0 0 0-.852-.324l-6.712 3.032a2.315 2.315 0 0 0-1.795.037 2.296 2.296 0 0 0-1.205 1.284 2.302 2.302 0 0 0 .053 1.763 2.3 2.3 0 0 0 2.096 1.361 2.289 2.289 0 0 0 2.159-1.528l.064-.029h6.019v1.286h-3.323a.644.644 0 0 0 0 1.289H17.1l-.759 5.887c-.036.16-.38 1.57-1.557 1.57H4.718c-1.471 0-1.814-1.324-1.845-1.457l-.951-6h1.846a.644.644 0 0 0 0-1.289H.986V5.676h5.449a.645.645 0 0 0 0-1.289H.343a.645.645 0 0 0-.643.645v2.574c0 .355.288.644.643.644h.278l.988 6.245c.18.865 1.06 2.502 3.108 2.502h10.066c1.814 0 2.637-1.705 2.824-2.652l.785-6.093h.264a.648.648 0 0 0 .644-.645V5.032a.644.644 0 0 0-.643-.644zm-7.893.73a1.017 1.017 0 0 1-.992.826 1.013 1.013 0 0 1-.945-1.378c.095-.253.283-.454.531-.566a.99.99 0 0 1 .927.053.634.634 0 0 0 .592.035l6.402-2.892.252.566-6.4 2.892a.642.642 0 0 0-.367.464z"/></svg>