<?xml version="1.0" encoding="utf-8"?>
<!-- Generator: Adobe Illustrator 16.0.0, SVG Export Plug-In . SVG Version: 6.00 Build 0)  -->
<!DOCTYPE svg PUBLIC "-//W3C//DTD SVG 1.1//EN" "http://www.w3.org/Graphics/SVG/1.1/DTD/svg11.dtd">
<svg version="1.1" id="Layer_1" xmlns="http://www.w3.org/2000/svg" xmlns:xlink="http://www.w3.org/1999/xlink" x="0px" y="0px"
	 width="19.6px" height="17.297px" viewBox="-0.3 -0.301 19.6 17.297" enable-background="new -0.3 -0.301 19.6 17.297"
	 xml:space="preserve">
<path fill="#FFFFFF" d="M18.657,4.388H14.85l3.799-1.716C18.801,2.6,18.92,2.474,18.98,2.315c0.063-0.16,0.058-0.335-0.014-0.493
	L18.188,0.08c-0.104-0.231-0.334-0.381-0.588-0.381c-0.09,0-0.179,0.019-0.264,0.057l-6.712,3.032
	c-0.269-0.107-0.562-0.164-0.854-0.164c-0.324,0-0.649,0.07-0.941,0.201C8.272,3.077,7.844,3.532,7.624,4.109
	C7.407,4.686,7.426,5.312,7.677,5.872c0.37,0.827,1.193,1.361,2.096,1.361c0.325,0,0.641-0.068,0.941-0.204
	c0.57-0.256,1.008-0.734,1.218-1.324l0.064-0.029h6.019v1.286h-3.323c-0.354,0-0.642,0.289-0.642,0.645
	c0,0.355,0.288,0.644,0.642,0.644H17.1l-0.759,5.887c-0.036,0.16-0.38,1.57-1.557,1.57H4.718c-1.471,0-1.814-1.324-1.845-1.457
	l-0.951-6h1.846c0.354,0,0.642-0.289,0.642-0.644c0-0.355-0.288-0.645-0.642-0.645H0.986V5.676h5.449
	c0.354,0,0.643-0.289,0.643-0.644c0-0.355-0.288-0.645-0.643-0.645H0.343c-0.354,0-0.643,0.289-0.643,0.645v2.574
	c0,0.355,0.288,0.644,0.643,0.644h0.278l0.988,6.245c0.18,0.865,1.06,2.502,3.108,2.502h10.066c1.814,0,2.637-1.705,2.824-2.652
	l0.785-6.093h0.264C19.012,8.25,19.3,7.96,19.3,7.607V5.032C19.3,4.677,19.012,4.388,18.657,4.388z M10.764,5.118
	c-0.063,0.327-0.279,0.602-0.579,0.737c-0.131,0.059-0.27,0.089-0.413,0.089c-0.397,0-0.76-0.236-0.922-0.599
	C8.739,5.096,8.731,4.82,8.827,4.566C8.922,4.313,9.11,4.112,9.358,4C9.489,3.941,9.626,3.91,9.768,3.91
	c0.181,0,0.361,0.05,0.517,0.143c0.099,0.06,0.213,0.091,0.328,0.091c0.091,0,0.179-0.019,0.264-0.056l6.402-2.892l0.252,0.566
	l-6.4,2.892C10.938,4.742,10.801,4.917,10.764,5.118z"/>
</svg>
