<?xml version="1.0" encoding="utf-8"?>
<!-- Generator: Adobe Illustrator 16.0.0, SVG Export Plug-In . SVG Version: 6.00 Build 0)  -->
<!DOCTYPE svg PUBLIC "-//W3C//DTD SVG 1.1//EN" "http://www.w3.org/Graphics/SVG/1.1/DTD/svg11.dtd">
<svg version="1.1" id="Layer_1" xmlns="http://www.w3.org/2000/svg" xmlns:xlink="http://www.w3.org/1999/xlink" x="0px" y="0px"
	 width="21px" height="18px" viewBox="0 0 21 18" enable-background="new 0 0 21 18" xml:space="preserve">
<path d="M10.8,7.7C9.9,7.7,9,7.1,8.6,6.3C8.3,5.7,8.3,5.1,8.6,4.5c0.2-0.6,0.7-1.1,1.3-1.3C10.1,3,10.5,3,10.8,3
	c0.3,0,0.7,0.1,0.9,0.2l7.5-3.3c0.1,0,0.2,0,0.2,0c0.2,0,0.4,0.1,0.5,0.3L20.8,2c0.1,0.1,0.1,0.3,0,0.4c-0.1,0.1-0.2,0.3-0.3,0.3
	l-7.5,3.3c-0.2,0.6-0.7,1.1-1.3,1.4C11.5,7.6,11.1,7.7,10.8,7.7z M10.8,4.1c-0.2,0-0.3,0-0.5,0.1C10,4.3,9.8,4.6,9.6,4.9
	c-0.1,0.3-0.1,0.6,0,0.9c0.2,0.4,0.6,0.7,1.1,0.7c0.2,0,0.3,0,0.5-0.1c0.4-0.2,0.6-0.5,0.7-0.9c0-0.2,0.2-0.3,0.3-0.4L19.5,2
	l-0.4-0.8L12,4.3c-0.1,0-0.2,0-0.2,0c-0.1,0-0.2,0-0.3-0.1C11.2,4.2,11,4.1,10.8,4.1z"/>
<path d="M5.2,18.2c-2.2,0-3.1-1.7-3.3-2.6L0.7,8.3c0-0.2,0-0.3,0.1-0.4C0.9,7.7,1,7.7,1.2,7.6c0,0,0,0,0,0c0.4,0,0.6,0.2,0.6,0.5
	L3,15.4c0,0.2,0.4,1.7,2.2,1.7h11.1c1.4,0,1.8-1.6,1.8-1.8l0.9-7.1c0-0.3,0.3-0.5,0.6-0.5c0.2,0,0.4,0.1,0.5,0.2
	c0.1,0.1,0.1,0.3,0.1,0.4l-0.9,7.2c-0.2,1-1.1,2.8-3,2.8H5.2z"/>
<path d="M16.2,8.8c-0.3,0-0.6-0.3-0.6-0.6s0.3-0.6,0.6-0.6H20V6h-6.9c-0.3,0-0.6-0.3-0.6-0.6s0.3-0.6,0.6-0.6h7.5
	c0.3,0,0.6,0.3,0.6,0.6v2.8c0,0.3-0.3,0.6-0.6,0.6H16.2z"/>
<path d="M0.4,8.8c-0.3,0-0.6-0.3-0.6-0.6V5.4c0-0.3,0.3-0.6,0.6-0.6h6.7c0.3,0,0.6,0.3,0.6,0.6S7.4,6,7.1,6H1v1.6h3.2
	c0.3,0,0.6,0.3,0.6,0.6S4.5,8.8,4.2,8.8H0.4z"/>
<g>
	<g>
		<path d="M20.6,5.1h-5.7l5.6-2.5c0.1,0,0.2-0.1,0.2-0.2c0-0.1,0-0.2,0-0.3l-0.9-1.9C19.7,0,19.5-0.1,19.3,0l-7.6,3.3
			c-0.6-0.3-1.3-0.3-1.8,0C9.4,3.6,8.9,4,8.7,4.5C8.5,5.1,8.5,5.7,8.8,6.2c0.4,0.8,1.1,1.3,2,1.3c0.3,0,0.6-0.1,0.9-0.2
			c0.6-0.3,1-0.8,1.2-1.4l0.3-0.1h7.1v2h-4c-0.2,0-0.4,0.2-0.4,0.4c0,0.2,0.2,0.4,0.4,0.4h3l-0.9,6.7c0,0.2-0.5,1.9-2,1.9H5.2
			c-1.9,0-2.3-1.7-2.4-1.8L1.7,8.6h2.4c0.2,0,0.4-0.2,0.4-0.4c0-0.2-0.2-0.4-0.4-0.4H0.8v-2h6.4c0.2,0,0.4-0.2,0.4-0.4
			c0-0.2-0.2-0.4-0.4-0.4H0.4C0.2,5.1,0,5.2,0,5.4v2.8c0,0.2,0.2,0.4,0.4,0.4H1l1.1,7c0,0,0,0,0,0C2.3,16.4,3.2,18,5.2,18h11.1
			c1.8,0,2.6-1.7,2.8-2.6c0,0,0,0,0,0L20,8.6h0.6c0.2,0,0.4-0.2,0.4-0.4V5.4C21,5.2,20.8,5.1,20.6,5.1z M12.4,5.3
			c-0.1,0-0.2,0.1-0.2,0.3c-0.1,0.5-0.4,0.8-0.8,1c-0.2,0.1-0.4,0.1-0.6,0.1c-0.6,0-1.1-0.3-1.3-0.8c-0.2-0.3-0.2-0.7,0-1.1
			C9.6,4.5,9.9,4.2,10.2,4c0.2-0.1,0.4-0.1,0.6-0.1c0.3,0,0.5,0.1,0.7,0.2c0.1,0.1,0.2,0.1,0.3,0l7.4-3.2l0.6,1.2l-6.9,3
			c0,0,0,0,0,0L12.4,5.3z"/>
	</g>
</g>
</svg>
