<svg xmlns="http://www.w3.org/2000/svg" width="21.4" height="18.4" viewBox="0 0 21.4 18.4"><path fill="#3E2D18" d="M11 7.8c-.9 0-1.8-.6-2.2-1.4-.3-.6-.3-1.2 0-1.8.2-.6.7-1.1 1.3-1.3.2-.2.6-.2.9-.2.3 0 .7.1.9.2L19.4 0h.2c.2 0 .4.1.5.3l.9 1.8c.1.1.1.3 0 .4-.1.1-.2.3-.3.3l-7.5 3.3c-.2.6-.7 1.1-1.3 1.4-.2.2-.6.3-.9.3zm0-3.6c-.2 0-.3 0-.5.1-.3.1-.5.4-.7.7-.1.3-.1.6 0 .9.2.4.6.7 1.1.7.2 0 .3 0 .5-.1.4-.2.6-.5.7-.9 0-.2.2-.3.3-.4l7.3-3.1-.4-.8-7.1 3.1H12c-.1 0-.2 0-.3-.1-.3 0-.5-.1-.7-.1z"/><path fill="#3E2D18" d="M5.4 18.3c-2.2 0-3.1-1.7-3.3-2.6L.9 8.4c0-.2 0-.3.1-.4.1-.2.2-.2.4-.3.4 0 .6.2.6.5l1.2 7.3c0 .2.4 1.7 2.2 1.7h11.1c1.4 0 1.8-1.6 1.8-1.8l.9-7.1c0-.3.3-.5.6-.5.2 0 .4.1.5.2.1.1.1.3.1.4l-.9 7.2c-.2 1-1.1 2.8-3 2.8l-11.1-.1z"/><path fill="#3E2D18" d="M16.4 8.9c-.3 0-.6-.3-.6-.6s.3-.6.6-.6h3.8V6.1h-6.9c-.3 0-.6-.3-.6-.6s.3-.6.6-.6h7.5c.3 0 .6.3.6.6v2.8c0 .3-.3.6-.6.6h-4.4zM.6 8.9c-.3 0-.6-.3-.6-.6V5.5c0-.3.3-.6.6-.6h6.7c.3 0 .6.3.6.6s-.3.6-.6.6H1.2v1.6h3.2c.3 0 .6.3.6.6s-.3.6-.6.6H.6z"/></svg>