<svg xmlns="http://www.w3.org/2000/svg" width="21" height="18" viewBox="0 0 21 18"><path d="M10.8 7.7c-.9 0-1.8-.6-2.2-1.4-.3-.6-.3-1.2 0-1.8.2-.6.7-1.1 1.3-1.3.2-.2.6-.2.9-.2.3 0 .7.1.9.2l7.5-3.3h.2c.2 0 .4.1.5.3l.9 1.8c.1.1.1.3 0 .4-.1.1-.2.3-.3.3L13 6c-.2.6-.7 1.1-1.3 1.4-.2.2-.6.3-.9.3zm0-3.6c-.2 0-.3 0-.5.1-.3.1-.5.4-.7.7-.1.3-.1.6 0 .9.2.4.6.7 1.1.7.2 0 .3 0 .5-.1.4-.2.6-.5.7-.9 0-.2.2-.3.3-.4L19.5 2l-.4-.8L12 4.3h-.2c-.1 0-.2 0-.3-.1-.3 0-.5-.1-.7-.1z"/><path d="M5.2 18.2c-2.2 0-3.1-1.7-3.3-2.6L.7 8.3c0-.2 0-.3.1-.4.1-.2.2-.2.4-.3.4 0 .6.2.6.5L3 15.4c0 .2.4 1.7 2.2 1.7h11.1c1.4 0 1.8-1.6 1.8-1.8l.9-7.1c0-.3.3-.5.6-.5.2 0 .4.1.5.2.1.1.1.3.1.4l-.9 7.2c-.2 1-1.1 2.8-3 2.8H5.2z"/><path d="M16.2 8.8c-.3 0-.6-.3-.6-.6s.3-.6.6-.6H20V6h-6.9c-.3 0-.6-.3-.6-.6s.3-.6.6-.6h7.5c.3 0 .6.3.6.6v2.8c0 .3-.3.6-.6.6h-4.4zM.4 8.8c-.3 0-.6-.3-.6-.6V5.4c0-.3.3-.6.6-.6h6.7c.3 0 .6.3.6.6s-.3.6-.6.6H1v1.6h3.2c.3 0 .6.3.6.6s-.3.6-.6.6H.4z"/><path d="M20.6 5.1h-5.7l5.6-2.5c.1 0 .2-.1.2-.2v-.3L19.8.2c-.1-.2-.3-.3-.5-.2l-7.6 3.3c-.6-.3-1.3-.3-1.8 0s-1 .7-1.2 1.2c-.2.6-.2 1.2.1 1.7.4.8 1.1 1.3 2 1.3.3 0 .6-.1.9-.2.6-.3 1-.8 1.2-1.4l.3-.1h7.1v2h-4c-.2 0-.4.2-.4.4s.2.4.4.4h3l-.9 6.7c0 .2-.5 1.9-2 1.9H5.2c-1.9 0-2.3-1.7-2.4-1.8L1.7 8.6h2.4c.2 0 .4-.2.4-.4s-.2-.4-.4-.4H.8v-2h6.4c.2 0 .4-.2.4-.4S7.4 5 7.2 5H.4c-.2.1-.4.2-.4.4v2.8c0 .2.2.4.4.4H1l1.1 7c.2.8 1.1 2.4 3.1 2.4h11.1c1.8 0 2.6-1.7 2.8-2.6l.9-6.8h.6c.2 0 .4-.2.4-.4V5.4c0-.2-.2-.3-.4-.3zm-8.2.2c-.1 0-.2.1-.2.3-.1.5-.4.8-.8 1-.2.1-.4.1-.6.1-.6 0-1.1-.3-1.3-.8-.2-.3-.2-.7 0-1.1.1-.3.4-.6.7-.8.2-.1.4-.1.6-.1.3 0 .5.1.7.2.1.1.2.1.3 0L19.2.9l.6 1.2-6.9 3-.5.2z"/></svg>