<?xml version="1.0" encoding="utf-8"?>
<!-- Generator: Adobe Illustrator 16.0.0, SVG Export Plug-In . SVG Version: 6.00 Build 0)  -->
<!DOCTYPE svg PUBLIC "-//W3C//DTD SVG 1.1//EN" "http://www.w3.org/Graphics/SVG/1.1/DTD/svg11.dtd">
<svg version="1.1" id="Layer_1" xmlns="http://www.w3.org/2000/svg" xmlns:xlink="http://www.w3.org/1999/xlink" x="0px" y="0px"
	 width="21.4px" height="18.4px" viewBox="0 0 21.4 18.4" enable-background="new 0 0 21.4 18.4" xml:space="preserve" >
<path fill="rgb(62,45,24)" d="M11,7.8c-0.9,0-1.8-0.6-2.2-1.4c-0.3-0.6-0.3-1.2,0-1.8C9,4,9.5,3.5,10.1,3.3c0.2-0.2,0.6-0.2,0.9-0.2
	c0.3,0,0.7,0.1,0.9,0.2L19.4,0c0.1,0,0.2,0,0.2,0c0.2,0,0.4,0.1,0.5,0.3L21,2.1c0.1,0.1,0.1,0.3,0,0.4c-0.1,0.1-0.2,0.3-0.3,0.3
	l-7.5,3.3c-0.2,0.6-0.7,1.1-1.3,1.4C11.7,7.7,11.3,7.8,11,7.8z M11,4.2c-0.2,0-0.3,0-0.5,0.1C10.2,4.4,10,4.7,9.8,5
	c-0.1,0.3-0.1,0.6,0,0.9c0.2,0.4,0.6,0.7,1.1,0.7c0.2,0,0.3,0,0.5-0.1C11.8,6.3,12,6,12.1,5.6c0-0.2,0.2-0.3,0.3-0.4l7.3-3.1
	l-0.4-0.8l-7.1,3.1c-0.1,0-0.2,0-0.2,0c-0.1,0-0.2,0-0.3-0.1C11.4,4.3,11.2,4.2,11,4.2z"/>
<path fill="rgb(62,45,24)" d="M5.4,18.3c-2.2,0-3.1-1.7-3.3-2.6L0.9,8.4c0-0.2,0-0.3,0.1-0.4c0.1-0.2,0.2-0.2,0.4-0.3l0,0C1.8,7.7,2,7.9,2,8.2l1.2,7.3
	c0,0.2,0.4,1.7,2.2,1.7h11.1c1.4,0,1.8-1.6,1.8-1.8l0.9-7.1c0-0.3,0.3-0.5,0.6-0.5c0.2,0,0.4,0.1,0.5,0.2c0.1,0.1,0.1,0.3,0.1,0.4
	l-0.9,7.2c-0.2,1-1.1,2.8-3,2.8L5.4,18.3L5.4,18.3z"/>
<path fill="rgb(62,45,24)" d="M16.4,8.9c-0.3,0-0.6-0.3-0.6-0.6s0.3-0.6,0.6-0.6h3.8V6.1h-6.9c-0.3,0-0.6-0.3-0.6-0.6s0.3-0.6,0.6-0.6h7.5
	c0.3,0,0.6,0.3,0.6,0.6v2.8c0,0.3-0.3,0.6-0.6,0.6L16.4,8.9L16.4,8.9z"/>
<path fill="rgb(62,45,24)" d="M0.6,8.9C0.3,8.9,0,8.6,0,8.3V5.5c0-0.3,0.3-0.6,0.6-0.6h6.7c0.3,0,0.6,0.3,0.6,0.6S7.6,6.1,7.3,6.1H1.2v1.6h3.2
	C4.7,7.7,5,8,5,8.3c0,0.3-0.3,0.6-0.6,0.6L0.6,8.9L0.6,8.9z"/>
</svg>
