<svg xmlns="http://www.w3.org/2000/svg" width="144.3" height="73.7" viewBox="0 0 144.3 73.7"><path fill-rule="evenodd" fill="#3E2D18" clip-rule="evenodd" d="M143.3 52.6h-36.9c-.5 0-.9-.4-.9-.9s.4-.9.9-.9h36.9c.5 0 .9.4.9.9.1.4-.4.9-.9.9zm-15.4-17h-21.4c-.5 0-.9-.4-.9-.9s.4-.9.9-.9h21.4c.5 0 .9.4.9.9s-.4.9-.9.9zm-5.6 7.4c0 .5-.4.9-.9.9H99.9c-.5 0-.9-.4-.9-.9s.4-.9.9-.9h21.4c.5 0 1 .4 1 .9zm-24.2 3.6c-.1.3-.5.7-.9.7h-9c-.3 0-.6-.3-.5-.7l3.5-13.1c.1-.3.5-.7.9-.7h1.8c.3 0 .6.3.5.7l-2.8 10.2c-.1.3.2.7.6.8H98c.3 0 .6.3.5.7l-.4 1.4zm-3.3-35.2c-.2.2-.3.3-.5.4-.4.3-1.4.8-2.3 1-.2.2-.4.2-.7.2 0 0-.2 0-.3.1-.3.1-.7.3-1 .4-1.8.8-3.9 1.8-6.2 2.9-.5.3-1 .4-1.5.7-.8.4-1.4.7-1.9 1-.2.3-.6 1-.8 1.6-.4 1.4-1.3 4.5-5.9 6.6-4.2 2-9.2 4.4-14.4 6.8-.3.1-.5.3-.8.3-.7-.8-1.6-1.5-2.5-2 5.8-2.8 11.7-5.6 16.5-7.8 3.3-1.6 3.9-3.5 4.4-4.9 0 0 .7-2.3 1.8-3 1-.7 2.4-1.2 3.9-1.9 2-.9 4.3-2 6.4-2.9.7-.3 1.4-.8 2-.9h.1c.1 0 .2.1.3.1h.1c.3-.1.9-.3 1.3-.6.1-.2.2-.3.2-.5h.2c.3 0 .8-.3.8-.4.3-.5-.6-1.9-1-2.9-.4-.8-1.1-2.5-1.6-2.6h-.1c-.3 0-.8.3-.8.4-.1-.2-.2-.2-.3-.2H90c-.4 0-1.5.6-1.6.8-.1.2.1.1-.1.2-.3.3-1.1.5-1.7.8-2.9 1.4-5.8 2.5-8.6 3.8-1.2.5-2.3 1-3.2 1h-.1c-1.3 0-2-.6-3-.9-1.1-.3-1.8-.7-2.7-.7-.8 0-1.8.3-3.4 1-6.9 3.3-15.6 7.4-22.5 10.5-3.2 1.5-4.3 2.1-7.4 3.5-4.5 2.1-4.8 4.4-4.6 6.1.1.8.3 1.6.5 2.4-1 .6-1.8 1.2-2.5 1.7-.4-1.2-.8-2.4-1-3.6-.3-3.9 1.7-6.8 6.3-9 3.1-1.5 4.2-2 7.4-3.5 3.3-1.6 7-3.3 10.7-5 4.1-1.9 8.2-4 11.8-5.6 1.9-.8 3.3-1.3 4.6-1.3 1.3 0 2.4.3 3.3.7.1.1.3.1.4.2.4.1.8.3 1.1.4.5.3.7.3.9.3.4 0 1.6-.6 2-.8 1-.4 2.1-.9 3.1-1.3 1.8-.8 3.7-1.5 5.5-2.4.3-.2.7-.3.9-.4 0-.1.1-.1.1-.1.4-.4.9-.7 1.4-.9 1.1-.5 1.7-.6 1.8-.6h.1c.5-.2 1-.3 1.6-.3h.5c2 .3 2.8 2.3 3.5 3.9.1.2.1.3.2.3.1.2.3.3.3.6.8 1.5 1.7 3.3.7 5-.2.4-.8 1-1.5 1.3zM27.4 46.5c-.1.3-.5.7-.9.7h-9c-.4 0-.7-.3-.4-.6l3.5-13.1c.1-.3.5-.7.9-.7h1.8c.3 0 .6.3.5.7L21 43.7c-.2.3.1.7.5.7h5.8c.3 0 .6.3.5.7l-.4 1.4zm-11.8.9h-1.8c-.4 0-.8-.3-.8-.8l-.3-1.9c-.1-.4-.4-.8-.8-.8H7.1c-.4 0-.9.3-1.2.6l-1.3 2c-.3.3-.8.6-1.2.6h-2c-.4 0-.6-.3-.4-.6L10.3 33c.3-.3.8-.6 1.2-.6h1.7c.4 0 .8.3.8.8l2.1 13.3c.2.5-.1.9-.5.9zm-4-10.4c-.1-.3-.3-.4-.5-.1l-2.4 3.6c-.3.3-.1.6.3.6h2.4c.4 0 .8-.3.7-.8l-.5-3.3zM5.4 49.3h2.1c.6 0 1.6.1 2.2.1 0 0 1.4.1 2.4.4.9.3 1.6.8 2.2 1.3 1 1.1 1.5 2.4 1.5 4.3 0 1.1-.2 2.2-.6 3.1s-1 1.9-1.8 2.6c-.8.9-1.9 1.6-3.2 2-1.3.4-2.8.7-4.5.7H1.5c-.7 0-1-.5-.8-1.1l3.4-12.4c.1-.5.7-1 1.3-1zM5.3 61c.5 0 1.4 0 2-.1 0 0 .8 0 1.6-.3s1.5-.8 2.1-1.3c.5-.5.8-1.1 1.1-1.7.3-.7.4-1.3.3-2.1 0-.9-.3-1.7-.8-2.3-.3-.3-.8-.6-1.3-.8-.5-.2-1.2-.3-2-.3h-.5c-.6 0-1.2.5-1.3 1.1l-1.8 6.6c-.2.7.1 1.2.6 1.2zM1.8 71.8C.6 71.6.1 71.1.1 70.3c0-.9.7-1.5 1.9-1.5.8 0 1.4.2 1.9.9l-.7.8c-.2-.5-.6-.7-1.1-.7-.5 0-.7.2-.7.5 0 .2.2.4.9.5 1.2.2 1.7.6 1.7 1.5s-.8 1.4-1.9 1.4c-1 0-1.6-.3-2-.8l.5-.9c.4.5.8.7 1.4.7.5 0 .7-.2.7-.4s-.2-.4-.9-.5zm8.8-2H8.3v1h1.8v.9H8.3v1h2.4v.9H7.2v-4.7h3.4v.9zm7.1.6c0 .7-.3 1.1-.9 1.4l1.1 1.8h-1.3l-.9-1.7H15v1.7h-1.1v-4.7H16c1.1 0 1.7.5 1.7 1.5zm-2.6-.6V71h.8c.5 0 .7-.2.7-.6 0-.4-.2-.6-.7-.6h-.8zm7.5 1.9l.2.9.2-.9.8-2.9H25l-1.6 4.7H22l-1.6-4.7h1.2l1 2.9zm-6.3-7.9c-.7 0-1-.5-.8-1.1l3.4-12.4c.1-.6.8-1.1 1.3-1.1h8.5c.7 0 1 .5.8 1.1l-.1.7c-.1.6-.8 1.1-1.3 1.1h-5.5c-.6 0-1.2.5-1.3 1.1l-.5.6c-.2.6.3 1.1.8 1.1h4.5c.7 0 1 .5.8 1.1l-.2.7c-.1.6-.8 1.1-1.3 1.1h-4.5c-.6 0-1.2.5-1.3 1.1l-.3.9c-.2.6.3 1.1.8 1.1h5.6c.7 0 1 .5.8 1.1l-.2.8c-.1.6-.8 1.1-1.3 1.1h-8.7zm15.2-13.5c.1-.6.8-1.1 1.3-1.1h1c.7 0 1 .5.8 1.1l-2.5 9.5c-.2.6.3 1.1.8 1.1h5c.6 0 .9.5.8 1.1l-.3.8c-.1.6-.8 1.1-1.3 1.1H29c-.7 0-1-.5-.8-1.1l3.3-12.5zm.1 19.5h-2.3v1h1.8v.9h-1.8v1h2.4v.9h-3.5v-4.7h3.4v.9zm7.4 1.4c0 1.5-.8 2.4-2.1 2.4H35v-4.7h1.9c1.3 0 2.1.8 2.1 2.3zm-2.9-1.4v2.9h.6c.8 0 1.1-.5 1.1-1.4 0-.9-.3-1.4-1.1-1.4h-.6zm7-19.4c.1-.6.8-1.1 1.3-1.1h1c.6 0 .9.4.8 1.1l-3.4 12.4c-.1.6-.8 1.1-1.3 1.1h-1c-.7 0-1-.5-.8-1.1l3.4-12.4zM67.6 9.9c2.4-1 4.3.9 4.3.9-2.3-1-4.5.3-4.5.3S38.8 25 36.4 26c-2.4 1-3 2.7-3 2.7 0-1.9.8-2.9 2.5-3.8 8.4-4.1 29.3-14 31.7-15zM33.1 43.5c.3.3.7.6 1.1.8.4.2.9.3 1.4.3.8 0 1.3-.2 1.8-.4.5-.3 1.1-.6 1.6-1l1.6 1.6c.3.3.3.8-.1 1 0 0-.9.8-1.8 1.2-.8.4-1.9.6-3.1.6-1 0-1.9-.1-2.8-.4-.8-.3-1.6-.7-2.2-1.3-.6-.6-1.1-1.3-1.4-2-.3-.8-.5-1.6-.5-2.6 0-1.1.2-2.3.7-3.3.4-1 1.1-1.9 1.8-2.8.8-.8 1.7-1.5 2.8-1.9s2.2-.7 3.4-.7c1.4 0 2.6.3 3.5.8.9.6 1.7 1.3 2.3 2.3l-2 1.4c-.3.2-.8.2-1.1-.2 0 0-.5-.6-1-.9-.5-.3-1.3-.5-2.1-.5-.7 0-1.3.1-1.9.4-.7.3-1.2.7-1.7 1.2-.4.5-.8 1.1-1 1.8-.3.7-.4 1.4-.4 2.2 0 .5.1 1 .3 1.4s.5.6.8 1zm11.1 2.2c-.6-.6-1-1.3-1.3-2-.3-.8-.5-1.6-.5-2.5 0-1.1.3-2.2.7-3.2.4-1.1 1-1.9 1.8-2.8.8-.8 1.7-1.4 2.8-1.9 1-.5 2.3-.8 3.5-.8.9 0 1.8.2 2.7.5.8.3 1.5.8 2.1 1.3.6.6 1 1.3 1.3 2s.5 1.6.5 2.5c0 1.1-.3 2.1-.7 3.2-.4 1.1-1 2-1.8 2.8-.8.8-1.7 1.4-2.8 1.9s-2.3.7-3.5.8c-.9 0-1.8-.2-2.7-.5-.8-.3-1.5-.7-2.1-1.3zm1.8-3.4c.1.4.3.8.7 1.2.3.3.7.6 1.2.8.5.2 1 .3 1.6.3.8 0 1.4-.2 2.1-.5.7-.3 1.2-.8 1.6-1.3.4-.5.8-1.1 1-1.8.3-.7.3-1.3.3-1.9 0-.6-.1-1.1-.3-1.5-.2-.4-.3-.8-.7-1.2-.3-.3-.7-.6-1.2-.8-.5-.2-1-.3-1.6-.3-.8 0-1.5.2-2.1.5-.7.3-1.2.8-1.6 1.3-.4.5-.8 1.1-1 1.8-.3.7-.3 1.3-.3 1.9s.2 1.1.3 1.5zm2.8 26.5c.9 0 1.7.4 1.9 1.3l-1 .4c-.1-.6-.4-.8-.8-.8-.6 0-1 .5-1 1.5s.4 1.5 1 1.5c.5 0 .8-.2.9-.8l1 .3c-.3 1-1 1.4-1.9 1.4-1.3 0-2.2-.9-2.2-2.4-.1-1.5.7-2.4 2.1-2.4zm.1-6l-1.6-12.4c-.1-.6.3-1.1.9-1.1h1.3c.6 0 1.1.5 1.2 1.1l.8 8c0 .6.3.7.7.2l5.3-8.3c.3-.5 1.1-.9 1.7-.9h1.4c.6 0 .8.4.5.9L52.5 63c-.3.5-1.1.9-1.7.9h-.7c-.6 0-1.2-.5-1.2-1.1zm6.2 7.9h1.7v-1.9H58v4.7h-1.2v-1.9h-1.7v1.9h-1.2v-4.7h1.2v1.9zM62 50.2c.1-.6.8-1.1 1.3-1.1h8.5c.7 0 1 .5.8 1.1l-.1.8c-.1.6-.8 1.1-1.3 1.1h-5.5c-.6 0-1.2.5-1.3 1.1l-.5.6c-.2.6.3 1.1.8 1.1h4.5c.7 0 1 .5.8 1.1l-.2.7c-.1.6-.8 1.1-1.3 1.1H64c-.6 0-1.2.5-1.3 1.1l-.3.9c-.2.6.3 1.1.8 1.1h5.6c.7 0 1 .5.8 1.1l-.2.8c-.1.6-.8 1.1-1.3 1.1h-8.7c-.7 0-1-.5-.8-1.1L62 50.2zm.6 23.4h-1.2v-4.7h1.2v4.7zm4.7-1h2.2v.9h-3.4v-4.7h1.2v3.8zm7.4-22.3c.1-.6.8-1.1 1.3-1.1h3.1c.6 0 1.6.1 2.2.1 0 0 .9.1 1.7.3.8.3 1.4.6 1.9 1.1.8.8 1.1 1.8 1.1 2.9 0 .7-.1 1.3-.3 1.9-.3.6-.6 1.1-1 1.5-.8.8-1.9 1.4-3.4 1.8l1.8 4c.3.6 0 1-.6 1h-1.4c-.6 0-1.3-.5-1.6-1l-1.3-2.7c-.3-.6-1-1-1.6-1h-.2c-.6 0-1.2.5-1.3 1.1l-.7 2.5c-.1.6-.8 1.1-1.3 1.1h-1c-.7 0-1-.5-.8-1.1l3.4-12.4zm2.7 6.1h.7c.6 0 1.6-.1 2.2-.1 0 0 .1 0 .6-.2.5-.1.9-.3 1.3-.7.4-.4.6-.9.5-1.6 0-.5-.1-.8-.4-1.2-.4-.4-1.1-.6-2.1-.6h-1.6c-.6 0-1.2.5-1.3 1.1l-.6 2.1c-.3.6.1 1.2.7 1.2zm-3.5 16.2h2.2v.9h-3.4v-4.7h1.2v3.8zm8.8-2.8h-2.3v1h1.8v.9h-1.8v1h2.4v.9h-3.5v-4.7h3.4v.9zm7.4 1.4c0 1.5-.8 2.4-2.1 2.4h-1.9v-4.7H88c1.3 0 2.1.8 2.1 2.3zm-2.9-1.4v2.9h.6c.8 0 1.1-.5 1.1-1.4 0-.9-.3-1.4-1.1-1.4h-.6zM75.1 35.1c.8-.8 1.7-1.4 2.8-1.9 1-.5 2.3-.8 3.5-.8 1 0 1.8.2 2.7.5.8.3 1.5.8 2.1 1.3.6.6 1 1.3 1.3 2s.5 1.6.5 2.5c0 1.1-.3 2.2-.7 3.2-.4 1.1-1 1.9-1.8 2.8-.8.8-1.7 1.4-2.8 1.9-1 .5-2.3.8-3.5.8-.9 0-1.8-.2-2.7-.5s-1.5-.8-2.1-1.3c-.6-.5-1-1.3-1.3-2-.3-.8-.5-1.6-.5-2.5 0-1.1.3-2.2.7-3.2.4-1.1 1-2.1 1.8-2.8zm1.1 7.3c.1.4.3.8.7 1.2.3.3.7.6 1.2.8.5.2 1 .3 1.6.3.8 0 1.4-.2 2.1-.5.7-.3 1.2-.8 1.6-1.3.4-.5.8-1.1 1-1.8.3-.7.3-1.3.3-1.9s-.1-1.1-.3-1.5c-.1-.4-.3-.8-.7-1.2-.3-.3-.7-.6-1.2-.8-.5-.2-1-.3-1.6-.3-.8 0-1.5.2-2.1.5-.7.3-1.2.8-1.6 1.3-.4.5-.8 1.1-1 1.8-.3.6-.3 1.3-.3 1.9.1.6.2 1.1.3 1.5zm-12.8-4h4.4c.4 0 .8-.3.9-.7l1.2-4.4c.1-.3.5-.7.9-.7h1.8c.3 0 .6.3.5.7l-3.5 13.1c-.1.3-.5.7-.9.7h-1.8c-.3 0-.6-.3-.5-.7l1.2-4.5c.2-.3-.1-.7-.5-.7h-4.4c-.4 0-.8.3-.9.7l-1.2 4.5c-.1.3-.5.7-.9.7h-1.8c-.3 0-.6-.3-.5-.7l3.5-13.1c.1-.3.5-.7.9-.7h1.8c.3 0 .6.3.5.7l-1.2 4.4c-.2.4.1.7.5.7zm25.2 25.4c-.7 0-1-.5-.8-1.1l1-3.6c.2-.6.1-1.5-.1-2.1l-2.3-6.7c-.2-.5.2-1 .8-1h1.3c.7 0 1.3.5 1.4 1.1l1.1 4c.2.6.6.8 1 .3l3.6-4.4c.3-.4 1.2-.8 1.8-.8h1.7c.6 0 .8.3.3.7l-6.5 7.5c-.4.4-.8 1.3-1 1.9L91 63c-.1.6-.8 1.1-1.3 1.1h-1.1zm10.7-4.5h21.4c.5 0 .9.4.9.9s-.4.9-.9.9H99.3c-.5 0-.9-.4-.9-.9s.4-.9.9-.9z"/></svg>