<?xml version="1.0" encoding="utf-8"?>
<!-- Generator: Adobe Illustrator 16.0.0, SVG Export Plug-In . SVG Version: 6.00 Build 0)  -->
<!DOCTYPE svg PUBLIC "-//W3C//DTD SVG 1.1//EN" "http://www.w3.org/Graphics/SVG/1.1/DTD/svg11.dtd">
<svg version="1.1" id="Layer_1" xmlns="http://www.w3.org/2000/svg" xmlns:xlink="http://www.w3.org/1999/xlink" x="0px" y="0px"
	 width="144.3px" height="73.7px" viewBox="0 0 144.3 73.7" enable-background="new 0 0 144.3 73.7" xml:space="preserve">
<path fill-rule="evenodd" fill="rgb(62,45,24)" clip-rule="evenodd" d="M143.3,52.6h-36.9c-0.5,0-0.9-0.4-0.9-0.9c0-0.5,0.4-0.9,0.9-0.9h36.9
	c0.5,0,0.9,0.4,0.9,0.9C144.3,52.1,143.8,52.6,143.3,52.6z M127.9,35.6h-21.4c-0.5,0-0.9-0.4-0.9-0.9c0-0.5,0.4-0.9,0.9-0.9h21.4
	c0.5,0,0.9,0.4,0.9,0.9C128.8,35.2,128.4,35.6,127.9,35.6z M122.3,43c0,0.5-0.4,0.9-0.9,0.9H99.9c-0.5,0-0.9-0.4-0.9-0.9
	c0-0.5,0.4-0.9,0.9-0.9h21.4C121.8,42.1,122.3,42.5,122.3,43z M98.1,46.6c-0.1,0.3-0.5,0.7-0.9,0.7h-9c-0.3,0-0.6-0.3-0.5-0.7
	l3.5-13.1c0.1-0.3,0.5-0.7,0.9-0.7h1.8c0.3,0,0.6,0.3,0.5,0.7l-2.8,10.2c-0.1,0.3,0.2,0.7,0.6,0.8H98c0.3,0,0.6,0.3,0.5,0.7
	L98.1,46.6z M94.8,11.4c-0.2,0.2-0.3,0.3-0.5,0.4c-0.4,0.3-1.4,0.8-2.3,1C91.8,13,91.6,13,91.3,13C91.3,13,91.1,13,91,13.1
	c-0.3,0.1-0.7,0.3-1,0.4c-1.8,0.8-3.9,1.8-6.2,2.9c-0.5,0.3-1,0.4-1.5,0.7c-0.8,0.4-1.4,0.7-1.9,1c-0.2,0.3-0.6,1-0.8,1.6
	c-0.4,1.4-1.3,4.5-5.9,6.6c-4.2,2-9.2,4.4-14.4,6.8c-0.3,0.1-0.5,0.3-0.8,0.3c-0.7-0.8-1.6-1.5-2.5-2c5.8-2.8,11.7-5.6,16.5-7.8
	c3.3-1.6,3.9-3.5,4.4-4.9c0,0,0.7-2.3,1.8-3c1-0.7,2.4-1.2,3.9-1.9c2-0.9,4.3-2,6.4-2.9c0.7-0.3,1.4-0.8,2-0.9c0.1,0,0.1,0,0.1,0
	c0.1,0,0.2,0.1,0.3,0.1h0.1c0.3-0.1,0.9-0.3,1.3-0.6C92.9,9.3,93,9.2,93,9c0.1,0,0.1,0,0.2,0C93.5,9,94,8.7,94,8.6
	c0.3-0.5-0.6-1.9-1-2.9c-0.4-0.8-1.1-2.5-1.6-2.6h-0.1c-0.3,0-0.8,0.3-0.8,0.4c-0.1-0.2-0.2-0.2-0.3-0.2s-0.1,0-0.2,0
	c-0.4,0-1.5,0.6-1.6,0.8c-0.1,0.2,0.1,0.1-0.1,0.2c-0.3,0.3-1.1,0.5-1.7,0.8c-2.9,1.4-5.8,2.5-8.6,3.8c-1.2,0.5-2.3,1-3.2,1h-0.1
	c-1.3,0-2-0.6-3-0.9c-1.1-0.3-1.8-0.7-2.7-0.7c-0.8,0-1.8,0.3-3.4,1c-6.9,3.3-15.6,7.4-22.5,10.5c-3.2,1.5-4.3,2.1-7.4,3.5
	c-4.5,2.1-4.8,4.4-4.6,6.1c0.1,0.8,0.3,1.6,0.5,2.4c-1,0.6-1.8,1.2-2.5,1.7c-0.4-1.2-0.8-2.4-1-3.6c-0.3-3.9,1.7-6.8,6.3-9
	c3.1-1.5,4.2-2,7.4-3.5c3.3-1.6,7-3.3,10.7-5c4.1-1.9,8.2-4,11.8-5.6c1.9-0.8,3.3-1.3,4.6-1.3c1.3,0,2.4,0.3,3.3,0.7
	c0.1,0.1,0.3,0.1,0.4,0.2c0.4,0.1,0.8,0.3,1.1,0.4c0.5,0.3,0.7,0.3,0.9,0.3c0.4,0,1.6-0.6,2-0.8c1-0.4,2.1-0.9,3.1-1.3
	c1.8-0.8,3.7-1.5,5.5-2.4c0.3-0.2,0.7-0.3,0.9-0.4c0-0.1,0.1-0.1,0.1-0.1c0.4-0.4,0.9-0.7,1.4-0.9c1.1-0.5,1.7-0.6,1.8-0.6
	c0.1,0,0.1,0,0.1,0c0.5-0.2,1-0.3,1.6-0.3c0.3,0,0.5,0,0.5,0c2,0.3,2.8,2.3,3.5,3.9c0.1,0.2,0.1,0.3,0.2,0.3
	c0.1,0.2,0.3,0.3,0.3,0.6c0.8,1.5,1.7,3.3,0.7,5C96.1,10.5,95.5,11.1,94.8,11.4z M27.4,46.5c-0.1,0.3-0.5,0.7-0.9,0.7h-9
	c-0.4,0-0.7-0.3-0.4-0.6l3.5-13.1c0.1-0.3,0.5-0.7,0.9-0.7h1.8c0.3,0,0.6,0.3,0.5,0.7l-2.8,10.2c-0.2,0.3,0.1,0.7,0.5,0.7h5.8
	c0.3,0,0.6,0.3,0.5,0.7L27.4,46.5z M15.6,47.4h-1.8c-0.4,0-0.8-0.3-0.8-0.8l-0.3-1.9c-0.1-0.4-0.4-0.8-0.8-0.8H7.1
	c-0.4,0-0.9,0.3-1.2,0.6l-1.3,2c-0.3,0.3-0.8,0.6-1.2,0.6h-2c-0.4,0-0.6-0.3-0.4-0.6l9.3-13.5c0.3-0.3,0.8-0.6,1.2-0.6h1.7
	c0.4,0,0.8,0.3,0.8,0.8l2.1,13.3C16.3,47,16,47.4,15.6,47.4z M11.6,37c-0.1-0.3-0.3-0.4-0.5-0.1l-2.4,3.6c-0.3,0.3-0.1,0.6,0.3,0.6
	h2.4c0.4,0,0.8-0.3,0.7-0.8L11.6,37z M5.4,49.3h2.1c0.6,0,1.6,0.1,2.2,0.1c0,0,1.4,0.1,2.4,0.4c0.9,0.3,1.6,0.8,2.2,1.3
	c1,1.1,1.5,2.4,1.5,4.3c0,1.1-0.2,2.2-0.6,3.1s-1,1.9-1.8,2.6c-0.8,0.9-1.9,1.6-3.2,2c-1.3,0.4-2.8,0.7-4.5,0.7H1.5
	c-0.7,0-1-0.5-0.8-1.1l3.4-12.4C4.2,49.8,4.8,49.3,5.4,49.3z M5.3,61c0.5,0,1.4,0,2-0.1c0,0,0.8,0,1.6-0.3c0.8-0.3,1.5-0.8,2.1-1.3
	c0.5-0.5,0.8-1.1,1.1-1.7c0.3-0.7,0.4-1.3,0.3-2.1c0-0.9-0.3-1.7-0.8-2.3c-0.3-0.3-0.8-0.6-1.3-0.8c-0.5-0.2-1.2-0.3-2-0.3H7.8
	c-0.6,0-1.2,0.5-1.3,1.1l-1.8,6.6C4.5,60.5,4.8,61,5.3,61z M1.8,71.8c-1.2-0.2-1.7-0.7-1.7-1.5c0-0.9,0.7-1.5,1.9-1.5
	c0.8,0,1.4,0.2,1.9,0.9l-0.7,0.8C3,70,2.6,69.8,2.1,69.8c-0.5,0-0.7,0.2-0.7,0.5c0,0.2,0.2,0.4,0.9,0.5c1.2,0.2,1.7,0.6,1.7,1.5
	c0,0.9-0.8,1.4-1.9,1.4c-1,0-1.6-0.3-2-0.8L0.6,72C1,72.5,1.4,72.7,2,72.7c0.5,0,0.7-0.2,0.7-0.4C2.7,72.1,2.5,71.9,1.8,71.8z
	 M10.6,69.8H8.3v1h1.8v0.9H8.3v1h2.4v0.9H7.2v-4.7h3.4V69.8z M17.7,70.4c0,0.7-0.3,1.1-0.9,1.4l1.1,1.8h-1.3l-0.9-1.7h-0.7v1.7h-1.1
	v-4.7h2.1C17.1,68.9,17.7,69.4,17.7,70.4z M15.1,69.8V71h0.8c0.5,0,0.7-0.2,0.7-0.6c0-0.4-0.2-0.6-0.7-0.6H15.1z M22.6,71.7l0.2,0.9
	l0.2-0.9l0.8-2.9h1.2l-1.6,4.7h-1.4l-1.6-4.7h1.2L22.6,71.7z M16.3,63.8c-0.7,0-1-0.5-0.8-1.1l3.4-12.4c0.1-0.6,0.8-1.1,1.3-1.1h8.5
	c0.7,0,1,0.5,0.8,1.1L29.4,51c-0.1,0.6-0.8,1.1-1.3,1.1h-5.5c-0.6,0-1.2,0.5-1.3,1.1l-0.5,0.6c-0.2,0.6,0.3,1.1,0.8,1.1h4.5
	c0.7,0,1,0.5,0.8,1.1l-0.2,0.7c-0.1,0.6-0.8,1.1-1.3,1.1h-4.5c-0.6,0-1.2,0.5-1.3,1.1l-0.3,0.9c-0.2,0.6,0.3,1.1,0.8,1.1h5.6
	c0.7,0,1,0.5,0.8,1.1l-0.2,0.8c-0.1,0.6-0.8,1.1-1.3,1.1H16.3z M31.5,50.3c0.1-0.6,0.8-1.1,1.3-1.1h1c0.7,0,1,0.5,0.8,1.1l-2.5,9.5
	c-0.2,0.6,0.3,1.1,0.8,1.1h5c0.6,0,0.9,0.5,0.8,1.1l-0.3,0.8c-0.1,0.6-0.8,1.1-1.3,1.1H29c-0.7,0-1-0.5-0.8-1.1L31.5,50.3z
	 M31.6,69.8h-2.3v1h1.8v0.9h-1.8v1h2.4v0.9h-3.5v-4.7h3.4V69.8z M39,71.2c0,1.5-0.8,2.4-2.1,2.4H35v-4.7h1.9
	C38.2,68.9,39,69.7,39,71.2z M36.1,69.8v2.9h0.6c0.8,0,1.1-0.5,1.1-1.4c0-0.9-0.3-1.4-1.1-1.4H36.1z M43.1,50.4
	c0.1-0.6,0.8-1.1,1.3-1.1h1c0.6,0,0.9,0.4,0.8,1.1l-3.4,12.4c-0.1,0.6-0.8,1.1-1.3,1.1h-1c-0.7,0-1-0.5-0.8-1.1L43.1,50.4z
	 M67.6,9.9c2.4-1,4.3,0.9,4.3,0.9c-2.3-1-4.5,0.3-4.5,0.3S38.8,25,36.4,26c-2.4,1-3,2.7-3,2.7c0-1.9,0.8-2.9,2.5-3.8
	C44.3,20.8,65.2,10.9,67.6,9.9z M33.1,43.5c0.3,0.3,0.7,0.6,1.1,0.8c0.4,0.2,0.9,0.3,1.4,0.3c0.8,0,1.3-0.2,1.8-0.4
	c0.5-0.3,1.1-0.6,1.6-1l1.6,1.6c0.3,0.3,0.3,0.8-0.1,1c0,0-0.9,0.8-1.8,1.2c-0.8,0.4-1.9,0.6-3.1,0.6c-1,0-1.9-0.1-2.8-0.4
	c-0.8-0.3-1.6-0.7-2.2-1.3c-0.6-0.6-1.1-1.3-1.4-2c-0.3-0.8-0.5-1.6-0.5-2.6c0-1.1,0.2-2.3,0.7-3.3c0.4-1,1.1-1.9,1.8-2.8
	c0.8-0.8,1.7-1.5,2.8-1.9s2.2-0.7,3.4-0.7c1.4,0,2.6,0.3,3.5,0.8c0.9,0.6,1.7,1.3,2.3,2.3l-2,1.4c-0.3,0.2-0.8,0.2-1.1-0.2
	c0,0-0.5-0.6-1-0.9c-0.5-0.3-1.3-0.5-2.1-0.5c-0.7,0-1.3,0.1-1.9,0.4c-0.7,0.3-1.2,0.7-1.7,1.2c-0.4,0.5-0.8,1.1-1,1.8
	c-0.3,0.7-0.4,1.4-0.4,2.2c0,0.5,0.1,1,0.3,1.4S32.8,43.1,33.1,43.5z M44.2,45.7c-0.6-0.6-1-1.3-1.3-2c-0.3-0.8-0.5-1.6-0.5-2.5
	c0-1.1,0.3-2.2,0.7-3.2c0.4-1.1,1-1.9,1.8-2.8c0.8-0.8,1.7-1.4,2.8-1.9c1-0.5,2.3-0.8,3.5-0.8c0.9,0,1.8,0.2,2.7,0.5
	c0.8,0.3,1.5,0.8,2.1,1.3c0.6,0.6,1,1.3,1.3,2s0.5,1.6,0.5,2.5c0,1.1-0.3,2.1-0.7,3.2c-0.4,1.1-1,2-1.8,2.8
	c-0.8,0.8-1.7,1.4-2.8,1.9s-2.3,0.7-3.5,0.8c-0.9,0-1.8-0.2-2.7-0.5C45.5,46.7,44.8,46.3,44.2,45.7z M46,42.3
	c0.1,0.4,0.3,0.8,0.7,1.2c0.3,0.3,0.7,0.6,1.2,0.8c0.5,0.2,1,0.3,1.6,0.3c0.8,0,1.4-0.2,2.1-0.5c0.7-0.3,1.2-0.8,1.6-1.3
	c0.4-0.5,0.8-1.1,1-1.8c0.3-0.7,0.3-1.3,0.3-1.9c0-0.6-0.1-1.1-0.3-1.5c-0.2-0.4-0.3-0.8-0.7-1.2c-0.3-0.3-0.7-0.6-1.2-0.8
	c-0.5-0.2-1-0.3-1.6-0.3c-0.8,0-1.5,0.2-2.1,0.5c-0.7,0.3-1.2,0.8-1.6,1.3c-0.4,0.5-0.8,1.1-1,1.8c-0.3,0.7-0.3,1.3-0.3,1.9
	S45.9,41.9,46,42.3z M48.8,68.8c0.9,0,1.7,0.4,1.9,1.3l-1,0.4c-0.1-0.6-0.4-0.8-0.8-0.8c-0.6,0-1,0.5-1,1.5c0,1,0.4,1.5,1,1.5
	c0.5,0,0.8-0.2,0.9-0.8l1,0.3c-0.3,1-1,1.4-1.9,1.4c-1.3,0-2.2-0.9-2.2-2.4C46.6,69.7,47.4,68.8,48.8,68.8z M48.9,62.8l-1.6-12.4
	c-0.1-0.6,0.3-1.1,0.9-1.1h1.3c0.6,0,1.1,0.5,1.2,1.1l0.8,8c0,0.6,0.3,0.7,0.7,0.2l5.3-8.3c0.3-0.5,1.1-0.9,1.7-0.9h1.4
	c0.6,0,0.8,0.4,0.5,0.9L52.5,63c-0.3,0.5-1.1,0.9-1.7,0.9h-0.7C49.5,63.9,48.9,63.4,48.9,62.8z M55.1,70.7h1.7v-1.9h1.2v4.7h-1.2
	v-1.9h-1.7v1.9h-1.2v-4.7h1.2V70.7z M62,50.2c0.1-0.6,0.8-1.1,1.3-1.1h8.5c0.7,0,1,0.5,0.8,1.1L72.5,51c-0.1,0.6-0.8,1.1-1.3,1.1
	h-5.5c-0.6,0-1.2,0.5-1.3,1.1l-0.5,0.6c-0.2,0.6,0.3,1.1,0.8,1.1h4.5c0.7,0,1,0.5,0.8,1.1l-0.2,0.7c-0.1,0.6-0.8,1.1-1.3,1.1h-4.5
	c-0.6,0-1.2,0.5-1.3,1.1l-0.3,0.9c-0.2,0.6,0.3,1.1,0.8,1.1h5.6c0.7,0,1,0.5,0.8,1.1l-0.2,0.8c-0.1,0.6-0.8,1.1-1.3,1.1h-8.7
	c-0.7,0-1-0.5-0.8-1.1L62,50.2z M62.6,73.6h-1.2v-4.7h1.2V73.6z M67.3,72.6h2.2v0.9h-3.4v-4.7h1.2V72.6z M74.7,50.3
	c0.1-0.6,0.8-1.1,1.3-1.1h3.1c0.6,0,1.6,0.1,2.2,0.1c0,0,0.9,0.1,1.7,0.3c0.8,0.3,1.4,0.6,1.9,1.1c0.8,0.8,1.1,1.8,1.1,2.9
	c0,0.7-0.1,1.3-0.3,1.9c-0.3,0.6-0.6,1.1-1,1.5c-0.8,0.8-1.9,1.4-3.4,1.8l1.8,4c0.3,0.6,0,1-0.6,1h-1.4c-0.6,0-1.3-0.5-1.6-1
	l-1.3-2.7c-0.3-0.6-1-1-1.6-1h-0.2c-0.6,0-1.2,0.5-1.3,1.1l-0.7,2.5c-0.1,0.6-0.8,1.1-1.3,1.1h-1c-0.7,0-1-0.5-0.8-1.1L74.7,50.3z
	 M77.4,56.4h0.7c0.6,0,1.6-0.1,2.2-0.1c0,0,0.1,0,0.6-0.2c0.5-0.1,0.9-0.3,1.3-0.7c0.4-0.4,0.6-0.9,0.5-1.6c0-0.5-0.1-0.8-0.4-1.2
	c-0.4-0.4-1.1-0.6-2.1-0.6h-1.6c-0.6,0-1.2,0.5-1.3,1.1l-0.6,2.1C76.4,55.8,76.8,56.4,77.4,56.4z M73.9,72.6h2.2v0.9h-3.4v-4.7h1.2
	V72.6z M82.7,69.8h-2.3v1h1.8v0.9h-1.8v1h2.4v0.9h-3.5v-4.7h3.4V69.8z M90.1,71.2c0,1.5-0.8,2.4-2.1,2.4h-1.9v-4.7h1.9
	C89.3,68.9,90.1,69.7,90.1,71.2z M87.2,69.8v2.9h0.6c0.8,0,1.1-0.5,1.1-1.4c0-0.9-0.3-1.4-1.1-1.4H87.2z M75.1,35.1
	c0.8-0.8,1.7-1.4,2.8-1.9c1-0.5,2.3-0.8,3.5-0.8c1,0,1.8,0.2,2.7,0.5c0.8,0.3,1.5,0.8,2.1,1.3c0.6,0.6,1,1.3,1.3,2s0.5,1.6,0.5,2.5
	c0,1.1-0.3,2.2-0.7,3.2c-0.4,1.1-1,1.9-1.8,2.8c-0.8,0.8-1.7,1.4-2.8,1.9c-1,0.5-2.3,0.8-3.5,0.8c-0.9,0-1.8-0.2-2.7-0.5
	s-1.5-0.8-2.1-1.3c-0.6-0.5-1-1.3-1.3-2c-0.3-0.8-0.5-1.6-0.5-2.5c0-1.1,0.3-2.2,0.7-3.2C73.7,36.8,74.3,35.8,75.1,35.1z M76.2,42.4
	c0.1,0.4,0.3,0.8,0.7,1.2c0.3,0.3,0.7,0.6,1.2,0.8c0.5,0.2,1,0.3,1.6,0.3c0.8,0,1.4-0.2,2.1-0.5c0.7-0.3,1.2-0.8,1.6-1.3
	c0.4-0.5,0.8-1.1,1-1.8c0.3-0.7,0.3-1.3,0.3-1.9s-0.1-1.1-0.3-1.5c-0.1-0.4-0.3-0.8-0.7-1.2c-0.3-0.3-0.7-0.6-1.2-0.8
	c-0.5-0.2-1-0.3-1.6-0.3c-0.8,0-1.5,0.2-2.1,0.5c-0.7,0.3-1.2,0.8-1.6,1.3c-0.4,0.5-0.8,1.1-1,1.8c-0.3,0.6-0.3,1.3-0.3,1.9
	C76,41.5,76.1,42,76.2,42.4z M63.4,38.4h4.4c0.4,0,0.8-0.3,0.9-0.7l1.2-4.4c0.1-0.3,0.5-0.7,0.9-0.7h1.8c0.3,0,0.6,0.3,0.5,0.7
	l-3.5,13.1c-0.1,0.3-0.5,0.7-0.9,0.7h-1.8c-0.3,0-0.6-0.3-0.5-0.7l1.2-4.5c0.2-0.3-0.1-0.7-0.5-0.7h-4.4c-0.4,0-0.8,0.3-0.9,0.7
	l-1.2,4.5c-0.1,0.3-0.5,0.7-0.9,0.7h-1.8c-0.3,0-0.6-0.3-0.5-0.7l3.5-13.1c0.1-0.3,0.5-0.7,0.9-0.7h1.8c0.3,0,0.6,0.3,0.5,0.7
	l-1.2,4.4C62.7,38.1,63,38.4,63.4,38.4z M88.6,63.8c-0.7,0-1-0.5-0.8-1.1l1-3.6c0.2-0.6,0.1-1.5-0.1-2.1l-2.3-6.7
	c-0.2-0.5,0.2-1,0.8-1h1.3c0.7,0,1.3,0.5,1.4,1.1l1.1,4c0.2,0.6,0.6,0.8,1,0.3l3.6-4.4c0.3-0.4,1.2-0.8,1.8-0.8h1.7
	c0.6,0,0.8,0.3,0.3,0.7l-6.5,7.5c-0.4,0.4-0.8,1.3-1,1.9l-0.9,3.4c-0.1,0.6-0.8,1.1-1.3,1.1H88.6z M99.3,59.3h21.4
	c0.5,0,0.9,0.4,0.9,0.9c0,0.5-0.4,0.9-0.9,0.9H99.3c-0.5,0-0.9-0.4-0.9-0.9C98.4,59.7,98.8,59.3,99.3,59.3z"/>
</svg>
