<?xml version="1.0" encoding="utf-8"?>
<!-- Generator: Adobe Illustrator 16.0.0, SVG Export Plug-In . SVG Version: 6.00 Build 0)  -->
<!DOCTYPE svg PUBLIC "-//W3C//DTD SVG 1.1//EN" "http://www.w3.org/Graphics/SVG/1.1/DTD/svg11.dtd">
<svg version="1.1" id="Layer_1" xmlns="http://www.w3.org/2000/svg" xmlns:xlink="http://www.w3.org/1999/xlink" x="0px" y="0px"
	 width="23.999px" height="24px" viewBox="4 3 23.999 24" enable-background="new 4 3 23.999 24" xml:space="preserve">
<path fill="#BDBDBD" d="M27.504,14.506h-5.053l2.305-2.092c0.202-0.184,0.217-0.497,0.033-0.699s-0.496-0.218-0.698-0.034
	l-3.112,2.825h-3.785l3.533-3.533l5.227-0.254c0.273-0.014,0.483-0.246,0.471-0.519c-0.014-0.272-0.256-0.479-0.52-0.47
	l-4.137,0.201l2.717-2.717c0.193-0.193,0.193-0.507,0-0.7s-0.506-0.193-0.699,0l-2.717,2.718l0.201-4.139
	c0.014-0.272-0.197-0.505-0.471-0.518c-0.276-0.008-0.505,0.197-0.518,0.47l-0.256,5.228l-3.531,3.531v-3.783l2.824-3.113
	c0.184-0.202,0.169-0.515-0.033-0.698c-0.203-0.185-0.516-0.169-0.699,0.034l-2.092,2.305V3.495C16.494,3.222,16.273,3,16,3
	s-0.495,0.222-0.495,0.495v5.054l-2.091-2.305c-0.184-0.203-0.497-0.219-0.699-0.034c-0.202,0.184-0.218,0.496-0.034,0.698
	l2.825,3.113v3.784l-3.532-3.532l-0.254-5.227c-0.013-0.273-0.262-0.479-0.518-0.471c-0.273,0.013-0.484,0.245-0.47,0.518
	l0.201,4.139L8.214,6.516c-0.193-0.193-0.506-0.193-0.7,0c-0.193,0.192-0.193,0.506,0,0.699l2.716,2.717L6.094,9.73
	c-0.267-0.01-0.505,0.197-0.518,0.471c-0.014,0.272,0.197,0.504,0.47,0.518l5.227,0.254l3.532,3.533h-3.783l-3.113-2.825
	c-0.202-0.184-0.516-0.169-0.699,0.034c-0.184,0.202-0.168,0.516,0.034,0.699l2.305,2.092H4.495C4.221,14.506,4,14.727,4,15
	s0.221,0.494,0.495,0.494h5.054l-2.305,2.092c-0.203,0.184-0.218,0.496-0.034,0.699c0.098,0.107,0.232,0.162,0.367,0.162
	c0.118,0,0.237-0.043,0.332-0.129l3.112-2.824h3.784l-3.532,3.532l-5.228,0.255c-0.273,0.014-0.484,0.245-0.47,0.519
	c0.013,0.265,0.231,0.471,0.494,0.471c0.008,0,0.017,0,0.024-0.001l4.138-0.201l-2.717,2.717c-0.193,0.193-0.193,0.506,0,0.699
	c0.097,0.098,0.223,0.146,0.35,0.146c0.127,0,0.253-0.048,0.35-0.146l2.717-2.717l-0.201,4.138c-0.014,0.272,0.197,0.505,0.47,0.519
	c0.008,0,0.016,0,0.024,0c0.262,0,0.481-0.205,0.494-0.471l0.254-5.227l3.532-3.532v3.784l-2.825,3.112
	c-0.184,0.202-0.168,0.516,0.034,0.699c0.095,0.086,0.214,0.128,0.333,0.128c0.135,0,0.269-0.055,0.367-0.162l2.091-2.305v5.055
	C15.505,26.779,15.727,27,16,27s0.494-0.221,0.494-0.494v-5.055l2.092,2.305c0.098,0.107,0.232,0.162,0.367,0.162
	c0.117,0,0.236-0.042,0.332-0.128c0.202-0.184,0.217-0.497,0.033-0.699l-2.824-3.112v-3.783l3.531,3.531l0.255,5.227
	c0.013,0.266,0.231,0.471,0.493,0.471c0.009,0,0.018,0,0.025,0c0.272-0.014,0.483-0.246,0.471-0.519l-0.201-4.137l2.716,2.716
	c0.097,0.098,0.224,0.146,0.351,0.146c0.126,0,0.252-0.048,0.35-0.146c0.193-0.193,0.193-0.506,0-0.699l-2.717-2.717l4.137,0.201
	c0.009,0,0.017,0,0.025,0c0.262,0,0.48-0.205,0.494-0.471c0.013-0.272-0.197-0.505-0.471-0.518l-5.227-0.254l-3.533-3.533h3.785
	l3.112,2.824c0.095,0.086,0.214,0.129,0.332,0.129c0.135,0,0.269-0.055,0.366-0.162c0.184-0.203,0.169-0.516-0.033-0.699
	l-2.305-2.092h5.053c0.273,0,0.495-0.221,0.495-0.494S27.777,14.506,27.504,14.506z"/>
</svg>
