<svg xmlns="http://www.w3.org/2000/svg" width="18.01" height="18.009" viewBox="5.995 5.995 18.01 18.009"><path fill="#564111" d="M23.98 13.563l-.828-5.199c-.114-.732-.781-1.399-1.518-1.517l-5.199-.829c-.686-.109-1.567.175-2.052.659l-7.969 7.969a1.462 1.462 0 0 0 .012 2.064l6.862 6.862c.572.57 1.498.576 2.063.012l7.97-7.97c.488-.486.773-1.368.659-2.051zm-6.115 4.75c-.143.146-.295.285-.44.427-.131.12-.268.11-.394-.011-.1-.096-.204-.189-.305-.285-.226-.211-.24-.211-.487-.041-.314.222-.646.418-1.017.537-.289.097-.362.07-.509-.181-.11-.186-.22-.372-.325-.563-.121-.221-.094-.285.152-.361.419-.125.792-.33 1.138-.587.227-.166.395-.371.499-.623.194-.472-.151-.903-.677-.854a1.876 1.876 0 0 0-.519.131c-.43.16-.845.367-1.301.472-.734.176-1.405.096-1.93-.472-.592-.644-.629-1.361-.262-2.119.152-.313.157-.313-.094-.553-.084-.081-.168-.161-.252-.246-.184-.186-.184-.246 0-.432l.173-.166c.398-.382.398-.382.802 0 .283.271.283.271.608.045a3.45 3.45 0 0 1 .807-.417c.158-.055.278-.025.362.121.121.211.252.427.367.643.11.206.084.276-.146.352a2.843 2.843 0 0 0-1.18.753.985.985 0 0 0-.209.302c-.168.412.11.773.571.723.231-.025.451-.096.666-.181.373-.146.745-.301 1.133-.407 1.238-.341 2.455.412 2.575 1.602.042.432-.052.844-.276 1.221-.101.166-.09.291.058.418.142.125.272.266.409.396.118.113.122.24.003.356zm2.718-6.758a1.544 1.544 0 0 1-2.161-.015 1.49 1.49 0 0 1-.015-2.129 1.542 1.542 0 0 1 2.159.015c.603.592.609 1.545.017 2.129z"/></svg>