<?xml version="1.0" encoding="utf-8"?>
<!-- Generator: Adobe Illustrator 16.0.0, SVG Export Plug-In . SVG Version: 6.00 Build 0)  -->
<!DOCTYPE svg PUBLIC "-//W3C//DTD SVG 1.1//EN" "http://www.w3.org/Graphics/SVG/1.1/DTD/svg11.dtd">
<svg version="1.1" id="Layer_1" xmlns="http://www.w3.org/2000/svg" xmlns:xlink="http://www.w3.org/1999/xlink" x="0px" y="0px"
	 width="19.6px" height="19.6px" viewBox="0 0 19.6 19.6" enable-background="new 0 0 19.6 19.6" xml:space="preserve">
<path fill="rgb(62,45,24)" d="M18.9,19.6c-0.2,0-0.4-0.1-0.5-0.2l-4-4c-0.3-0.3-0.3-0.7,0-1c0.1-0.1,0.3-0.2,0.5-0.2c0.2,0,0.4,0.1,0.5,0.2l4,4
	c0.1,0.1,0.2,0.3,0.2,0.5c0,0.2-0.1,0.4-0.2,0.5C19.3,19.5,19.1,19.6,18.9,19.6z"/>
<path fill="rgb(62,45,24)" d="M9,18c-2.4,0-4.7-0.9-6.4-2.6C0.9,13.7,0,11.4,0,9s0.9-4.7,2.6-6.4C4.3,0.9,6.6,0,9,0s4.7,0.9,6.4,2.6C17.1,4.3,18,6.6,18,9
	s-0.9,4.7-2.6,6.4C13.7,17.1,11.4,18,9,18z M9,1.4c-2,0-4,0.8-5.4,2.2C2.2,5.1,1.4,7,1.4,9c0,2,0.8,4,2.2,5.4
	C5.1,15.9,7,16.7,9,16.7s4-0.8,5.4-2.2c1.4-1.4,2.2-3.4,2.2-5.4c0-2-0.8-4-2.2-5.4C13,2.2,11.1,1.4,9,1.4z"/>
</svg>
