<svg xmlns="http://www.w3.org/2000/svg" width="19.6" height="19.6" viewBox="0 0 19.6 19.6"><path fill="#3E2D18" d="M18.9 19.6c-.2 0-.4-.1-.5-.2l-4-4c-.3-.3-.3-.7 0-1 .1-.1.3-.2.5-.2s.4.1.5.2l4 4c.1.1.2.3.2.5s-.1.4-.2.5c-.1.1-.3.2-.5.2z"/><path fill="#3E2D18" d="M9 18c-2.4 0-4.7-.9-6.4-2.6C.9 13.7 0 11.4 0 9s.9-4.7 2.6-6.4C4.3.9 6.6 0 9 0s4.7.9 6.4 2.6C17.1 4.3 18 6.6 18 9s-.9 4.7-2.6 6.4c-1.7 1.7-4 2.6-6.4 2.6zM9 1.4c-2 0-4 .8-5.4 2.2C2.2 5.1 1.4 7 1.4 9c0 2 .8 4 2.2 5.4C5.1 15.9 7 16.7 9 16.7s4-.8 5.4-2.2c1.4-1.4 2.2-3.4 2.2-5.4 0-2-.8-4-2.2-5.4C13 2.2 11.1 1.4 9 1.4z"/></svg>