<svg xmlns="http://www.w3.org/2000/svg" width="18" height="16.998" viewBox="6 6.501 18 16.998"><path fill="#FFF" d="M10.724 6.501c1.256 0 2.282.434 3.071 1.182.506.479.91 1.083 1.205 1.786a5.28 5.28 0 0 1 1.199-1.786c.787-.748 1.82-1.182 3.076-1.182 1.309 0 2.486.545 3.34 1.418A4.874 4.874 0 0 1 24 11.34c0 2.292-2.449 4.977-4.188 6.875-.313.342-.603.657-.864.959l-3.609 4.17a.443.443 0 0 1-.635.039.248.248 0 0 1-.044-.039l-3.609-4.17c-.237-.27-.544-.604-.878-.972C8.436 16.305 6 13.639 6 11.34c0-1.333.532-2.541 1.384-3.421a4.678 4.678 0 0 1 3.34-1.418z"/></svg>