<?xml version="1.0" encoding="utf-8"?>
<!-- Generator: Adobe Illustrator 16.0.0, SVG Export Plug-In . SVG Version: 6.00 Build 0)  -->
<!DOCTYPE svg PUBLIC "-//W3C//DTD SVG 1.1//EN" "http://www.w3.org/Graphics/SVG/1.1/DTD/svg11.dtd">
<svg version="1.1" id="Layer_1" xmlns="http://www.w3.org/2000/svg" xmlns:xlink="http://www.w3.org/1999/xlink" x="0px" y="0px"
	 width="18px" height="16.998px" viewBox="6 6.501 18 16.998" enable-background="new 6 6.501 18 16.998" xml:space="preserve">
<path fill="#FFFFFF" d="M10.724,6.501c1.256,0,2.282,0.434,3.071,1.182c0.506,0.479,0.91,1.083,1.205,1.786
	c0.295-0.703,0.699-1.307,1.199-1.786c0.787-0.748,1.82-1.182,3.076-1.182c1.309,0,2.486,0.545,3.34,1.418
	C23.475,8.799,24,10.007,24,11.34c0,2.292-2.449,4.977-4.188,6.875c-0.313,0.342-0.603,0.657-0.864,0.959l-3.609,4.17
	c-0.167,0.189-0.449,0.209-0.635,0.039c-0.019-0.014-0.032-0.025-0.044-0.039l-3.609-4.17c-0.237-0.27-0.544-0.604-0.878-0.972
	C8.436,16.305,6,13.639,6,11.34c0-1.333,0.532-2.541,1.384-3.421C8.243,7.046,9.423,6.501,10.724,6.501L10.724,6.501z"/>
</svg>
