<?xml version="1.0" standalone="no"?>
<!DOCTYPE svg PUBLIC "-//W3C//DTD SVG 1.1//EN" "http://www.w3.org/Graphics/SVG/1.1/DTD/svg11.dtd" >
<svg xmlns="http://www.w3.org/2000/svg">
<metadata></metadata>
<defs>
<font id="sugarbushregular" horiz-adv-x="575" >
<font-face units-per-em="2048" ascent="1309" descent="-739" />
<missing-glyph horiz-adv-x="366" />
<glyph horiz-adv-x="0" />
<glyph horiz-adv-x="682" />
<glyph unicode=" "  horiz-adv-x="366" />
<glyph unicode="&#x09;" horiz-adv-x="366" />
<glyph unicode="&#xa0;" horiz-adv-x="366" />
<glyph unicode="!" horiz-adv-x="421" d="M80 0q11 48 59 53q12 1 20.5 -3.5t12 -9t10.5 -15.5q32 -60 -24 -93q-1 -1 -35 -12q-3 1 -8.5 3.5t-9.5 4l-8 3t-6 4t-3 4.5q-14 43 -8 61zM143 223q0 9 1 28t1 28h2q0 14 -1.5 60t-0.5 71q3 48 10.5 148t10.5 151q3 38 5.5 127t6.5 137q1 9 2 40t3 45t9 37t19 40 q46 66 76 94q19 17 35.5 12.5t25.5 -29.5q12 -38 6 -79q-26 -221 -47 -365q-7 -49 -51 -238q-11 -54 -31 -153t-24 -121q-10 -36 -15 -43q-7 -10 -28 -10q-3 0 -9 7t-6 13z" />
<glyph unicode="&#x22;" horiz-adv-x="315" d="M23.5 983q-0.5 10 0 16t2 17.5t1.5 13.5q2 37 10 51t35 13q24 0 34 -11.5t13 -35.5q6 -24 4.5 -41t-17.5 -27q-5 -20 -16.5 -56t-17.5 -64.5t-4 -53.5l-27 -19q7 75 -8 170q-5 4 -7 10.5t-2.5 16.5zM176 1032q0 7 0.5 19t0.5 16.5t2 11t5.5 8.5t10 3.5t16.5 1.5 q53 0 59 -45q9 -49 -24 -72q-4 -14 -17 -54t-18.5 -66.5t-3.5 -51.5l-27 -19q1 15 7.5 61.5t6 57.5t-3.5 53q-14 14 -14 76z" />
<glyph unicode="#" horiz-adv-x="636" d="M20 559q17 2 90.5 6t90.5 6q27 1 31.5 6.5t9.5 38.5q11 60 24 103q9 26 19.5 28t36.5 -16q-4 -29 -12.5 -87t-10.5 -69q12 0 31.5 -0.5t34 -0.5t28.5 1q12 0 21 23q4 18 11.5 52t10.5 48q1 10 2.5 15t7.5 11t15 -1q28 -17 22 -45q-10 -66 -14 -92q9 -1 28 -2t27 -2 q2 0 7 -0.5t8 -1t7 -2t6.5 -3.5t5 -6t3.5 -10q0 -20 -22 -33q-21 -10 -54 -14q-19 0 -26.5 -11t-9.5 -34q0 -1 -9 -53q11 0 35 -1t40.5 -0.5t31.5 3.5q8 2 15 -1t15 -8.5t11 -7.5q11 -8 11.5 -17.5t-11.5 -14.5q-46 -21 -99 -39q-3 -1 -10.5 -2t-11.5 -2q-29 -4 -37 -36.5 t-8 -86.5q0 -3 1 -9t1 -10t-2 -6q-12 -16 -25 -16q-21 0 -18 28v129q-15 1 -45 4.5t-45 4.5q-25 0 -25 -27q-1 -6 -2.5 -33.5t-3.5 -52t-4 -31.5q-3 -26 -23 -16q-13 6 -18 27q-1 10 -2 61.5t-2 62.5q-7 3 -64.5 9t-66.5 10q-6 3 -27 24q2 2 6 7t7.5 8.5t7.5 5.5 q8 3 62.5 5.5t60.5 4.5q19 10 22 21q2 13 4 40t4 40q-13 5 -62.5 5t-89.5 13t-53 49zM279 412q2 -3 4 -9h84q13 3 18 19q4 25 4 74q-77 11 -93 -1.5t-17 -82.5z" />
<glyph unicode="$" horiz-adv-x="593" d="M33 240q-3 52 29 106t81 51q58 -3 101.5 -67t23.5 -117q-7 -25 -24 -31q-9 -5 -21 0t-16 15q-2 4 -2.5 9.5t0.5 9.5t2.5 10.5t1.5 9.5q7 49 -28 71q-31 19 -54 -3t-16 -73q9 -60 63 -113.5t111 -54.5q41 0 73 13q36 15 68 55t29 78q0 2 2.5 11t1.5 11v27q-4 42 -38 86 t-85 93t-70 75q-1 2 -27.5 33t-27.5 33q-53 50 -49 153q0 22 4 42.5t14.5 42.5t16.5 33.5t21 36t18 29.5q10 15 38.5 32.5t36.5 29.5q7 9 10.5 24.5t3.5 26.5t-0.5 33t-0.5 29q4 36 12 45q7 9 21 8t20 -13q7 -73 14 -120q2 -15 11 -21t23.5 -9t23.5 -11q30 -26 34 -80 q6 -61 -33 -120t-96 -58q-28 0 -30 16q-1 14 8.5 21.5t23.5 5.5q35 0 58.5 49.5t19.5 89.5q-3 24 -22.5 41.5t-42.5 19.5q-42 1 -81.5 -64.5t-43.5 -113.5v-28q3 -40 24 -70q6 -8 26 -38.5t28 -39.5q30 -31 68.5 -86.5t51.5 -71.5q4 -6 20 -27t23 -32q19 -37 23 -94 q6 -57 2 -88q-3 -70 -59 -123q-7 -7 -50.5 -31t-44.5 -14q7 -62 4 -109q-5 -37 -12 -47q-6 -9 -19 -12t-24 4q-11 9 -16 47v34t-3 47.5t-12 27.5q-6 7 -39.5 14t-39.5 10q-112 41 -136 107q-2 8 -13 37t-13 47z" />
<glyph unicode="%" horiz-adv-x="694" d="M46 706.5q-8 30.5 5 57.5q23 55 66 72q21 9 43 10t39 -12q19 -23 19 -71.5t-13 -74.5q-16 -36 -58.5 -47t-66.5 23q-26 12 -34 42.5zM72 -10q-5 23 26 94q8 20 45 82q19 31 46.5 94t33.5 76q13 27 82 168q71 140 86 168q6 11 21.5 38.5t23.5 43.5q18 32 23 43q2 3 9 12.5 t9 15.5q16 32 19 35q15 15 26 6q8 -8 4 -26q-9 -42 -24 -74q-7 -14 -21.5 -43.5t-21.5 -44.5q-21 -45 -72 -137t-59 -107q-17 -32 -51 -99.5t-59.5 -115.5t-55.5 -98q-8 -18 -23.5 -53t-23.5 -52q-15 -37 -23 -41q-7 -3 -12.5 2t-7.5 13zM129 674q4 0 16 4q24 9 31 37 q6 18 2 57q0 23 -4 29q-2 -2 -10 -6q-9 -3 -19 -13q-25 -42 -14 -96q0 -8 -2 -12zM426 88q-11 47 12 100q6 32 35 54q40 45 66 37q3 -1 18 -11q24 -18 27 -51q0 -72 -11 -96q-11 -28 -33.5 -50t-50.5 -26q-54 -7 -63 43zM506 90q2 1 5 4t5 4q27 27 33 62q9 45 -10 59 q-46 -55 -33 -129z" />
<glyph unicode="&#x26;" horiz-adv-x="638" d="M-83 146q-18 96 7 173q56 156 156 244q9 8 25.5 24t27 25.5t26.5 20t31 16.5q2 0 4 2t5 6t4 5q-13 9 -17 10q-7 3 -21.5 8t-25 10t-18.5 12q-47 39 -53 104t28 120q61 105 187 194q13 10 28 13q7 1 26.5 3t26.5 2t27 -1q23 -5 55 -37q78 -87 27 -193q-13 -31 -41.5 -42.5 t-50.5 3.5q-21 17 -21 35q0 4 3.5 8.5t10.5 10.5t9 8q0 2 6 2q1 0 16.5 -0.5t21.5 4t7 18.5q0 4 3.5 28.5t4 34.5t-4 27.5t-15.5 30.5q-15 17 -41 25q-102 21 -154 -103q-30 -69 -41 -129q-18 -83 52 -163q11 -11 43 -11q11 1 33.5 5.5t33.5 5.5q5 1 29 -11q-11 -22 -17 -24 q-47 -19 -77 -21q-13 -2 -25 -7.5t-24 -16t-18.5 -17t-20 -22.5t-17.5 -21q-26 -33 -43 -65q-94 -160 -94 -303q0 -112 51 -201q12 -20 31 -34.5t33 -20t39 -13.5q42 -12 70.5 -17.5t66 -3.5t69.5 17q53 22 111 84q42 44 27 131q-6 41 -37 72q-41 38 -96 68q-37 19 -86 1.5 t-68 -55.5q-14 -25 -33 -20q-26 9 -12 33q92 135 147 184q96 87 213 113q113 27 166 151q12 21 8 53q-4 40 -30 27q-9 -4 -15 2q-2 6 -2 20q9 34 53 44.5t66 -17.5q19 -28 4 -72q-86 -211 -266 -258q-35 -9 -111 -59q-14 -8 -39 -33q-1 -1 -1.5 -3t-1 -5.5t-1.5 -5.5 q1 0 5 -2t6 -2q39 10 75.5 -8t53.5 -37t51 -67q7 -9 10 -13q27 -36 27.5 -100.5t-23.5 -98.5q-57 -85 -94 -114q-64 -45 -158 -66q-21 -5 -61 -8.5t-43 -3.5q-167 -3 -269 133q-42 58 -60 154z" />
<glyph unicode="'" horiz-adv-x="200" d="M49.5 974q-0.5 6 3.5 28.5t4 25.5q9 66 72 66q52 0 55 -45q3 -49 -30 -72q-33 -84 -39 -174l-27 -19q7 39 -12.5 98.5t-20.5 71.5q-5 14 -5.5 20z" />
<glyph unicode="(" horiz-adv-x="428" d="M63 203q-67 523 209 1024l52 2q-217 -559 -144 -1118q35 -261 125 -512h-53q-148 301 -189 604z" />
<glyph unicode=")" horiz-adv-x="428" d="M76 1251h51q276 -501 209 -1024q-41 -304 -191 -606l-51 2q92 265 125 512q71 567 -143 1116z" />
<glyph unicode="*" horiz-adv-x="342" d="M29 915q-2 6 0 10.5t8 7.5t11 5t12.5 3.5t9.5 2.5q3 0 10.5 2t11.5 2t11.5 -1t11.5 -1q5 2 7 5.5t2.5 10.5t0.5 9l14 35q14 35 19 38q9 6 20 -16q3 -6 12 -19.5t11 -21.5q4 -12 4 -37q11 -1 31 4t31 6t30 -10q12 -9 7 -21.5t-15 -22t-22.5 -21t-14.5 -19.5 q1 -2 4.5 -11.5t5.5 -16.5t4.5 -17.5t3 -18t-1 -15t-6.5 -11.5q-10 -8 -25.5 -4t-23.5 14q-2 3 -7 11t-8.5 12.5t-10 8t-13.5 1.5q-8 -2 -18.5 -18.5t-12.5 -18.5q-21 -25 -43 -28q-8 -3 -10 2.5t-2 17.5q0 17 4 41q1 4 3 12.5t3 12.5q2 10 -1.5 17t-14 14.5t-12.5 9.5 q-3 2 -13 9t-17.5 13.5t-10.5 11.5z" />
<glyph unicode="+" horiz-adv-x="665" d="M162 506q16 12 34.5 17.5t46.5 8.5t38 5q10 25 11 74.5t7 72.5l59 4q-1 -7 -2.5 -19t-2.5 -22t-1 -18q0 -3 6 -78q18 -6 56 -6h63l19 -45q-13 -19 -33 -19q-7 0 -21.5 1t-21.5 1q-34 0 -58 -8q-4 -20 -4 -33q0 -12 3.5 -33t3.5 -32q0 -16 -12 -47t-25 -31q-12 0 -19 11 t-9.5 27t-4 34t-0.5 33t0 24q-4 26 -8 39q-13 8 -31 8q-10 0 -32 -4t-34 -4q-14 0 -20 2z" />
<glyph unicode="," horiz-adv-x="245" d="M10 -66q87 30 96 140q-46 18 -49 61l2 27q9 60 58 57l26 -4q59 -15 62 -65q3 -39 -15 -60q-32 -125 -153 -192z" />
<glyph unicode="-" d="M160 362q0 3 7 7t13 4q24 0 98.5 0.5t98.5 -0.5q5 0 11.5 -3.5t15.5 -10.5t12 -9q-2 -2 -12 -14.5t-17 -16.5q-6 -4 -7 -6q-7 -2 -9 -2q-84 0 -174 2q-17 9 -29 21q-8 8 -8 28z" />
<glyph unicode="." horiz-adv-x="374" d="M111 106q0 76 71 76q72 0 72 -76q0 -75 -72 -75q-71 0 -71 75z" />
<glyph unicode="/" horiz-adv-x="581" d="M106.5 -43.5q-0.5 29.5 2.5 58t10 57.5q34 151 102.5 454t102.5 455q3 15 10 62.5t14.5 88t19 83.5t29.5 67.5t41 22.5q13 -1 21.5 -9t11 -22.5t3 -29t-3 -36t-6 -35.5t-7.5 -35.5t-6 -29.5q-49 -213 -78 -348q-17 -78 -48 -214t-56.5 -249t-47.5 -213q-3 -11 -10.5 -77 t-22.5 -89q-14 -24 -36 -24q-22 -1 -33.5 16t-12 46.5z" />
<glyph unicode="0" horiz-adv-x="532" d="M37 522q27 141 67 215q17 33 39 64q27 38 72 52.5t84 0.5q78 -28 117 -95t59 -171q16 -79 -14 -213q-2 -7 -3 -15.5t-1.5 -18.5t-1.5 -15q-9 -81 -56 -146q-5 -7 -16 -23t-19 -27t-16 -19q-54 -57 -102 -43q-12 3 -43.5 9t-48.5 11q-81 24 -115 154q-31 108 -2 280z M135 362q3 -83 31 -159q5 -16 14 -28t24 -20.5t24.5 -12.5t31 -10.5t27.5 -8.5q4 0 16 6q73 55 98 147q17 70 27 121h4q6 177 6 181q0 54 -20 90q-42 70 -92 123q-19 23 -49 14t-44 -39q-103 -236 -98 -404z" />
<glyph unicode="1" horiz-adv-x="483" d="M25 600q-1 2 2 8t6 8q4 2 22.5 9.5t26.5 13.5q45 36 172 145q6 3 10 11q8 30 39 20q33 -13 27 -45q-3 -43 -15 -80q-19 -60 -26 -158q-1 -22 -7.5 -88.5t-7.5 -103.5q-4 -114 7 -174q4 -22 14 -121q3 -27 24 -22q13 3 27 0q48 -7 84 12q4 1 5.5 1t7.5 -2t8 -3 q-5 -19 -9 -21q-26 -13 -59 -24l-2 8q-23 -2 -68.5 -5t-68.5 -5q-30 -4 -51 -9q-64 -18 -89 -28q-18 -9 -26 10q-4 15 16 23q12 4 36.5 13t37.5 13q1 0 41 6q-8 27 -10 45q-4 74 -6 109q0 10 -4 65t-3 84q0 15 -0.5 51t0 55.5t1.5 48.5t4 54.5t8 50.5q5 32 26 109v18 q-10 0 -14 -4q-12 -11 -41.5 -35t-49.5 -43.5t-36 -41.5q-15 -27 -33 -15q-11 7 -26 37z" />
<glyph unicode="2" horiz-adv-x="514" d="M16.5 676.5q-2.5 31.5 16.5 54.5q58 77 119 84q55 5 131 -16q36 -13 59 -56q34 -60 27 -163q-2 -32 -10.5 -64.5t-24 -74t-21.5 -60.5q-12 -43 -61 -148q-9 -21 -59 -124q-11 -22 12 -29q5 -1 52 -16t73 -21q25 -6 55.5 9t44.5 38q1 1 6.5 11t11 13t13.5 -1q1 -1 1 -7 t-1.5 -15t-3.5 -15q-15 -36 -49 -55t-78 -17q-24 7 -66.5 20.5t-52.5 16.5q-54 19 -109 -12q-3 -1 -10.5 -2t-11.5 -2q0 4 -1.5 13.5t-0.5 14.5q5 14 19.5 45t19.5 49q34 93 71 205q28 90 52 174q30 119 2 193q-15 43 -51 58.5t-74 -7.5q-60 -37 -68 -78q-5 -20 9 -42 t34 -25q6 0 18.5 6.5t16.5 7.5q6 2 18 2q0 -23 -2 -25q-28 -23 -52 -20.5t-52 29.5q-20 20 -22.5 51.5z" />
<glyph unicode="3" horiz-adv-x="540" d="M0.5 725q-2.5 24 9.5 41q24 41 65 52t77 -17q56 -46 114 -37q48 5 99 59q16 21 28 11q16 -11 4 -35q-19 -32 -92 -162q-20 -35 -24 -43q-6 -13 -5 -14q10 -5 15 -5q61 0 74 -2q56 -11 94.5 -72t40.5 -122v-47q0 -22 -3 -43t-12 -46t-13.5 -37t-18.5 -43t-17 -38 q-2 -4 -14 -33q-12 -41 -51 -73t-80 -31q-63 6 -106 20.5t-76 54.5q-62 75 -39 162q8 21 28 41q7 7 27 2q3 -2 4 -10.5t-2 -13.5q-18 -40 -8 -94q6 -36 30.5 -67t55.5 -40q18 -7 35 -10q36 -4 67.5 17.5t46.5 60.5q61 151 8 354q-7 26 -34 61q-10 13 -26 14t-28 -10 q-10 -7 -28 -24t-27 -23q-10 -7 -61 -22q-2 0 -6.5 4.5t-4.5 5.5q3 17 13 27q8 11 34 38t37 44q16 24 42.5 72.5t31.5 56.5q4 6 4 18q-12 -6 -14 -8q-50 -44 -107 -17q-54 19 -88 21q-12 2 -43 -16q-2 -2 -8.5 -10.5t-9.5 -10.5q-9 -6 -21 0q-15 15 -17.5 39z" />
<glyph unicode="4" horiz-adv-x="600" d="M-2 201q-4 8 6 18q10 18 31 50t31 50q6 11 14 35t10 29q50 115 60 168q28 143 30 156q3 16 6 56.5t7 61.5q4 14 34 54q10 10 31 14q4 0 9 -5t7 -11q5 -12 5 -37q-1 -26 -5 -100.5t-4 -116.5q-2 -71 -45 -154q-28 -56 -98 -182q-1 -3 -6 -23h16q18 2 51.5 7.5t51.5 7.5 q12 2 16.5 8.5t3.5 23.5q-1 10 -4.5 33.5t-3.5 36.5q-1 7 3.5 17.5t10.5 13.5q2 1 58 26q13 4 20.5 -5t7.5 -30v-47h-2q1 -12 1 -35.5t1 -35.5q0 -4 4 -11.5t6 -7.5q68 3 94 13q29 13 50 40q6 7 17.5 24t17.5 24q2 2 8 2.5t8 1.5q-1 -5 -1 -14.5t-1 -12.5 q-53 -111 -139 -117q-5 0 -14.5 -1t-14.5 -1q-26 -3 -31.5 -12.5t-3.5 -48.5q1 -31 1 -94.5t1 -94.5q0 -44 -26 -55q-30 -8 -49 6q-11 8 -11 56q-4 77 -8 223q0 34 -22 31q-104 -3 -185 -35q-16 -7 -41 -11q-8 0 -14 11z" />
<glyph unicode="5" horiz-adv-x="475" d="M27 702q3 10 8.5 38t11.5 42q7 16 49 74q0 4 8 4q33 9 99.5 27.5t99.5 27.5q20 4 61 12.5t62 12.5h16q6 -2 14 -8t11 -8q-14 -19 -23 -21q-128 -25 -153 -31q-31 -6 -84 -30q-9 -3 -12 -13q-30 -50 -35 -59q-14 -22 -10 -32.5t28 -14.5q77 -19 123.5 -68.5t73.5 -124.5 q41 -111 31 -268q-6 -144 -134 -231q-2 -2 -4 -2q-28 -15 -85 -6.5t-77 30.5q-2 2 -7 7.5t-7 7.5q-40 25 -51.5 62.5t-7.5 90.5q3 50 33 109q13 24 43 12q28 -9 42.5 -19.5t18.5 -31.5q1 -6 -1.5 -16.5t-2.5 -14.5q-34 11 -35 12q-10 13 -24.5 12.5t-18.5 -16.5 q-11 -37 -6 -67q10 -54 41 -94t80 -48q52 -9 67 41q38 107 41 117t4 33.5t4 38.5q21 138 -86 303q-48 71 -112 76q-6 0 -20 -2t-21 -2q-27 0 -37 4q-22 8 -16 34z" />
<glyph unicode="6" horiz-adv-x="466" d="M23 287q11 39 19 117t21 118q40 124 109 244q32 54 73.5 88t95.5 45t112 -20q3 -1 3.5 -7t0 -12t0.5 -12q-24 0 -27 2q-55 36 -98 -12q-36 -40 -58 -76q-82 -135 -139 -381q0 -1 -1 -4.5t-1 -5.5q1 -4 2 -14t2 -15q13 6 27 10q3 1 21 5.5t22 4t20 -1.5q107 -25 158 -81 q27 -29 37 -71t-5.5 -91.5t-60.5 -85.5q-33 -26 -60.5 -40.5t-66 -20.5t-73.5 10q-48 18 -81.5 54.5t-39.5 82.5q-8 55 -10 80q0 55 -2 90zM125 266q-14 -132 86 -246q12 -13 34 -11.5t31 16.5q5 7 16.5 23.5t17.5 26.5t13.5 24.5t10.5 29t2 29.5q0 7 1 21t1 20 q0 78 -49 102q-12 7 -74 21q-31 8 -59 -9.5t-31 -46.5z" />
<glyph unicode="7" horiz-adv-x="479" d="M-12 668q-5 36 18 69.5t55 34.5q66 4 115 -4q45 -7 85.5 6.5t94.5 42.5q8 4 11 10q12 32 49 25q35 -6 30 -43q-6 -34 -18 -64q-12 -38 -39 -113.5t-39 -113.5q-47 -147 -76 -252q-7 -29 -13 -62t-12.5 -73.5t-10.5 -62.5q-9 -54 -13 -66q-4 -11 -11 -17t-11.5 -7.5 t-15.5 -2t-13 -0.5q-37 3 -46.5 21.5t-0.5 69.5q48 269 127 503q11 31 53 136q1 5 2 15t2 15q-3 0 -7.5 0.5t-8 0.5t-6.5 -1q-14 -7 -30.5 -12t-29 -7.5t-33 -3.5t-29.5 -1h-33h-30q-32 0 -51 -11q-6 -3 -12.5 -9t-13.5 -14.5t-11 -12.5q-8 -8 -14 -17q-1 2 -4.5 6t-6 7.5 t-3.5 7.5z" />
<glyph unicode="8" horiz-adv-x="473" d="M51 201q-1 59 17 112t53 115q9 15 26.5 46t26.5 46q10 19 -4 43q-4 6 -17.5 26.5t-21 34.5t-12.5 29q-36 103 33 217q23 38 63 35q9 0 21 4q66 28 126 -8q24 -14 31 -39q8 -62 -10 -98q-17 -32 -44.5 -91t-35.5 -75q-7 -15 6 -31q47 -44 62 -92q33 -106 22 -176 q-18 -105 -61 -162q-36 -55 -66 -88q-22 -23 -52 -29t-73 -4q-4 1 -24 21q-43 37 -61.5 75.5t-4.5 88.5zM96 231q-19 -59 6 -120q20 -49 66.5 -62.5t81.5 19.5q16 15 27.5 36t17 37t13 42.5t11.5 39.5q0 61 -20.5 115t-58.5 119q-11 17 -21 0q-5 -8 -15.5 -24.5t-15.5 -24.5 q-70 -104 -92 -177zM178 801q1 -3 2.5 -16t3.5 -21q8 -23 27.5 -64.5t26.5 -60.5q10 -23 24 -4q70 80 96 160q12 38 -11.5 67.5t-61.5 24.5q-5 -1 -19 -5t-22 -5q-60 -9 -66 -76z" />
<glyph unicode="9" horiz-adv-x="514" d="M4 190q0 15 4 21q13 17 19 -4q27 -62 90 -119q36 -34 94 -6q30 14 61 53q115 136 103 320q-5 34 -15.5 100t-15.5 100q-2 6 -10 23q-1 -3 -4 -9.5t-4 -9.5q-21 -109 -84 -159q-59 -40 -97 -47q-49 -9 -76.5 23.5t-27.5 86.5q0 26 22 90q37 92 140 199q23 23 64.5 31.5 t80.5 -9.5q59 -29 78 -112q9 -37 23 -146q1 -10 7 -37t7 -42t3 -53t2 -52t-1 -51q-5 -89 -76 -193q-45 -67 -90 -90q-11 -6 -51 -41q-30 -23 -88 -15t-94 34q-64 48 -64 114zM131 551q2 -3 5.5 -14.5t9 -22t12.5 -14.5q27 -16 61 22q64 71 76 162q1 3 4 21.5t3.5 25t1 21 t-3.5 26t-11 23.5q-36 54 -72 12q-76 -94 -86 -262z" />
<glyph unicode=":" horiz-adv-x="436" d="M127 213q0 25 19 51.5t42 26.5q28 0 46 -18t18 -46t-13.5 -36.5t-45.5 -8.5q-48 0 -59 12q-7 7 -7 19zM127 508q0 25 19 51.5t42 26.5q28 0 46 -18t18 -46q0 -29 -14 -38t-45 -9q-15 0 -23 0.5t-20 3.5t-17.5 10t-5.5 19z" />
<glyph unicode=";" horiz-adv-x="387" d="M123 225q0 20 15 40t34 20q22 0 35.5 -13.5t13.5 -35.5t-11 -28.5t-36 -6.5q-17 0 -24.5 0.5t-17 6t-9.5 17.5zM127 68q0 18 14 28t33 10q28 0 39.5 -26.5t11.5 -61.5q0 -32 -13.5 -77t-33.5 -62q-32 -16 -41 -16q1 6 8.5 28t8.5 29q2 12 2 35t2 35q-20 7 -25.5 25 t-5.5 53z" />
<glyph unicode="&#x3c;" horiz-adv-x="485" d="M68 444q2 3 6 11.5t7.5 14t6.5 7.5q19 6 29.5 12t25.5 17t25 18q80 52 137 117q3 3 10.5 11t12.5 13t11.5 10.5t12.5 8.5h8q22 -4 17 -22q-3 -17 -205 -189q5 -14 18.5 -28t24 -21t31 -19t24.5 -14q33 -17 54 -61q2 -3 27.5 -40.5t23.5 -53.5q-9 -41 -68 -35l-2 6 q6 35 -1 51.5t-32 28.5q-51 26 -92 73q-44 47 -90 66q-8 4 -22 18z" />
<glyph unicode="=" d="M80 383q2 3 9 6.5t11 3.5q33 0 93.5 0.5t110 0.5t93.5 -1q5 0 11.5 -3.5t14.5 -9.5t13 -9q-3 -3 -12 -15.5t-16 -15.5q-24 -8 -56 -8q-145 0 -235 2q-17 8 -29 20q-8 8 -8 29zM100 520q2 6 9.5 12.5t13.5 6.5q97 0 289 -4q6 0 12 -4.5t12.5 -12t9.5 -10.5q-4 -3 -11 -9 t-12.5 -10t-10.5 -4h-279q-12 3 -18 9q-18 14 -15 26z" />
<glyph unicode="&#x3e;" horiz-adv-x="485" d="M70 657q-3 19 18 23h8q7 -4 14.5 -10.5t19 -18.5t13.5 -14q55 -64 138 -117q11 -8 25 -18.5t24 -16.5t28 -12q5 -2 23 -33q-23 -17 -25 -18q-47 -19 -88 -66t-92 -73q-26 -12 -32.5 -28t-0.5 -52l-2 -6q-61 -5 -67 34q-2 16 24 54t27 41q21 44 51 61q5 3 20.5 11.5 t24.5 14t22 14.5t21 19.5t12 22.5q-3 2 -19.5 16t-32.5 28t-38.5 33t-41.5 36t-36 33t-27 27t-11 15z" />
<glyph unicode="?" horiz-adv-x="649" d="M47 -96q1 25 25 51.5t43 24.5q28 -3 52 -25.5t21 -44.5q-1 -26 -28 -53t-49 -25q-26 3 -46 25t-18 47zM76 993q8 71 78 115q100 64 196 80q96 15 152 -8q133 -53 108 -211q-23 -143 -125 -254q-68 -76 -166 -213q-74 -99 -143 -285q-4 -11 -8 -36t-8 -36q-2 -4 -14 -11.5 t-15 -10.5q-2 3 -7 9.5t-7.5 11t-1.5 8.5q8 120 18 182q22 121 109 239q28 36 86.5 105.5t85.5 105.5q95 127 65 287q-15 81 -96 78q-121 -6 -213 -72q-99 -69 -31 -198q3 -5 10.5 -9.5t20.5 -9t18 -6.5q3 -1 10.5 -2t10.5 -2q-1 -1 -7.5 -10t-11.5 -11q-21 -9 -49.5 4 t-40.5 37q-29 63 -24 123z" />
<glyph unicode="@" horiz-adv-x="1093" d="M102 434q3 11 10.5 41t14 51t14.5 39q72 154 178 221q11 7 65 43.5t85 53.5q84 48 170 53q90 3 158 -41q65 -41 106.5 -85t57.5 -108q2 -10 8 -36.5t9.5 -45t4.5 -36.5q3 -122 -53 -199q-53 -72 -125 -117q-38 -23 -70 -10q-2 2 -6 2q-4 1 -13.5 1.5t-15.5 1.5t-10 5 q-34 29 -37 78q0 15 -4 43q-5 -4 -15.5 -13.5t-15.5 -13.5q-14 -13 -41 -36.5t-42 -36.5q-29 -23 -57 -18.5t-48 36.5q-35 57 -14 119q25 73 51.5 123t69.5 86q58 52 120 57q47 1 71 -32.5t9 -77.5q-1 -2 -2 -6t-2 -5q-12 -16 -16 -24q-5 28 -4 35q8 29 4.5 45t-23.5 26 q-12 8 -24 0q-22 -16 -43 -41q-89 -116 -109 -247q0 -17 2 -23q7 -28 25 -10q68 75 125 129q26 26 59 39q18 6 26 -3t3 -28q-13 -44 -13 -45q-25 -42 -4 -100q1 -4 7.5 -9.5t9.5 -5.5q30 6 59 19q4 3 8.5 8.5t9 13t7.5 10.5q2 3 6 10.5t6 10.5q4 8 12.5 23t14 27t8.5 24 q19 97 -6 209q-21 84 -86 143q-30 30 -80 67q-14 9 -19 11q-106 33 -204 -37q-114 -81 -209 -279q-37 -77 -49 -213q-12 -133 32 -233q48 -105 162 -148q49 -18 111 0q49 15 72 22t61.5 26t64.5 43q12 11 23.5 24.5t25.5 31t21 25.5q10 15 14 17q6 1 16.5 -0.5t12.5 -1.5 q0 -19 -4 -25q-91 -126 -180 -172q-146 -69 -254 -24q-65 27 -115 51q-66 36 -119 117q-42 64 -61 108q-43 97 -17 217z" />
<glyph unicode="A" horiz-adv-x="1028" d="M-2 309q0 6 -1 11q0 38 21 69q39 63 166 88q105 21 213 33q5 14 25 79.5t33 92.5q10 22 26 80t37 88q10 15 19 42t12 34q139 293 211 293q17 0 28 -25q13 -43 19 -95.5t10 -118t8 -99.5q15 -117 22 -294.5t17.5 -338.5t40.5 -289q5 -22 17.5 -48t27.5 -26q18 0 43.5 14 t36.5 29l12 2l7 -16l-2 -4q-1 -2 -8.5 -13.5t-9.5 -14t-9 -12t-10 -12.5l-10 -10t-12.5 -9.5t-13 -6.5t-15.5 -5t-17 -1q-19 0 -27 4q-93 27 -122 113q-12 30 -20.5 63t-14.5 72t-9 64.5t-7.5 74t-6.5 66.5h-2q0 4 -2.5 84.5t-9.5 113.5q-94 0 -141 -4q-65 -10 -117 -10 q-19 0 -27 -18q-24 -60 -43 -123q-14 -44 -52 -127t-52 -127q-13 -34 -36.5 -100t-31.5 -89q-4 -14 -14 -29.5t-21 -15.5t-22.5 10t-11.5 23q0 4 18.5 50.5t40 99t25.5 63.5q1 2 56 163.5t83 213.5q-40 -4 -56 -8q-145 -18 -194 -37q-28 -11 -52.5 -35.5t-31.5 -54.5 q-1 -6 -1 -12q0 -24 23 -46q9 -9 5.5 -21.5t-14 -15.5t-21.5 5q-31 29 -35 73zM467 530q0 -9 8 -14q41 4 119 8q121 21 121 51q0 79 -3 236t-3 236q0 24 -2 36l-5 7h-6q-40 -43 -134.5 -274.5t-94.5 -285.5z" />
<glyph unicode="B" horiz-adv-x="1120" d="M-70 844q6 91 58.5 172t130.5 123q60 32 109 31q30 0 55 -11q44 -18 59 -96q14 -59 14 -158q0 -27 11 -43h6q13 23 35.5 65.5t39 72t40.5 68t48 64.5t53.5 50.5t65 36.5t74.5 12q37 0 66 -46.5t42 -100t13 -93.5q0 -87 -111 -203q-59 -44 -59 -47q2 -4 28.5 -35t59 -68 t41.5 -48q78 -110 105 -172.5t42 -175.5q0 -9 2 -13q4 -38 4 -70q0 -57 -12 -95q-20 -60 -88 -156q-14 -20 -43 -49l-45 -41q-21 -15 -37 -23q-70 -34 -112 -37q-12 -4 -23 -4q-90 0 -158.5 80.5t-68.5 175.5q0 53 35.5 109.5t81.5 56.5q19 0 35 -12.5t16 -32.5 q0 -1 -24 -22t-48.5 -57t-24.5 -75q0 -51 34 -102t95 -61q34 -7 59.5 0t63.5 28q21 12 33.5 20.5t21 14t15.5 18.5t10 18.5t12.5 29.5t14.5 37q8 21 13.5 43t7.5 33t5.5 42t4.5 41q2 13 6 40t5.5 45.5t0.5 41.5q-1 18 -3 33t-4.5 23.5t-8 26.5t-9.5 30l-12.5 42.5t-12 39.5 t-14 40.5t-14.5 35.5t-17.5 36t-19.5 30t-23.5 29t-26.5 21.5t-32 20t-37 12.5q-4 1 -23 10t-26 9q-18 0 -38.5 11t-20.5 29q0 7 2.5 12.5t6 8t10 3.5t10 2t12 0t10.5 -1q13 0 34.5 -8t29.5 -8q14 0 27.5 6.5t27.5 21.5t21.5 23.5t22.5 30.5t17 24q3 15 20 53.5t17 79.5 q0 37 -25 98.5t-53 61.5q-34 0 -67 -18t-56 -40t-49.5 -62.5t-39 -63.5t-33.5 -64q-2 -3 -19 -37.5t-24 -49.5t-19 -44t-17 -51t-5 -41q0 -20 -5.5 -59t-5.5 -58q0 -24 -15 -77t-17 -62q-6 -38 -20.5 -111t-24.5 -132t-15 -111q-5 -47 -35 -109q-23 -47 -57 -47 q-14 0 -31.5 33.5t-17.5 52.5q0 135 48.5 369t51.5 379q1 36 7 118.5t6 126.5v15.5v19t-1 17.5t-3 19t-5.5 15t-9.5 13q-10 8 -45 10.5t-37 -10.5v2q-74 -34 -137 -150q-15 -27 -23 -58q-6 -23 -6 -47q0 -9 1 -19q3 -34 22 -56q14 -16 30.5 -21.5t30.5 7.5q5 6 8.5 10.5 t11 11t13 3.5t6.5 -17q2 -9 2 -17q0 -36 -28 -61q-21 -19 -46 -19q-15 0 -30 7q-44 18 -55 64q-7 29 -7 67q0 20 2 43z" />
<glyph unicode="C" horiz-adv-x="804" d="M18 256q0 109 40.5 278.5t108.5 331t136 232.5q17 18 46.5 51.5t46.5 49.5t44.5 36t59.5 28.5t73 8.5q57 0 91 -63.5t34 -129.5q0 -52 -18.5 -115t-49.5 -120.5t-81 -96t-105 -38.5q-23 0 -40 18.5t-17 42.5q0 11 6 24t15 13q16 0 26 -25.5t23 -25.5q9 0 30 11t29 19 q61 53 97 130t36 159q0 23 -3.5 45.5t-12 46.5t-25.5 39t-41 15q-9 0 -18.5 -3t-17 -7t-18 -12.5t-16.5 -13.5t-17 -16.5t-14.5 -15t-14 -16t-11.5 -13.5q-45 -48 -88 -125q-8 -13 -28.5 -44.5t-30.5 -49.5q-95 -168 -117 -504q-1 -12 -7.5 -59.5t-6.5 -73.5 q0 -89 23.5 -167t70.5 -173q7 -13 16.5 -24.5t14.5 -16t21 -17t20 -15.5q3 -2 9 -8t8.5 -8t7.5 -4.5t10.5 -3.5t13.5 -1q32 0 67.5 14t61 31t60.5 50t51 50.5t48 54.5q10 12 15 17q14 15 71 94.5t66 85.5h14l9 -16q-30 -76 -142 -204.5t-186 -178.5q-13 -7 -40 -20t-40 -21 q-30 -18 -59 -18q-80 0 -149 48t-112.5 122t-68.5 157.5t-25 159.5z" />
<glyph unicode="D" horiz-adv-x="1083" d="M-10 1014q-4 11 -4 23q0 42 51 98q55 57 145 75q28 5 53 6q59 0 107 -28q66 -39 66 -136v-8q-1 -51 -7 -105.5t-17 -126t-15 -105.5q-15 -138 -15 -172q0 -7 2 -11q7 9 27 62q5 14 22.5 62t26.5 71t25 61.5t30.5 69.5t30.5 59q18 31 43 113q18 53 30 82t37 68.5t56 62.5 q31 24 60 24q63 0 120 -110q61 -125 95 -274t34 -289q0 -403 -248 -594q-55 -43 -98.5 -61.5t-103.5 -18.5q-47 0 -98.5 57.5t-51.5 108.5q0 39 30.5 63.5t70.5 24.5q25 0 42 -14.5t17 -40.5q0 -5 -5 -11t-9 -6q-12 0 -37 10q-17 -20 -17 -47q0 -44 38.5 -71t82.5 -27 q66 0 133.5 68t89.5 139q39 125 39 321q0 23 3 72t3 72q0 84 -26 221q-8 34 -53 188q-2 7 -7 23t-7.5 24.5t-8.5 21.5t-10.5 19t-12.5 12t-16 6t-19.5 -4t-25.5 -14q-26 -20 -46 -45t-36.5 -61t-25 -57.5t-23.5 -65.5q-36 -105 -121.5 -304t-120.5 -298q-7 -20 -9 -58 t-5 -53q-1 -7 -5.5 -44.5t-9.5 -61t-15 -54.5t-28 -47t-42 -16q-10 0 -15.5 9.5t-5.5 21.5q0 33 13 102t14 74q9 66 22.5 198.5t22.5 198.5q7 50 27.5 190t29.5 216q5 53 5 88q0 32 -4 51q-12 53 -54 66q-13 4 -27 4q-27 0 -57 -15q-6 -3 -28.5 -14t-27.5 -14.5t-22 -13.5 t-21.5 -16t-14.5 -18t-12.5 -23t-5 -27t-1.5 -35q5 -32 14 -41q9 -7 39 -7q38 4 41 -18q2 -19 -21 -30q-20 -11 -46 -3q-20 6 -36 26t-23.5 37t-16.5 44z" />
<glyph unicode="E" horiz-adv-x="786" d="M-51 217q0 111 55 215q31 53 82 119t120 128t120 71l10 10q-10 10 -40.5 22t-57 23.5t-48.5 44.5t-22 84q0 97 59 151q12 12 39 48q17 23 54 42t47 27q38 31 115 53.5t132 22.5t93 -47t38 -105q0 -48 -37.5 -91.5t-82.5 -43.5q-10 0 -18.5 5.5t-8.5 15.5q0 8 17.5 15 t38 15t38 31t17.5 57q0 33 -19.5 65t-48.5 32q-65 0 -140 -53t-100 -115q-2 -6 -35.5 -62t-33.5 -98q0 -19 0.5 -32t2.5 -24t3 -17t7.5 -11t9.5 -7t14 -3t17.5 -1t23.5 0.5t28 0.5q16 0 46 4t46 4q7 0 13 -7t6 -15q0 -14 -10 -25t-23 -12q-98 -19 -182 -86q-45 -36 -115 -95 q-87 -77 -135 -352q0 -4 -1 -13t-1 -13q0 -39 6 -76q11 -74 17.5 -91t48.5 -83q36 -56 98 -87.5t129 -31.5q88 0 170.5 40t114.5 114q36 90 36 114q0 33 -20 50.5t-43.5 19.5t-43.5 6.5t-20 15.5q0 16 28.5 25t47.5 10q50 0 88.5 -49.5t38.5 -103.5q0 -82 -59 -129 q-15 -11 -45 -39t-49 -41q-28 -21 -60 -35t-47 -18.5t-63.5 -14.5t-59.5 -12q-6 -2 -20 -2q-36 0 -127 21.5t-111 39.5q-7 6 -26 23t-32 29.5t-24 25.5q-45 55 -75.5 141.5t-30.5 159.5z" />
<glyph unicode="F" horiz-adv-x="847" d="M-31 1042q0 25 7.5 45.5t18 35t30.5 27t35 19t42 13.5t41 9.5t43 7t37 5.5q27 6 58 6q19 0 57 -3t57 -3q122 0 183 2q28 1 86 11.5t88 11.5q11 1 22.5 4.5t26 9t22.5 8.5t28.5 7t31.5 8q70 37 147 37q164 0 164 -56q0 -18 -14 -18q-25 0 -76.5 13t-79.5 13 q-45 0 -105.5 -27t-70.5 -30q-29 -8 -52.5 -21t-40 -25t-32 -34t-24 -35.5t-19 -43.5t-14.5 -44t-13.5 -51t-13.5 -51q-1 -6 -7.5 -31t-11 -47t-4.5 -31q0 -14 9 -14q8 0 90 21.5t110 21.5q29 0 41.5 -13t12.5 -44q0 -25 -19 -25q-10 0 -30 15.5t-27 15.5q-18 0 -95.5 -17.5 t-95.5 -25.5q-13 -8 -16 -27q-16 -83 -42.5 -249.5t-49.5 -276.5q-4 -18 -8 -47t-9.5 -50t-15.5 -44q-19 -45 -35.5 -71.5t-46.5 -55.5q-44 -43 -79 -62.5t-83 -19.5q-59 1 -104.5 32t-67.5 82q-8 19 -20 33.5t-16.5 28t-4.5 45.5q0 60 33.5 113t89.5 53q25 0 48.5 -8.5 t23.5 -30.5q0 -12 -5 -24.5t-14 -12.5h-4l-12 8q-6 29 -18 29q-36 0 -55 -33.5t-19 -73.5q0 -44 21 -95t65 -68q16 -5 38 -5t50 5q39 6 69 27.5t49 56.5t32 71.5t20.5 84t11 82.5t6.5 78t5 60q4 29 8 85.5t12 97.5q1 4 4.5 58.5t18.5 70.5q-6 -4 -21 -4q-39 0 -85 24t-46 57 q0 23 18 23q7 0 47 -23.5t66 -23.5q29 0 35 57q5 44 48.5 203t43.5 174q0 8 -21 12t-36 4q-10 0 -32 -5t-32 -5q-5 0 -16 2t-17 2q-22 0 -79 1.5t-90.5 1.5t-80.5 -5t-81 -16q-38 -13 -58 -45.5t-20 -75.5q0 -23 20.5 -62.5t40.5 -39.5q6 0 6 16q0 7 4 15t11 8 q12 0 23.5 -21t11.5 -35q0 -17 -20 -28t-38 -11q-13 0 -23 5.5t-20.5 14t-17.5 11.5q-64 33 -64 145z" />
<glyph unicode="G" horiz-adv-x="886" d="M-18 240q0 128 96 329q5 11 16.5 42.5t20.5 47.5q6 8 28 36t31 46q50 98 113 164q10 10 32 36.5t37 39.5q38 31 56 45t51 36t65 36q46 16 72 16q58 0 106 -64t48 -120q0 -37 -19.5 -81.5t-48.5 -51.5q-7 -2 -22.5 -6.5t-22.5 -6.5l-10 9v8q5 7 16 19.5t15.5 18t11.5 16.5 t10 20t5.5 21.5t2.5 27.5q0 46 -26 82t-72 36q-27 0 -38 -5.5t-30 -26.5q-7 -7 -24.5 -18.5t-24.5 -18.5q-12 -12 -31.5 -35t-23.5 -27q-20 -23 -37 -53q-10 -23 -36 -65t-36 -64q-125 -274 -174 -524q-4 -25 -4 -123q0 -44 42 -101t85 -57q52 0 110.5 38t88.5 83 q5 8 23.5 35t30 45.5t26.5 44.5t22.5 48.5t7.5 39.5q0 27 -29 39.5t-57 7.5q-45 -4 -57 6q-11 7 -8 17q0 10 22 14q45 10 152.5 24t161.5 29q16 9 47 7t16 -31q-8 -14 -33.5 -11.5t-33.5 -3.5q-1 0 -13 -12q-1 -11 -9.5 -57.5t-8.5 -75.5q0 -217 -12 -395q53 5 98 5 q19 0 37 -1q124 -9 196 -43q54 -23 91 -59.5t51 -79.5q2 -6 2 -11q0 -15 -16 -19q-20 -6 -38 7q-11 7 -20.5 17.5t-19.5 24t-15 19.5q-29 35 -67.5 53t-66.5 22.5t-83 7.5q-11 1 -16 1q-19 1 -39 1q-48 0 -101 -5q-27 -220 -159 -336q-99 -86 -207 -86q-16 0 -33 2h-2 q-44 5 -85 27.5t-64 56.5q-26 38 -26 74q0 13 3 25q12 37 53 78q183 171 463 213q8 2 8 337q0 26 -6.5 74.5t-7.5 57.5q-20 -19 -45.5 -87t-55 -133.5t-63.5 -85.5l-16 -16q-32 -38 -86 -59t-109 -21q-59 0 -107 22t-80 58.5t-54 84t-31.5 97.5t-9.5 101zM246 -497 q-3 -13 -3 -26q0 -24 11 -45q15 -33 55 -38q12 -1 23 -1q90 0 168 70q44 40 92 134q4 6 16 44t22 73q9 31 9 34l-31 -4l-36 -6t-31.5 -6t-35 -8.5t-28.5 -10.5q-25 -10 -50.5 -24t-56.5 -32.5t-48 -27.5q-25 -14 -46.5 -50.5t-29.5 -75.5z" />
<glyph unicode="H" horiz-adv-x="937" d="M-18 39q0 82 190 237q23 23 23 60q0 45 13.5 126t16.5 122q4 33 7.5 85t7.5 85q13 115 18 137q5 18 9.5 49.5t9 53t12 44t21 34t34.5 11.5q51 0 51 -104q0 -89 -38 -265t-38 -268q0 -26 11 -26q6 0 11.5 3t8.5 6l9.5 9.5l7.5 7.5q73 84 125 123q58 42 140.5 108.5 t86.5 82.5q7 21 12.5 59t9.5 55q4 20 9.5 53t9 50.5t12.5 43.5t23 50q5 9 20 39.5t26.5 42.5t30.5 12q82 0 82 -39q0 -68 -22 -121.5t-56 -110t-49 -106.5q-53 -171 -77 -331q-19 -125 -23 -199q-1 -20 -3.5 -57t-3.5 -56t1.5 -48.5t9.5 -59.5q5 -20 11 -56.5t11 -59 t15.5 -47.5t29.5 -37.5t48 -12.5q10 0 29.5 5t29.5 5q19 0 19 -18q0 -32 -25.5 -47t-60.5 -15q-69 0 -107 47q-32 40 -76 140q-26 67 -37 125q-5 28 -5.5 51t0.5 58t1 52q3 126 15 205q6 36 27.5 100.5t21.5 85.5q0 15 -2 21q-8 -6 -26 -11.5t-21 -6.5q-11 -5 -143 -119 t-162 -142q-21 -19 -32.5 -52t-18.5 -70.5t-16.5 -77.5t-32.5 -83t-60 -77q-59 -55 -98 -55q-34 0 -59 29t-25 65zM45 25q0 -33 31 -33q27 0 52.5 52.5t25.5 84.5q0 21 -2 31l-7 6l-10 -2q-21 -15 -55.5 -65.5t-34.5 -73.5zM870 1022q0 -2 1 -7t1 -7l11 -7q26 20 26 60 l-12 6l-8 -2q-19 -29 -19 -43z" />
<glyph unicode="I" horiz-adv-x="464" d="M-115 23q0 32 19.5 68t48.5 36q9 0 16.5 -5.5t7.5 -15.5q0 -6 -17 -30t-17 -47q0 -48 31 -102t73 -54q32 0 63.5 21.5t41.5 52.5q7 21 23.5 64t23.5 65q10 28 21 81t16 72q6 18 6 19q4 70 24 201q15 78 15 92q0 9 -5 14t-14 6.5t-17 1.5t-19 -1t-15 -1h-35 q-59 0 -104 60.5t-45 123.5q0 40 24 86q26 46 64 72q8 6 227 176q11 8 28.5 26t26.5 25q25 21 45 21q17 0 26 -17.5t9 -35.5q0 -22 -14 -96.5t-14 -104.5q0 -36 -13.5 -114t-13.5 -107q0 -17 22 -17q17 0 32.5 13.5t21.5 13.5q7 0 14.5 -8t9.5 -16l-6 -11q-6 -4 -32.5 -19 t-48.5 -28.5t-23 -17.5q-10 -43 -25 -126t-28 -144.5t-33 -134.5t-49.5 -133.5t-67.5 -104.5q-4 -4 -26 -32t-33 -34q-20 -11 -59 -29t-48 -18q-56 0 -107 67t-51 126zM150 711v-5q0 -96 106 -96q39 0 43 27q16 159 35 240q21 108 24 120q1 3 4.5 14t7 21t3.5 12 q0 11 -13 11q-11 0 -22.5 -7.5t-24 -19.5t-18.5 -16q-78 -58 -111.5 -117.5t-33.5 -153.5v-30z" />
<glyph unicode="J" horiz-adv-x="839" d="M-23 14v6q0 26 19 78q23 58 43 58q18 0 41 -20t26 -40q4 -26 -16 -26q-10 0 -22 6l-15 -6q-1 -3 -3 -12t-3 -16t0 -13t5 -17t5 -18q11 -64 60 -114.5t110 -51.5h5q113 0 190 147q23 42 39 88t25 79t14.5 88.5t7 81.5t3.5 94.5t3 93.5q4 59 4 180q-1 22 -6 71q-5 55 -5 78 t5 62q0 12 -2 18q-1 16 -1 33q0 74 11 158q2 2 0 4q-3 19 -22 14q-16 -1 -51 -5.5t-54 -4.5q-4 0 -26 0.5t-34 1t-35.5 2.5t-38 5.5t-33.5 10.5t-30.5 16.5t-20.5 23.5t-11 32q-3 17 12 17q6 0 23 -16t49.5 -32.5t77.5 -17.5h19q48 0 98 9q59 10 135 31t112 28q55 10 158 22 q86 14 115 14q41 -2 90.5 -29t70.5 -63q17 -28 17 -56q0 -8 -1 -15q-6 -37 -25 -65.5t-53 -42.5q-19 -9 -39 -9q-14 0 -28 4q-53 11 -71 55q-9 22 -1.5 44.5t27.5 25.5q21 3 38.5 -18t8.5 -39q17 -7 34 -2.5t26 18.5q7 11 7 26q0 28 -24 72q-2 4 -6 8q-17 26 -48 37 q-25 10 -55 10q-8 0 -16 -1q-40 -3 -73 -8.5t-73 -16t-52 -12.5q-1 0 -10.5 -2t-12 -2.5t-10.5 -2t-11 -3.5t-9.5 -4.5t-9 -6t-6 -8t-5 -10.5t-2.5 -13q-1 -16 3.5 -50.5t2.5 -53.5q-5 -44 -5 -103q0 -46 3 -102v-14q0 -32 -3 -83t-3 -83v-14q0 -20 3 -58.5t3 -56.5 q0 -25 -7.5 -70.5t-8.5 -62.5q-5 -83 -8.5 -124t-19 -116.5t-38.5 -107.5q-83 -118 -225 -217q-35 -23 -80 -23h-10h-19q-81 2 -161.5 72t-90.5 155z" />
<glyph unicode="K" horiz-adv-x="778" d="M-170 2q0 19 20.5 51t36.5 43h4q12 0 25.5 -9.5t13.5 -20.5q0 -9 -2 -13l-10 -8q-14 -4 -21.5 -20t-7.5 -33q0 -28 20 -49t48 -21q29 0 48.5 15t29.5 44t13.5 50t6.5 55q4 28 10.5 62t10.5 63t4 68q0 25 11 70.5t11 68.5q0 12 -2 34t-2 33q0 50 9.5 148.5t9.5 148.5 q-1 34 9 108q9 66 9 106v8v24h-10q-22 1 -63 -5.5t-60 -6.5q-14 0 -29.5 8.5t-15.5 22.5q0 6 8.5 12t14.5 6l18 -8q17 -8 33 -8q31 0 107.5 24.5t103.5 24.5q14 0 22.5 -10.5t11 -30t2.5 -35.5t-1 -38.5t-1 -27.5h-2v-55v-41q0 -16 23.5 -32.5t40.5 -16.5q13 0 45 16 q39 22 96 58q18 12 94.5 100t100.5 88q16 0 16 -12q0 -36 -94 -125t-137 -111q-72 -29 -72 -41q4 -12 32 -35.5t32 -27.5q58 -65 102 -166q24 -52 46.5 -127t31.5 -135q2 -9 7.5 -46.5t11 -68.5t14.5 -76t20 -79t25 -65.5t32 -49t39 -17.5q4 0 7.5 -1t7 -4.5l4.5 -4.5t5 -7 l5 -5q1 -12 -8.5 -21.5t-20.5 -9.5q-23 0 -61 28t-51 50q-44 80 -88 273t-58 235q-27 80 -80 175t-106 155q-10 10 -25 10q-43 0 -43 -33q-1 -10 -4.5 -39.5t-3.5 -46.5q0 -15 -3 -46t-3 -48q0 -23 -4 -67.5t-4 -65.5q0 -15 -4 -42t-4 -40q0 -98 -35.5 -179.5t-104.5 -170.5 q-12 -14 -26 -39q-13 -23 -55.5 -46.5t-69.5 -23.5q-37 0 -77 42.5t-40 82.5zM272 793l2 -2h5l-3 4z" />
<glyph unicode="L" horiz-adv-x="811" d="M-2 -99q14 67 84 105q43 22 94 28q28 3 52 3q19 1 35 -1q36 -4 97 -18q-3 1 27 113t64 237t36 134q9 29 43 125.5t48 150.5q8 32 10 42t8 43t4.5 50t-5.5 41.5t-17.5 41t-34.5 26.5q-40 20 -78.5 20t-74.5 -20q-72 -40 -124 -127q-11 -18 -17.5 -30t-14.5 -30.5 t-11 -33.5t-2 -33.5t8 -34.5q1 -4 18 -27.5t19 -23.5q7 3 41 10.5t43 20.5q6 9 12.5 37t6.5 41q1 6 -1 12.5t-5.5 14.5t-4.5 13q-11 26 4 41q28 11 41 0t21 -45q6 -21 6 -43t-6 -44q-11 -46 -41 -76q-44 -44 -90 -44q-8 0 -16 2q-55 8 -89 72q-20 42 -20 86q0 32 10 66 q26 79 88.5 145t128.5 88q40 12 82 12q49 0 103 -16q68 -20 98 -78q16 -33 16 -92q0 -33 -19.5 -120.5t-40 -164t-51 -183.5t-34.5 -124q-90 -302 -90 -323q0 -6 2 -8q71 -12 250.5 -81t263.5 -79l14 -2q15 -2 34.5 6.5t33.5 19t36.5 28.5l32.5 26q39 24 56 14q15 -9 15 -31 q0 -19 -11 -30q-31 -35 -99 -63q-56 -23 -95 -22q-9 0 -17 1h-10q-72 0 -177.5 31.5t-189.5 68.5q-12 6 -26.5 12.5t-42 17.5t-47 16.5t-42 9t-26.5 -4.5q-10 -9 -35.5 -34t-44 -42t-37.5 -32q-38 -30 -78 -48t-88 -18t-84 31q-51 47 -51 100q0 12 2 24zM63 -122 q13 -41 56 -56q19 -6 40 -6q17 0 34 4q41 13 67 39q64 53 82 121q-32 10 -85 10q-23 0 -49 -2q-88 -6 -126 -39q-23 -21 -23 -48q0 -11 4 -23z" />
<glyph unicode="M" horiz-adv-x="1411" d="M49 18q-1 6 -1 13q0 27 17 58q21 39 50 40q34 0 41 -11q3 -5 4 -12q2 -15 -12 -34t-11 -43q6 -38 39 -68q4 -2 17 -2q15 0 33.5 15.5t38.5 45.5t38.5 63t39.5 80t37.5 84.5t35.5 88t29.5 78t25 67.5t16.5 45q21 55 48 201q0 8 4 16q9 22 42 97t46 112q7 22 27 42t40 20 q23 0 37 -41q9 -28 12.5 -141t6.5 -134q1 -13 9 -81t11 -94t7.5 -79t6.5 -94t2 -82q0 -8 2 -12l7 -6l4 4q19 34 41.5 103t29.5 87q29 74 74 177q6 14 16.5 46.5t21 58t22.5 42.5q19 34 22 76q2 41 2 123q0 131 43 155q4 2 17.5 15.5t23.5 13.5q16 0 35.5 -42.5t19.5 -61.5 q0 -4 -15.5 -29t-31.5 -62.5t-16 -72.5q0 -70 12 -210.5t12 -209.5q0 -25 7.5 -76t7.5 -76q1 -30 10.5 -92t9.5 -94v-19q3 -16 9.5 -64.5t12.5 -88.5t19.5 -92t29 -88t42 -61t59.5 -25q24 0 39.5 3t27.5 12.5t17.5 16t17.5 26t19 30.5l14 8q6 0 11.5 -4t5.5 -10 q0 -20 -4 -66q-24 -40 -76 -57t-107 -17q-37 0 -73 26.5t-63 68.5t-45.5 81.5t-31.5 77.5q-32 95 -32 316q0 37 -10.5 116t-10.5 119q0 13 -1 27t-2.5 31.5t-2.5 27.5v19q0 26 2 65q2 55 2 76v16l-6 6l-6 -4q-55 -140 -113 -315q-11 -33 -35 -90q-21 -48 -60.5 -144.5 t-61.5 -144.5q-3 -10 -12 -18.5t-19 -8.5q-9 0 -15 8t-7.5 23t-2 27t0.5 29t1 20q-4 164 -12 248q-1 21 -8.5 84.5t-7.5 101.5q0 27 -2.5 59.5t-5 57t-7 62.5t-6.5 57l-6 4l-8 -2q-3 -4 -18 -63t-17 -70q-3 -14 -14.5 -41t-14.5 -43q-7 -46 -42 -125.5t-44 -114.5 q-26 -28 -82 -172q-17 -40 -36 -61q-10 -13 -33.5 -51.5t-41 -63t-47.5 -45.5q-27 -19 -56 -19h-5q-7 3 -26.5 10t-25 9.5t-20 9.5t-19.5 11.5t-14.5 14t-13 19.5t-8 24.5t-6.5 32.5zM1094 1016l4 -6l10 6q2 6 2 16q0 31 -4 43l-6 -8q-2 -6 -2 -20z" />
<glyph unicode="N" horiz-adv-x="978" d="M-152 823q0 101 70 164.5t176 87.5q6 2 19 2q9 0 27.5 -1t27.5 -1q14 0 27 -4.5t21.5 -9.5t20.5 -17.5t16.5 -18t16.5 -22.5t15 -20q8 -11 14 -46.5t6 -55.5q0 -53 -8 -184t-16 -156v-11l4 -4l6 2q61 119 82 166q9 21 25.5 46t30 43t42 49.5t38 41.5t43 44.5t34.5 35.5 q19 20 59.5 43.5t52.5 32.5q43 31 82 31q121 0 121 -207q0 -53 -17 -133.5t-20 -114.5q-2 -18 -11 -50t-11 -50q-5 -40 -29 -117.5t-29 -118.5q-3 -19 -21 -99t-18 -114q0 -16 -1 -48.5t-0.5 -46t4 -37t13 -43.5t25.5 -44q17 -28 62 -28h6.5h6.5h6.5t6.5 1t5 2t5 2.5t4 3.5 t3 5.5t2 7.5q0 1 1.5 7t2.5 9t4 6t8 3q12 0 23.5 -12t11.5 -25q0 -19 -27 -41.5t-45 -22.5q-64 0 -110.5 38t-67 94t-20.5 120l2 49q0 71 14 174q1 9 8 52t7 65q0 175 73 492q23 90 23 129q0 13 -7 22.5t-20 9.5q-2 0 -31 -10.5t-32 -11.5q-39 -17 -74.5 -42.5t-58.5 -46 t-55 -61.5t-45 -60t-48 -71q-26 -41 -29 -51q-7 -16 -30 -59t-31 -68t-32 -69.5t-32 -67.5q-28 -79 -126 -328q-2 -5 -8 -22t-12 -32.5t-13 -32t-15 -26.5t-14 -10q-8 0 -13 7t-5 16q0 12 6.5 41t7.5 33q22 87 50 227.5t28 189.5q0 25 10 73t12 59q4 33 14 96t15.5 113.5 t5.5 95.5q0 65 -33 133l-8 6q-36 12 -57 12q-63 0 -145 -66t-82 -130q0 -25 24.5 -68t46.5 -65q7 -6 25.5 -10t32.5 -7.5t14 -11.5q0 -10 -11.5 -17.5t-21.5 -7.5q-43 0 -96 53.5t-58 98.5q-2 6 -2 20z" />
<glyph unicode="O" horiz-adv-x="862" d="M12 436v105q1 19 8.5 58t8.5 60q0 13 34 139t39 134q7 12 30.5 60.5t39.5 68.5q44 54 76 79t94 54q40 18 90 18q25 0 52.5 -5t54 -22t26.5 -42q0 -13 -10 -13t-43 17.5t-59 17.5q-29 0 -56 -12q-18 -7 -48 -57t-36 -56q-28 -31 -49 -94q-10 -28 -38 -103t-46 -129 t-30 -106q-8 -35 -16.5 -96.5t-8.5 -93.5q0 -17 -4 -25q3 -9 0.5 -45t-2.5 -43q0 -22 3.5 -63t4.5 -54q3 -33 14 -57q38 -84 84 -129t123 -45q40 0 76.5 16.5t66 47t53.5 63.5t45 78t34 77t28 72q8 22 19.5 69t19.5 69q14 41 23.5 132t9.5 150q0 35 -9.5 77.5t-27 84.5 t-48 70t-67.5 28q-68 0 -119 -73.5t-51 -147.5q0 -23 12 -47.5t31 -30.5q39 -8 39 -22q0 -8 -9.5 -15.5t-16.5 -7.5q-40 0 -67.5 48t-27.5 93q0 88 63 170t146 82q33 0 61 -13t48 -32.5t38 -51t29 -59.5t21.5 -68t16 -67t13 -65.5t11.5 -54.5q0 -2 1 -7.5t1 -7.5 q0 -159 -51 -306.5t-152 -258.5q-5 -6 -21 -19t-22 -22q-10 -13 -18.5 -18t-26.5 -10q-26 -9 -53 -29q-39 -25 -125 -41q-8 2 -25 5.5t-27 5.5t-23.5 7t-24.5 11q-71 42 -125 129.5t-79.5 183.5t-25.5 184z" />
<glyph unicode="P" horiz-adv-x="886" d="M-123 891q0 69 53 133.5t126.5 101.5t138.5 37q44 0 59 -12q39 -31 67.5 -128t28.5 -161q0 -12 8 -12q11 0 36 50t53 118t30 72q16 17 35 46.5t32 49t40 34.5t65 15q32 0 63 -31t57 -87t39.5 -91t30.5 -85q4 -11 5 -15q16 -47 16 -103q0 -75 -13.5 -128t-49.5 -115 q-14 -24 -21 -41q-12 -41 -35 -52l-6 -6q-89 -100 -186 -100q-57 0 -106.5 41.5t-49.5 99.5q0 14 1 22t7.5 16.5t18.5 8.5q1 0 4 -1t4 -1l8 -8q3 -7 15 -33t18 -36t19 -26.5t28.5 -23t36.5 -6.5q51 0 95 37.5t73 89.5q7 11 12.5 54t5.5 65v74h-2v94q0 12 -3 35t-3 35 q0 35 -9 92.5t-33.5 114.5t-57.5 57q-80 0 -191 -293q-13 -30 -42.5 -89.5t-41.5 -88.5q-13 -31 -31.5 -205t-35.5 -225l-4 -9q-21 -86 -60.5 -204.5t-72.5 -184.5q-16 -33 -39 -33q-14 0 -28.5 10t-21 18.5t-18.5 25.5l-2 8l2 8q43 146 49 166q67 207 92 311 q3 14 14.5 81.5t24.5 99.5q9 21 25 142t16 154q0 9 3 29.5t3 30.5q0 25 -5 54t-15.5 59.5t-30.5 50.5t-47 20q-51 0 -139 -69t-88 -119q0 -26 12 -48t35 -22q21 0 44 32t30 32q9 0 15.5 -9.5t6.5 -19.5q0 -115 -129 -115q-32 0 -58 38t-26 73z" />
<glyph unicode="Q" horiz-adv-x="1044" d="M28 590q5 59 29 139q5 17 11 33.5t10.5 28.5t12.5 28.5t12 25t15 26.5t14.5 24t17.5 28t18 29q64 97 113 146q2 3 11 11.5t11 10.5l9.5 9.5t10 9.5t9.5 8l10.5 9t10 8t12 8.5t12.5 7.5l14 8q80 43 153 43h9h47h45h6q80 0 153 -53q77 -54 125 -141.5t60 -184.5 q3 -26 3 -54q0 -130 -65 -308q-79 -215 -182 -340q-41 -50 -112.5 -109t-136.5 -102v-9q0 -1 1 -2t1 -2q3 -2 44 -14t50 -16q37 -17 117.5 -58.5t131 -65.5t123 -45.5t134.5 -21.5q48 0 116 39t68 82q0 14 5.5 27.5t17.5 13.5q20 0 27 -12t7 -35q0 -25 -13.5 -43t-44 -39 t-36.5 -27q-35 -28 -72.5 -37.5t-89.5 -9.5q-66 0 -139.5 22t-136.5 54t-121 63.5t-112 53.5t-91 22q-27 0 -73.5 -15.5t-67.5 -17.5q-38 -3 -92.5 -35t-65.5 -32l-8 4q-2 4 -2 12q0 31 31 47q62 37 83.5 50t75 48t82 58.5t66.5 60t66 74.5q129 172 190 325.5t61 348.5 q0 100 -13.5 165t-61.5 126q-1 2 -9 11t-10 11t-8.5 9t-10 10t-9.5 8t-12 8t-13 6q-33 13 -53 17t-51 0q-120 -17 -207.5 -80t-155.5 -180q-80 -137 -106 -241q-16 -66 -16 -148q0 -47 5 -99q7 -83 71.5 -156t129.5 -73q35 0 76 31.5t41 64.5q0 22 -12 36.5t-33 14.5 q-6 0 -17 -3.5t-14 -4.5l-12 6q0 21 14 35t33 14q35 0 63.5 -36.5t28.5 -73.5q0 -47 -49 -97.5t-94 -50.5q-39 0 -102 22.5t-83 49.5q-80 106 -104 242q-8 57 -8 103q0 19 1 36z" />
<glyph unicode="R" horiz-adv-x="833" d="M-123 868q0 37 41.5 79.5t83.5 68.5q18 10 64 10q60 0 105 -36.5t66 -90.5t21 -115l-2 -51q0 -6 4 -18h12q7 8 43 70t37 69q3 13 13 27q17 17 36 55q10 17 42 44.5t42 41.5q7 8 32.5 23.5t35.5 15.5q88 0 160.5 -71.5t72.5 -162.5q0 -19 -11.5 -50.5t-22.5 -47.5 q-5 -6 -27 -39q-55 -87 -326 -190l-4 -6l4 -5q11 -3 22.5 -8t19.5 -10t20 -14t17.5 -13.5t19.5 -16.5t18 -15q96 -87 117 -148q5 -13 16 -31q25 -44 49 -135q13 -46 27 -136t25 -132q5 -20 19 -53t17 -41q7 -22 17.5 -37.5t19.5 -22.5t28 -20.5t30 -22.5l2 -8 q-3 -16 -21 -16q-22 0 -49 22q-111 111 -168 230q-30 63 -58.5 167.5t-60.5 195.5t-80 155q-22 31 -68 53t-87 27q-6 1 -23 5.5t-22 4.5q-8 0 -8 -12q0 -20 -4 -41t-10 -47t-9 -41q-5 -31 -11 -93.5t-7 -68.5q-4 -39 -18.5 -112.5t-18.5 -104.5q-4 -28 -21.5 -38.5 t-48.5 -16.5q-26 0 -43 24q0 5 -2 15.5t-2 15.5q0 37 17 108t18 105q0 19 8 51q5 20 8.5 44t6.5 55.5t5 45.5q4 23 14.5 66t14.5 63q2 6 2 19q0 25 8.5 77t8.5 79q4 114 4 174q0 14 -3 28.5t-9.5 35t-8.5 28.5q-19 22 -28 31t-27.5 19.5t-38.5 10.5q-43 0 -91 -48t-48 -91 q0 -17 2 -29.5t10 -26.5t11 -19t18 -22.5t18 -21.5l-4 -10h-4q-10 0 -14 4q-64 53 -64 143zM246 530q0 -19 3 -22.5t21 -3.5v-2q76 12 178.5 46.5t139.5 74.5q6 13 28.5 35t39 51.5t16.5 72.5q0 46 -39 138t-76 92q-28 0 -65.5 -39.5t-80 -102.5t-49.5 -71q-45 -75 -45 -76 q-4 -17 -37.5 -82.5t-33.5 -110.5z" />
<glyph unicode="S" horiz-adv-x="794" d="M-41 109q0 76 58.5 154.5t129.5 78.5q62 0 62 -25q0 -11 -11.5 -23t-23.5 -15q-48 -11 -77 -62.5t-29 -105.5q0 -86 72.5 -165t154.5 -79q52 0 104 20q55 22 105.5 80t50.5 113q0 3 3 11t4 12.5t-1 9.5q0 6 2 18.5t2 18.5q0 47 -28.5 98t-64 88.5t-81 87t-67.5 82.5 q-1 3 -34 45t-36 45q-54 54 -54 164q0 26 3 55q2 22 7.5 43.5t15.5 44t17.5 38t23 39.5t21.5 33.5t24.5 35.5t21.5 30q26 36 96 78.5t109 42.5q68 0 106.5 -40.5t38.5 -110.5q0 -85 -63.5 -171.5t-143.5 -86.5q-43 0 -43 24q0 39 49 39t89 72.5t40 128.5q0 33 -27 58.5 t-59 25.5q-59 0 -124 -95.5t-74 -162.5q-4 -28 -4 -41q0 -57 26 -99q3 -6 18 -32.5t27 -46t21 -29.5q29 -33 53 -68.5t51 -79.5t47 -73q41 -62 51 -82q23 -45 23 -135q0 -76 -8 -125q-17 -105 -110 -184t-199 -79q-52 0 -123.5 21.5t-135.5 65.5t-77 96q-3 14 -11 37.5 t-13 43t-5 38.5z" />
<glyph unicode="T" horiz-adv-x="563" d="M-354 1149q0 21 14.5 49.5t32.5 28.5q9 0 17.5 -7.5t8.5 -17.5q0 -7 -9 -29.5t-9 -37.5q0 -41 43 -71t84 -30q115 0 197 25q27 8 43 10q50 6 227 53q43 11 138.5 37t151 39.5t137 26t150.5 12.5q21 0 43 -2.5t46 -14t24 -30.5q0 -8 -5 -15.5t-13 -7.5q-5 0 -38 7.5 t-52 7.5q-39 0 -72 -1.5t-67 -5.5t-55.5 -7t-58 -11t-54 -12.5t-65 -16.5t-69.5 -18q-2 0 -24 -3.5t-33 -8.5q-27 -11 -27 -144q0 -6 -4 -18q-12 -38 -12 -158h-2q4 -46 4 -67q0 -15 -2 -44t-2 -44v-322q0 -17 -4 -48t-4 -48q0 -50 -1 -149.5t-1 -149.5q0 -19 -38 -44.5 t-59 -25.5q-28 0 -28 39q0 25 6 49q-4 12 -4 37q0 28 3 82t3 80q0 48 4 143.5t4 143.5q0 32 1 96t1 96q0 17 3 52.5t3 54.5l2 120q0 16 4 49.5t4 51.5q0 17 4.5 49t4.5 47q0 6 -4 11t-9 5q-12 0 -129 -26q-214 -49 -338 -49q-33 0 -55.5 11t-34 25.5t-18 42t-7.5 48t-1 55.5 z" />
<glyph unicode="U" horiz-adv-x="940" d="M-289 885q0 50 59.5 88.5t114.5 48.5q64 10 168 10q40 0 67 27.5t56 27.5q23 0 43.5 -9.5t20.5 -30.5q0 -15 -14.5 -54.5t-16.5 -56.5q-3 -23 -11 -80.5t-12 -87.5q-3 -19 -12.5 -65t-15 -79.5t-5 -64.5t-11 -94t-11.5 -94v-82t3.5 -86.5t11 -102.5t23 -81t38.5 -70 q15 -15 24 -15q4 0 19 5q89 39 160 194q1 3 3 8t3.5 8t3.5 5q46 52 127.5 259.5t101.5 299.5q4 22 20 63t21 60q12 13 27.5 63t15.5 70q0 9 29 19.5t43 10.5q8 0 12.5 -4t6 -11.5t2 -13t-0.5 -16t0 -12.5q0 -29 -4 -43q-4 -16 -4 -106q0 -29 -7 -88t-7 -87q0 -27 -9 -124 t-14 -111v-10v-8q0 -37 -8 -103q-8 -72 -8 -106q0 -20 3 -56.5t3 -54.5q0 -31 10 -58.5t28.5 -59.5t25.5 -50q11 -31 22.5 -45t40.5 -29q4 -2 12.5 -2.5t15.5 -0.5t12 -3.5t5 -11.5q0 -12 -13.5 -18.5t-25.5 -6.5q-54 0 -127 103q-126 179 -129 358q0 17 -3 52.5t-3 54.5v51 v45q0 25 8.5 85.5t14.5 88.5l-2 6l-7 -4q-7 -14 -14 -43.5t-14 -44.5q-14 -32 -49 -117.5t-39 -101.5t-20.5 -43t-20.5 -41q-8 -25 -33 -66t-29 -49q-37 -75 -97.5 -142t-121.5 -67q-201 0 -201 381q0 28 4.5 82.5t4.5 81.5q0 29 9.5 87t10.5 65q25 207 43 301q2 7 8.5 33 t12.5 48t6 25q0 10 -13 10q-12 0 -34.5 -4t-34.5 -4q-10 0 -31 1t-31 1q-26 0 -60 -6.5t-70.5 -19t-61.5 -36.5t-25 -54q0 -14 15.5 -34t15.5 -24q0 -3 -3.5 -6.5t-6.5 -3.5q-21 0 -42.5 26.5t-21.5 49.5z" />
<glyph unicode="V" horiz-adv-x="858" d="M-164 860q0 30 42 59.5t90.5 46t110 35.5t75.5 25q102 41 147 82q16 16 64 16q17 0 28 -14.5t14 -31t3 -34.5v-167v-197v-354q0 -35 3 -144t3 -157l69 139q76 145 127 262q18 19 50.5 95.5t67.5 170.5t46 119q83 188 213 301q69 57 132.5 91t129.5 34q62 0 104 -35.5 t42 -97.5q0 -40 -19.5 -63t-56.5 -23q-33 0 -33 12q0 19 9 25t26 6q16 0 24.5 17t8.5 34q0 33 -40 58.5t-73 25.5q-51 0 -88 -18q-122 -61 -190 -146q-54 -69 -74 -119q-6 -12 -8 -14q-33 -42 -66.5 -110.5t-72.5 -165t-52 -125.5q-11 -24 -39.5 -78t-40.5 -84 q-11 -28 -33.5 -79.5t-31.5 -72.5q-3 -5 -10.5 -14t-10.5 -14q-22 -38 -39 -86q-16 -42 -59.5 -121.5t-60.5 -124.5q-9 -17 -21 -17q-29 0 -39 17v4q0 8 -1 27t-1 32q-2 30 -9 91.5t-9 103.5q-2 35 -2 88v28q1 23 1 51q2 47 1 68q0 72 -3.5 176.5t-4.5 155.5q-1 10 -1 112 v58q0 47 1 53q0 14 4 70q3 38 3 63q0 13 -1 23v29q-30 -20 -95 -46t-102 -34q-24 -6 -67.5 -23.5t-49.5 -19.5q-27 -9 -46.5 -27t-18.5 -43l2 -14q16 -33 43.5 -59.5t56.5 -26.5q13 0 25 16t12 29q5 16 14 16q17 0 17 -12q0 -36 -22 -61t-56 -25q-56 0 -109 39t-53 94z" />
<glyph unicode="W" horiz-adv-x="1124" d="M-121 999q0 15 10.5 47t20.5 39q6 6 20 7t17 2q7 1 21.5 6.5t23.5 5.5q19 0 59.5 -3t61.5 -3q15 0 43 6t43 6q61 0 61 -70q0 -86 -12 -257t-12 -257q0 -51 -5.5 -153.5t-5.5 -153.5q0 -37 9.5 -90.5t29.5 -54.5l8 4q2 1 4 8.5t4 17t3 11.5q2 4 12 23.5t14 31.5 q12 13 37 81t33 99q6 31 20 56q8 15 20.5 51t26.5 80.5t19 58.5q4 10 8.5 41.5t13.5 46.5q7 10 7 23q0 17 8.5 34t9.5 25q3 42 14 76q5 18 30.5 39.5t47.5 21.5q15 0 29.5 -14t17.5 -29q3 -24 3 -71t1 -58q9 -99 9 -268q0 -15 -4.5 -45t-4.5 -45q0 -29 1 -88.5t1 -89.5 q0 -20 2.5 -42t7.5 -51t7 -41q2 -16 4.5 -48.5t5 -50t14.5 -39.5t33 -36q27 -18 39 -18q27 0 61 104.5t54 199.5t28 149q1 6 11 20q6 10 20 78t14 84v14q4 21 22.5 98.5t20.5 120.5q11 25 24.5 143.5t25.5 133.5q19 26 47 26q22 0 22 -22q0 -19 -20 -50t-23 -38 q-9 -19 -17.5 -73t-17.5 -130t-10 -82q-18 -124 -28 -168q-1 -5 -8 -22.5t-7 -26.5q0 -7 -1 -20t-1 -19q0 -9 -3 -24t-7.5 -32.5t-5.5 -23.5q-5 -24 -13 -82t-16 -88q-12 -41 -18 -78q-7 -9 -33.5 -72.5t-34.5 -78.5q-3 -4 -11.5 -13t-13.5 -16.5t-6 -15.5q-3 -5 -12 -21.5 t-14 -23.5t-16.5 -14t-26.5 -7q-21 0 -56.5 24t-56.5 46q-26 27 -46.5 82t-34 134t-19 120.5t-13.5 109.5q-1 6 -1.5 21t-1.5 25.5t-5 19.5v109q0 24 -10 102l-4 4l-6 -4q-18 -50 -49 -147t-51.5 -157.5t-55.5 -140.5t-74 -143q-11 -17 -36.5 -32t-45.5 -15q-21 0 -35.5 37 t-20 94t-7.5 94.5t-2 67.5l2 125q0 44 4 132.5t4 133.5q0 12 2 38t2 40q0 45 6 177t11 144v11q0 16 -17 16q-41 4 -129 4q-34 0 -60 -19t-26 -53q0 -16 7 -24t15 -8t23 2t21 2q12 0 12 -10q0 -14 -14 -24.5t-29 -10.5q-31 0 -55.5 20t-24.5 51z" />
<glyph unicode="X" horiz-adv-x="825" d="M-168 -223q0 36 14 65t36.5 60t31.5 51q31 64 155.5 181.5t237.5 211.5q9 7 34 24t36 27q22 18 22 31t-24 82t-27 80q-2 7 -8 18t-8 15q-8 16 -34 74.5t-48.5 98t-48.5 60.5q-11 9 -29 41q-31 53 -84 84t-113 31q-16 0 -27.5 -5.5t-18 -18.5t-10 -22.5t-7.5 -29t-6 -27.5 l-6 -4l-9 6q-4 9 -4 72v6q0 29 35 48t70 24.5t65 5.5q38 0 76 -12q110 -31 177 -91t104 -167q4 -14 18 -58.5t21.5 -67t20 -57t24.5 -59.5l3 -5q3 -6 5 -7.5t6 -1.5q16 0 38.5 23t48.5 65t44.5 74t42 77.5t25.5 48.5q46 87 51 148q13 65 18 65q11 0 21 -12.5t10 -23.5 q0 -74 -78.5 -241.5t-134.5 -221.5q-3 -3 -15.5 -15t-19.5 -19.5t-16.5 -18.5t-14 -21.5t-4.5 -19.5q0 -5 3 -15.5t4 -13.5q24 -63 49 -162q2 -7 8 -21.5t8 -21.5q5 -15 28.5 -82.5t32 -90.5t30.5 -79.5t37.5 -88t39.5 -75t49 -78.5q20 -28 62 -28q26 0 59.5 27t46.5 32 l10 -2l4 -8q-39 -107 -139 -107q-24 0 -48 11.5t-47 35t-41.5 45.5t-40 58t-33 56.5t-31 57t-23.5 44.5q-11 21 -28 65.5t-23 57.5q-25 49 -27 71q-20 32 -43.5 108.5t-38.5 104.5q-6 12 -20 12q-27 0 -179 -138t-194 -185q-98 -109 -147 -213q-4 -8 -6 -28t-10 -31t-25 -11 q-23 0 -23 21z" />
<glyph unicode="Y" horiz-adv-x="1007" d="M-100 758q0 13 10.5 24.5t23.5 16.5q77 36 233.5 67t215.5 52q104 36 121 36q22 0 22 -26q0 -13 -44 -125.5t-44 -159.5q0 -37 -30.5 -149t-30.5 -164q0 -21 24 -21q34 0 48 25q14 24 29 39t44 37q17 11 52.5 47.5t84.5 90t54 58.5q12 10 20 33q6 6 92 135q4 5 13.5 15 t13.5 15t9 14.5t9 21.5q3 11 37.5 62.5t38.5 51.5q11 0 23 -9t12 -19q0 -12 -24.5 -77t-28.5 -83q-3 -17 -15 -54t-14 -57q-2 -16 -5 -46.5t-5 -45.5q-3 -31 -11.5 -84.5t-14 -98t-5.5 -85.5v-189q0 -7 3 -21.5t3 -21.5q0 -89 -14 -172q-4 -22 -21.5 -61t-21.5 -59 q-19 -25 -52.5 -80t-64 -89.5t-76.5 -58.5q-72 -35 -118 -35q-12 0 -36 5.5t-36 5.5q-28 1 -53.5 31t-38.5 66.5t-13 64.5q0 70 27 147.5t79.5 143.5t115.5 89q12 4 34 15t39.5 16.5t36.5 5.5q21 0 46.5 -8.5t25.5 -26.5q0 -6 -7 -10t-14 -4q-8 0 -26.5 8.5t-30.5 8.5 q-15 0 -29 -7q-117 -42 -163.5 -132t-46.5 -226q0 -60 28 -103.5t84 -43.5q13 0 37 8q223 93 223 438q0 29 -4 85t-4 83q0 12 -3 33.5t-3 31.5q4 12 4.5 36t-1 54.5t-1.5 38.5q0 17 2 48.5t2 46.5q0 35 9 85t9 66q0 9 -6 15q-20 -18 -84 -97q-12 -5 -26.5 -23t-18.5 -22 q-21 -19 -65.5 -62.5t-69.5 -64.5q-11 -9 -46.5 -46t-63.5 -54.5t-60 -17.5q-17 0 -29 6q-30 27 -42.5 57.5t-12.5 73.5q0 24 7.5 63.5t22 91t25.5 88.5t28.5 93t21.5 67q4 12 22 49.5t19 44.5l-13 2q-11 -3 -39 -12t-43.5 -13.5t-39 -10t-42.5 -7.5q-40 -3 -129 -23 t-141 -36q-22 -11 -22 -22q0 -10 9.5 -15.5t20.5 -5.5q6 0 18.5 3t18.5 3q25 0 25 -16q-1 -5 -15 -19q-40 -10 -51 -10q-27 0 -47 21t-20 49z" />
<glyph unicode="Z" horiz-adv-x="868" d="M-33 -88q0 12 32 51t79.5 90.5t48.5 52.5q73 83 137.5 181.5t144 239t115.5 198.5q12 19 60 100t83 130.5t76 88.5l2 7l-6 4q-120 -21 -237 -21q-1 0 -49 -6q-131 -8 -295 -8q-34 0 -61 -17t-27 -49q0 -16 8 -26t23 -20.5t22 -18.5v-12l-6 -7h-19q-27 -1 -44 26.5 t-17 57.5q0 38 24 88q6 13 24 20.5t44.5 10t47.5 2.5t49 -1t34 -1q12 0 33 3t31 3q21 0 65.5 -1t67.5 -1q33 0 97 5t97 5q22 0 62.5 7t52.5 8q26 3 63.5 28t61.5 25q41 0 41 -39q0 -19 -17 -49q-22 -32 -93 -123.5t-99 -138.5q-18 -31 -40 -65.5t-50 -76.5t-43 -65 q-9 -15 -76 -141q-10 -19 -14 -25q-21 -30 -54 -90.5t-49 -85.5q-2 -4 -27.5 -46.5t-46 -79t-20.5 -40.5l6 -8q10 -4 41 -10.5t47 -14.5q13 -6 102 -53t160.5 -81t92.5 -34q23 0 84 27q17 7 31.5 35.5t25.5 28.5l10 -7q6 -9 6 -18q0 -25 -35 -67t-59 -48q-38 -10 -70 -10 q-28 0 -109.5 32t-107.5 52q-18 13 -48.5 36.5t-41.5 30.5t-34 20.5t-41 17t-46 7t-65 3.5q-29 0 -63.5 -11t-50 -19t-58.5 -30q-17 -8 -43.5 -36t-42.5 -37h-4q-23 0 -23 16z" />
<glyph unicode="[" horiz-adv-x="344" d="M35 264q2 69 1.5 188.5t0.5 188.5q0 46 4 139.5t4 139.5q0 20 -1.5 81t-0.5 95q2 30 14 92q28 16 54 16q33 0 83.5 -11.5t65.5 -29.5l-4 -12q-6 -4 -20 -4q-9 0 -28 -15.5t-28 -15.5q-10 0 -22 -6q-23 -26 -23 -57l-14 -287q-3 -70 0 -208.5t0 -207.5l-12 -272 q-8 -161 0 -242q12 -4 36 -4q28 0 84 -6t86 -6h29q-32 -28 -43 -33q-27 -14 -73 -14t-83.5 -6.5t-58.5 -36.5q-26 6 -38.5 24.5t-11.5 41.5t1 48q3 67 -0.5 214t-1.5 206z" />
<glyph unicode="\" horiz-adv-x="581" d="M71 1207.5q0 14.5 3 29t11 22.5t21 9q22 2 40 -22.5t30 -68.5t20 -84t15 -88.5t10 -62.5q37 -170 108 -482t97 -427q6 -29 9 -57t2 -57.5t-12 -47t-32 -16.5q-24 3 -37 26q-11 17 -16.5 47t-9 66.5t-6.5 52.5q-25 112 -76.5 337t-75.5 337q-13 59 -39.5 175t-38.5 175 q-2 8 -6.5 29.5t-7.5 36t-6 35.5t-3 35.5z" />
<glyph unicode="]" horiz-adv-x="344" d="M-51 -168h28q30 0 86 6t84 6q27 0 37 4q9 94 2 242l-12 272q-4 73 -1.5 208t-0.5 208l-12 287q-3 34 -23 57q-12 6 -22 6t-29 15.5t-29 15.5q-14 0 -20 4l-2 13q15 18 65 29.5t84 11.5q22 0 52 -17q11 -42 14 -92q1 -34 -0.5 -95t-1.5 -81q1 -46 5 -139.5t5 -139.5 q0 -42 -1 -118.5t-1 -139.5t2 -119q2 -59 -1.5 -205.5t-0.5 -213.5q0 -25 1 -48t-11 -42t-37 -25q-21 30 -59 36.5t-84.5 6.5t-73.5 14q-14 8 -43 33z" />
<glyph unicode="^" horiz-adv-x="485" d="M57 1065v6q5 8 31 29q46 33 84 84q5 7 13 14.5t12.5 14.5t9.5 18q3 6 22 12q13 -9 15 -14q16 -31 47 -53q31 -24 53 -56q9 -16 20 -20t35 0l7 -2q6 -34 -25 -39q-9 -2 -22 3.5t-28 14.5t-18 10q-31 14 -45 33q-2 3 -7.5 12t-9.5 15t-11 14t-14.5 13t-16.5 8 q-12 -16 -68.5 -70t-66.5 -57q-12 0 -17 10z" />
<glyph unicode="_" d="M29 68q0 3 6.5 6.5t11.5 3.5h457q5 -1 11 -4.5t14.5 -10t11.5 -8.5q-17 -26 -29 -30q-8 -4 -6 -8l-5 -1h-3q-33 -1 -117.5 -1t-189 0.5t-128.5 0.5q-16 11 -28 23q-10 10 -6 29z" />
<glyph unicode="`" horiz-adv-x="200" d="M-2 1196q-23 42 25 45q41 0 65 -24q26 -32 10 -48q18 -58 58 -110l-15 -12q-12 24 -55.5 59t-52.5 45q-7 3 -13.5 10.5t-13.5 20t-8 14.5z" />
<glyph unicode="a" horiz-adv-x="622" d="M-31 207q0 73 28 147.5t85.5 129.5t130.5 55q37 0 61.5 -24.5t49.5 -68.5l6 -4l4 7q1 4 2.5 22t3.5 30.5t6 28t12 23.5t19 8q12 0 20.5 -8.5t8.5 -20.5q0 -26 -7.5 -79t-7.5 -80q0 -64 13.5 -180.5t35.5 -116.5q31 0 121.5 156.5t106.5 211.5q2 3 9.5 13.5t13.5 15 t14 6.5q1 -3 4.5 -5t3.5 -5q0 -28 -25 -78.5t-62.5 -112t-45.5 -77.5q-101 -181 -154 -181q-20 0 -36 11.5t-26 33.5t-17.5 45.5t-12 54.5t-7 53.5t-5 50t-3.5 36.5q-11 -2 -38.5 -41.5t-58 -85.5t-76.5 -84.5t-91 -38.5q-30 0 -51 28.5t-28 61t-7 62.5zM88 193 q1 -3 2.5 -13t3.5 -18.5t5 -18t7.5 -15t10.5 -5.5q24 0 105 107t81 132q0 7 -3 19.5t-3 19.5q0 38 -19 68.5t-55 30.5q-9 0 -26 -17q-50 -63 -72.5 -128.5t-36.5 -161.5z" />
<glyph unicode="b" horiz-adv-x="561" d="M-39 143q0 125 12 172q4 28 4 41q1 16 17 144q17 148 30 203q45 184 146 184q33 0 51.5 -36t18.5 -75q0 -84 -9 -112q-14 -45 -40 -94.5t-45.5 -80t-57.5 -86.5q-16 -26 -16 -165q0 -174 16 -240q14 -53 70 -53q19 0 44.5 8.5t35.5 21.5q28 35 56 94.5t28 96.5 q0 1 -23 30t-23 50q0 29 15.5 62.5t40.5 33.5q15 0 27 -11t12 -26q0 -106 24 -106q32 0 61.5 21.5t50.5 52.5t38.5 61.5t31.5 52t23 21.5q6 0 6 -11q0 -21 -39 -86l-24.5 -49t-38 -62.5t-43.5 -31.5q-8 -3 -33.5 -7.5t-43.5 -11.5t-22 -18q-14 -53 -52 -116.5t-77 -94.5 q-13 -12 -34 -17t-29 -9q-12 -9 -31 -9q-17 0 -39 11q-4 2 -18.5 6.5t-20.5 9.5q-40 30 -70 103t-30 128zM90 508l4 -10l10 4q53 72 73.5 123t27.5 139h-2q0 16 -6.5 43t-16.5 27q-23 0 -55.5 -138t-34.5 -188zM317 279q0 -2 3.5 -13.5t3.5 -13.5l6 -4l2 4l-8 35l-5 2l-2 -2 v-8z" />
<glyph unicode="c" horiz-adv-x="503" d="M-35 246q0 30 8 92q15 84 85 167t147 83q48 0 86.5 -32t38.5 -81q0 -20 -15 -20q-9 0 -15 13.5t-10 30.5t-17.5 30.5t-34.5 13.5q-33 0 -63.5 -46.5t-50 -110t-31 -122.5t-11.5 -90q0 -26 32.5 -60t57.5 -34q65 0 188 129q11 12 40.5 37.5t43.5 42.5q13 15 42.5 40 t43.5 42q8 10 20.5 39.5t26.5 50t31 22.5l6 2q13 0 13 -12q0 -14 -33.5 -73t-48.5 -78q-9 -14 -36 -31t-36 -33q-13 -23 -47.5 -53.5t-44.5 -42.5q-39 -49 -104.5 -90t-120.5 -41q-88 0 -139.5 61.5t-51.5 153.5z" />
<glyph unicode="d" horiz-adv-x="798" d="M-31 270q0 58 26.5 137t79 144t111.5 65q25 0 56.5 -12.5t44.5 -30.5l-4 -14l-15 -2q-30 27 -69 27t-91.5 -155t-52.5 -210q0 -72 54 -72q13 0 34 7q40 15 97 107.5t57 139.5q0 13 -2 37t-2 37q0 21 3 62t3 61q0 12 -2 33t-2 33q0 43 8 89.5t23 106t20 86.5 q15 69 52.5 135t90.5 101q24 16 43 16q35 0 51.5 -41t16.5 -84q0 -177 -141 -502q-3 -8 -19.5 -58.5t-31.5 -74.5q-11 -22 -11 -39q0 -53 8.5 -171t18.5 -136q26 -47 72 -47q40 0 90.5 45.5t96.5 110t88.5 129t78.5 109.5q35 44 52 44h1h4q-2 -24 -25.5 -66.5t-46 -75 t-61 -83.5t-43.5 -59q-42 -59 -79 -98t-87 -70q-6 -3 -21.5 -12.5t-24.5 -14.5t-23 -11.5t-26 -9.5t-24 -3q-27 0 -49 11.5t-35.5 27t-23 44.5t-14 49t-7 57.5t-2.5 52.5v50v19q-20 -12 -39.5 -39t-35.5 -55t-36.5 -54.5t-51 -43.5t-70.5 -17q-113 0 -113 188zM379 535 q0 -13 2 -17h10q11 13 57.5 130.5t61.5 160.5q9 25 29 126.5t20 125.5q0 20 -6 41.5t-21 21.5q-6 0 -18 -12q-10 -17 -16.5 -39.5t-11.5 -50t-9 -41.5q-98 -304 -98 -446z" />
<glyph unicode="e" horiz-adv-x="546" d="M-4 309v7q0 24 11 68q13 50 32 87q28 54 82.5 100.5t107.5 46.5q25 0 42.5 -17.5t17.5 -43.5q0 -54 -44 -107t-100 -92q-3 -3 -9 -8t-10 -8.5t-7.5 -9t-3.5 -10.5q0 -2 -0.5 -20.5t-0.5 -31.5t1.5 -36t4 -40t8 -37.5t13.5 -33.5t20.5 -23t28.5 -12h4q52 0 186 134 q140 140 208 229q12 8 22 8q6 0 6 -10q0 -18 -10 -33.5t-33.5 -37.5t-25.5 -24q-43 -49 -125 -143q-56 -61 -123 -102q-13 -9 -16 -13q-22 -20 -66.5 -42.5t-69.5 -22.5q-36 0 -63.5 20t-43 48t-25.5 70t-13.5 72t-5.5 68zM147 408q24 6 66.5 57t42.5 74v20q0 19 -14 19 q-27 0 -61 -63t-34 -95v-12z" />
<glyph unicode="f" horiz-adv-x="663" d="M-4 -37q1 17 2 43t2 43q10 215 10 223q0 92 16 237.5t40 213.5q29 82 83 192t97 134q46 24 86 24q28 0 56 -27t28 -53q0 -11 -5 -33t-5 -34q0 -16 -6 -36t-7 -26q-6 -25 -20 -90t-25 -110q-37 -137 -85.5 -264t-86.5 -183q-5 -8 -19 -26t-21 -32t-7 -30q0 -61 -13 -174 q-9 -68 -9 -123q0 -37 4 -68q7 -63 36 -170q4 -17 13.5 -34t23.5 -36.5t21 -31.5q12 -21 35 -24l16 4q48 41 65.5 98t26.5 151q2 27 2 51q0 37 -4 66q-8 50 -33 113q-14 38 -47 85t-58.5 78t-25.5 33q0 14 15 19q21 7 129 32.5t153 49.5q24 12 80.5 29t81.5 38q6 5 25 27 t37 38.5t30 16.5q15 0 15 -12q0 -35 -47.5 -78.5t-96.5 -72t-94 -48.5q-56 -24 -113 -36q-8 -2 -32.5 -2t-42 -4t-21.5 -17q0 -2 -1 -6t-1 -6q0 -7 48 -99.5t50 -111.5q5 -37 12 -81.5t9 -60.5t0.5 -43t-8.5 -61q-14 -59 -32.5 -109t-47.5 -89.5t-60 -39.5t-52 7.5t-30 15.5 t-26 29t-27 32q-10 10 -19 22t-15 21.5t-13.5 26t-11 24.5t-12 29t-11.5 29q-39 97 -53 219q-4 35 -4 88zM127 328q0 -12 10 -19q6 1 10.5 6t6.5 9t5.5 12t4.5 10q3 6 18 33.5t22 41.5t21 43t23 50.5t19.5 50.5t17.5 56t11 52t8 55.5t7 51.5q5 24 16.5 76t17 82.5t5.5 46.5 q0 37 -24 37q-53 0 -95 -92t-63 -219.5t-31 -229.5t-10 -153z" />
<glyph unicode="g" horiz-adv-x="688" d="M-756 -369q-1 10 -1 20q0 53 23 103q27 58 79 94q12 7 37 19.5t32 15.5q32 4 51 4h5q73 0 144 -27q74 -28 161 -75t137 -66q15 27 27 46t33 45.5t46 40.5t52 14q8 0 10 -2q7 -4 34 -16.5t40.5 -20t27.5 -24.5t15 -38v-7q0 -44 -38 -69q-41 -28 -96 -28q-70 0 -83 2l-7 -4 q0 -5 -8 -29q-6 -13 -8 -20.5t-3 -18.5t-3 -22q2 -5 3.5 -19.5t4.5 -21.5q18 -55 58 -87q39 -32 95 -32h3q74 0 133 56t92 130q4 11 9 44t13 47q6 10 10.5 20.5t8 23.5t5.5 21.5t4.5 25t3 22.5t3 25.5t2.5 22.5q2 12 10 37.5t9 40.5q12 120 12 201v31q-5 15 -6 50v19 q0 27 2 58q1 41 0 53v4l-4 8l-8 -2q-48 -53 -52 -59q-19 -28 -69 -65.5t-57 -43.5q-28 -26 -70.5 -45t-79.5 -20q-24 0 -42 16t-28 42t-15 50t-7 49v14q0 95 61 205q13 24 42 46t48 31t58 26q15 6 26 6q29 0 74.5 -41t46.5 -70q2 -17 -10 -34l-10 8q-14 39 -35.5 66 t-54.5 26q-18 0 -27 -12q-104 -107 -104 -239v-15q3 -47 27 -64.5t48 -17.5q9 0 51 24.5t58 36.5q17 14 44.5 49.5t45.5 49.5q44 35 66 112q21 82 38 117q16 27 29 27q19 0 30 -15q13 -18 13 -38q0 -23 -29 -154q-8 -38 -11 -79.5t-3 -108.5v-81q-12 -354 -84 -528 q-4 -8 -16.5 -28t-16.5 -31q-16 -46 -34 -62q-3 -3 -12 -9t-11 -11q-22 -33 -78.5 -70t-95.5 -37q-6 0 -18.5 -2t-18.5 -2q-32 0 -81.5 7t-49.5 22q-36 14 -73 57t-40 78q-2 30 -2 52t2 36q1 10 10.5 27t8.5 24v8q-11 3 -22 7.5t-23.5 11.5t-19.5 11t-22 14l-18 12 q-153 98 -256 98h-4q-63 0 -90 -10q-53 -19 -93 -77q-36 -54 -36 -104v-8q3 -44 42.5 -91.5t86.5 -47.5q26 0 41 9t14 32v10q0 49 39 49q37 0 41 -49v-7q0 -43 -36 -67q-40 -26 -93 -26h-3q-84 0 -144 55q-61 55 -66 133zM-14 -301q16 -4 45 -4q34 0 64.5 14.5t29.5 42.5 q-3 35 -35 35q-20 0 -43 -18q-31 -8 -61 -70z" />
<glyph unicode="h" horiz-adv-x="829" d="M23 496q0 26 2 77t2 76q0 45 0.5 66t6 68t15.5 73.5t32 53.5t54 36q3 -2 32 -12.5t38 -26.5q26 -46 26 -84q0 -7 -2 -20.5t-2 -20.5v-26q2 -18 -10 -47q-10 -26 -23.5 -86t-17.5 -70q-1 -3 -17.5 -30.5t-22 -38.5t-12.5 -32t-7 -38q0 -89 30 -344l9 -9l4 5 q7 13 36.5 73.5t55 107.5t59.5 102t68 86.5t63 31.5q31 0 59.5 -38.5t28.5 -72.5q0 -38 -16 -115t-16 -118q0 -20 5 -58.5t5 -56.5q0 -5 -1.5 -17.5t-1 -19t5.5 -12.5t17 -6q30 0 107.5 108t105.5 164q11 24 28 56t42 75.5t49.5 71.5t40.5 27h4v-6q0 -2 0.5 -4.5t-0.5 -4.5 q-1 -6 -3 -12.5t-3 -9.5q-11 -40 -29.5 -76.5t-48 -84.5t-41.5 -69q-27 -48 -60 -102.5t-81.5 -120.5t-75.5 -78q-16 -8 -39 -8q-74 0 -102.5 46t-28.5 126q0 114 17 264q1 3 7.5 26.5t6.5 37.5q0 9 -3.5 22t-8.5 13q-38 0 -242 -416q-10 -24 -18 -72q-5 -26 -21 -26 q-6 0 -10 4q-70 70 -70 174q0 70 -14 209t-14 209zM109 535q0 -8 8 -11q21 20 42 117.5t21 140.5q0 107 -24 107q-10 0 -19 -32t-15 -78.5t-9 -78.5t-4 -53v-112z" />
<glyph unicode="i" horiz-adv-x="385" d="M10 235q0 21 1 50t1 39q0 13 7.5 43.5t7.5 46.5q0 18 -2 26q7 14 21 27.5t28 13.5q22 0 35.5 -22t13.5 -43l-2 -86q-1 -24 -9 -90q-8 -59 -8 -93v-8q4 -28 27 -28q16 0 63.5 51.5t95.5 114t95.5 114t63.5 51.5l2 -2q0 -8 -40 -66.5t-95 -135.5l-56 -76q-42 -54 -92 -90 q-42 -25 -68 -25q-23 0 -40 11t-26 31.5t-15 42t-7.5 52t-1.5 51.5zM33 584q0 22 14.5 33.5t36.5 11.5q14 0 24.5 -10t10.5 -23q0 -17 -18 -36t-33 -19q-35 0 -35 43z" />
<glyph unicode="j" horiz-adv-x="331" d="M-242 -506q0 32 11.5 57t33 55.5t31.5 51.5l55 123q44 96 60 117q9 11 28 53t23 49q18 31 21.5 222.5t17.5 219.5q13 30 55 47q3 3 6 3q12 0 22.5 -17t10.5 -31t-4 -38q-20 -137 -20 -252q0 -3 1 -10.5t1 -10.5q65 49 114 121q17 26 66.5 80t68.5 88q39 63 56 63 q2 0 6 -4q4 -8 4 -12q0 -28 -18 -64t-52.5 -77t-61.5 -70.5t-67.5 -70l-48.5 -48.5q-9 -9 -31.5 -40.5t-25.5 -39.5q-3 -5 -9 -113t-6 -122q0 -8 -2 -41t-2 -41q0 -68 -2 -117q-4 -76 -17.5 -128t-51.5 -89l-19.5 -19.5t-22 -20.5t-20.5 -15.5t-25.5 -13t-27.5 -3.5 q-64 0 -111 46t-47 112zM-178 -502q0 -33 26 -63.5t58 -30.5q8 0 20 4q27 12 47.5 60t26.5 88q12 71 12 227q0 58 -2 129v22q-27 -13 -107.5 -205t-80.5 -231zM29 588q0 26 15 40.5t40 14.5q15 0 26 -13t11 -28q0 -18 -18.5 -41.5t-36.5 -23.5q-37 0 -37 51z" />
<glyph unicode="k" horiz-adv-x="729" d="M-29 6q0 155 31 313q4 23 18.5 73t18.5 77q5 25 19 99.5t22.5 111t25.5 95t40.5 103.5t54.5 85q34 42 65.5 66t71.5 24q47 0 73.5 -44.5t26.5 -95.5q0 -36 -5 -64t-11.5 -47t-22.5 -59q-28 -74 -71 -133q-19 -27 -77 -85t-100 -111t-47 -95q-14 -86 -14 -116 q0 -6 1 -18.5t1 -18.5l10 -6q15 9 38.5 41.5t49.5 71t57 76t70.5 62.5t79.5 25q32 0 55 -25.5t23 -58.5q0 -74 -162 -190q-8 -6 -30.5 -12.5t-38 -14.5t-15.5 -22q0 -9 2 -13q1 -3 14.5 -8.5t30.5 -11.5t21 -8q19 -10 46.5 -33.5t53 -36t60.5 -12.5q26 0 48 8t36.5 19 t30.5 31t25 35t23.5 40.5t22.5 38.5q78 126 86 141q8 14 23 56.5t36 64.5q2 2 8.5 11t13 14.5t11.5 5.5t9 -4.5t4 -8.5q0 -6 -8 -21.5t-9 -19.5q-25 -83 -119 -229q-11 -17 -36.5 -63.5t-43.5 -69.5q-3 -4 -18.5 -25.5t-22.5 -29t-21 -21t-28.5 -18.5t-31.5 -6l-13 -2h-7 q-40 0 -90 20q-54 22 -95 50t-85.5 51.5t-72.5 23.5q-33 0 -46.5 -26t-13 -58t-8.5 -58t-34 -26q-29 0 -44.5 30t-15.5 62zM129 487q0 -12 2 -18l10 -6q24 3 128 170.5t116 210.5q14 58 14 102q0 24 -17.5 42t-41.5 18q-12 0 -24 -8t-19.5 -16t-19 -23t-15.5 -19 q-16 -18 -27.5 -40t-16 -36t-12 -44t-11.5 -42q-18 -56 -42 -156.5t-24 -134.5zM141 129q3 0 9.5 -1t9.5 -1q15 0 28.5 7.5t29 21t24.5 18.5q133 95 145 197l-8 6q-4 4 -8 4q-5 0 -29 -12q-24 -9 -38.5 -22.5t-32 -40t-25.5 -36.5q-4 -4 -26.5 -28.5t-31.5 -35t-23.5 -30 t-23.5 -35.5v-12z" />
<glyph unicode="l" horiz-adv-x="440" d="M-23 436q0 118 46 315.5t104 270.5q19 22 61.5 42.5t69.5 20.5q25 0 43 -35.5t18 -64.5q0 -49 -56 -197.5t-89 -201.5q-13 -18 -47 -76.5t-37 -69.5q-10 -55 -10 -209q0 -124 10 -173q20 -92 80 -111h6q38 0 115.5 120t136 236.5t76.5 163.5q1 2 10 16l8 2l6 -4 q0 -2 1 -7t1 -7q0 -49 -110.5 -247.5t-163.5 -268.5q-14 -18 -39 -34.5t-45 -16.5q-24 0 -48 12.5t-39.5 26.5t-41.5 41q-18 20 -30.5 48t-18.5 51t-9 56.5t-3.5 50t0 46t0.5 30.5q0 28 -2.5 86t-2.5 88zM111 578l2 -9l6 2q37 63 89 183.5t52 165.5q0 103 -14 112l-13 -4 q-40 -50 -74.5 -195.5t-47.5 -254.5z" />
<glyph unicode="m" horiz-adv-x="1214" d="M23 479q0 22 47 43h2q30 0 56 -35q27 -36 32 -69l6 -6l10 4q11 17 49.5 89.5t68.5 123t76 96t87 45.5q8 0 22.5 4t22.5 4q21 0 39 -19.5t18 -41.5q0 -35 -6 -104.5t-6 -104.5q0 -9 -0.5 -30t-0.5 -34.5t1 -31t4 -31.5l6 -4l8 2q11 13 35 42.5t37.5 45t35 38t43.5 38.5 t46 28q9 5 22.5 16t25.5 18t28 7q22 0 34.5 -17t12.5 -42q0 -26 -13 -80q-5 -21 -9.5 -45.5t-7 -43t-4.5 -50t-3 -45t-1.5 -51t-0.5 -45v-49.5v-44q0 -31 11 -59.5t36 -28.5q34 0 82.5 59t91 132t98 147t99.5 96q14 7 16 7q8 0 8 -11q0 -21 -106.5 -174t-171.5 -239 q-17 -22 -60 -43t-69 -21q-30 0 -53 9.5t-37.5 23t-25 38t-15.5 43t-7.5 51.5t-3 50.5t-0.5 50.5v11q0 51 15.5 138.5t15.5 127.5q0 18 -12 18q-19 0 -64 -47t-77 -89t-54 -73q-12 -15 -27.5 -62.5t-36.5 -80.5t-55 -33q-22 0 -22 31q0 58 12 176t12 178q0 37 -9 101.5 t-25 64.5q-5 0 -15 -10q-71 -74 -128.5 -182.5t-92.5 -220.5q-37 -119 -44 -138q-3 -8 -34.5 -20t-42.5 -12q-7 0 -11.5 8.5t-6 23.5t-1.5 27t0.5 28.5t0.5 18.5q0 31 3 92t3 90q0 13 -4 33q-1 2 -1 8.5t-0.5 12.5t-2.5 6q-4 0 -4 -2q-8 16 -8 24z" />
<glyph unicode="n" horiz-adv-x="800" d="M14 14q0 15 5.5 42t5.5 40q0 36 7.5 102t8.5 97q2 61 2 188q18 9 25 9q28 0 48.5 -26.5t20.5 -55.5q0 -14 -9.5 -91.5t-12.5 -97.5q7 15 29 61t27.5 57t24 44t32 49.5t36.5 42.5t51 53q6 5 26 26t35 35t35 27t35 13q32 0 55 -43t23 -80q0 -27 -4.5 -56.5t-12.5 -66.5 t-11 -55q-23 -124 -23 -252q0 -53 51 -53q10 0 18.5 1t16.5 3.5t14 4t14 6.5l12 7.5t12.5 9.5t11.5 9.5t13 11.5t13 12q26 24 46.5 54.5t28.5 45t29 62t25 57.5q2 5 9.5 27.5t15 41.5t17 40.5t20 34t20.5 12.5q19 0 20 -14q0 -12 -13.5 -43.5t-14.5 -34.5q-5 -20 -14 -41.5 t-16.5 -36t-21 -38t-20.5 -36.5q-19 -39 -26 -53t-25 -46t-31.5 -48.5t-34.5 -38t-45 -37.5q-7 -5 -22.5 -16t-24.5 -16.5t-23 -11t-28 -5.5q-41 0 -70.5 27.5t-43.5 70.5t-20.5 83.5t-6.5 78.5q0 42 15 117.5t18 99.5q2 9 10 32t8 36q0 8 -8 20q-29 -1 -58.5 -18t-53 -39 t-50.5 -59.5t-44 -66t-39.5 -73.5t-31.5 -65t-26 -58q-3 -7 -16 -40.5t-25 -59t-17 -31.5q-17 -14 -32 -14t-15 26z" />
<glyph unicode="o" horiz-adv-x="546" d="M-23 272q0 30 6.5 66t19.5 74.5t38 64t57 25.5q16 0 27.5 -10t11.5 -27q0 -11 -8 -27q-33 -83 -33 -256q0 -40 6.5 -81.5t30 -81t60.5 -39.5q29 0 53.5 33.5t38 81.5t21 92t7.5 73q0 23 -18 23q-117 0 -117 90q0 16 13.5 28t34.5 17.5t38.5 7.5t32.5 2q25 0 40.5 -14 t21 -30t10.5 -30t10 -14q34 0 118 57.5t109 65.5l4 -4v-10q-7 -14 -18.5 -27.5t-29.5 -26t-31.5 -21.5t-38.5 -21t-35.5 -17t-38 -17t-31.5 -14q-16 -7 -21.5 -18t-5.5 -31q0 -34 -10.5 -84.5t-29 -104t-51.5 -91t-72 -37.5q-55 0 -99 33t-69.5 84.5t-38.5 107.5t-13 108z M223 352q0 -14 16 -25.5t29 -11.5q37 0 37 15q0 11 -10.5 32t-20.5 21q-15 0 -33 -9t-18 -22z" />
<glyph unicode="p" horiz-adv-x="659" d="M35 86q0 51 3 155t3 156q0 21 -3 62t-3 61q0 12 21.5 29.5t33.5 17.5q17 0 30 -24.5t13 -44.5l-6 -252l6 -8l4 6q4 10 12.5 29.5t14.5 35.5t10 31q8 34 22 72t36 78.5t52.5 67t63.5 26.5q15 0 33 -11q64 -46 91.5 -141t27.5 -196q0 -38 -4 -56l2 -10h10q43 31 95.5 108 t88 141t39.5 66h4q4 0 4 -22q0 -9 -6.5 -26t-7.5 -21q-7 -25 -21 -51.5t-27 -46.5t-37.5 -48t-37.5 -41.5t-42.5 -43.5t-37.5 -38q-77 -86 -118 -111q-30 -18 -52 -18q-29 0 -51 31.5t-22 61.5q0 40 28 57h15l4 -16l-2 -5q-13 -17 -13 -28q0 -23 13.5 -43.5t35.5 -20.5 q27 0 47.5 50t20.5 85q0 110 -25 189q-11 33 -38 78t-50 57l-10 6q-22 0 -78.5 -141t-62.5 -184q-3 -21 -12.5 -62t-12.5 -61q-18 -142 -35 -238q-2 -17 -7 -47.5t-8 -55.5t-3 -48q0 -2 0.5 -9.5t0.5 -12.5t-1.5 -11t-5 -9t-10.5 -3q-18 0 -21 16q-5 24 -6 55q-1 15 -1 32.5 t1 36.5q1 38 0 56q-1 28 -4.5 116t-3.5 136z" />
<glyph unicode="q" horiz-adv-x="528" d="M-20 193q0 54 15 115.5t43 119.5t76 96.5t105 38.5q45 0 66 -41v-10q0 -4 -4 -4t-19.5 14.5t-32.5 14.5t-39 -11q-5 -2 -12 -12.5t-14.5 -26.5t-13.5 -29.5t-13 -30t-8 -19.5q-37 -75 -37 -177q0 -18 6 -40.5t19 -22.5q26 0 53.5 27.5t45.5 59t39.5 73t29.5 53.5 q17 26 32.5 77.5t20.5 63.5q3 13 14 13q8 2 27 2q27 0 27 -64q0 -46 -4.5 -97.5t-13 -117.5t-11.5 -96q-2 -20 -13.5 -68t-11.5 -74q0 -30 -4 -94q-4 -51 -4 -84v-14l2 -21q0 5 7.5 15t8.5 12q8 15 15 41q11 32 37 82q16 25 35.5 74t32.5 90t32 101.5t25 78.5q2 4 11.5 44.5 t22 63.5t31.5 25v-39q0 -33 -113.5 -334.5t-144.5 -363.5q-2 -3 -10.5 -22t-17 -28t-21.5 -9q-31 0 -31 96q0 33 -2 98t-2 98q0 87 21 293q2 11 3 35t3 35q-14 -16 -39.5 -55t-49.5 -64t-57 -39q-10 -4 -32.5 -24.5t-47.5 -20.5q-42 0 -62.5 29t-20.5 74zM289 293v2v-2z" />
<glyph unicode="r" horiz-adv-x="514" d="M-51 494q0 11 3 22t9 26.5t8 22.5q36 27 41 27q21 0 37 -16.5t24 -36t15.5 -36t13.5 -16.5q22 0 64.5 17.5t66.5 17.5q28 0 44 -18t16 -47q0 -63 -33 -182.5t-33 -180.5q0 -16 5.5 -34.5t17.5 -18.5q5 0 53 31.5t59 40.5q60 53 128.5 153.5t84.5 120.5q2 2 5.5 8t7.5 9 t8 2h12v-21v-10q-2 -6 -2 -19q-3 -13 -11 -28t-15.5 -25t-20.5 -26t-18 -23q-59 -76 -164.5 -169t-163.5 -93q-38 0 -70 28t-32 66q0 58 39.5 165t39.5 163q0 51 -28 51q-9 0 -29 -4l-12.5 -12.5l-13 -13t-12.5 -11.5t-14 -11.5t-13.5 -9t-15.5 -8t-16 -4.5t-18 -2 q-26 0 -51 25q-16 31 -16 80zM-12 520q0 -34 39 -41l12 6q0 68 -23 68q-12 0 -20 -10.5t-8 -22.5z" />
<glyph unicode="s" horiz-adv-x="452" d="M-23 514q0 36 16 59.5t50 51.5q3 2 11 9.5t14.5 10.5t13.5 0q12 4 18 4q14 0 24.5 -19.5t10.5 -35.5q0 -1 -4 -26t-4 -27l-2 -6q0 -8 -3 -16.5t-3 -10.5q0 -3 23 -20t49.5 -36.5t31.5 -25.5q26 -26 39 -40.5t39.5 -48t40 -68t14.5 -70.5v-13q0 -40 -15 -82 q-18 -48 -36 -74t-51 -67q-5 -3 -15.5 -12t-15.5 -12q-3 -3 -10 -8q-23 -18 -34.5 -22.5t-45.5 -4.5q-71 0 -108 40.5t-37 112.5q0 45 23 76t67 31q14 0 38.5 -13.5t24.5 -25.5q0 -23 -28 -27l-9 4q-3 7 -12.5 14t-17.5 7q-39 0 -39 -55q0 -57 24.5 -91t77.5 -34 q42 0 85.5 49.5t43.5 95.5q0 68 -8 86q-27 65 -45 89q-10 13 -23 26q-23 23 -65 48.5t-71.5 43t-53 52t-23.5 81.5zM61 547q0 -9 19 -19l4 2q8 19 8 50q0 11 -8 22q-23 -27 -23 -55z" />
<glyph unicode="t" horiz-adv-x="442" d="M-137 698q0 9 6.5 18t15.5 9q8 0 39.5 -12.5t50.5 -12.5q20 0 35 5q43 7 45 22q3 22 7.5 41t7.5 28.5t12 32t12 31.5q4 8 4 14q6 29 32.5 50.5t55.5 21.5q25 0 25 -31q0 -22 -11.5 -61.5t-11.5 -58.5q0 -11 11 -11t73.5 33t137 65.5t116.5 32.5q14 0 25.5 -1.5t23.5 -9.5 t11 -21q-4 -5 -5 -11.5t-3 -9t-9 -2.5q-8 0 -26 5t-27 5q-34 0 -69 -12t-86 -39.5t-66 -34.5q-6 -3 -23.5 -10.5t-24.5 -11t-19.5 -11t-22.5 -16.5q-21 -7 -29 -21.5t-14 -41.5q-20 -85 -39.5 -271t-22.5 -206q-14 -128 -14 -195v-13.5v-15t1 -13t2.5 -13.5t5 -11t8 -10 t12 -5.5t16.5 -2.5q16 0 34.5 15t39 38.5t28.5 30.5q8 6 53.5 90t93.5 175.5t58 105.5q3 4 15 26t18.5 31.5t19.5 21.5t27 15q4 -4 4 -12q0 -12 -15.5 -38t-42 -65t-40.5 -65q-23 -42 -55 -114t-60 -120q-43 -78 -101 -135t-106 -57q-8 0 -15 2t-11.5 4t-11 8.5l-9 9 t-9.5 11.5t-9 12q-23 26 -33.5 55t-12 50t-1.5 64v15q0 201 53 561q-50 -20 -74 -20q-26 0 -66 21.5t-40 45.5z" />
<glyph unicode="u" horiz-adv-x="653" d="M0 279q0 34 13.5 122t25.5 101q49 28 72 28q15 0 28 -9t13 -25q0 -19 -10.5 -59t-12.5 -50q-23 -134 -23 -219q0 -24 19.5 -36.5t44.5 -12.5q20 0 32 8t25.5 30t18.5 29q61 82 96 197q6 16 13.5 52.5t16.5 65.5t21 44q1 2 5 6.5t5.5 6.5l4.5 6t5.5 5.5t6 4t6.5 3.5t7 2 t9 1q7 0 12 -19t5 -29q0 -15 -8.5 -40.5t-10.5 -36.5q-14 -177 -14 -277q0 -102 45 -102q12 0 18 2q24 3 75.5 90.5t102.5 180t70 104.5l2 -2q6 -6 6 -17q0 -39 -59.5 -136.5t-101.5 -147.5q-10 -12 -24.5 -40t-24.5 -40q-32 -35 -49 -42q-12 -5 -25 -5q-32 0 -56 23.5 t-36 59.5t-17.5 70t-5.5 64q0 23 -2 30q-16 -8 -36 -43t-38 -69.5t-53 -63t-78 -28.5q-37 0 -63.5 13t-40.5 32.5t-22.5 50t-10.5 56.5t-2 61z" />
<glyph unicode="v" horiz-adv-x="378" d="M-10 512q0 31 19 50.5t48 19.5q30 0 52 -22t22 -52q0 -19 4 -54.5t4 -52.5q0 -22 -5 -67.5t-4 -69.5q0 -56 26 -106q16 12 21.5 25.5t8 32.5t7.5 32q6 16 34 102.5t50 151t52 132t50 85.5q27 25 50.5 35t59.5 10q17 0 17 -14q0 -5 -16.5 -16.5t-18.5 -14.5 q-86 -94 -129 -162.5t-72 -175.5q-17 -64 -62 -180.5t-52 -137.5q-3 -9 -7.5 -26t-9.5 -30t-12 -25q-9 -13 -16 -13q-11 0 -19 4q-14 5 -18.5 18.5t-4 34.5t-1.5 29q-13 58 -27.5 195t-30.5 203q-2 8 -11 27t-9 32z" />
<glyph unicode="w" horiz-adv-x="813" d="M18 260q0 17 3.5 48t3.5 46q0 5 -1 30t-0.5 42.5t2.5 40.5t8.5 38t16.5 21q12 8 37.5 9.5t36.5 5.5q18 6 22 6q21 0 21 -33q0 -28 -12.5 -88t-12.5 -90q0 -23 -3 -66.5t-3 -64.5q0 -28 5.5 -72.5t15.5 -44.5q15 0 37 32t34.5 58t22.5 51q36 86 84 168q9 17 16 36t15 44 t12 37l6 6q1 0 14.5 14.5t34.5 29t39 14.5q21 0 21 -33q0 -6 -11 -80q-8 -57 -8 -178q0 -46 18.5 -145.5t38.5 -121.5l13 -4q41 0 88 215.5t47 290.5q0 7 -3 21.5t-3 21.5q0 4 3 13t3 14q0 35 16 35q13 0 23.5 -21t15.5 -41q-10 -55 -10 -98q0 -92 -8 -141q-5 -35 -21 -91 t-40.5 -119.5t-59 -108t-68.5 -44.5q-24 0 -39 29q-5 7 -15.5 18.5t-12.5 14.5q-30 40 -43 108.5t-19.5 151.5t-15.5 121h-2l-2 -3q-7 -26 -17 -47q-10 -25 -30 -71q-15 -34 -38.5 -77t-56 -92t-69.5 -81.5t-68 -32.5q-11 0 -16 1.5t-13 7t-12 7.5q-15 42 -28 119.5 t-13 122.5z" />
<glyph unicode="x" horiz-adv-x="428" d="M-10 -6q0 30 74 130.5t83 137.5q-4 25 -40 87.5t-56 84.5q-7 25 -25.5 74.5t-25.5 75.5l4 12q6 2 34 4t40 18h8q10 0 35 -53.5t51.5 -116t36.5 -75.5q10 12 32 45.5t23 42.5q89 140 109 166l16 4l6 -10q0 -28 -26 -82q-4 -40 -61.5 -130.5t-57.5 -107.5q0 -9 60.5 -107 t60.5 -126q0 -11 -21.5 -29.5t-32.5 -18.5q-23 0 -45.5 38t-45.5 84.5t-42 58.5q-20 -13 -83 -109t-83 -117q-1 0 -6 -2t-6 -2q-7 0 -11.5 8t-4.5 15z" />
<glyph unicode="y" horiz-adv-x="573" d="M-147 -387q0 42 21.5 99.5t63 104t87.5 46.5q39 0 71.5 -36t32.5 -75q0 -51 -37 -51q-8 0 -12 8l-4 8q0 6 7 12.5t7 12.5q0 5 -1 9t-3 8.5t-3.5 7.5t-5.5 7.5t-5.5 6l-6.5 6.5l-6 6l-10 2q-39 -17 -65 -81t-33.5 -123t-7.5 -111q0 -48 41 -75.5t90 -27.5q62 0 111 49 t77 120.5t46.5 161t25 161t6.5 129.5q0 32 -4 95t-4 93q0 112 -2 117q-10 -8 -29 -53q-9 -18 -68 -75.5t-77 -70.5q-22 -14 -58 -14q-34 0 -58 10.5t-36.5 25.5t-19 42.5t-8 48.5t-1.5 57v14v12q0 245 78 245q25 0 25 -62q0 -31 -5 -91t-5 -89q0 -15 1 -33.5t4 -44t10 -42.5 t17 -17q16 0 31 6q26 8 100 100t99 136q2 3 12 56.5t10 59.5q0 16 17.5 29.5t33.5 13.5q18 0 27.5 -30t9.5 -52t-4 -63.5t-4 -61.5q0 -41 4 -123t4 -122t-10 -113.5t-10 -107.5q0 -23 -7 -71.5t-7 -72.5q0 -54 -3 -65q-23 -80 -54 -138.5t-83 -113.5q-4 -4 -11.5 -14 t-14.5 -17t-13 -10q-10 -6 -31.5 -21.5t-31.5 -21.5q-48 -25 -105 -25q-37 0 -82 18t-73 54q-22 28 -33 69q-3 9 -5.5 17t-4.5 17.5t-3.5 16t-2.5 16.5l-1.5 15t-0.5 17v15.5v17v16.5z" />
<glyph unicode="z" horiz-adv-x="591" d="M0 571q0 21 5 33t17 17.5t22.5 6.5t31.5 1q14 0 40 2t40 2q26 0 79 5t80 5q35 0 79.5 18.5t47.5 18.5q23 0 23 -21q0 -10 -6 -22q-8 -15 -38.5 -60.5t-41.5 -72.5q-4 -9 -45.5 -92.5t-75 -154.5t-33.5 -79q0 -13 14.5 -20t39.5 -10.5t28 -4.5q13 -4 51.5 -21.5 t71.5 -31.5t43 -14q18 0 29 11t18 21.5t15 10.5q16 0 16 -13q0 -34 -27 -58.5t-59 -24.5q-39 0 -83 22.5t-92 45t-97 22.5q-31 0 -64 -18t-53 -36t-21 -18q-10 0 -16 8.5t-6 18.5q0 15 21 53t48.5 81.5t34.5 57.5q3 5 47.5 91.5t86 166.5t44.5 82q-10 -2 -87 -6t-138 -13.5 t-61 -27.5l2 -4q1 -1 7 -6t10.5 -9t4.5 -6q0 -4 -14 -4q-16 0 -27.5 15.5t-11.5 31.5z" />
<glyph unicode="{" horiz-adv-x="464" d="M70.5 45.5q-18.5 124.5 54.5 251.5q5 7 12 21.5t10 19.5q23 51 33 92.5t6.5 90.5t-26.5 95q-6 9 -4 29.5t10 26.5q25 22 36 45t8 48t-10 45t-22 48q-5 10 -31.5 61.5t-37.5 81.5q-40 99 19 183.5t173 85.5q12 -6 47 -27q-6 -3 -23.5 -15.5t-27.5 -15.5q-24 -7 -36 -11.5 t-22 -11.5t-12.5 -17t-2 -24.5t4.5 -37.5q17 -98 58 -240q27 -113 -43 -180q-20 -20 -22 -39t11 -43q44 -91 21 -211q-12 -65 -57 -258q-56 -262 170 -395q6 -4 23 -12t26 -15q6 -3 11 -13t3 -13q-14 -19 -29 -19q-6 0 -14 2t-17 6t-14 5q-107 38 -187 137t-98.5 223.5z" />
<glyph unicode="|" horiz-adv-x="581" d="M198 -77.5q0 14.5 1.5 44t1.5 33.5q6 150 14 448t14 447q0 16 -2 61t-3 86t1 82.5t12 65t29 20.5q13 -2 22.5 -10t14.5 -23.5t8.5 -28.5t4 -36t0.5 -34.5t-1.5 -35t-1.5 -28.5q-4 -112 -16 -344q-5 -129 -17 -369.5t-14 -294.5q-1 -16 2.5 -52t3.5 -65.5t-8 -46.5 q-2 -5 -4 -26.5t-5.5 -38.5t-10.5 -17q-12 0 -21 9t-13.5 28t-7.5 36t-3.5 46t-0.5 43.5z" />
<glyph unicode="}" horiz-adv-x="464" d="M4 -266q0 12 14 26q9 6 26.5 14t23.5 11q226 133 170 397q-7 35 -28 121.5t-30 134.5q-23 121 23 211q24 50 -13 84q-69 66 -40 180q5 19 19 73.5t23 91.5t15 73q9 54 -2.5 70t-65.5 34q-8 3 -16.5 8t-19 12.5t-15.5 10.5q9 5 25 15t20 12q116 -3 175 -86.5t20 -184.5 q-12 -28 -38.5 -77.5t-33.5 -63.5q-14 -31 -21 -50t-10 -45t8 -48.5t35 -44.5q7 -4 10 -25t-2 -31q-24 -46 -28 -95t6.5 -91t34.5 -92q11 -26 22 -41q72 -126 53 -250.5t-99.5 -224t-186.5 -137.5q-39 -11 -43 -11q-17 0 -31 19z" />
<glyph unicode="~" horiz-adv-x="591" d="M82 477q76 89 131 86q35 0 102 -24q69 -26 105 -35q51 -12 106 51q10 3 13 0q4 -4 6 -4q8 0 10 2q-56 -127 -119 -139q-21 -6 -45 -6q-59 0 -203 63q-16 8 -36 8q-19 0 -43 -12q-25 -13 -25 -25z" />
<glyph unicode="&#xad;" d="M160 362q0 3 7 7t13 4q24 0 98.5 0.5t98.5 -0.5q5 0 11.5 -3.5t15.5 -10.5t12 -9q-2 -2 -12 -14.5t-17 -16.5q-6 -4 -7 -6q-7 -2 -9 -2q-84 0 -174 2q-17 9 -29 21q-8 8 -8 28z" />
<glyph unicode="&#x2000;" horiz-adv-x="656" />
<glyph unicode="&#x2001;" horiz-adv-x="1313" />
<glyph unicode="&#x2002;" horiz-adv-x="656" />
<glyph unicode="&#x2003;" horiz-adv-x="1313" />
<glyph unicode="&#x2004;" horiz-adv-x="437" />
<glyph unicode="&#x2005;" horiz-adv-x="328" />
<glyph unicode="&#x2006;" horiz-adv-x="218" />
<glyph unicode="&#x2007;" horiz-adv-x="218" />
<glyph unicode="&#x2008;" horiz-adv-x="164" />
<glyph unicode="&#x2009;" horiz-adv-x="262" />
<glyph unicode="&#x200a;" horiz-adv-x="72" />
<glyph unicode="&#x2010;" d="M160 362q0 3 7 7t13 4q24 0 98.5 0.5t98.5 -0.5q5 0 11.5 -3.5t15.5 -10.5t12 -9q-2 -2 -12 -14.5t-17 -16.5q-6 -4 -7 -6q-7 -2 -9 -2q-84 0 -174 2q-17 9 -29 21q-8 8 -8 28z" />
<glyph unicode="&#x2011;" d="M160 362q0 3 7 7t13 4q24 0 98.5 0.5t98.5 -0.5q5 0 11.5 -3.5t15.5 -10.5t12 -9q-2 -2 -12 -14.5t-17 -16.5q-6 -4 -7 -6q-7 -2 -9 -2q-84 0 -174 2q-17 9 -29 21q-8 8 -8 28z" />
<glyph unicode="&#x2012;" d="M160 362q0 3 7 7t13 4q24 0 98.5 0.5t98.5 -0.5q5 0 11.5 -3.5t15.5 -10.5t12 -9q-2 -2 -12 -14.5t-17 -16.5q-6 -4 -7 -6q-7 -2 -9 -2q-84 0 -174 2q-17 9 -29 21q-8 8 -8 28z" />
<glyph unicode="&#x2013;" horiz-adv-x="1343" d="M160 362q0 3 28 7t52 4q96 0 394 0.5t394 -0.5q20 0 46 -3.5t62 -10.5t48 -9q-8 -2 -48 -14.5t-68 -16.5q-24 -4 -28 -6q-28 -2 -36 -2q-336 0 -696 2q-68 9 -116 21q-32 8 -32 28z" />
<glyph unicode="&#x2014;" horiz-adv-x="2367" d="M160 362q0 3 56 7t104 4q192 0 788 0.5t788 -0.5q40 0 92 -3.5t124 -10.5t96 -9q-16 -2 -96 -14.5t-136 -16.5q-48 -4 -56 -6q-56 -2 -72 -2q-672 0 -1392 2q-136 9 -232 21q-64 8 -64 28z" />
<glyph unicode="&#x202f;" horiz-adv-x="262" />
<glyph unicode="&#x205f;" horiz-adv-x="328" />
<glyph unicode="&#x25fc;" horiz-adv-x="634" d="M0 0v635h635v-635h-635z" />
</font>
</defs>
</svg>
