<?xml version="1.0" standalone="no"?>
<!DOCTYPE svg PUBLIC "-//W3C//DTD SVG 1.1//EN" "http://www.w3.org/Graphics/SVG/1.1/DTD/svg11.dtd" >
<svg xmlns="http://www.w3.org/2000/svg">
<metadata></metadata>
<defs>
<font id="sugarbush_10vregular" horiz-adv-x="1071" >
<font-face units-per-em="2048" ascent="1638" descent="-410" />
<missing-glyph horiz-adv-x="1024" />
<glyph horiz-adv-x="0" />
<glyph unicode="&#xd;" horiz-adv-x="1024" />
<glyph unicode=" "  horiz-adv-x="1024" />
<glyph unicode="&#x09;" horiz-adv-x="1024" />
<glyph unicode="&#xa0;" horiz-adv-x="1024" />
<glyph unicode="!" horiz-adv-x="319" d="M80 432v262q0 352 8 525q4 53 16 155q16 90 33 139q0 8 8 9q9 -1 9 -9q8 0 8 -8q8 0 8 -8q0 -86 -4 -258t-4 -258q0 -49 -8 -74q20 86 65 258t66 258q4 12 24 33q16 0 25 -16q-31 -215 -98 -508q-49 -213 -50 -475q0 -4 -4 -8.5t-4 -8.5v-90q-33 -16 -41 -16 q-57 23 -57 98zM102 66q0 10 2 22q0 53 50 66q8 -8 16 -9q8 8 25 9q45 -23 45 -60q-1 -26 -21 -55q-20 -41 -49 -41q-18 0 -41 16l25 41h24q8 8 8 41h-24h-8v-41l-25 -41q-27 29 -27 52z" />
<glyph unicode="&#x22;" horiz-adv-x="399" d="M47 1591l16 17h25q0 -8 8 -9v-8v-8h8q0 16 17 33q8 0 16 8q4 -4 12.5 -8t14.5 -6t6 -11q18 -88 18 -172q0 -100 -26 -196q0 -4 -4 -8t-4 -9q23 -82 -17 -147q0 -6 -4 -10t-4 2q-57 14 -57 82v229zM252 1149q16 115 16 205q14 117 33 180l8 8h17q12 61 57 107h8 q37 -23 37 -60q0 -27 -20 -63q-6 -12 -25 -66q-50 -262 -66 -393q0 -25 -24 -25q-51 39 -41 107z" />
<glyph unicode="#" horiz-adv-x="1476" d="M-2 805q96 104 252 133q354 64 641 127q16 41 16 94v15q0 4 -12 14q14 37 45 82h23q10 -4 18 -17l10 -10q-2 -41 -14 -137l-6 -12q27 -8 55 -9q43 0 90 21q29 90 64 170q12 16 28 8q12 -8 19 -14q2 -47 -8 -123v-14q176 12 362 6q-63 -37 -131 -45q-8 -10 -18 -25 q-115 -20 -242 -49q-20 -68 -31 -135q-4 -12 -4 -17q147 14 277 47q41 -12 45 -49q-102 -86 -250 -106q-63 -14 -99 -27q-23 -111 -75 -325q-27 -92 -41 -152l-31 -18q-6 23 -6 47q0 23 6 49q0 4 4 12q0 4 -2 8t-5 7.5t-7 11.5q23 209 61 327q-66 -2 -151 -34 q-51 -186 -74 -344q-12 -86 -53 -148h-23l-12 12q8 123 76 439q-47 12 -142 -21q-246 -82 -489 -80q-16 0 -29 15q31 68 139 86q131 23 275 65q94 29 282 88l76 27q63 -6 148 37q20 59 28 96q12 47 7 68q-33 -6 -103 -19q-12 -4 -33 -8q-23 -45 -28 -96q-4 -25 -19 -78 l-76 -27q25 109 35 164q2 10 6 23q-381 -74 -852 -187q-6 6 -14 15q-2 2 -5 7z" />
<glyph unicode="$" horiz-adv-x="1044" d="M16 541q0 35 13 75q90 115 254 107q45 0 131 -16q20 -8 65 -25l-33 -66q-49 33 -90 33h-73q-127 12 -181 -82q-8 -8 -8 -16q37 -127 164 -164q117 -35 213 -25v115h90v-106q238 -27 369 131q25 25 24 82q-35 152 -147 278q-76 86 -189 123q-25 8 -65 8q-14 -287 8 -516 h-90v8l-16 17q-8 8 -9 33q8 16 9 57q0 16 -9 24l33 66q12 104 -8 180q0 25 -4 74t-4 74q-152 0 -311 90q-45 25 -58 74q-4 25 -4 49q0 143 119 237q102 82 197 123q0 49 -17 131v8q8 8 17 9h16q25 -61 24 -123q33 0 50 16q0 82 -9 131l17 17l8 -9q12 -49 25 -123 q49 16 98 17q90 0 164 -58q53 -53 53 -120q0 -117 -143 -158q-25 -6 -47 -6q-64 0 -101 55l41 25q4 -4 12.5 -8.5t12.5 -8.5q127 -12 139 90q8 25 -8 58q-12 25 -41 24q-33 8 -115 9q-8 0 -20.5 -4.5t-20.5 -4.5h-16q8 -33 8 -73l-41 24q0 25 -16 25t-17 -8h-16 q16 -123 33 -353q8 -8 8 -32l-58 -33q-16 197 -16 295q-4 37 -24 90q-160 -74 -222 -238q-12 -31 0 -57q27 -63 99 -74q106 -16 163 -16l58 33q0 61 4 184t4 184l41 -24v-33q41 0 57 -17v-24q-8 0 -8 -8l-41 -25q0 -115 -8 -172v-106q250 -47 401 -271q57 -84 82 -196 q6 -33 6 -62q0 -127 -129 -192q-166 -82 -344 -107q0 -4 -4 -16t-4 -18.5t-8 -6.5q-14 -14 -25 8l-8 -8h-8q-8 0 -16 8v25l-9 8q-184 -12 -368 107q-102 66 -103 170zM455 -23q0 106 98 132q84 -10 84 -80q0 -23 -10 -52q-25 -68 -80 -67q-23 0 -51 10q-41 10 -41 57l57 9 v-9h8q4 0 8 -4t9 -4q0 16 -25 17z" />
<glyph unicode="%" horiz-adv-x="700" d="M43 930q0 111 88 205q23 25 49 24q66 12 66 -49v-8v-8h-17h-41q-70 -70 -82 -164q0 -33 9 -49l49 -41q72 -12 98 57v8v8v9h-16h-8q-51 -25 -74 -82l-49 41q35 115 172 114q35 0 49 -41q12 -135 -123 -172q-31 -12 -55 -12q-57 0 -92 53q-8 8 -9 17q-14 45 -14 90z M150 309q0 15 6 31q57 233 180 483q106 221 246 484q0 8 16 24h25v-8q-74 -244 -181 -483q-129 -287 -196 -492q-16 -41 -17 -49q-12 -35 -41 -49q-39 20 -38 59zM471 504q0 49 21 98q12 49 57 49q20 0 33 -24q0 -20 -25 -33q-8 -8 -8 -16.5t-8 -16.5q31 39 71 39 q25 0 52 -14q39 -10 38 -41q0 -12 -6 -25q-23 -106 -123 -155l-8 57l17 16l16 66q25 0 25 24v-8q-16 0 -17 -8l-8 -8l-16 -66q-16 0 -50 17q0 -8 9 -17v-8q16 0 24 -8l8 -57h-57q-45 66 -45 139z" />
<glyph unicode="&#x26;" horiz-adv-x="1187" d="M4 418q0 350 475 678q-12 66 -12 125q0 283 272 446q78 47 162 43q199 -10 199 -164q0 -32 -8 -69l-82 34q6 8 14 25q-6 47 -51 59q-23 10 -72 15q-307 -61 -307 -336q0 -31 4 -64q0 -6 4 -14q242 117 408 315l82 -34q-20 -100 -105 -164q-117 -88 -350 -262 q16 -63 55 -164q49 -127 60 -160q336 6 372 -305q8 -70 -34 -131q-10 -14 -39 -60l-80 37q72 70 71 140q0 84 -106 167q-59 47 -135 35q61 -154 162 -329q4 -4 8 -13l80 -37q2 -2 10 -14l14 -14q2 -14 2 -13v-26q-23 -41 -67 -51q-41 -8 -86 0l-41 82q-72 135 -195 409 q-8 4 -20 8q-197 -55 -197 -196q0 -51 27 -115q12 -29 32 -47q8 -10 21 -27q-6 -14 -23 -24q-139 86 -139 200q0 98 73 184.5t167 106.5q-37 135 -60 209q-18 57 -47 70q-295 -203 -379 -537q-10 -43 -10 -82q0 -119 89 -199.5t210 -84.5q236 -8 451 125l41 -82 q-207 -141 -428 -142q-160 0 -326 74q-63 29 -98 100q-68 141 -68 273z" />
<glyph unicode="'" horiz-adv-x="403" d="M-8 1118l8 8v9q8 0 8 8q4 2 139 90q98 63 99 180q0 49 -8 66q-25 10 -48 10q-57 0 -75 -68l8 -8q25 0 41 8q8 0 8 -8v-8q8 0 8 -8v-17q-27 -31 -51 -30q-35 0 -63 55q-8 8 -9 33q35 94 131 106q131 0 131 -139q0 -182 -155 -279q-66 -33 -139 -32q-16 0 -17 16h-8 q-8 0 -8 8z" />
<glyph unicode="(" horiz-adv-x="362" d="M70 502q0 252 116 575q59 166 140 279q8 8 16 8h8q0 -8 8 -8q8 -8 9 -17v-16q-119 -250 -172 -492q-39 -178 -33 -385q6 -186 131 -311q8 -8 8 -33l-8 -8q-8 0 -8 -8q-25 8 -58 41q-8 8 -16 8q-141 154 -141 367z" />
<glyph unicode=")" horiz-adv-x="462" d="M55 1448q0 16 17 16q8 8 16 9q74 -37 123 -123v-9q115 -197 147 -450q12 -102 13 -199q0 -166 -37 -325q-31 -131 -82 -213l-16 -17q-4 -8 -12.5 -20.5t-10.5 -18.5t-6 -10t-4 -8h-25q0 33 8 49q16 16 17 25q8 57 61 288q39 174 39 295q0 309 -166 613q-20 53 -82 98z " />
<glyph unicode="*" horiz-adv-x="872" d="M207 1163v8q0 8 8 9q92 66 213 90l41 16q16 0 66 17q-16 33 -33 98q0 8 -8 8l-25 -123l-41 -16q12 98 49 196q0 25 25 25q59 -59 73 -156q0 -8 9 -8q106 15 172 74q29 25 73 24q33 0 33 -18q0 -10 -8 -23q-20 -31 -57 -57q-29 -20 -82 -74q-12 -16 -32.5 -44.5 t-33.5 -45.5q37 -109 115 -213q16 -33 16 -41q-4 0 -8 -4t-8 -4v-8q-47 12 -74 65q-39 78 -106 123q-78 -94 -238 -286l-24 -25q-16 -16 -25 -16q-16 0 -33 16q14 88 66 139q66 92 65 189q0 4 4 14t4 18h41q-4 -33 -16 -90v-8l82 82l16 57h25l8 9q8 0 8 8v8v25l41 24 q16 0 25 17l6 6v2h-6q-25 0 -25 -17v-8l-41 -24q0 8 -16 24h-8q-29 -12 -82 -33h-8q18 -27 73 -41l-16 -57q-25 16 -66 16h-41q-115 16 -180 17q-16 0 -16 16z" />
<glyph unicode="+" horiz-adv-x="690" d="M18 596v8q90 90 172 131q-31 -10 -57 17v16q16 6 213 49q0 221 -24 443v16v8h8q47 -23 57 -90v-49q33 147 41 221l16 16h9q8 0 16 -8q27 -94 0 -188q-18 -66 -33 -164q-8 -57 -8 -172q135 49 287 49q8 -4 24 -25v-24q-104 -53 -204 -74q-57 -12 -115 -41q25 -258 24 -508 q0 -16 -8 -16q-66 12 -65 90q-16 131 -17 401q-25 -8 -82 -32q-70 -41 -213 -115q-8 -8 -24 -8q-27 27 -17 49z" />
<glyph unicode="," horiz-adv-x="385" d="M195 49l57 -8l-8 -8h24q16 33 17 49q0 8 -9 8l-24 -49l-57 8q14 70 65 90l16 17q68 -16 68 -72q0 -22 -10 -51q-8 -16 8 -49q-10 -96 -98 -172h-8h-9h-8q0 8 -8 8v16q57 57 82 131q-98 -12 -98 82z" />
<glyph unicode="-" horiz-adv-x="684" d="M188 686v8q12 25 41 25q41 0 90 16h-40q-8 0 -17 8h-8v17v8v8q8 0 8 8q8 0 8 9h9h8q115 -16 344 -33q49 -10 49 -58q-12 -25 -33 -24q-231 0 -418 -33q-41 0 -41 41z" />
<glyph unicode="." horiz-adv-x="395" d="M160 92q0 53 61 103q8 8 41 8q57 -33 57 -80q0 -27 -16 -60l-57 17q8 16 8 49q0 8 -8 8q-33 -33 -33 -57l8 -8q6 -6 12 -6t13 6v8l57 -17q-35 -70 -106 -57q-37 43 -37 86z" />
<glyph unicode="/" horiz-adv-x="598" d="M129 246q0 31 12 61q82 272 164 492q119 315 164 491q31 119 98 254h8q0 8 9 8q0 -8 8 -8t8 -8q-33 -115 -49 -180v-8q20 41 57 131q8 0 8 8l17 16h8q0 -84 -41 -188q-61 -164 -188 -492q-74 -180 -164 -483q-31 -106 -41 -172q-12 -39 -33 -49q-33 -16 -33 16 q-6 12 -6 21q0 6 6 12v16q-12 31 -12 62z" />
<glyph unicode="0" horiz-adv-x="1433" d="M76 709q0 279 211 487q137 135 321 221q25 16 58 27q33 0 82 -12q0 -6 8 -7q0 -8 -8 -8q0 -4 -5 -12q-180 -6 -288 -127q-68 -74 -199 -231q-109 -147 -109 -320q0 -94 33 -197q66 -199 236 -321q131 -94 276 -94q84 0 172 30q203 70 320 236q123 174 123 360 q0 78 -21 160q-59 225 -256 338q-23 16 -82 33q-33 4 -63 4q-152 0 -283 -76q-240 -137 -250 -397q-8 -236 211 -332q100 -45 211 -39q115 18 205 90q68 53 68 174q0 178 -170 256q-45 20 -95 19q-174 -6 -219 -185q-8 -33 -8 -57q0 -72 63 -106q57 -33 130 -25q49 0 90 35 q0 4 -4.5 6t-11.5 12.5t-9 12.5h-6q-25 -6 -47 -7q-49 0 -80 31q18 59 84 60q23 0 49 -9q96 -27 96 -98q0 -25 -12 -55q-18 -39 -59 -51q-70 -31 -133 -31q-96 0 -175 69q-53 47 -55 127q-10 252 217 347q12 8 25 8q39 6 74 6q180 0 284 -160q61 -94 62 -203q0 -31 -4 -61 q-35 -229 -269 -275q-53 -10 -108 -10q-104 0 -213 37q-199 68 -256 260q-25 82 -25 158q0 168 115 311q154 190 397 236q53 10 103 10q209 0 346 -168q162 -199 161 -442q0 -274 -196 -488q-201 -219 -471 -219q-76 0 -154 19q-283 102 -422 378q-66 129 -65 265zM389 -215 q12 123 90 211q0 6 13 6h14q0 -6 6 -12q-20 -104 -76 -199q0 -4 -4 -7t-4 -5h-4l-8 -8q-6 0 -13 8q-2 0 -6 3t-8 3zM563 164q0 111 70 174h8q12 0 12 -8h6q0 -115 -81 -172q-8 0 -15 6zM838 752q0 63 59 122q12 18 12 15q6 -8 19 -8l12 -19v-20q-34 -59 -63 -94h-27 q-4 4 -12 4zM973 1047q6 57 57 153q12 0 12 12h13q8 -2 20 -12l6 -4q-23 -92 -69 -149q0 -4 -8 -13h-25q0 8 -6 13zM1106 1354q41 166 154 307l8 8q27 0 26 -27v-6q-86 -150 -137 -270q-4 -4 -4 -12l-8 -4q-4 -8 -12 -9q-2 0 -27 13z" />
<glyph unicode="1" horiz-adv-x="348" d="M-33 1135q74 98 215 299q20 25 60 69q12 12 20 13q49 -27 49 -80q0 -29 -8 -78q-10 -55 -12 -78q-4 -80 -51 -588q-33 -358 -33 -590q8 -18 8 -36t-8 -39q0 -12 -2 -23q-43 -4 -63.5 16.5t-18.5 67.5q0 12 -2 18q-12 123 -12 250q0 190 26 385q10 76 70 557 q-94 -117 -193 -176q-10 -6 -28 -6q-4 2 -11 10q-2 0 -6 9z" />
<glyph unicode="2" horiz-adv-x="858" d="M41 -195q0 37 4 58q2 184 115 344q184 262 354 602q74 147 80 301q11 25 -14 45q-190 16 -320 -123q-29 -25 -51 -33q-2 -2 -14 0q0 16 12 21l2 2q78 131 231 170q63 16 146 16q72 -31 71 -110q0 -18 -4 -39q-39 -227 -151 -430q-86 -156 -242 -396q-98 -152 -141 -311 q-12 -49 -6 -102q117 123 270 123q53 0 152.5 -23.5t158.5 -23.5q96 0 193 32q23 16 33 -16q8 -27 -19 -39q-131 -61 -262 -61q-106 0 -217 41q-47 16 -100 14q-72 -4 -150 -60q-47 -35 -53 -86q-6 -16 -31 -20q-47 31 -47 104z" />
<glyph unicode="3" horiz-adv-x="1021" d="M-4 176q6 90 82 135q145 88 303 88q68 0 135 -16q35 -2 59 -35q41 -53 41 -96q0 -49 -59 -88q-14 -4 -25 -4q-47 -2 -75 14q-4 2 -11.5 5t-13.5 3v11q-2 6 -2 8v16q57 16 107 25q-6 55 -50 86l-6 6q-37 4 -71 4q-190 0 -338 -127q0 -12 -9 -29q0 -14 -2 -20 q98 -92 246 -90q311 6 524 247q14 12 25 39q66 184 55 375q-8 166 -127 275q-45 41 -108 34q-47 -10 -86 -10q-121 -16 -254 -74q-14 -12 -29 13q-4 8 -10 16q84 152 229 264q88 68 140 150q-51 -2 -140 -39q-176 -72 -379 -72q-35 0 -69 2q-25 2 -39 19l-4 4q6 18 6 22 q390 23 709 166q35 -23 34 -51q0 -23 -22 -51l-60 -74q-115 -145 -215 -225q74 23 142 22q125 0 235 -80q49 -45 62 -83q68 -133 71 -295q6 -233 -114 -428q-20 -33 -47 -56q-233 -190 -502 -190q-98 0 -201 24q-145 37 -137 160z" />
<glyph unicode="4" horiz-adv-x="1030" d="M29 856q18 59 79.5 125t92.5 100q49 59 82 111q70 113 125 219q37 104 81 186l7 9q6 0 18 4h4q6 -2 19 -13v-4q-82 -248 -226 -460q-88 -131 -180 -236q418 0 631 4q0 190 39 326q0 12 20 12q33 0 35 -43q6 -162 0 -295q127 18 236 -16q12 0 12 -17v-12q-18 -29 -60 -31 q-66 -2 -194 -12q-18 -223 -12 -459q4 -168 18 -270q0 -20 -6 -31q0 -45 -27 -45q-14 0 -39 17q-55 231 -47 458q2 33 8 135q4 86 5 136q0 43 4 59q-403 -6 -707 25q-18 0 -18 18z" />
<glyph unicode="5" horiz-adv-x="1173" d="M10 307q0 31 6 64q123 231 355 313q49 18 92 18q94 0 151 -96q37 -86 37 -164q0 -39 -8 -75q-57 -63 -133 -64q-29 0 -64 8q-76 18 -116 19q-20 6 -31 28q53 45 127 25q27 -6 49 -6q51 0 90 31q12 6 13 30q12 127 -82 180q-43 18 -78 13q-117 -20 -211 -94 q-104 -98 -123 -207q-4 -25 -4 -47q0 -96 82 -162t176 -66q63 0 133 29q252 106 295 358q14 57 14 113q0 80 -30 166q-88 242 -342 307q-66 6 -101 -8q-90 -29 -143 0q16 80 84 164q43 53 82 139q57 90 96 123q12 0 20 -12q61 51 160 82q154 47 326 110q4 2 295 103 q31 -16 30 -41q0 -25 -30 -50q-68 -55 -236 -168q-12 -8 -30 -8q-12 8 -13 37q8 4 8 10q45 39 136 113q-117 -33 -371 -135q-121 -49 -266 -76v-8q-63 -129 -189 -311l-6 -7q49 8 98 9q203 0 344 -150q168 -178 168 -424q0 -188 -137 -348q-78 -90 -178 -147 q-86 -49 -180 -50q-66 0 -133 25q-129 45 -195 164q-37 66 -37 143z" />
<glyph unicode="6" horiz-adv-x="946" d="M0 641q0 123 63 236q100 178 220 333q166 215 307 349q27 27 88 47l6 -4q6 -9 6 -13l6 -6q0 -16 -12 -41q0 -4 -3 -7t-3 -5q-6 -16 -25 -4q0 8 9 16v12q-57 -18 -113 -88q-168 -209 -307 -403q-125 -176 -166 -406q-4 -23 -4 -59q18 -195 194 -289q96 -53 191 -53 q104 0 209 66q135 84 165 235q14 72 15 145q0 229 -84 267q-57 25 -115 24q-61 0 -121 -28q-170 -84 -247 -248q-12 -27 -13 -76q6 -25 17 -72q72 -102 180 -102q70 0 133 35q74 41 74 102q0 31 -17 66q0 6 -16 22q-18 4 -37 4q-84 0 -133 -75q0 -20 16 -29q72 0 103 12 q0 -6 8 -6q10 -20 10 -35q0 -35 -67 -41q-127 -10 -136 111q-2 39 25 65q74 76 164 76q55 0 112 -29q12 -8 31 -28q29 -55 29 -105q0 -98 -113 -174q-84 -55 -166 -55q-109 0 -202 84t-93 190q0 141 131 267q102 98 259 147q49 16 94 16q104 0 178 -83q82 -92 82 -216 q0 -219 -94 -403q-45 -90 -154 -141t-213 -51q-188 0 -329.5 131t-141.5 317z" />
<glyph unicode="7" horiz-adv-x="858" d="M23 1288q16 12 14 14.5t10 14.5q387 31 637 285q0 6 8 6h10q45 -35 46 -90q0 -18 -5 -41q-8 -62 -28 -195q-14 -96 -82 -483q4 0 10 8q18 150 176 192l-4 -65v-4q-80 -27 -106 -94v-9q104 20 147 103q-10 20 -41 4l4 65q16 4 31 5q53 0 70 -58q14 -47 -29 -82 q-57 -55 -176 -106q10 -14 28 -35v-6q-25 -25 -51 -12q-10 10 -30 34q-6 0 -7 9q-12 0 -22 -9h-12q-47 -330 -76 -501q-25 -147 -88 -388q-4 -6 -21 -18q-16 0 -35 18v5q0 8 -4 12q14 242 68 502q25 119 67 354q-39 -8 -75 -8q-86 0 -160 43v6q0 4 2 7t2 5l8 6q59 -8 119 -8 q57 0 117 8q23 172 88 500q8 43 22 207q-260 -207 -589 -207q-31 0 -43 6z" />
<glyph unicode="8" horiz-adv-x="1120" d="M53 459q-4 10 6 59q29 137 160 195q39 18 152 53q-63 33 -123 106q-80 100 -80 213q0 39 8 78q37 156 166 252t276 113q29 6 56 6q70 0 139 -47q43 -37 43 -78q0 -22 -12 -47q-6 -6 -13 -6q-10 -6 -12 -9.5t-5 -5.5t-5 -2l-8 4v9q8 0 10 2t2 8q8 0 8 6q-12 74 -84 82 q-35 4 -67 4q-221 0 -363 -180q-72 -92 -71 -187q0 -72 43 -149q104 -133 239 -147h37q76 0 154 30q125 49 112 176q-18 199 -246 199q-127 0 -186 -117q-10 -20 0 -43q27 -31 57 -39q63 -18 127 19v4q4 0 0 8v4l5 4q8 8 12 10.5t16 2.5q31 -20 31 -43q0 -25 -35 -50 q-53 -35 -106 -34q-37 0 -78 16q-92 39 -92 113q0 31 16 69q49 111 188 144q33 4 66 4q197 0 276 -189q35 -84 13 -166q-43 -150 -201 -180q-14 -12 -41 -12l6 -8v-4q-47 -12 -160 -13q-72 6 -182 -34q-104 -53 -164 -144q-8 -4 -8 -22q0 -10 -2 -27.5t-2 -26.5 q49 -147 193 -235q152 -90 307 -90q129 0 258 59q45 20 74.5 71.5t29.5 102.5q0 84 -92 146q-45 31 -135 65l-16 17q23 47 63 47q20 0 43 -11q12 -4 29 -12q176 -43 194 -231q8 -92 -59 -189q-80 -113 -211 -141q-82 -18 -162 -18q-213 0 -381 112q-182 123 -213 324z" />
<glyph unicode="9" horiz-adv-x="894" d="M61 1149q0 98 74 174q129 133 320 215q72 31 131 37q125 12 192 -72q27 -20 43 -63q8 -41 8 -76q0 -68 -32 -125h-13q-6 0 -6 4q6 31 6 100q-10 80 -47 132q-61 33 -133 32q-57 0 -115 -20q-242 -88 -346 -311q-14 -31 -8 -80q65 -215 266 -283q61 -20 117 -20 q51 0 97.5 16t74.5 41q18 10 23 18q49 55 49 123q6 66 -49 117q-96 12 -140 -76q0 -6 -4 -14t-4 -14.5t-4 -6.5h-12q-33 27 -33 60q0 37 45 76q63 55 123 55q59 0 113 -55q20 -23 28 -54q20 -53 21 -106q0 -16 -2 -35h6q0 -6 6 -6q-16 -59 -78 -111q-6 -8 -24 -20 q-31 -31 -76 -88q-152 -193 -270 -443q-6 -16 -41 -98q0 -12 -13 -25q4 -16 4 -63q0 -20 -10 -25q-12 0 -18 4h-11q0 68 -24 132q-4 6 0 16q74 238 223 432q27 35 55 70q-115 -6 -215 28q-217 106 -282 316q-14 47 -15 92z" />
<glyph unicode=":" horiz-adv-x="425" d="M113 805l77 -23q37 0 37 19q0 6 -4 14q-10 0 -33 -22v-11l-77 23q12 23 34 55v23v10q6 0 11.5 5t9.5 5l35 35h20q113 0 113 -76q0 -25 -12 -57q-14 -25 -29.5 -48.5t-36.5 -29.5q-41 -25 -76 -25q-33 0 -57 25q-12 33 -12 78zM147 207h76v-10q18 -16 45 10q0 23 -45 22 v-10v-12h-76q0 88 76 123q6 0 23 10q119 -25 119 -102q0 -33 -19 -74q-12 -29 -55 -45q-33 -12 -60 -13q-72 1 -84 101z" />
<glyph unicode=";" horiz-adv-x="432" d="M172 195l66 10h22q10 10 10 33h-10q0 -4 -5 -10.5t-5 -14.5t-12 -8l-66 -10q0 66 55 120q0 6 5.5 17.5t5.5 15.5v12q12 6 32 21q6 -4 17.5 -9t17.5 -12h21q22 -63 22 -110v-23q33 -57 33 -118t-33 -138q-41 -96 -121 -143q-8 -8 -20 -8t-12 8q-27 27 -13 55 q98 139 111 244q12 0 12 12q-41 -18 -69 -18q-53 0 -64 74zM227 780q0 29 23 88q39 43 65 56q13 10 23 10q88 -20 88 -86q0 -35 -23 -80q-37 -76 -86 -76q-37 0 -79 43l55 33q10 -8 16 -8q8 0 17 8q10 16 10 20q0 6 -10 15q12 10 12 43h-12q0 -12 -21 -33l-12 -10v-23v-12 l-55 -33q-10 12 -11 45z" />
<glyph unicode="&#x3c;" horiz-adv-x="579" d="M53 690v8q109 63 180 115q154 113 222 287q14 39 32 65l17 17q8 -8 16 -8v-9q-51 -270 -270 -426q-18 -14 -90 -49q188 -154 327 -368q8 -8 9 -25l-33 -16q-113 98 -197 188q-49 57 -147 164q-8 8 -58 33q-16 16 -8 24z" />
<glyph unicode="=" horiz-adv-x="638" d="M-27 956q8 0 9 17l8 8q25 25 82 25q25 0 32 8q-43 14 -43 33q0 14 27 24q39 16 41 16q197 0 287 9q123 10 229 -25q8 -8 8 -16q-27 -66 -98 -66q-53 0 -147 -16q-217 -37 -410 -49q-8 8 -16 8v8v8q-8 0 -9 8zM55 530q0 16 8 25q33 33 74 33h74q16 4 49 8t49 8 q-66 0 -196 17q-33 0 -41 16v8q-8 0 -9 8l9 9q0 8 8 8q0 8 8 8q258 0 516 -25q41 0 41 -32q-10 -55 -65 -66q-27 -2 -238 -33q-172 -24 -262 -16q-25 0 -25 24z" />
<glyph unicode="&#x3e;" horiz-adv-x="555" d="M100 418q14 96 82 164q100 100 189 155q-162 162 -238 336q0 8 8 17q1 8 17 8q47 -37 114.5 -135.5t122.5 -143.5q37 -31 123 -82q33 -33 25 -41q-8 -33 -107 -16q-184 -119 -286 -279q-6 -6 -13 -6q-8 0 -20 6z" />
<glyph unicode="?" horiz-adv-x="1112" d="M82 1155q0 43 39 88q219 252 573 303q25 0 33 8q211 0 377 -106q16 -16 16 -49q0 -115 -98 -189q-139 -111 -418 -327q-180 -135 -188 -344q-4 -137 147 -148q33 -2 33 -20q0 -8 -8 -21q-41 -12 -76 -12q-106 0 -162 111q-29 55 -16 114q12 199 188 344q324 266 484 418 q45 33 32 90q-119 68 -256 68q-55 0 -112 -10q-344 -63 -525 -328q0 -8 9 -8v-41q8 -8 0 -17v-8h-9q0 -8 -8 -8q-55 43 -55 92zM457 88v49v33q45 57 123 57q57 -14 57 -57v-8q-9 -17 -25 -33l-16 -16l-49 8v8q0 16 -8 16q-16 -16 -25 -16v-8q6 -12 14 -12q6 0 19 12l49 -8 q-8 -59 -55 -60q-23 0 -52 10q-4 4 -16 12.5t-16 12.5z" />
<glyph unicode="@" horiz-adv-x="1009" d="M125 741q0 127 82 240q139 193 368 295q104 47 205 57q195 0 221 -180q4 -41 17 -123q0 -169 -90 -319q-23 -37 -66 -66q-57 -39 -110 -39q-47 0 -95 31q-25 12 -24 49v49q-20 -4 -41 -4q-115 0 -115 111q-10 96 66 172q70 57 164 57q25 0 32 -16q20 -31 21 -66 q0 -39 -29 -82h-8q-8 0 -16 8h-9v9v8v8l9 8v58q-86 0 -156 -82q-25 -37 -25 -90l25 -25q25 -25 57 -8q16 12 45 32.5t45 32.5q20 10 33 -16q6 -6 6 -16q0 -12 -6 -25q-16 -8 -33 -41q-8 -33 -8 -90q23 -4 43 -4q117 0 170 127q45 106 41 188q12 55 -8 164q-18 100 -131 100 q-14 0 -33 -2q-291 -41 -483 -270q-88 -104 -88 -219q0 -113 64.5 -203t170.5 -119q96 -27 187 -26q160 0 305 84v-9q8 0 8 -8v-8l-8 -8q-16 -16 -17 -16q-63 -76 -155 -99q-76 -18 -146 -18q-221 0 -395 174q-90 90 -90 235z" />
<glyph unicode="A" d="M14 842q0 39 13 80q2 20 24 39q34 30 62 30h2q37 0 65 -53q6 -18 15 -29q-20 -10 -13 -10l-2 -4h-14q-2 2 -6 3t-6 1v10q0 -2 -7 13q0 2 -6 16q-82 -2 -82 -68q0 -18 7 -43q27 -111 133 -153q27 86 80 258q66 195 194 577q27 94 82 285q8 25 8 47q0 53 -45 84 q-37 27 -92 27q-170 -19 -268 -123q-10 -25 -11 -31q-8 -37 12.5 -59.5t55.5 -5.5q14 6 49 20q2 0 10 -10q-12 -82 -79 -82q-23 0 -53.5 11t-45.5 44q-14 43 -14 78q0 106 135 170q102 47 227 53h16q165 0 173 -164v-21q0 -41 -6 -77q25 12 75 25q33 6 62 6q131 0 184 -121 q7 -16 7 -33q0 -24 -14 -50q-23 -44 -60 -44q-20 0 -45 31v6h26q20 35 21 57q0 41 -64 56q-35 8 -65 8q-125 0 -160 -137q-2 -14 -2 -31.5t2 -38.5q47 -258 96 -422q16 -43 47 -135q61 51 160 74q9 1 18 0q148 0 152 -160q2 -16 2 -33q0 -98 -119 -98q-29 0 -38 5t-13 5 q0 8 -2 12v4q0 4 2 9v8q6 6 10 8q27 0 41 16q20 2 35 25q6 29 2 39v6q0 37 -24 63h-18q-103 0 -179 -63q57 -199 115 -360q47 -109 104 -293q20 -59 47 -183q12 -37 -26 -43q-8 -2 -15 -2q-36 0 -55 52q-109 309 -184 544q-25 68 -64 205q-207 -188 -420 -188l25 65h15 q83 0 163 62q59 57 186 151q-41 131 -90 279q-45 133 -53 215q-18 -57 -25 -92q-74 -211 -190 -576q-6 -18 -6 -39l-25 -65q-31 -82 -75 -236q-49 -168 -74 -239q-6 -61 -70 -93q-24 45 -24 93q0 51 20 98q14 33 57 147q2 6 78 254q-29 12 -47 27q-119 90 -119 207z" />
<glyph unicode="B" horiz-adv-x="1296" d="M-55 1636q0 121 104 195q70 49 148 55q125 -6 145 -147q2 -43 12 -131q8 4 37 10q164 33 297 35q53 8 107 8q174 0 323 -78q109 -57 109 -225q0 -86 -37 -160q-96 -188 -293 -262q178 -59 281 -238q47 -82 47 -163q0 -39 -11 -76q-61 -227 -276 -344q-133 -72 -266 -72 q-51 0 -105 10q-201 39 -213 246q-2 24 -2 47q0 164 74 320q10 20 45 51q79 67 179 67h3q57 0 119 -20q149 -52 148 -205v-20q-31 -190 -203 -209q-6 -1 -12 -1q-49 0 -84 44q-59 51 -60 112q0 51 41 105q20 27 45 26q53 0 78 -61v-29q0 -2 -8 -8q0 -2 -6 -6h-11 q-12 0 -16 2t-7 6t-7 5t-4 14q-6 2 -9.5 8t-7.5 6q-2 0 -6 -2t-8 -2q-2 -6 -3 -8t-5 -2q0 -12 -4 -15v-12q8 -45 30 -66q12 -10 45 -34q136 22 136 164v14q-4 96 -111 100q-39 6 -76 6t-72 -6q-20 -4 -26 -14q-104 -82 -113 -230q-1 -21 -1 -42q0 -74 11 -150q18 -66 80 -88 q76 -20 146 -21q170 0 315 119q39 25 103 101q61 92 61 178q0 90 -68 180q-115 154 -292 154q-43 0 -91 -9q-17 -3 -32 -3q-37 0 -60 18q-2 0 -14 12q25 68 108 68q55 0 99 12q223 63 323 262q35 70 35 137q0 47 -18 92q-12 53 -60 68q-169 65 -335 65h-5q-115 0 -315 -40 q-47 -8 -70 -15q1 -34 1 -67q0 -176 -27 -336l-105 -592q-37 -193 -110 -533q-10 -33 -27 -34q-55 20 -55 81q0 23 20 117q45 199 127 602q18 96 47 297q39 250 47 424q-2 0 -8 -2q0 2 -12 4q4 0 -6 4v9q2 20 28 41q0 16 -2 104q-2 74 -49 145q-11 1 -22 1q-137 0 -195 -144 q-10 -25 0 -59q29 -12 51 -13q47 0 74 52q8 6 10 8h11q8 -4 8 -8q-25 -106 -123 -107q-23 0 -47 6q-39 12 -43 40t-4 52z" />
<glyph unicode="C" horiz-adv-x="1013" d="M29 475q-10 78 -10 150q0 97 18 184q53 258 135 408.5t238 252.5q139 92 288 93q162 0 273.5 -110t111.5 -271q1 -158 -118 -267q-81 -73 -168 -73h-2q-61 0 -125 32.5t-92 83.5q-20 39 -27 97q0 119 65 190q45 66 117 66q31 0 66 -15q94 -39 94 -110q0 -35 -23 -78 q-27 -51 -57 -51q-27 0 -63 37q-12 23 -13 39v41q0 2 2 2t5.5 1t5.5 15h16q2 -12 2 -14v-4q-2 -2 -2 -7q0 4 1 -3t5 -15l2 -2q0 -8 10 -29q4 0 9 -4h12q4 0 7 2t5 2q0 12 9.5 20.5t9.5 35.5q0 2 -2.5 11t-2.5 11q-53 43 -96 43q-57 0 -94 -72q-23 -53 -23 -98 q-2 -82 66 -119q49 -28 93 -28h3q61 0 123 55q86 78 86 197q0 25 -4 53q-4 111 -129 178q-84 47 -168 47q-86 0 -178 -51q-262 -143 -338 -447q-61 -246 -61 -395q0 -268 282 -360q36 -12 71 -12q38 0 75 14q188 70 297 178q10 6 28.5 30.5t44.5 71.5q6 4 13 13q0 -4 5 -7.5 t5 -5.5q-20 -164 -182 -278q-203 -113 -330 -113q-68 0 -135 31q-223 98 -256 354z" />
<glyph unicode="D" horiz-adv-x="1208" d="M-111 1534q0 123 138 180q37 16 77 23q164 -18 191 -181q8 10 32.5 16.5t71.5 12.5q311 -6 545 -180q256 -193 256 -494q0 -307 -145 -643q-80 -182 -291 -239q-45 -6 -87 -6q-81 1 -155 23q-110 34 -149 128q-51 94 -51 201q0 72 22 143q66 201 272 264q43 14 82 15 q113 0 174 -123q37 -55 37 -117q0 -53 -26 -111q-61 -135 -199 -135q-27 0 -57 6q-23 10 -35 25q-20 14 -53 70q-8 29 -9 51q0 90 113 106q41 0 72 -28q20 -35 2 -52q-10 -18 -27 -2q-28 6 -51 6q-8 0 -16 -1q-6 -2 -7 -5v-34q-4 0 7 -7q0 -4 6 -12t6 -10q10 -6 18 -25 q164 14 164 174q0 91 -92 125q-24 9 -48 9q-35 0 -69 -19q-135 -57 -178 -211q-12 -45 -12 -92q0 -66 22 -131q45 -129 174 -129q25 0 52 4q291 23 364 301q39 147 64 320q10 72 10 141q0 99 -21 190q-2 4 -28 66q-236 371 -756 371q13 -100 13 -193q0 -112 -19 -215 q-31 -201 -96 -598q0 -2 -95 -446q-2 -4 -3 -7.5t-3 -5.5l-4 -4q-10 0 -12 -4q-4 2 -14 6l-13 12v3q-2 4 -4 10q-3 42 -3 86q0 141 34 301q35 164 78 371q68 328 69 604q2 16 2 32q0 78 -55 156q-21 29 -52 29q-8 0 -18 -2q-137 -10 -137 -125q0 -18 4 -37q10 -4 20 -4 q26 0 48 31q8 8 31 26q0 4 3 6t3 4t4 5h12l4 -3v-6q0 -4 3 -6t3 -4q-35 -119 -153 -119q-59 0 -60 113z" />
<glyph unicode="E" horiz-adv-x="1273" d="M27 809q23 348 292 577q104 74 199 80q19 1 36 1q163 0 265 -115q66 -74 187 -146q18 -8 34 -8t29 8q133 80 133 197q0 47 -22 104q-8 4 -66 25h-31q-14 0 -19 -4t-22 -4q-8 -33 -8 -47q-8 -22 -8 -52q0 -15 2 -32q4 -2 7 -4.5t4 -8.5t1 -10h13q12 0 12 8q2 2 4 8v3 q2 4 14 8l2 -4q2 0 7 -4q6 -20 -7.5 -38t-50.5 -36q-82 41 -82 127q0 27 9 59q23 82 108 98q198 -4 198 -181q0 -10 -1 -21q-10 -176 -174 -250q-47 -20 -91 -21q-78 0 -143 70q-84 90 -182 150q-45 22 -101 22q-17 0 -36 -2q-207 -20 -314 -219q-78 -188 -98 -322 q18 16 45 17q119 0 209 49q8 2 113 29q155 0 155 -121q0 -20 -4 -41q-12 -74 -70 -92q-33 -10 -57 -11q-55 0 -98 62v24v29q8 4 8 10q-2 0 8 2q4 4 13 11q6 -2 12 -9.5t14 -23.5q2 -8 19 -29h45q29 4 30 35q4 6 9 31q-2 2 -3 10q-8 2 -10 14q-4 0 -8 2h-6q-162 -2 -313 -78 q-29 -14 -82 -14q-14 6 -37 12q-8 -45 -8 -90t8 -92v-61q-2 -19 -2 -37q0 -170 153 -260q66 -39 142 -39q55 0 112 20q156 53 240 178q137 201 350 201q96 0 117 -100q10 -49 10 -92q0 -168 -158 -265q-20 -14 -41 -14q-20 0 -38 14q-84 39 -84 132q0 53 34 86h13 q6 -4 8 -13q-4 -16 0 -41q6 -41 37 -82q102 20 127 146q6 30 6 56q0 34 -10 63q-14 1 -29 1q-187 0 -295 -173q-39 -63 -100 -105q-141 -96 -312 -96q-209 0 -309 145q-45 66 -53 150q-15 153 -15 288q0 76 5 146z" />
<glyph unicode="F" horiz-adv-x="1013" d="M0 1427q0 72 45 132q33 43 105 57q124 -20 124 -119q0 -90 -59 -108l-25 12l-12 12q0 10 8 10q0 2 2 13l2 2q4 0 11 2h10q6 16 6 22q2 23 -6 43q-27 27 -53 27q-27 0 -52 -27q-4 -6 -12 -14q0 -164 78 -326q57 -121 86 -256q170 -20 301 -147q12 -16 53 -27q18 -5 35 -5 q34 0 62 22q6 20 6 50v15q-3 25 -21 64q-2 0 -2 2h-2h-49q-6 -2 -6 -11h-12q-6 -2 -9 -2q-2 0 -8 5.5t-10 7.5q16 51 63 51q29 0 70 -19q25 -16 32 -44.5t7 -61.5q0 -74 -39 -135q-49 -18 -94 -19q-100 0 -180 88q-12 14 -76 62q-39 20 -111 39q11 -91 11 -182 q0 -126 -21 -254q-33 -186 -125 -394q-4 -12 -24 -30q-2 -4 -13 -4q-6 0 -16 4q-10 37 -10 75q0 72 29.5 139.5t45.5 127.5q43 154 43 317q0 94 -14 188h-29q-25 -4 -45 -24q-2 0 -6 4t-10 4v6q-6 29 25 49q20 6 57 25q-43 182 -146 432q-20 53 -20 100zM299 1550 q0 47 39 74q57 -43 65 -115q31 -96 115 -137q115 -55 221 -55q115 0 179 57q104 94 104 225q0 43 -55 68q-2 2 -7 4l-6 2h-13q-73 0 -73 -65q0 -16 3 -39t16 -53q2 -8 0 -25q-20 -10 -37 -10q-37 0 -51 59q-8 35 -8 62q0 94 98 141q12 1 24 0q153 0 172 -146q2 -18 2 -37 q0 -32 -6 -69q-96 -246 -348 -252h-11q-184 0 -331 133q-66 59 -82 131q-10 25 -10 47z" />
<glyph unicode="G" horiz-adv-x="1112" d="M16 756q0 158 84 307q106 188 351 377q93 69 237 69h4q170 0 266 -149q51 -82 52 -164q0 -82 -49 -162q-74 -119 -195 -119q-37 0 -76 11q-55 6 -104 57q-59 63 -60 125q0 47 35 94q25 33 76 45q16 2 31 2h2q90 0 100 -108q0 -16 -8 -45v-4q-2 -2 -2 -5l-4 -4 q-4 -2 -6 -2h-13q-8 0 -18 19q0 4 -10 41q-6 23 -15 30q-15 6 -30 6q-17 0 -34 -9q-32 -17 -40 -33q19 -146 170 -146h16q92 4 125 92q29 55 29 109q0 94 -88 174q-27 31 -62 33q-59 12 -114 12q-184 0 -314 -149q-82 -96 -153 -211q-86 -139 -86 -308q0 -182 93 -381.5 t310 -259.5q57 -4 103 -4h30q104 6 180 90q33 37 72 45q10 -14 10 -10q-18 -170 -196 -209q-63 -14 -123 -14q-207 0 -361 170q-63 72 -108 162q-106 219 -107 426zM528 567q4 147 174 172q12 2 24 2q68 0 116 -61q8 -14 24 -14q33 -4 49 -2v13q0 120 107 167q53 -33 53 -84 q0 -35 -24 -74q-15 -24 -52 -57q2 -102 37 -506q7 -37 7 -71q0 -49 -15 -93h-29q-4 0 -12 8q-2 0 -2 6q-55 297 -70 498q-2 29 -2 117q-104 6 -176 98h-7q-67 0 -100.5 -34t-33.5 -100v-7q20 -19 45 -19q11 0 23 4q25 47 63 48q-14 -39 -22 -70v-14q-39 -39 -76 -39 q-39 0 -80 45q-21 25 -21 61v6z" />
<glyph unicode="H" horiz-adv-x="1181" d="M45 227q0 4 2 4q2 10 12 11q49 -90 148 -148q18 -2 20 4q61 45 72 129q16 147 53 443q-92 23 -174 88q-55 45 -55 94q0 31 20 68l33 -23v-13q0 -116 139 -149q23 0 45 -8q2 16 9 47q0 8 2 20.5t2 18.5q-88 39 -154 88q-16 8 -31 8q-8 -2 -10 -8l-2 -4l-33 23q22 36 56 36 h2q37 0 92 -32q45 -25 88 -52q20 123 41 246q24 141 24 240v8q0 111 -59 205q-2 4 -18 14q-15 2 -28 2q-111 0 -148 -102q-12 -35 -13 -64q0 -63 74 -100q16 -8 39 8l6 12l25 25q8 0 14 2q4 -2 7 -4t7 -5t4 -5v-11q-4 -2 -3 -4t-9 -6q-27 -78 -76 -78q-31 0 -75 35 q-80 61 -80 144q0 45 26 98q51 102 176 119q150 -14 164 -164q10 -109 10 -211q0 -172 -30 -338q-12 -66 -15 -100l-14 -60v-24q-2 -20 -2 -31q57 0 125 10q-41 16 -123 45l14 60q115 -55 238 -68q35 0 51 8q31 20 55 29q8 178 19 530q2 195 65 389q8 27 37 50q41 33 101 39 q111 0 110 -91q0 -109 -90 -165h-37q-20 0 -24 16v16q2 2 2 4q94 18 94 119q4 18 -6 29q-3 8 -15 10q-141 -4 -147 -147q-4 -248 -20 -744q111 72 198 170q4 0 12 -10q2 0 7.5 -4t5.5 -8t-5 -11.5t-5 -13.5q-82 -119 -216 -201v-61q84 -14 254 -41q4 0 15 -10 q-9 -39 -53 -39q-14 0 -31 4q-35 6 -111 22q-49 10 -76 13q-8 -178 -24 -539q-5 -102 -5 -184q0 -98 7 -168q82 96 98 188q4 10 4 23q0 10 -4 22q6 0 19 6q8 -39 8 -75q0 -127 -98 -232q-28 -30 -51 -30h-1q-27 0 -51 38q-14 33 -14 58q-11 110 -11 229q0 107 9 223 q8 154 26 451q-39 2 -110 2h-23q-14 -2 -24 -2q-82 -27 -160 -27q-27 0 -49 2q-8 -49 -21 -258q-10 -150 -73 -305q-31 -76 -95 -76q-61 0 -120 62q-43 45 -60 123v2q-2 2 -2 10v6q0 2 -2 6z" />
<glyph unicode="I" horiz-adv-x="411" d="M8 262q0 82 23 156q12 43 39 135q70 266 170 530q66 172 100 404q5 35 5 70q0 66 -17 133q-35 20 -72 20q-55 0 -109 -45q0 -49 33 -49q20 0 60 18q18 10 57 31q2 0 14 -8q0 4 2 -6q-31 -94 -112 -95q-47 0 -80 21q-37 23 -37 60v8q8 89 104 114q43 10 56 10 q162 0 162 -159q0 -226 -93 -545q-80 -262 -159 -526q-16 -80 -56 -238q-8 -33 -8 -65q0 -80 57 -132q14 -23 46 -16q59 14 88 66q8 18 6 49q-20 4 -33 2q-27 2 -51 -10q-4 2 -15 8q-8 0 -10 2t-2 10v6q-6 0 -6 6l6 4q43 59 92 60q39 0 78 -39q16 -12 18.5 -30.5t2.5 -37.5 q0 -68 -53.5 -121t-120.5 -61q-13 -1 -26 -1q-116 0 -142 118q-16 76 -17 143z" />
<glyph unicode="J" horiz-adv-x="993" d="M4 465q0 160 129 287q73 71 150 71h2q61 0 127 -45q49 -35 67 -90q43 -92 43 -178q0 -119 -80 -221q-45 -57 -100 -58q-70 0 -133 80q-45 57 -45 134q0 15 2 30q4 35 29.5 76t56.5 41q29 0 62 -40q27 -34 27 -77q0 -8 -1 -16q-4 -29 -27 -29q-4 0 -7 2l-6 4t-8 10.5 t-5 32.5q0 18 -15 51h-22q-12 -35 -12 -58q0 -10 2 -17q1 -17 1 -33t-1 -31q16 -39 61 -69q14 -6 31 -11q109 53 114 181q1 11 1 21q0 151 -109 232q-6 6 -16 7q-137 -8 -201 -129q-43 -84 -43 -166q0 -119 94 -240t238 -121q115 0 165 109q109 233 146 520q22 178 22 508 v29q0 170 -10 294q-74 29 -108 39q-49 -114 -150 -114h-2q-111 0 -141 75q-18 45 -19 82q0 76 90 125l19 -49q-49 -23 -49 -72q0 -37 21.5 -67.5t56.5 -30.5q88 0 133 82q-41 41 -113 98q-29 0 -49 -10l-19 49q10 6 31 13q117 -25 193 -101q31 -31 71 -49q6 0 17.5 -4 t17.5 -4q-4 16 -4 29q0 12 4 28q0 8 2 27v27q4 4 6 5t19 5q8 -4 10 -4q18 -55 18 -70v-61q49 -23 97 -23q83 0 157 72h15l8 -2l-8 -17q-6 -6 -15 -18q0 -8 2 -10v-11q-2 0 -2 -2q-73 -73 -161 -73h-2q-37 0 -78 12q22 -185 22 -356v-15q0 -135 -8 -348q-8 -195 -80 -451 q-43 -152 -137 -270q-76 -94 -176 -94q-47 0 -98 18q-227 82 -299 316q-20 68 -21 133z" />
<glyph unicode="K" horiz-adv-x="1542" d="M41 324q4 100 98 100q23 4 43 4q45 0 88 -22q2 -2 2 -5v-6q-2 -6 -2 -12q-4 0 -161 -31q-1 -14 -1 -28q0 -171 162 -244q27 -12 54 0t51 41q113 177 113 380q0 21 -1 42q-10 180 -10 284v21q-47 -49 -139 -141q-51 0 -51 26q0 16 20 39q31 49 82 109q16 12 88 88 q-2 197 -18 407q-2 57 -13 174q-16 109 -67 176q-14 1 -27 1q-126 0 -151 -107q-4 -19 -4 -39q0 -43 20 -92q4 2 23 2q23 8 34 20q10 -8 11.5 -7t1.5 -9v-6v-4q-2 -4 -2 -12v-3q-2 0 -2 -2q-32 -30 -58 -30h-2q-37 0 -61 59q-16 45 -17 90q0 68 43 121q51 63 109 68 q10 1 19 0q149 0 176 -154q45 -258 51 -410l6 -147v-29q63 66 184 203q80 78 240 231q4 -2 4 9v6v16q0 -6 6 2q-6 2 29 2q96 111 241 187q12 12 21 12q90 -16 90 -80q0 -20 -10 -45q-20 -84 -82 -141q-67 -62 -147 -62h-3h-41q0 4 -26 29q-6 0 -11.5 5t-7.5 5l23 31 q39 -25 76 -25q61 0 120 62q55 70 56 131q0 8 -3 12t-20 10q-104 -37 -178 -133q-14 -20 -51 -57l-23 -31q-125 -113 -368 -373q131 -119 211 -329q102 -270 274 -492q57 -76 158 -94q40 -14 86 -14q30 0 63 6q55 43 56 86q0 37 -43 82q-6 18 -27 8q-41 -8 -31 -8 q-31 -23 -63 -33q0 -10 -5.5 -14t-13.5 -13q-4 0 -12 2h-10q-2 18 12 45q6 12 6 21q55 72 127 72q29 0 57 -11q20 -4 41 -28q37 -63 37 -119q0 -90 -106 -158q-44 -27 -89 -27q-10 0 -20 1q-213 25 -338 202q-90 129 -170 316q-49 117 -215 428q-6 10 -18 35 q-45 -35 -80 -78q2 -141 2 -426q0 -102 -27 -258q-45 -174 -200 -256q-18 -9 -35 -9q-15 0 -29 7q-133 39 -190 164q-35 76 -35 157v17z" />
<glyph unicode="L" horiz-adv-x="1435" d="M2 123q0 84 104 121q6 -2 13 -15l-10 -10q-4 -4 -13 -12q-28 -36 -28 -64q0 -31 26.5 -55.5t53 -26.5t47.5 -2q125 0 145 140q18 127 27 229h-5q-106 -23 -155 -115q-2 0 -10 2h-13q-4 14 -4 27q0 66 74 102q63 23 115 37q12 125 12 312q0 324 10 587v20q0 169 -98 281 q-12 20 -45 21q-152 -17 -153 -153q0 -5 1 -11q2 -61 56 -115h12q8 8 12 23q2 6 8 14h17q-4 -29 -11.5 -42t-17.5 -36q-102 33 -115 146q-2 16 -2 30q0 140 156 177q47 18 82 18q123 -51 139 -194q28 -227 28 -448q0 -71 -3 -142q-8 -195 -8 -445v-49q109 -45 190 -145 q160 -195 438 -264q80 -20 156 -20q39 0 78 5q123 16 139 121q8 14 -8 45q-29 37 -66 37q-78 0 -129 -102q10 -1 19 -1q62 0 114 23l2 -10q2 -2 3 -2t4 -2q-55 -76 -127 -76q-29 0 -62 12q-6 0 -13 6.5t-11 8.5q-1 12 -1 24q0 95 87 158q63 47 120 47q72 0 131 -80 q29 -41 29 -84q0 -17 -4 -33q-20 -141 -178 -174q-72 -16 -140.5 -15.5t-134.5 15.5q-303 70 -485 283q-72 84 -154 143q-16 -174 -86 -350q-10 -29 -53 -47q-53 -25 -110 -25q-59 0 -127 28t-68 122z" />
<glyph unicode="M" horiz-adv-x="1361" d="M27 -121q0 12 2 27q39 268 151 540q119 289 187 527q66 231 77 463v13q0 91 -84 91q-27 0 -59 -8q-162 -41 -184 -205q-3 -11 -3 -21q0 -27 23 -51q14 4 37 25q14 25 37 35q2 2 10 0q8 0 8 -4q-27 -74 -96 -99q-12 -8 -16 5q-45 53 -45 112q0 41 22 88q80 160 244 174 q13 1 24 1q137 0 150 -150q2 -25 2 -133q72 90 199 127q70 20 149 26q59 -23 60 -80q0 -16 -7 -39q-10 -8 -10 -20q125 119 314 123h5q42 0 74 -31q0 -10 9 -10q4 -35 4 -70q0 -154 -78 -297q-135 -248 -174 -524q-4 -28 -4 -55q0 -65 24 -121q41 -12 82 -12q74 0 146 36 q16 12 34 13q18 0 35 -13q6 -8 6 -22q0 -12 -2 -21l-4 -4q-110 -77 -232 -77h-3q-47 0 -97 10q-27 6 -32 26q-53 111 -54 218q0 55 15 108q72 283 201 530q55 109 65 240q-41 10 -80 10q-109 0 -198 -84q-33 -27 -93 -84q-37 -84 -120 -249q-117 -211 -236 -504 q-19 -48 -19 -101q0 -32 7 -65q8 -8 22 -23l2 -4q16 -2 54 -18q-4 -2 -7.5 -5t-5.5 -14q-18 8 -55 -2q-27 2 -39 21q0 4 -2 4q-51 44 -51 118v11q10 166 94 319l272 498q49 86 68 195q-25 8 -52 8q-33 0 -71 -12q-137 -45 -219 -156q-6 -29 -18 -86q-66 -307 -146 -526 q-117 -319 -143 -400q-76 -229 -113 -409q-4 -14 -18 -19q-45 29 -45 86z" />
<glyph unicode="N" horiz-adv-x="1044" d="M-23 1501q72 252 316 283q27 4 51 4q199 0 256 -217q16 -56 15.5 -112.5t-15.5 -115.5q33 43 94 84q139 94 291 132q133 -10 133 -121q0 -29 -8 -64q-82 -324 -219 -612q-18 -39 -51 -127q-23 -84 -23 -168q0 -100 33 -197q0 -8 10 -16q15 2 28 2q91 0 107 -72 q8 -18 -6 -22q-33 -10 -67 -10t-70 10q-125 35 -131 176q-1 27 -1 55q0 289 136 553q117 223 176 457q4 18 4 35.5t-4 34.5q-166 0 -284 -109q-47 -43 -170 -125q-43 -162 -205 -494q-152 -307 -189 -497q-4 -20 -4 -39q0 -72 62 -119q27 -25 41 -59v-6q6 -10 24 -17 q2 -6 6 -10l-4 -6q-2 -6 -8 -6h-10q-6 2 -10.5 3t-14.5 9q-14 -2 -26 -2q-80 0 -131 96q-43 80 -43 168q0 72 30 143q129 307 295 619q68 129 123 293q25 72 25 141q0 115 -68 215q-20 33 -58 38t-71 5q-207 0 -279 -209q-20 -59 -20 -110l4 -3t10 -3q14 8 27 26 q25 39 59 58q2 2 19 10q4 -8 12 -10q-14 -104 -129 -158q-33 -10 -47 26q-25 47 -25 109q0 24 4 51z" />
<glyph unicode="O" horiz-adv-x="1667" d="M18 795q-1 17 -1 34q0 199 110 379q139 231 371 418q141 115 315 127q21 2 42 2q250 0 353 -227q16 -33 35 -101q12 -48 12 -97q0 -139 -108 -249q-71 -73 -158 -73h-2q-29 0 -59 8q-49 18 -76 49q-61 68 -61 141q0 70 57 144q50 67 111 67h2q-102 -86 -103 -200 q0 -80 43 -116t86 -36q51 0 98 45q92 88 93 203q0 102 -58 192q-70 109 -196 121q-39 4 -74 4q-240 0 -404 -172q-321 -337 -321 -627q0 -260 160 -462q227 -291 581 -291q47 0 97 6q227 25 374 188q201 225 201 482q0 68 -12 137q-27 137 -129 231l-8 8q-4 8 -9.5 14.5 t-5.5 8.5t2 9l3 10.5t3 3.5q18 4 37 4q100 0 152 -103q80 -158 80 -317q0 -127 -52 -260q-115 -295 -382 -455q-158 -94 -332 -94q-94 0 -191 26q-387 106 -575 457q-92 170 -101 361z" />
<glyph unicode="P" horiz-adv-x="1345" d="M-2 1427q-2 5 -2 18q0 19 4 56q199 272 543 273q187 0 187 -170q0 -11 -1 -23q-2 -31 -2 -57q119 90 289 100q14 1 27 1q246 0 311 -245q28 -109 28 -203v-6q0 -49 -6 -94q-55 -354 -399 -452q-45 -12 -86 -13q-111 0 -184 82q-29 31 -56 109q-16 76 -16 145 q0 207 147 373q68 76 148 76q106 0 170 -90q53 -76 53 -156q0 -72 -43 -145q-31 -55 -98 -86q-25 -8 -45 -9q-41 0 -66 31q-55 45 -55 107q0 31 14 63q24 37 66 37q9 0 20 -2q45 -8 45 -62q-2 -6 -5 -7t-17 -1q-8 0 -8 4q-10 2 -13 9q-8 4 -6 4h-22q-2 -4 -3.5 -9.5 t-1.5 -17.5q0 -25 3 -39v-6q2 -6 6 -8t12 -2q18 -8 47 -8q72 78 72 180v16q-4 70 -60 100q-4 6 -18 11q-150 -6 -211 -158q-35 -88 -35 -164q0 -123 94 -217q35 -35 82 -35q11 0 23 2q119 6 200 80q159 142 159 346q0 12 -1 25q-10 219 -158 356q-20 10 -26 10q-37 4 -72 5 q-172 0 -319 -125q-20 -160 -82 -324q-102 -276 -250 -590q-94 -201 -141 -438q-8 -43 -21 -82q-12 -29 -33 -29q-14 0 -32 15q-33 33 -33 78q0 158 65 309q150 346 273 594q152 305 188 616q1 10 1 20q0 36 -17 76q-72 18 -142 19q-131 0 -247 -64q-98 -53 -174 -157v-33 q0 -23 16 -31q27 -4 49 -4q141 0 191 158q8 25 22 69q4 4 10 9h11q12 -35 12 -72q0 -61 -41 -129q-74 -119 -180 -119q-51 0 -113 27q-41 25 -47 73z" />
<glyph unicode="Q" horiz-adv-x="1226" d="M8 733q0 160 60 309q104 262 356 408q113 66 221 66q135 0 184 -127q18 -47 19 -89q0 -66 -45 -122q-2 -2 -29 -25q-68 -33 -131 -33q-61 0 -121 31q-23 12 -29 34.5t-16 69.5v5q6 4 12 6q2 -2 9 -6q16 -98 105 -98q9 0 20 1q84 10 147 56q10 35 10 63q0 80 -73 121 q-45 25 -89 25q-10 0 -20 -1q-37 0 -66 -12q-244 -109 -358 -348q-84 -178 -88 -362v-7q0 -126 66 -262q135 -274 445 -274h11q131 2 260 69q6 47 15 136q4 6 -2 51q-23 86 -97 86q-29 0 -67 -15q-25 -12 -39 -32q4 -12 12 -39q10 -44 55 -44q7 0 15 1q0 6 6 8q8 10 8 23.5 t12 25.5l7 2q10 -2 12 -4t2 -6q6 -18 6 -23q4 -18 12 -26q-29 -70 -80 -70q-35 0 -79 31q-35 23 -41 59q-4 20 -4 39q0 111 139 125q15 2 29 2q132 0 161 -139q12 -57 13 -113q150 143 172 342q3 24 3 48q0 87 -34 171q-16 43 -45 58v8q-2 2 -2 6q0 -4 2 6v10q-2 0 11 5.5 t15 5.5q131 -74 132 -217q0 -186 -82 -351q-45 -119 -152 -196q-10 -8 -33 -19q-2 -16 -12 -55q-31 -113 -31 -189q0 -96 78 -122q41 -14 94 -15q80 10 95 78q8 45 43 45q36 -19 36 -55q0 -22 -12 -49q-10 -12 -29 -35q-80 -76 -170 -76q-51 0 -104 25q-31 14 -68 61 q-37 72 -37 163q0 25 3 52q6 39 16 117q-139 -63 -275 -63h-12q-162 4 -303 108q-178 135 -231 361q-23 98 -23 196z" />
<glyph unicode="R" horiz-adv-x="1204" d="M-57 1487q0 113 137 172q76 25 149 29q12 1 24 0q165 0 247 -129q6 -6 14 -31q8 -33 10 -49q66 88 189 118q113 14 127 15q201 -4 250 -203t49 -250q0 -129 -74 -241q-76 -121 -197 -156q37 -39 37 -98q0 -20 -4 -43q-35 -166 -117 -324q-18 -27 -36 -102q-1 -15 -1 -28 q0 -107 68 -169q27 -29 58 -29q15 0 30 6q147 61 148 199q0 27 -7 53q-4 55 -49 86q-15 2 -27 2q-32 0 -48 -15q-19 -18 -20 -57q0 -7 1 -14q0 -10 14 -18q2 -8 15 -12v-15q0 -8 -3 -14t-7 -8q-8 -4 -27 0q-6 0 -14 2h-11q-39 29 -49 80q0 2 -6 39q49 118 146 118h2 q43 0 94 -22q45 -31 65 -70q29 -68 29 -129q0 -135 -123 -233q-74 -59 -143 -60q-70 0 -137.5 60.5t-67.5 212.5q0 199 117 372q10 12 20 48q17 38 17 78q0 35 -13 71q-27 20 -57 14q-2 0 -10 -2q-4 2 -11.5 4.5t-21.5 4.5t-19 2q-143 14 -213 14q-39 0 -55 4q-2 0 -4 2h-4 l20 47q139 43 281 43q51 0 102 -6q5 -1 10 -1q33 0 68 24q143 96 154 274q1 15 1 30q0 92 -32 171q-33 82 -90 151q-37 45 -96 45q-143 0 -273 -123q-18 -16 -26 -34q2 -41 2 -79q0 -118 -23 -210q-16 -61 -78 -277v-8l-20 -47q-70 -252 -158 -500q-47 -131 -47 -264 q-18 -6 -35 -6q-51 0 -51 78v10q0 177 68 338q20 45 59 139q92 244 174 553q27 102 27 199q0 109 -33 217q-25 80 -127 98h-24q-103 0 -185 -30q-92 -34 -92 -119q0 -23 8 -49q47 -41 92 -41q96 0 195 202h6q4 0 7 -2t5 -2q-6 -66 -43 -143q-35 -55 -96 -109 q-39 -14 -74 -14q-59 0 -108 43q-4 8 -35 35q-14 45 -14 82z" />
<glyph unicode="S" horiz-adv-x="944" d="M-6 330q0 152 115 301q94 123 215 123q70 0 147 -41q154 -80 154 -217q0 -49 -21 -107q-40 -108 -159 -108q-15 0 -31 2q-70 8 -113 32q-47 30 -47 94v5q0 4 3 15t4 19l1 7l8 4q4 10 23 28q8 4 14 13h6q2 2 6 2q29 0 41 -13l15 -14q-6 -4 -6 -6q-8 -10 -19 -14 q-23 -12 -35 -37v-8q22 -43 77 -44q12 0 26 3q29 8 84 22q37 61 37 111q0 80 -93 133q-63 37 -118 37q-84 0 -152 -86q-94 -121 -94 -242q0 -106 70 -213q16 -45 77 -63q98 -29 189 -29q170 0 321 100q74 63 80 156q1 22 1 44q0 234 -158 427q-78 92 -185 137 q-168 70 -303 201q-96 92 -96 201q0 61 31 131q78 178 247 245q74 29 174 50q17 1 34 1q211 0 249 -216q4 -23 4 -46q0 -111 -98 -194q-53 -45 -101 -45q-57 0 -108 67q-30 38 -30 80q0 7 1 15q0 2 6 4q0 4 5 12q18 -27 18 -33q18 -61 68 -92q139 0 165 152q3 18 3 35 q0 50 -27 88q-60 81 -154 81h-2q-23 0 -49 -4q-219 -41 -319 -241q-23 -45 -23 -86q0 -61 42 -116.5t99 -84.5q162 -78 336 -199t234 -311q37 -115 37 -225q0 -115 -38 -218.5t-153 -156.5q-145 -68 -285 -68q-178 0 -338 111q-37 20 -43 49q-70 121 -69 240z" />
<glyph unicode="T" horiz-adv-x="1736" d="M-106 1241v33q116 69 270 69q104 0 205 27q297 78 546 180q-16 106 -77 191q14 20 24 20h19q82 -70 108 -180q117 47 240 107q221 108 455 108h4q174 -20 174 -149q0 -29 -6.5 -58.5t-34.5 -52.5q-150 -113 -308 -113q-74 0 -149 25q-66 20 -111 57l35 66q47 -70 195 -70 q156 0 286 103q-6 51 -57 57q-61 6 -143 6q-121 -33 -254 -88q-10 0 -27 -8l-35 -66q-10 10 -32 21q-115 -53 -226 -90q0 -6 -6 -39q-41 -225 -133 -467q-70 -184 -70 -367q0 -190 76 -383q14 -35 41 -59q43 -8 80 -8q170 0 246 153q2 8 2 27q-18 47 -37 69 q-131 -2 -205 -122q-2 -10 -12 -33q-2 -4 -8 -19q-10 0 -31 11q-8 2 -10 6v12q0 -4 -4 14q0 8 4 11q-2 16 -2 32q0 90 86 160q68 53 143 53q45 0 92 -18q80 -33 94 -139q4 -27 5 -51q0 -176 -199 -256q-72 -29 -137 -29q-94 0 -181 57q-12 12 -43 39q-100 164 -110 367 q-2 33 -2 65q0 250 96 484q70 168 125 389q-250 -92 -571 -174q-98 -25 -199 -25q-94 0 -197 21q-12 2 -34 24z" />
<glyph unicode="U" horiz-adv-x="1308" d="M-111 1366q10 186 187 272q119 57 260 80q190 -6 213 -194q4 -29 4 -58q0 -83 -31 -157q-82 -205 -209 -408q-139 -223 -139 -463q0 -63 10 -129q14 -98 87 -167.5t171 -69.5q57 0 125 24q47 18 86 64q213 250 221 569q3 94 3 209.5t-3 251.5v10q0 79 29 154 q90 238 303 317q2 -2 14.5 -7t12.5 -28v-12q-256 -178 -256 -500q0 -47 8 -274q1 -26 1 -50q0 -98 -13 -177q8 -23 8 -43t-8 -43q-25 -180 -25 -277q0 -156 107 -231q23 -16 49 -4q106 49 106 165q0 78 -77 107q-6 0 -13 -4q-20 -23 -39 -64v-8q-14 -18 -28 -18t-27 14 q-10 37 -10 57v21q31 96 117 96q29 0 65 -12q68 -25 90 -113q10 -43 10 -82q0 -143 -135 -229q-53 -33 -94 -33q-61 0 -111 70q-84 123 -84 256v49q-6 -12 -18 -35q-80 -147 -209 -237q-76 -53 -168 -54q-27 0 -55 4q-184 25 -285 197q-69 115 -69 244q0 61 14 125 q74 340 266 624q74 109 115 240q12 37 12 74q0 94 -76 157q-16 1 -32 1q-214 0 -355 -152q-45 -47 -45 -111q0 -37 19 -76q2 -10 10 -12q2 -2 2 -6q102 10 150 117q2 20 26 26q2 -2 6 -4l4 -2q8 -2 13 -8q-14 -150 -154 -215q-29 -10 -59 4q-97 45 -97 157v11z" />
<glyph unicode="V" horiz-adv-x="1433" d="M-2 1495q-7 33 -7 63q0 47 17 89q51 70 123 100q23 12 74 27h8q241 0 299 -230q70 -270 86 -667q12 -338 25 -676q123 348 231 553q152 285 358 475q90 84 238 180q-6 0 18 -6q4 -6 17 -14q4 -6 4 -13v-12q0 -10 -4 -12q-244 -221 -449 -516q-117 -168 -176 -344 q-74 -215 -162 -435q-35 -84 -100 -84q-20 0 -43 9q-29 6 -33 36q-35 303 -35 656q0 133 -12 538q-6 231 -137 433q-16 33 -64 36q-14 1 -28 1q-138 0 -152 -132q-1 -10 -1 -19q0 -74 71 -112q68 10 149 17q14 2 15 -9q1 -10 1 -18q0 -82 -102 -86h-12q-179 0 -217 172z" />
<glyph unicode="W" horiz-adv-x="2011" d="M8 1233q0 29 6 59q6 41 43 76q128 117 310 135q182 0 282 -168q125 -207 127 -454q0 -41 23 -168q51 -291 92 -607q23 29 81 68t81 66q-2 26 -2 51q0 322 276 512q23 12 70 31q82 -16 82 -74q0 -25 -17 -60l-71 15q0 10 -7 16l-4 -4q-190 -111 -217 -342v-8 q133 156 228 338l71 -15q-80 -156 -170 -278q-41 -55 -129 -168q61 -131 201 -131q35 0 76 8q35 6 65.5 6t57.5 -6q-32 227 -32 413q0 38 1 74q8 236 61 494q66 319 265 576q59 78 143 79h7q109 0 142 -122q4 -33 4 -64q0 -86 -38 -166q-74 -147 -193 -147q-53 0 -106 35 q-20 6 -21 32q-6 31 16 45h13q43 -49 88 -49t94 51q70 76 70 156q0 63 -41 129q-2 4 -6 6h-45q-168 -172 -238 -409q-63 -221 -86 -435q-14 -133 -13.5 -278t13.5 -303q2 -21 2 -41q0 -74 -23 -141l-10 -11v-4q-2 -2 -2 -6q2 0 2 -6l-6 -14h-14q0 2 -8 6v8q0 6 -2.5 7 t-6.5 8t-18 18q-72 -70 -186 -70q-33 0 -66 6q-160 27 -242 164q-84 -94 -186 -100q0 -20 4 -47q2 -12 2 -22q0 -33 -22 -34q-14 0 -35 13.5t-31 35.5q-98 340 -131 687q-20 221 -76 493q-31 154 -162 238q-37 4 -69 4q-205 0 -305 -178q-8 -49 -9 -41q8 -63 52 -109h2 q8 -2 18 -2h14q27 27 86 68q23 14 70 36q10 0 15.5 -3t7.5 -7q-84 -84 -199 -147q-14 0 -21 4q-98 61 -98 172z" />
<glyph unicode="X" horiz-adv-x="1472" d="M61 -39q20 156 91 279q158 274 303 491q45 61 133 184q-45 102 -80 246q-57 244 -117 412q-4 18 -20 24q-12 1 -24 1q-197 0 -202 -191q-1 -5 -1 -10q0 -35 38 -66h25q12 25 20 35q8 27 47 59q2 -2 19 -8q2 -4 2 -10q-6 -16 -16.5 -43t-30.5 -78q-4 -4 -19 -12l-26 -17 q-10 0 -10 -4q-127 53 -127 156q0 45 22 98q57 137 205 170q231 -6 256 -245q12 -109 29 -179q20 -80 84 -237q121 152 282 323q211 223 430 342q37 19 67 19h3q133 -59 133 -187q0 -38 -12 -83q-54 -205 -248 -205h-4q-145 0 -228 104l33 33q80 -70 160 -70q86 0 168 84 q18 12 33 56q6 25 6 47q0 61 -45 104q-16 16 -51 23q-143 -102 -269 -234v-6q-2 -2 -2 -4l-33 -33q-190 -190 -370 -436q201 -393 487 -672q49 -47 49 -117q0 -6 4 -10q12 -12 16.5 -26.5t4.5 -20.5v-10q0 -2 -3 -6t-5 -6q-180 100 -314 274q-47 61 -139 186 q-94 135 -172 299q-242 -356 -498 -837q-4 -8 -18 -25q-10 -4 -10 -14q-31 -6 -19 -6q-2 0 -14 6l-8 8v4q-2 2 -2 4q0 -2 2 13q4 0 4 8q-6 2 -6 12z" />
<glyph unicode="Y" horiz-adv-x="974" d="M106 1663q27 4 82 14q27 6 52 6q106 0 145 -104q16 -43 16 -86q0 -51 -24 -100q-66 -133 -66 -290v-9q0 -53 43 -86q90 -72 164 -80q0 -8 8 -8v-9q-6 -6 -10 -18q-29 -6 -55 -6q-135 0 -205 145q-26 54 -26 107q0 19 3 37q18 113 70 215q29 57 29 116q0 39 -15 80 q-10 27 -94 27q-102 0 -188 -51q4 0 4 -9v-8q0 -6 2 -6q23 -20 45 -20q23 0 47 20q10 12 55 37q2 -10 7.5 -13.5t15.5 -13.5v-8q-53 -86 -121 -86q-41 0 -86 31q-31 22 -31 51q0 112 133 125zM25 154q2 4 6 8q-4 0 10 2q10 -6 14.5 -15.5t12.5 -21.5q2 -6 12 -21 q61 -49 133 -49q53 0 113 29q154 78 221 240q59 145 59 299t-59 313q-35 96 -35 227q0 311 256 521q63 51 131 63q146 0 146 -131q0 -11 -1 -23q-8 -98 -112 -125q-31 -8 -55 -8q-92 0 -117 101h43q12 -23 30.5 -32t38.5 -9q53 0 95 41q10 23 10 41q0 51 -78 57h-12 q-49 -16 -88 -51q-4 -2 -11 -8q6 -12 15 -39h-43q-76 -68 -123 -173.5t-47 -207.5q0 -35 6 -72q33 -207 74 -342q30 -99 30 -200v-7q0 -59 -10 -119q-29 -170 -137 -313q-92 -123 -217 -162q-57 -18 -103 -18q-66 0 -120 37q-29 25 -31 47q-2 6 -12 6q-2 10 -6.5 14 t-16.5 10v15q-2 10 -2 14q-2 14 -16 55q0 6 -4 7z" />
<glyph unicode="Z" horiz-adv-x="1800" d="M-80 1153q0 25 8 53q43 164 211 221q43 14 88 15q57 0 111 -27q109 -55 223 -55q84 0 172 29q330 106 621 309q33 0 39 -33v-12q-2 -4 -299 -523q-117 -203 -269 -552q-76 -172 -118 -351q-8 -41 -29 -121q240 102 528 125q39 8 115 29q141 51 260 131q139 95 139 266 q0 36 -12 95q-168 -53 -260 -195q-12 -20 -13 -44q0 -10 3 -21q94 -33 147 -43q8 -4 8 -27q-2 -16 -12 -21q-45 -16 -84 -16q-90 0 -137 90q-12 22 -12 44q0 12 4 24q37 127 152.5 214t197.5 87q68 0 86 -84q14 -61 14 -115q0 -174 -143 -295q-109 -92 -240 -133 q-309 -98 -606 -121q-90 -6 -151 -51q-10 -27 -31 -76q-8 -14 -8 -22q-20 -14 -31 -33q0 -2 -6 -8l-4 -2q-6 0 -15 -2h-8q-6 0 -12 3t-6 9q82 309 143 522q82 279 231 555q141 262 316 535q-35 -10 -111 -47q-297 -172 -633 -172q-70 0 -138 37.5t-132 37.5q-72 0 -134 -46 t-85 -103q-4 -27 -10 -82v-29q33 -67 98 -67h2q16 0 33 4q102 98 164 217q0 4 9 6t7 2q12 -8 14 -8q1 -8 1 -15q0 -61 -42 -126q-41 -82 -120 -129q-31 -18 -66 -19q-33 0 -70 19q-98 51 -98 147z" />
<glyph unicode="[" horiz-adv-x="4323" d="M3854 -291q-10 106 9 238q12 78 32 229q12 137 58 516q35 293 82 525q20 98 81 172l17 16q276 0 500 -82v-8q-148 -1 -222 24q-53 18 -82 17q-86 16 -188 -8q-29 -86 -57 -230q-10 -78 -33 -237q-41 -344 -131 -1033q0 -16 -4 -44.5t-4 -45.5l483 25q25 2 25 -16 q8 0 8 -9h-8v-8q-111 -49 -254 -49h-115q-49 -6 -96 -6q-49 0 -92 6h-9v8z" />
<glyph unicode="\" horiz-adv-x="774" d="M61 1487v8q0 16 9 16h8q72 0 119 -65q16 -23 69 -139q88 -96 137 -222q43 -127 84 -254q51 -113 95 -247q70 -229 77 -252l82 -238l-16 -8q-14 -8 -29 -8q-41 0 -69 80q-20 72 -41 141q-61 94 -97 229q-47 193 -67 246q-45 129 -92 260t-121 240q-16 37 -88 102 q-59 55 -60 111z" />
<glyph unicode="]" horiz-adv-x="628" d="M45 1577v25q82 33 156 32q33 4 94 12.5t94 12.5h25q49 -31 65 -123v-131q33 -340 41 -524l25 -516q8 -162 -17 -328q0 -33 -32 -17q-49 25 -103 25q-55 0 -110 -25q-37 -12 -68 -12q-33 0 -63 12l-9 9v16q131 70 263 70q37 0 73 -4q0 336 -16 507q-14 156 -31 492 q-16 322 -35 492q-160 -25 -327 -25h-25z" />
<glyph unicode="^" horiz-adv-x="804" d="M29 1004q0 61 49 122q25 25 65 74q145 225 295 385q0 8 8 8q117 -59 164 -213q37 -121 82 -180q82 -106 131 -156q8 -12 25 -32q-8 0 -8 -8l-17 -17q-4 0 -8 4t-8 4q-96 14 -148 90q-125 184 -213 410q-141 -184 -311 -434q-31 -45 -82 -57h-24z" />
<glyph unicode="_" horiz-adv-x="1460" d="M27 -164q123 33 262 37l835 21q150 4 316 18q33 2 96 10q29 -8 29 -35v-8q-2 -8 -3 -9t-14 -11q-612 -37 -1247 -47q-88 -2 -178 -15q-37 -6 -88 8q-4 6 -8 11v20z" />
<glyph unicode="`" horiz-adv-x="475" d="M166 1581q0 8 6 12t12 4q68 -41 107 -112q8 -16 49 -90q8 -14 8 -29l-57 -2q33 -78 90 -168l2 -2q-27 84 -92 170l57 2q76 -127 98 -256q0 -4 -6 -4q-35 0 -57 31q-86 121 -158 284q-18 43 -49 95q-10 35 -10 65z" />
<glyph unicode="a" horiz-adv-x="958" d="M82 256q0 96 51 160q158 195 400 195q13 0 26 -1q178 -6 209 -180q0 -14 6 -24q70 139 70 278q0 82 -25 166q-8 27 -35 27q-139 0 -231 -109q-27 -31 -72 -66q-6 0 -9 2.5t-5 2.5l-16 16q16 86 67 158q12 27 55 61q6 -4 11 -10v-10q4 -8 4 -15q0 -8 -4 -16l-15 -14 q63 43 144 65q6 0 16 3t14 3q154 0 168 -160q4 -49 4 -98q0 -229 -100 -434q-55 -115 -119 -205q-29 -43 -59 -43q-20 0 -43 23q8 57 57 119q10 12 25 45q23 61 22 120q0 88 -47 166q-20 35 -58 41t-71 6q-150 0 -270 -108q-59 -53 -78 -137q-4 -18 -4 -52q22 -118 144 -118 h10q113 4 143 112q6 25 -10 41q-2 6 -17 17h-41q-4 -4 -20 -31q-6 -29 -41 -47q-4 4 -14 10l-17 10q0 137 121 137q18 0 39 -4q31 0 51 -30q35 -53 35 -101q0 -72 -80 -133t-156 -61q-82 0 -163 69q-72 61 -72 154z" />
<glyph unicode="b" horiz-adv-x="882" d="M102 61q-10 27 -10 56q0 38 17 79q30 72 93.5 252.5t186.5 530.5q14 41 72 174q-96 -80 -266 -174q-2 0 -4.5 2t-6.5 2v6l-4 4q4 6 4 17q201 139 355 266q35 -16 34 -45q0 -23 -20 -53q-6 -10 -14 -31q-61 -156 -160 -440q108 75 224 75h3q27 0 56 -4q178 -25 184 -209 q1 -16 1 -32q0 -101 -22 -220q-16 -92 -71 -163q-92 -119 -222 -119q-61 0 -126 26q-80 33 -109 119q-20 63 -21 123q0 141 119 260q72 72 148 72q61 0 116.5 -35t63.5 -92q8 -29 8 -53q0 -98 -110 -148q-43 -18 -80 -18q-55 0 -101 39q-25 16 -14 47q6 20 31 35 q18 8 24 -11q16 -10 11 -10q29 -6 51 -6q84 0 108 94q4 8 4 15q0 8 -4 10q-41 63 -92 63q-37 0 -82 -33q-125 -90 -125 -231q0 -29 6 -59q14 -80 99 -109q32 -11 64 -11q40 0 79 17q125 53 158 189q20 82 20 164q0 98 -30 190q-12 37 -52 45q-51 10 -98 10q-119 0 -223 -65 h-6q-4 -14 -15 -41q-53 -168 -180 -529q-20 -42 -61 -42q-5 0 -11 1z" />
<glyph unicode="c" horiz-adv-x="645" d="M6 383q0 129 96 293q139 236 410 282q110 -14 110 -107q0 -11 -1 -22v-10q-62 -109 -160 -123q-20 0 -25 6q-32 19 -32 48q0 7 2 14l4 4q4 0 9 3t7 3q4 0 8 -4t17 -22q6 0 6 -5q92 31 92 117q0 2 -10 17q-180 0 -305 -145.5t-152 -346.5q0 -45 6 -68q20 -80 96 -133 q78 -45 152 -45q84 0 166 62q30 22 30 53q0 12 -10 12q-8 12 -20 21v10v6q20 31 43 31q25 0 55 -41q8 -22 8 -39.5t-8 -32.5q-55 -139 -225 -153q-17 -1 -34 -1q-190 0 -294 169q-41 68 -41 147z" />
<glyph unicode="d" horiz-adv-x="860" d="M76 371q0 43 12 86q33 125 117 205q92 90 221 92h8q153 0 170 -160q2 -16 2 -32q0 -94 -63 -156q-43 -43 -78 -44q-37 0 -70 48q-20 31 -20 61q0 27 14 51q16 12 29 13q12 0 22 -13l-10 -10q0 -10 -10 -10q-2 -13 -2 -25q0 -25 8 -47l10 -10q106 31 107 143q-6 68 -62 99 q-22 16 -44 16q-13 0 -27 -6q-203 -72 -240 -266q-5 -25 -5 -49q0 -47 19 -85q59 -118 170 -118h2q41 0 95 16q80 25 102 106q55 197 133 420q45 123 129 369q16 51 66 113q10 10 16 10q23 -33 23 -70q-1 -28 -13 -63q-23 -45 -51 -133l-174 -523q-8 -20 -20 -61 q-8 -106 -62 -199q-6 -6 -6 -16q63 51 143 82q6 0 8.5 -2t2.5 -8q-27 -29 -209 -242q0 -25 -27 -41v-4q-61 0 -61 43q0 20 36 131q-63 -23 -118 -23q-145 0 -236 136q-57 84 -57 176z" />
<glyph unicode="e" horiz-adv-x="745" d="M37 430v16l4 5q12 12 41 20q20 0 31 6q135 211 333 332q53 33 113 47l-6 -72q-188 -88 -311 -256q0 -6 -6 -10q115 27 327 123q68 31 68 86q0 23 -10 51q-13 13 -34 13q-15 0 -34 -7l6 72q131 0 131 -113q0 -18 -4 -36q0 -31 -35 -66q-160 -117 -338 -164 q-74 -20 -129 -41q-2 -8 -10 -20q-6 -27 -20 -41v-10q0 -68 30 -132q37 -76 99 -83q41 -10 79 -11q121 0 211 92q31 32 31 74q0 14 -4 29q-23 4 -45 4q-84 0 -160 -55h-10q-4 0 -6 2t-4 2v41q0 4 2 9t2 7q72 66 147 66q51 0 109 -31q31 -16 31 -45l2 -26q0 -101 -86 -174 q-96 -83 -215 -83q-111 0 -217 92q-78 68 -78 164q0 61 6 88q2 6 10 15q-6 0 -12 3t-8 3q-16 0 -31 14z" />
<glyph unicode="f" horiz-adv-x="632" d="M-16 758v10q0 4 3 6t3 4h16q6 137 127 226q4 0 10 6q43 -29 43 -80q0 -18 -6 -43q-31 -78 -108 -119v57q61 37 61 107h-4q-25 -29 -57 -103v-4v-57q42 -82 127 -82h12q4 78 14 236q18 203 133 378q59 92 174 109q135 -23 135 -154q0 -9 -1 -20q-10 -109 -52 -184 q0 -7 -4 -7q-10 0 -10 -5t-6 -5v-10q-4 0 -10 -4q-4 4 -11 4v16q0 2 3.5 4.5t3.5 6.5q-4 20 -4 43q0 52 18 120q7 27 7 52q0 32 -11 61q-31 8 -58 8q-78 0 -122 -86q-127 -240 -127 -547q98 20 290 66q27 -10 21 -10l6 -4h25q6 -6 6 -11l4 -6q-6 -20 -35 -20q0 -4 -6 -4v-6 q-152 -49 -311 -66q-2 -25 -11 -170q-12 -248 -30 -420q-11 -2 -19 -2q-24 0 -37 15q-13 18 -13 52q0 8 1 17q3 29 3 57.5t-3 55.5q-12 109 -41 323v15q45 -6 62 -72q0 -35 6 -51q0 82 10 174h-41q-80 0 -123 57q-16 23 -27 45q-6 6 -30 17q-6 0 -6 4z" />
<glyph unicode="g" horiz-adv-x="808" d="M-500 -565q0 59 74 84q319 106 627 147q180 23 291 47q78 264 112 410q8 37 27 113q-119 -125 -307 -154q-13 -2 -26 -2q-46 0 -93 22q-127 63 -127 205q0 176 143 277q95 67 206 67h3q113 -30 113 -141v-12q-10 -176 -174 -222q-10 -4 -18 -4q-24 0 -34 35q-4 20 -4 39 q0 47 35 90h27q0 -4 2 -6t5 -3t3 -7v-4q-10 -25 -15 -38t-5 -44q98 29 106 143v14q0 74 -61 74q-25 0 -62 -12q-74 -23 -133 -88q-63 -72 -63 -146q0 -72 69 -139q4 -6 33 -14t59 -8q133 0 240 114q66 72 139 107q14 0 15 -4q21 -26 21 -54q0 -14 -5 -28q-35 -135 -98 -412 q-16 -78 -41 -153q10 0 18 -2t8 -9l246 31q2 0 4 -2t6 -2v-16v-4q-6 0 -6 -7q-109 -14 -246 -41q0 -14 -20 -14q-8 0 -35 -10q-55 -266 -287 -416q-80 -41 -223 -41q-127 0 -264 53q-76 29 -246 117l45 66q226 -128 492 -128q26 0 53 1q51 2 76 14q203 100 256 313v4 q-168 -27 -559 -102q-190 -37 -318 -102l-45 -66q-16 10 -37 51q-2 10 -2 19z" />
<glyph unicode="h" horiz-adv-x="616" d="M51 37q14 219 170 639q-61 -45 -92 -123h-10q-4 0 -6 3t-4 3q16 125 137 195q61 174 129 393v10q-63 -47 -154 -137h-16q-4 4 -10 4q98 123 235 236q8 -2 27 -11q0 -4 4 -10q-47 -244 -103 -399q-4 -4 -4 -21q66 31 129 31t121 -31q1 -14 1 -28q0 -103 -52 -207 q-94 -186 -133 -404q-2 -10 -2 -20q0 -29 18 -58q23 -2 47 -2q23 0 45 2q10 0 21 -10q4 0 4 -4l6 -6v-14q0 -6 -6 -11q-45 -37 -90 -37q-43 0 -88 31q-29 14 -37 62q-8 41 -8 82q0 131 76 266q86 156 133 327q-33 14 -70 15q-41 0 -84 -19q-35 -14 -51 -26 q-61 -186 -144 -475q-43 -147 -92 -256q-7 -12 -17 -12q-6 0 -13 5z" />
<glyph unicode="i" horiz-adv-x="405" d="M61 590q-1 3 -1 5q0 7 8 15q0 4 4 11q106 27 235 96q14 0 27 -21v-10q-117 -236 -180 -496q-2 -12 -2 -22q0 -59 114 -59q31 41 68 41q18 0 35 -11q0 -55 -62 -92q-8 0 -24 -16q-39 -12 -70 -13q-92 0 -121 105q-8 30 -8 60.5t8 62.5q51 201 160 395q-29 0 -92 -37 q-35 -17 -69 -17q-15 0 -30 3zM190 989v10v5q6 10 8.5 12t4.5 4t2 4v37q25 37 71 61q27 10 37 11q98 -14 98 -116q0 -11 -1 -24q-10 -102 -107 -102q-37 0 -37 31q-2 12 -2 24q0 51 60 78q0 6 4 0q14 0 20 -10v-4v-11q-6 -8 -21.5 -18t-23.5 -39q29 -14 51 21q10 16 11 26 q0 14 -7 21q-8 29 -20 41q-14 10 -28 10q-18 0 -34 -17l-24 -24h-6q-10 0 -15.5 -3t-6.5 -6t-6 -8.5t-9 -9.5t-8 -10q-6 6 -11 6z" />
<glyph unicode="j" horiz-adv-x="563" d="M-236 -618q0 8 5 18q332 174 467 518q92 233 139 488q20 109 55 321q-52 -17 -154 -72q-47 -23 -143 -71h-20q-4 6 -4 10q-6 0 -7 6q27 41 99 76q125 43 286 164q35 -25 35 -66q0 -20 -10 -47q-4 -4 -4 -31q-27 -176 -88 -532q-53 -272 -209 -512q-143 -221 -381 -297 q-10 -6 -31 -6q-35 6 -35 33zM395 1137v10v6q45 66 133 66q76 -41 76 -117q0 -27 -10 -58q-27 -75 -73 -75h-1q-41 0 -59 26q-4 8 -6 19.5t-2 21.5q0 35 34 56q6 0 21 -11q4 0 10 -6q-4 -8 -16 -35q-4 -6 -4 -26h20q26 37 26 82q0 20 -5 41q0 4 -17 20q-12 4 -24 4 q-37 0 -72 -35h-10q-2 0 -7.5 3.5t-7.5 5.5t-6 2z" />
<glyph unicode="k" horiz-adv-x="774" d="M59 664q0 4 1 10t4.5 8t3.5 4q16 1 32 1q86 0 166 -36q43 143 185 512q20 41 26 56q-150 -84 -282 -199q-2 0 -11 4v6q92 123 242 215q37 20 106 62h11q11 -29 11 -57q0 -39 -22 -76q-72 -154 -174 -512q111 4 242 79q109 68 219 136l6 -7q4 -4 4 -10 q-193 -207 -485 -260l-6 -6q0 -4 -4 -10q170 -201 338 -434q18 -25 55 -78q6 -4 6 -21q-20 -12 -39 -12q-43 0 -80 53q-98 143 -301 426q-45 -186 -153 -420l-21 -20q-39 29 -39 76q0 27 13 57q78 197 133 379q-41 20 -137 41q-23 4 -48 20q-2 8 -2 13z" />
<glyph unicode="l" horiz-adv-x="512" d="M119 92q16 285 92 518q92 283 184 527q18 41 51 123q-66 -39 -163 -117q-72 -57 -133 -99q-7 -4 -21 -4q59 86 178 174q143 106 215 158q6 -4 10 -4q6 -6 11 -6v-4q0 -2 3 -7t3 -10q-113 -242 -191 -512q-61 -215 -127 -532q-23 -109 -51 -205q-14 -10 -10 -10 q-10 -5 -19 -5q-17 0 -32 15z" />
<glyph unicode="m" horiz-adv-x="991" d="M119 98q14 193 102 379q63 135 113 250q-106 -63 -164 -113q-10 -35 -41 -4v25q154 113 270 190q6 0 10.5 -3l10.5 -7v-6q0 -2 3 -7t3 -7q-10 -25 -30.5 -74t-30.5 -76q0 -2 -3.5 -7t-3.5 -7q80 53 164 53q41 0 82 -12l18.5 -18.5t8.5 -32.5q-6 0 -6 -11q127 94 297 117 q25 -16 41 -41q-23 -180 -107 -328q-51 -90 -51 -182q0 -41 10 -84q38 -24 81 -24q27 0 56 10q6 -6 11.5 -8t9.5 -9v-4q0 -10 6 -16q-6 0 -6 -4v-6q-49 -25 -96 -25q-68 0 -123 51q-20 18 -21 35q-6 35 -6 68q0 123 68 235q82 139 112 287q-129 0 -245 -88q-63 -47 -78 -127 q-113 -117 -144 -266v-31q0 -10 -4 -16q2 -2 8.5 -10.5t12.5 -14.5v-10v-6q-4 0 -11 -11q-23 -6 -36 17v4q-4 6 -21 6q0 2 -2 4t-2 6q-6 0 -6 4v17q0 198 133 338q59 61 68 133q-39 12 -74 12q-61 0 -121 -39q-33 -20 -47 -55q-68 -158 -123 -324q-23 -66 -51 -127 q-8 -16 -14 -16q-25 0 -31 16z" />
<glyph unicode="n" horiz-adv-x="759" d="M55 590q1 49 58 86q135 90 145 96q84 51 158 68q33 -20 33 -58q0 -33 -23 -69q-20 -27 -37 -68q-6 -20 -20 -65q95 67 191 67h3q41 0 82 -12q6 0 10 -4q29 -68 29 -129q0 -63 -29 -127q-65 -145 -65 -293q0 -8 2 -10t2 -4l6 -7q34 -7 66 -7q45 0 82 14q0 -4 3 -6.5 t5 -3.5t2 -7q-2 -2 -9.5 -4t-11.5 -6l-10 -10q-39 -53 -98 -54q-33 0 -76 17q-8 8 -21 26q-26 51 -26 107q0 49 16 94q55 152 99 322q-2 10 -11 30q0 4 -3 9.5t-3 7.5q-143 0 -256 -98q-47 -41 -82 -117q-25 -57 -61 -172q-10 -41 -10 -94q6 -6 7 -10.5t9 -16.5v-21v-4 q-12 -20 -47 -20q-53 31 -53 94q0 25 8 53q45 180 127 348q35 68 92 201q-18 0 -80.5 -37t-144.5 -123q-23 -25 -52 -14q-6 14 -6 31z" />
<glyph unicode="o" horiz-adv-x="645" d="M33 358q0 94 59 263q88 190 242 290q2 2 20 11q31 0 52 -21l10 -10l4 -4q0 -2 3 -7.5t3 -8.5t4 -11l-20 -20q-4 6 -8.5 7t-22.5 13q-14 -4 -41 -4q-164 -172 -225 -410q-10 -43 -11 -84q0 -76 37 -147q51 -100 148 -100q41 0 88 18.5t82 61.5q71 91 71 187q0 85 -51 171 q-10 25 -37 31q-41 18 -78 18q-78 0 -131 -84q-22 -34 -22 -72q0 -20 6 -40q43 -55 94 -56q35 0 76 25q4 4 4 20v21q-4 0 -4 4q-49 0 -78 20v6q6 0 6 5v6q4 4 4 12t7 8q35 18 61 19q51 0 72 -66q6 -20 6 -39q0 -41 -33 -74q-49 -41 -104 -41q-39 0 -80 21q-109 53 -109 160 q0 25 6 51q8 18 21 45q74 123 201 123q39 0 86 -10q109 -37 139 -144q20 -72 20 -137q0 -190 -190 -313q-66 -43 -125 -43t-115 43q-147 115 -147 286z" />
<glyph unicode="p" horiz-adv-x="845" d="M16 317q190 270 441 451q37 -27 37 -74q0 -27 -13 -59q-8 -20 -20 -62q-2 -12 -10 -41q80 72 204 72q145 -68 160 -235q2 -21 2 -44q0 -60 -12 -130q-25 -141 -154 -232q-27 -10 -30 -10q-197 14 -232 201q-7 37 -7 69.5t7 59.5q75 148 232 148q15 0 30 -1q25 -6 45 -31 q20 -41 21 -77q0 -49 -35 -101q-24 -24 -49 -24q-14 0 -29 8q-4 0 -4 5t-6 11q0 2 3 4t3 6q12 29 35 86q8 25 -4 41q-9 1 -18 1q-95 0 -136 -97q-13 -28 -13 -58q0 -35 17 -71q35 -78 101 -78q27 0 53 13q14 4 31 20q67 115 67 238q0 65 -16 131q-23 86 -99 86 q-78 0 -157 -66q-14 -14 -35 -20q-45 -164 -129 -407t-158 -527q-10 -43 -47 -86q-4 -4 -14 -10v-17q0 -10 -6 -20q-4 0 -4 -4h-11q-14 8 -6 20q0 14 6 21q-24 34 -24 77q0 39 14 80l45 133q55 176 174 525q72 197 144 420q-188 -145 -349 -349v-20l-4 -6q-6 -4 -10 -4h-16 q-2 8 -11 24q-4 6 -4 10z" />
<glyph unicode="q" horiz-adv-x="743" d="M37 266q0 154 127 283q90 92 231 174q13 10 62 20q2 0 7 2.5t7 2.5q57 -12 57 -60q0 -14 -6 -33q0 -4 -4 -4q-6 -6 -16 -6h-10v21q8 8 -5 20q-11 1 -21 1q-68 0 -128 -56q-109 -102 -184 -205q-55 -76 -56 -150q0 -78 49 -141q52 -69 125 -69h2q127 0 187 98 q10 10 18 37.5t8 54.5q0 80 -47 150q-8 12 -34 30q-147 -16 -154 -153q0 -18 14 -27q55 10 92 41q4 0 9.5 -2t7.5 -2q0 -6 4 -6q-16 -90 -86 -90q-76 0 -98 45q-6 31 -7 57q0 121 136 188q41 20 77 21q76 0 117 -92q10 -23 31 -72q31 72 86 219q10 33 31 47v11q0 4 6 4 q0 -4 14 16q6 0 10 -6q0 -104 -41 -209q-174 -446 -219 -754q-16 -113 -16 -164q96 102 225 154q6 4 21 4l-174 -174q-33 -33 -62 -86q-10 -27 -31 -82q-4 -6 -10 -10q-9 -4 -17 -4q-22 0 -34 28v7q0 164 41 403q25 145 67 303q-74 -55 -147 -55q-127 0 -217 117 q-6 8 -25 26q-20 66 -20 127z" />
<glyph unicode="r" horiz-adv-x="755" d="M78 47q82 227 219 451q10 16 10 34q31 47 88 140q-109 -49 -272 -144q-18 -8 -25 11q53 68 154 123q63 35 147 61q8 0 21.5 2t19.5 2q14 0 21 -10q0 -2 6 -10q0 -10 4 -15q-2 -14 -25 -57l-6 -4q133 78 287 102q6 0 10 -6q14 -29 15 -57q0 -49 -45 -101q-63 -72 -86 -159 q10 -2 20 -2q8 0 21 2q10 0 14 -4v-7q6 0 6 -4q0 -10 -6 -16q-12 -6 -41 -21h-10q-6 0 -19.5 3.5t-21.5 3.5q-10 33 -11 63q0 66 48 125q53 68 86 129q-12 1 -24 1q-53 0 -114 -28q-100 -47 -174 -127q-12 -18 -37 -57q-139 -272 -235 -440q-9 -4 -17 -4q-17 0 -28 20z" />
<glyph unicode="s" horiz-adv-x="724" d="M20 270q0 33 17 68q0 14 10 27q82 94 191 94q37 0 75 -13q18 0 28.5 -29.5t10.5 -58.5q0 -59 -45 -122q-4 6 -20 6q-4 4 -11 4q12 53 21 119q0 35 -4 51q-17 2 -33 2q-133 0 -178 -121q-6 -16 -6 -33q0 -45 47 -80q87 -65 177 -65h3q78 0 158 45q93 51 93 157q0 8 -1 17 q-8 127 -117 211q-90 70 -143 168q-10 18 0 41q152 139 374 139h19q27 0 57 -16q10 0 15 -4q10 -10 10 -21q4 -9 4 -15.5t-4 -11.5q0 -4 -4 -4q0 -6 -6 -10h-10l-5 4q-6 6 -6 10v7q-43 10 -88 10q-73 0 -157 -31q-92 -45 -148 -82q98 -115 188 -205q29 -29 58 -82 q25 -68 24 -127q0 -92 -58 -169.5t-146 -92.5q-39 -6 -74 -6q-162 0 -275 123q-41 45 -41 96z" />
<glyph unicode="t" horiz-adv-x="477" d="M47 922q43 51 133 51q45 0 87 5t67 11q57 119 158 352q6 6 10 7l10 -11q2 -17 2 -34q0 -71 -34 -142q-42 -88 -64 -188q-6 0 -10 -4l-7 -6q-119 -279 -178 -517q-22 -88 -22 -164q0 -24 2 -46q92 117 225 184l4 -4q0 -14 -14 -21v-10q-6 -6 -6 -16q0 -2 -2 -4.5t-2 -6.5 q-145 -145 -242 -290q-6 -14 -15 -14q-4 0 -10 3q-16 4 -26 31q-2 47 -2 94q0 340 196 750q-115 -6 -235 -31q-20 8 -25 21z" />
<glyph unicode="u" horiz-adv-x="704" d="M16 559v10q135 109 271 174q10 0 14 -3t12 -7v-20q-152 -227 -184 -508q-1 -6 -1 -13q0 -49 42 -83q9 -1 19 -1q102 0 159 103q131 229 242 481q6 23 24 35q2 0 6.5 3t10.5 3q14 0 24 -16q-29 -178 -96 -379q-16 -47 -16 -94q0 -59 26 -115q16 -2 47 -7t46 -9v-4 q0 -2 -3.5 -7.5t-3.5 -9.5q-18 0 -34 -10q-29 -23 -52 -23q-43 0 -67 64q-27 66 -27 129q0 15 2 31q-70 -145 -201 -232q-31 -20 -61 -20q-109 0 -137 102q-16 54 -16 108t16 107q47 160 127 293q-55 -31 -164 -98q-18 0 -25 16z" />
<glyph unicode="v" horiz-adv-x="661" d="M8 598q0 57 60 104q20 20 24 31q33 55 82 76q59 -39 68 -123q12 -63 41 -188q29 -109 65 -297q100 258 266 501q20 29 52 5q14 -18 14 -35q0 -13 -8 -27q-147 -233 -236 -495q-33 -96 -88 -144q-13 -8 -23 -8q-5 0 -8 2q-31 12 -41 61q0 51 -14 129q-27 141 -92 472 l-16 55q-59 -59 -117 -144h-6q-4 0 -4 -4q-6 4 -17 4q-2 12 -2 25z" />
<glyph unicode="w" horiz-adv-x="978" d="M20 686q109 94 232 170q57 -51 57 -129q0 -15 -2 -31q-19 -151 -19 -291q0 -73 5 -143q61 150 199 404q25 47 49 47q20 0 43 -31q10 -27 10 -47q-8 -78 -8 -167q0 -64 4 -134q82 244 270 414q47 41 133 129q6 2 17 10q39 -20 39 -49q0 -25 -29 -60q-104 -96 -225 -250 q-92 -117 -123 -256q-25 -76 -88 -98q-10 -4 -21 6q-27 27 -45 82q-26 113 -26 222v8q-80 -180 -175 -414q-20 -51 -53 -51q-23 0 -49 20q-8 108 -8 231q0 88 4 183q2 102 10 303q-53 -12 -88 -47q-49 -39 -96 -45q-4 0 -6 2t-3.5 5t-7.5 7z" />
<glyph unicode="x" horiz-adv-x="999" d="M61 733q37 72 99 113q61 61 92 96q0 35 20 47q2 0 7.5 2t7.5 2q49 -29 75 -106q23 -63 44 -129q57 -125 167 -256q133 184 246 368q6 0 14.5 -2t12.5 -2l4 -6v-10q6 0 6 -4v-6q-82 -195 -221 -400l-4 -4q225 -219 389 -420q16 -20 16 -32q0 -16 -32 -31q-6 -2 -13 -2 l-33 12q-164 180 -374 391q-37 -45 -114 -137t-116 -139q0 -6 -6 -6q-10 0 -10 6v4q0 6 -4 6q-8 23 -8 45q0 49 32 88q55 66 160 205q-170 193 -242 440q0 4 -4 11q-68 -74 -184 -164q-25 10 -20 10q-6 4 -7 10z" />
<glyph unicode="y" horiz-adv-x="778" d="M-43 -442q0 49 23 94q6 12 26 20q68 26 148 26q34 0 71 -5q47 -6 88 -47q2 -6 11 -15q-22 -11 -51.5 -11t-67.5 11q-43 12 -84 13q-57 0 -115 -23q0 -150 137 -225q111 0 160 106q104 229 184 531q45 176 123 551q27 131 66 221l6 4q6 4 14 10q23 0 41 -24v-17 q0 -4 -4 -4q0 -6 -5 -6t-11 -4q-35 -143 -107 -518q-55 -289 -123 -539q-49 -180 -184 -342q-43 -51 -114 -51h-5q-84 4 -137 72q-20 23 -63 71q-27 49 -27 101zM88 539v20q53 49 164 143q45 -40 45 -116v-13q-1 -18 -1 -35q0 -259 165 -477q10 -6 10 -24q-6 -27 -35 -27 q-137 96 -174 256q-35 147 -41 334q-33 -18 -88 -82q-20 -8 -41 10q0 4 -4 11z" />
<glyph unicode="z" horiz-adv-x="837" d="M72 72q41 98 123 164q96 80 184 143v6q-25 6 -45 0q-14 -4 -41 -16h-21q-10 10 -10 16q-6 0 -6 4q20 72 137 82q143 12 207 72q37 37 117 108q31 27 71 97q-106 40 -229 40h-6q-76 0 -158 -14q-94 -18 -153 -41l-11 -10v-10q4 0 5 -6q-4 -4 -5 -11h-26q0 6 -4 8.5t-6 5.5 t-6.5 5t-8.5 8v10q0 2 -3 4t-3 6q166 82 375 82q168 0 270 -51q6 0 6 -10q0 -49 -26 -98q-31 -31 -95.5 -85.5t-93.5 -82.5l-6 -6h31q31 0 51 -21v-20q-35 -35 -82 -35q-55 -14 -123 -21q-176 -150 -266 -235l-72 -72q123 0 252 35q195 53 369 82q4 -4 10 -4q4 -6 10 -6 q0 -2 2 -4.5t2 -6.5v-4q6 -6 7 -10l-7 -6v-4q-106 -57 -256 -78q-90 -12 -256 -62q-39 -12 -75 -12q-66 0 -123 39q-9 4 -9 13q0 5 3 12z" />
<glyph unicode="{" horiz-adv-x="903" d="M111 -172q-14 156 10 260q14 86 35 254q10 109 63 567q39 330 90 576q23 109 90 190l19 19q299 0 549 -90v-11q-166 0 -244 27q-57 20 -90 18q-98 20 -207 -8q-33 -98 -64 -252q-12 -86 -34 -262q-27 -190 -72 -567q-18 -209 -74 -567q0 -18 -4 -50t-4 -51q293 16 533 27 q27 2 26 -17q8 0 8 -10h-8v-8q-123 -55 -280 -55q-27 6 -66 4q-63 -4 -59 -4q-53 -6 -107 -6q-53 0 -100 6h-10v10z" />
<glyph unicode="|" horiz-adv-x="382" d="M39 1581q-6 49 20.5 68.5t79.5 13.5q41 -8 74 -8t63 8h68l14 -12v-41q-49 -43 -122 -62q45 -201 45 -426q0 -66 -5 -135q-10 -184 9 -655q10 -33 10 -94v-144q0 -14 -19 -61v-8v-13q0 -8 -14 -8q-8 0 -8 8v21q-10 0 -10 12l-8 8v53q-63 287 -64 562v655q0 70 -18 225 q-61 0 -115 33z" />
<glyph unicode="}" horiz-adv-x="720" d="M86 1698v26q90 37 172 37q37 4 104.5 13.5t102.5 13.5h27q55 -33 71 -135v-144q35 -356 45 -577l29 -567q10 -178 -19 -361q0 -14 -12 -20q-10 -4 -24 2q-55 27 -115 26q-59 0 -119 -26q-41 -14 -76 -15q-35 0 -69 15l-8 8v18q141 78 286 78q39 0 82 -6q0 381 -16 559 q-14 162 -35 541q-18 348 -39 540q-168 -27 -360 -26h-27z" />
<glyph unicode="~" horiz-adv-x="645" d="M10 1311q12 25 33 41q119 92 254 127q8 0 12 4q16 -12 17 -27q0 -8 -4 -18q-23 -27 -46 -74q115 23 242 74q27 12 74 32q4 -2 10 -6t10 -6v-4h-8l-4 -4q-152 -70 -311 -107q-6 -2 -13 -2q-6 0 -16 2q-6 41 12 66q12 16 14.5 24.5t14.5 20.5q-29 0 -49 -8 q-47 -20 -143 -74q-35 -18 -91 -65q-4 0 -4 4h-4z" />
<glyph unicode="&#xa2;" horiz-adv-x="1337" d="M1241 948q2 70 92 115q12 4 17 4q45 6 51 -35q2 -8 -4 -18q-16 -25 -39 -8q-2 2 -2 4q25 -8 33 12q4 8 -3 14q-18 23 -47 8q-57 -27 -75 -86q-6 -12 -2 -26q12 -45 57 -58q59 -16 94 19l12 12v2v4l2 2q2 0 3 -2h2v-8q0 -2 2 -2v-4q-12 -35 -50 -43q-59 -14 -108 20 q-37 31 -35 74zM1319 1087q2 20 2 64v2q0 4 4 4h2q10 -35 -2 -67v-3q-4 -4 -6 0zM1329 1010q0 4 4 4q11 -9 19 -72q0 -23 -9 -33q-2 -2 -6 -2q-2 0 -2 2h-2q-4 70 -4 101zM1343 768q-6 35 3 63q0 2 2 3q2 0 2 -3q8 -28 2 -63l-2 -2t-7 2z" />
<glyph unicode="&#xa9;" horiz-adv-x="1634" d="M0 740q-10 217 109 413q139 231 371 418q141 115 315 127q283 20 395 -225q16 -33 35 -101q12 -49 12 -94q1 -141 -108 -252q-72 -74 -160 -73q-29 0 -59 8q-49 18 -76 49q-61 68 -61 141q0 70 57 144q51 68 113 67q-102 -86 -103 -200q0 -80 43 -116t86 -36q51 0 98 45 q92 88 93 203q0 102 -58 192q-70 109 -196 121q-39 4 -74 4q-240 0 -404 -172q-322 -338 -321 -629q0 -258 160 -460q227 -291 581 -291q47 0 97 6q227 25 374 188q201 225 201 482q0 68 -12 137q-27 137 -129 231l-8 8q-4 8 -9.5 14.5t-5.5 8.5t2 9l3 10.5t3 3.5q18 4 37 4 q100 0 152 -103q80 -158 80 -317q0 -127 -52 -260q-115 -295 -382 -455q-158 -94 -332 -94q-94 0 -191 26q-387 106 -575 457q-92 170 -101 361zM430 512q0 129 96 293q139 236 410 282q123 -16 109 -129v-10q-62 -109 -160 -123q-20 0 -25 6q-39 23 -30 62l4 4q4 0 9 3t7 3 q4 0 8 -4t17 -22q6 0 6 -5q92 31 92 117q0 2 -10 17q-180 0 -305 -145.5t-152 -346.5q0 -45 6 -68q20 -80 96 -133q78 -45 152 -45q84 0 166 62q31 23 30 55q0 10 -10 10q-8 12 -20 21v10v6q20 31 43 31q25 0 55 -41q16 -43 0 -72q-55 -139 -225 -153q-215 -16 -328 168 q-41 68 -41 147z" />
<glyph unicode="&#xad;" horiz-adv-x="684" d="M188 686v8q12 25 41 25q41 0 90 16h-40q-8 0 -17 8h-8v17v8v8q8 0 8 8q8 0 8 9h9h8q115 -16 344 -33q49 -10 49 -58q-12 -25 -33 -24q-231 0 -418 -33q-41 0 -41 41z" />
<glyph unicode="&#xae;" horiz-adv-x="796" d="M18 1135q-10 215 240 415q70 57 158 64q139 10 196 -113q8 -16 19 -49q4 -25 4 -49q0 -68 -48 -121t-114 -37q-25 10 -39 25q-31 35 -31 69q0 35 27 71t59 36q-61 -51 -49 -121q8 -55 62 -55q25 0 49 22q47 43 47 101q0 53 -29 98q-35 53 -98 59q-145 14 -240 -84 q-160 -168 -159 -315q0 -127 80 -229q113 -145 290 -146q147 0 236 98q100 111 100 240q0 119 -71 184q-2 4 -4.5 6.5l-6.5 6.5v4q0 4 4 10q63 10 95 -49q39 -78 39 -158q0 -66 -25 -131q-57 -147 -193 -227q-80 -47 -165 -47q-47 0 -95 14q-195 53 -288 227q-45 86 -50 181 zM248 1321q0 33 39 49q23 6 43 8q51 2 76 -37q2 -2 4 -10t4 -12q18 25 52 31t38 6q55 0 69 -58q4 -12 11 -38q12 -43 -9.5 -88.5t-62.5 -57.5q14 -14 8 -39q-10 -47 -33 -92q-6 -8 -10 -29q-4 -37 19 -57q12 -12 24 -6q51 20 41 72q0 16 -14 24q-14 2 -21.5 -4t-5.5 -20 q0 -2 3 -4.5t5 -4.5v-2v-2q0 -2 -2 -4v-2h-8q4 0 -6 0q-12 8 -14 23q0 2 -2 12q14 33 41 33q12 0 26.5 -7.5t20.5 -19.5q6 -18 6 -37q0 -29 -23.5 -55.5t-50.5 -26.5q-51 0 -57 52q-10 70 30 131q4 4 7 14q8 20 2 43q-8 6 -17 4h-3h-3q6 0 -12 2q-57 6 -78 6l6 12 q53 16 109 11q10 0 22 8q41 27 43 78q2 53 -35 100q-12 16 -36 10q-59 -10 -76 -43q4 -53 -27 -161v-3l-6 -12q-20 -72 -45 -143q-14 -37 -14 -74q-23 -10 -25 21q0 41 37 137q27 70 49 158q16 61 -2 118q-6 23 -35 29q-37 0 -59 -10q-35 -14 -25 -47q43 -37 82 45h2h2 q0 -18 -10 -38t-29 -34q-29 -12 -51 8q-2 2 -8 12.5t-6 20.5z" />
<glyph unicode="&#xb1;" horiz-adv-x="743" d="M59 768v8q86 76 166 111q-29 -8 -55 14v14q16 4 207 41q0 188 -25 377v13v8h8q45 -20 56 -78v-41q33 125 39 188l16 13h8q9 0 17 -6q27 -80 0 -160q-41 -123 -41 -285q131 41 278 41q8 -4 25 -20v-21q-102 -45 -199 -63q-55 -10 -110 -35q23 -219 22 -432q0 -12 -8 -13 q-63 10 -64 76q-14 111 -14 340q-25 -6 -80 -27q-68 -35 -207 -98q-8 -6 -24 -6q-25 23 -15 41zM170 281v8q12 25 41 24q41 0 90 17h-41q-8 0 -16 8h-8v16v8v9q8 0 8 8q8 0 8 8h8h8q115 -16 344 -33q49 -10 50 -57q-12 -25 -33 -25q-231 0 -418 -32q-41 0 -41 41z" />
<glyph unicode="&#xbb;" horiz-adv-x="854" d="M100 418q14 96 82 164q100 100 189 155q-162 162 -238 336q0 8 8 17q1 8 17 8q47 -37 114.5 -135.5t122.5 -143.5q37 -31 123 -82q33 -33 25 -41q-8 -33 -107 -16q-184 -119 -286 -279q-6 -6 -13 -6q-8 0 -20 6zM395 344q14 96 82 164q100 100 189 155q-162 162 -238 336 q0 8 8 17q1 8 17 8q47 -37 114.5 -135.5t122.5 -143.5q37 -31 123 -82q33 -33 25 -41q-8 -33 -107 -16q-184 -119 -286 -279q-6 -6 -13 -6q-8 0 -20 6z" />
<glyph unicode="&#xbc;" horiz-adv-x="995" d="M37 1442q43 55 125 174q10 14 35 41q8 6 12 6q36 -21 24 -68q-6 -33 -8 -69q-4 -47 -30 -344q-18 -209 -19 -344q4 -10 4 -21q0 -12 -2 -21.5t-4 -15.5q-25 -2 -36 10.5t-11 38.5q0 6 -2 11q-14 150 6 350q23 172 43 346q-53 -68 -113 -102q-4 -4 -16 -4l-4 4t-4 8z M184 172q0 31 13 61q82 272 163 492q119 315 164 492q31 119 99 253h8q0 8 8 9q0 -8 8 -8.5t8 -8.5q-33 -115 -49 -180v-8q20 41 58 131q8 0 8 8l16 17h8q0 -85 -41 -189q-61 -164 -188 -491q-74 -180 -164 -484q-31 -106 -41 -172q-12 -39 -33 -49q-33 -16 -32 16 q-6 12 -7 21q0 6 7 12v17q-12 31 -13 61zM498 430q10 31 41.5 64.5t89.5 107.5q35 57 63 113q18 53 41 96l4 4q4 0 11 2h2q2 -2 8 -6v-2q-66 -197 -207 -356q213 0 323 2q0 96 19 166q0 6 10 6q18 0 19 -23q2 -82 0 -149q66 8 120 -11q6 0 7 -8v-6q-10 -14 -31 -14 q-33 -2 -98 -6q-10 -117 -7 -236q2 -86 9 -139q0 -10 -2 -17q0 -37 -35 -14q-27 119 -25 236q2 16 4 69q4 43 4 70q0 20 2 31q-207 -4 -362 12q-10 0 -10 8z" />
<glyph unicode="&#xbd;" horiz-adv-x="929" d="M37 1442q43 55 125 174q10 14 35 41q8 6 12 6q36 -21 24 -68q-6 -33 -8 -69q-4 -47 -30 -344q-18 -209 -19 -344q4 -10 4 -21q0 -12 -2 -21.5t-4 -15.5q-25 -2 -36 10.5t-11 38.5q0 6 -2 11q-14 150 6 350q23 172 43 346q-53 -68 -113 -102q-4 -4 -16 -4l-4 4t-4 8z M166 190q0 31 12 62q82 272 164 491q119 315 164 492q31 119 98 254h8q0 8 9 8q0 -8 8 -8t8 -8q-33 -115 -49 -181v-8q20 41 57 131q8 0 8 9l17 16h8q0 -84 -41 -188q-61 -164 -188 -492q-74 -180 -164 -483q-31 -106 -41 -172q-12 -39 -33 -50q-33 -16 -33 17q-6 12 -6 20 q0 6 6 13v16q-12 31 -12 61zM498 80q0 18 2 29q2 76 41 147q41 63 82 127q68 111 112 201q37 74 39 151q6 13 -6 23q-96 8 -160 -62q-8 -6 -26 -16q-2 -2 -7 0q0 4 7 10q55 94 188 94q45 -18 35 -75q-27 -152 -197 -414q-84 -129 -73 -207q57 61 135 62q31 0 65 -11 q96 -29 187 2q10 8 16 -8q4 -12 -10 -18q-66 -31 -131 -31q-53 0 -109 20q-23 8 -49 7q-37 0 -76 -29q-25 -18 -26 -43q-2 -8 -15 -10q-25 14 -24 51z" />
<glyph unicode="&#xbe;" horiz-adv-x="1140" d="M-16 891q4 51 47 78q82 49 172 49q39 0 78 -8q18 -2 34 -21q23 -31 23 -53q0 -31 -35 -51q-6 -2 -12 -2q-29 -2 -45 8q-2 0 -6 2t-5.5 3t-3.5 5v4v10q33 8 62 13q-4 33 -29 49l-4 4q-20 2 -41 2q-109 0 -192 -72q0 -8 -2 -16t-5 -12q57 -53 142 -52q176 4 299 142 q8 8 14 22q37 104 31 215q-4 94 -72 156q-27 25 -61 20q-29 -6 -49 -6q-70 -10 -146 -41q-8 -8 -16 7q-4 4 -6 10q47 86 131 149q51 39 80 86q-29 -2 -80 -22q-119 -47 -256 -39q-14 0 -23 10q0 2 -2 2q2 10 2 12q224 15 406 97q20 -14 20 -31q0 -12 -12 -29l-35 -41 q-66 -84 -123 -129q41 12 80 13q72 0 135 -45q29 -27 35 -50q39 -76 41 -168q4 -133 -66 -245q-12 -18 -26 -31q-133 -111 -287 -111q-201 0 -192 107zM279 156q0 33 16 63q106 289 211 520q154 334 213 518q39 125 125 269h12q0 10 10 10q0 -8 10.5 -9t10.5 -9 q-43 -121 -64 -191v-8q27 43 74 139q10 0 10 8l23 17h10q0 -88 -53 -199q-78 -174 -244 -518q-94 -193 -211 -512q-41 -113 -53 -180q-16 -43 -41 -54q-43 -16 -43 19q-8 12 -8 20q0 6 8 15v16q-16 33 -16 66zM627 430q10 31 41.5 64.5t89.5 107.5q35 57 63 113q18 53 41 96 l4 4q4 0 11 2h2q2 -2 8 -6v-2q-66 -197 -207 -356q213 0 324 2q0 96 18 166q0 6 10 6q18 0 19 -23q2 -82 0 -149q66 8 120 -11q6 0 7 -8v-6q-10 -14 -31 -14q-33 -2 -98 -6q-10 -117 -7 -236q2 -86 9 -139q0 -10 -2 -17q0 -37 -35 -14q-27 119 -25 236q2 16 4 69q4 43 4 70 q0 20 2 31q-207 -4 -362 12q-10 0 -10 8z" />
<glyph unicode="&#xbf;" horiz-adv-x="1206" d="M133 223q0 115 98 189q139 111 418 327q180 135 189 344q4 137 -148 148q-33 2 -33 20q0 8 9 21q39 12 73 12q109 0 164 -110q29 -55 17 -115q-12 -199 -189 -344q-324 -266 -483 -418q-45 -33 -33 -90q119 -68 256 -68q55 0 113 11q344 63 524 327q0 8 -8 8v41 q-8 8 0 17v8h8q0 8 8 8q55 -43 55 -92q0 -43 -38 -88q-219 -252 -574 -303q-25 0 -33 -8q-211 0 -376 106q-16 16 -17 49zM616 1452v8q9 17 25 33l16 16l50 -8v-8q0 -16 8 -16q16 16 24 16v8q-6 12 -12 12q-8 0 -20 -12l-50 8q8 59 56 60q23 0 51 -10q4 -4 16.5 -12.5 t16.5 -12.5v-49v-33q-45 -57 -123 -57q-57 14 -58 57z" />
<glyph unicode="&#xc0;" d="M14 842q0 39 13 80q2 20 24 39q35 31 64 30q37 0 65 -53q6 -18 15 -29q-20 -10 -13 -10l-2 -4h-14q-2 2 -6 3t-6 1v10q0 -2 -7 13q0 2 -6 16q-82 -2 -82 -68q0 -18 7 -43q27 -111 133 -153q27 86 80 258q66 195 194 577q27 94 82 285q8 25 8 47q0 53 -45 84 q-37 27 -92 27q-170 -19 -268 -123q-10 -25 -11 -31q-8 -37 12.5 -59.5t55.5 -5.5q14 6 49 20q2 0 10 -10q-12 -82 -79 -82q-23 0 -53.5 11t-45.5 44q-14 43 -14 78q0 106 135 170q102 47 227 53q180 8 189 -164q2 -53 -6 -98q25 12 75 25q33 6 62 6q131 0 184 -121 q16 -39 -7 -83t-60 -44q-20 0 -45 31v6h26q20 35 21 57q0 41 -64 56q-35 8 -65 8q-125 0 -160 -137q-4 -29 0 -70q47 -258 96 -422q16 -43 47 -135q61 51 160 74q166 10 170 -160q2 -16 2 -33q0 -98 -119 -98q-29 0 -38 5t-13 5q0 8 -2 12v4q0 4 2 9v8q6 6 10 8q27 0 41 16 q20 2 35 25q6 29 2 39q2 41 -24 69q-115 6 -197 -63q57 -199 115 -360q47 -109 104 -293q20 -59 47 -183q12 -37 -26 -43q-47 -12 -70 50q-109 309 -184 544q-25 68 -64 205q-207 -188 -420 -188l25 65q90 -6 178 62q59 57 186 151q-41 131 -90 279q-45 133 -53 215 q-18 -57 -25 -92q-74 -211 -190 -576q-6 -18 -6 -39l-25 -65q-31 -82 -75 -236q-49 -168 -74 -239q-6 -61 -70 -93q-25 47 -24 97q0 47 20 94q14 33 57 147q2 6 78 254q-29 12 -47 27q-119 90 -119 207z" />
<glyph unicode="&#xc1;" d="M14 842q0 39 13 80q2 20 24 39q35 31 64 30q37 0 65 -53q6 -18 15 -29q-20 -10 -13 -10l-2 -4h-14q-2 2 -6 3t-6 1v10q0 -2 -7 13q0 2 -6 16q-82 -2 -82 -68q0 -18 7 -43q27 -111 133 -153q27 86 80 258q66 195 194 577q27 94 82 285q8 25 8 47q0 53 -45 84 q-37 27 -92 27q-170 -19 -268 -123q-10 -25 -11 -31q-8 -37 12.5 -59.5t55.5 -5.5q14 6 49 20q2 0 10 -10q-12 -82 -79 -82q-23 0 -53.5 11t-45.5 44q-14 43 -14 78q0 106 135 170q102 47 227 53q180 8 189 -164q2 -53 -6 -98q25 12 75 25q33 6 62 6q131 0 184 -121 q16 -39 -7 -83t-60 -44q-20 0 -45 31v6h26q20 35 21 57q0 41 -64 56q-35 8 -65 8q-125 0 -160 -137q-4 -29 0 -70q47 -258 96 -422q16 -43 47 -135q61 51 160 74q166 10 170 -160q2 -16 2 -33q0 -98 -119 -98q-29 0 -38 5t-13 5q0 8 -2 12v4q0 4 2 9v8q6 6 10 8q27 0 41 16 q20 2 35 25q6 29 2 39q2 41 -24 69q-115 6 -197 -63q57 -199 115 -360q47 -109 104 -293q20 -59 47 -183q12 -37 -26 -43q-47 -12 -70 50q-109 309 -184 544q-25 68 -64 205q-207 -188 -420 -188l25 65q90 -6 178 62q59 57 186 151q-41 131 -90 279q-45 133 -53 215 q-18 -57 -25 -92q-74 -211 -190 -576q-6 -18 -6 -39l-25 -65q-31 -82 -75 -236q-49 -168 -74 -239q-6 -61 -70 -93q-25 47 -24 97q0 47 20 94q14 33 57 147q2 6 78 254q-29 12 -47 27q-119 90 -119 207z" />
<glyph unicode="&#xc2;" d="M14 842q0 39 13 80q2 20 24 39q35 31 64 30q37 0 65 -53q6 -18 15 -29q-20 -10 -13 -10l-2 -4h-14q-2 2 -6 3t-6 1v10q0 -2 -7 13q0 2 -6 16q-82 -2 -82 -68q0 -18 7 -43q27 -111 133 -153q27 86 80 258q66 195 194 577q27 94 82 285q8 25 8 47q0 53 -45 84 q-37 27 -92 27q-170 -19 -268 -123q-10 -25 -11 -31q-8 -37 12.5 -59.5t55.5 -5.5q14 6 49 20q2 0 10 -10q-12 -82 -79 -82q-23 0 -53.5 11t-45.5 44q-14 43 -14 78q0 106 135 170q102 47 227 53q180 8 189 -164q2 -53 -6 -98q25 12 75 25q33 6 62 6q131 0 184 -121 q16 -39 -7 -83t-60 -44q-20 0 -45 31v6h26q20 35 21 57q0 41 -64 56q-35 8 -65 8q-125 0 -160 -137q-4 -29 0 -70q47 -258 96 -422q16 -43 47 -135q61 51 160 74q166 10 170 -160q2 -16 2 -33q0 -98 -119 -98q-29 0 -38 5t-13 5q0 8 -2 12v4q0 4 2 9v8q6 6 10 8q27 0 41 16 q20 2 35 25q6 29 2 39q2 41 -24 69q-115 6 -197 -63q57 -199 115 -360q47 -109 104 -293q20 -59 47 -183q12 -37 -26 -43q-47 -12 -70 50q-109 309 -184 544q-25 68 -64 205q-207 -188 -420 -188l25 65q90 -6 178 62q59 57 186 151q-41 131 -90 279q-45 133 -53 215 q-18 -57 -25 -92q-74 -211 -190 -576q-6 -18 -6 -39l-25 -65q-31 -82 -75 -236q-49 -168 -74 -239q-6 -61 -70 -93q-25 47 -24 97q0 47 20 94q14 33 57 147q2 6 78 254q-29 12 -47 27q-119 90 -119 207z" />
<glyph unicode="&#xc3;" d="M14 842q0 39 13 80q2 20 24 39q35 31 64 30q37 0 65 -53q6 -18 15 -29q-20 -10 -13 -10l-2 -4h-14q-2 2 -6 3t-6 1v10q0 -2 -7 13q0 2 -6 16q-82 -2 -82 -68q0 -18 7 -43q27 -111 133 -153q27 86 80 258q66 195 194 577q27 94 82 285q8 25 8 47q0 53 -45 84 q-37 27 -92 27q-170 -19 -268 -123q-10 -25 -11 -31q-8 -37 12.5 -59.5t55.5 -5.5q14 6 49 20q2 0 10 -10q-12 -82 -79 -82q-23 0 -53.5 11t-45.5 44q-14 43 -14 78q0 106 135 170q102 47 227 53q180 8 189 -164q2 -53 -6 -98q25 12 75 25q33 6 62 6q131 0 184 -121 q16 -39 -7 -83t-60 -44q-20 0 -45 31v6h26q20 35 21 57q0 41 -64 56q-35 8 -65 8q-125 0 -160 -137q-4 -29 0 -70q47 -258 96 -422q16 -43 47 -135q61 51 160 74q166 10 170 -160q2 -16 2 -33q0 -98 -119 -98q-29 0 -38 5t-13 5q0 8 -2 12v4q0 4 2 9v8q6 6 10 8q27 0 41 16 q20 2 35 25q6 29 2 39q2 41 -24 69q-115 6 -197 -63q57 -199 115 -360q47 -109 104 -293q20 -59 47 -183q12 -37 -26 -43q-47 -12 -70 50q-109 309 -184 544q-25 68 -64 205q-207 -188 -420 -188l25 65q90 -6 178 62q59 57 186 151q-41 131 -90 279q-45 133 -53 215 q-18 -57 -25 -92q-74 -211 -190 -576q-6 -18 -6 -39l-25 -65q-31 -82 -75 -236q-49 -168 -74 -239q-6 -61 -70 -93q-25 47 -24 97q0 47 20 94q14 33 57 147q2 6 78 254q-29 12 -47 27q-119 90 -119 207z" />
<glyph unicode="&#xc4;" d="M14 842q0 39 13 80q2 20 24 39q35 31 64 30q37 0 65 -53q6 -18 15 -29q-20 -10 -13 -10l-2 -4h-14q-2 2 -6 3t-6 1v10q0 -2 -7 13q0 2 -6 16q-82 -2 -82 -68q0 -18 7 -43q27 -111 133 -153q27 86 80 258q66 195 194 577q27 94 82 285q8 25 8 47q0 53 -45 84 q-37 27 -92 27q-170 -19 -268 -123q-10 -25 -11 -31q-8 -37 12.5 -59.5t55.5 -5.5q14 6 49 20q2 0 10 -10q-12 -82 -79 -82q-23 0 -53.5 11t-45.5 44q-14 43 -14 78q0 106 135 170q102 47 227 53q180 8 189 -164q2 -53 -6 -98q25 12 75 25q33 6 62 6q131 0 184 -121 q16 -39 -7 -83t-60 -44q-20 0 -45 31v6h26q20 35 21 57q0 41 -64 56q-35 8 -65 8q-125 0 -160 -137q-4 -29 0 -70q47 -258 96 -422q16 -43 47 -135q61 51 160 74q166 10 170 -160q2 -16 2 -33q0 -98 -119 -98q-29 0 -38 5t-13 5q0 8 -2 12v4q0 4 2 9v8q6 6 10 8q27 0 41 16 q20 2 35 25q6 29 2 39q2 41 -24 69q-115 6 -197 -63q57 -199 115 -360q47 -109 104 -293q20 -59 47 -183q12 -37 -26 -43q-47 -12 -70 50q-109 309 -184 544q-25 68 -64 205q-207 -188 -420 -188l25 65q90 -6 178 62q59 57 186 151q-41 131 -90 279q-45 133 -53 215 q-18 -57 -25 -92q-74 -211 -190 -576q-6 -18 -6 -39l-25 -65q-31 -82 -75 -236q-49 -168 -74 -239q-6 -61 -70 -93q-25 47 -24 97q0 47 20 94q14 33 57 147q2 6 78 254q-29 12 -47 27q-119 90 -119 207z" />
<glyph unicode="&#xc5;" d="M14 842q0 39 13 80q2 20 24 39q35 31 64 30q37 0 65 -53q6 -18 15 -29q-20 -10 -13 -10l-2 -4h-14q-2 2 -6 3t-6 1v10q0 -2 -7 13q0 2 -6 16q-82 -2 -82 -68q0 -18 7 -43q27 -111 133 -153q27 86 80 258q66 195 194 577q27 94 82 285q8 25 8 47q0 53 -45 84 q-37 27 -92 27q-170 -19 -268 -123q-10 -25 -11 -31q-8 -37 12.5 -59.5t55.5 -5.5q14 6 49 20q2 0 10 -10q-12 -82 -79 -82q-23 0 -53.5 11t-45.5 44q-14 43 -14 78q0 106 135 170q102 47 227 53q180 8 189 -164q2 -53 -6 -98q25 12 75 25q33 6 62 6q131 0 184 -121 q16 -39 -7 -83t-60 -44q-20 0 -45 31v6h26q20 35 21 57q0 41 -64 56q-35 8 -65 8q-125 0 -160 -137q-4 -29 0 -70q47 -258 96 -422q16 -43 47 -135q61 51 160 74q166 10 170 -160q2 -16 2 -33q0 -98 -119 -98q-29 0 -38 5t-13 5q0 8 -2 12v4q0 4 2 9v8q6 6 10 8q27 0 41 16 q20 2 35 25q6 29 2 39q2 41 -24 69q-115 6 -197 -63q57 -199 115 -360q47 -109 104 -293q20 -59 47 -183q12 -37 -26 -43q-47 -12 -70 50q-109 309 -184 544q-25 68 -64 205q-207 -188 -420 -188l25 65q90 -6 178 62q59 57 186 151q-41 131 -90 279q-45 133 -53 215 q-18 -57 -25 -92q-74 -211 -190 -576q-6 -18 -6 -39l-25 -65q-31 -82 -75 -236q-49 -168 -74 -239q-6 -61 -70 -93q-25 47 -24 97q0 47 20 94q14 33 57 147q2 6 78 254q-29 12 -47 27q-119 90 -119 207z" />
<glyph unicode="&#xc6;" horiz-adv-x="1974" d="M14 842q0 39 13 80q2 20 24 39q35 31 64 30q37 0 65 -53q6 -18 15 -29q-20 -10 -13 -10l-2 -4h-14q-2 2 -6 3t-6 1v10q0 -2 -7 13q0 2 -6 16q-82 -2 -82 -68q0 -18 7 -43q27 -111 133 -153q27 86 80 258q66 195 194 577q27 94 82 285q8 25 8 47q0 53 -45 84 q-37 27 -92 27q-170 -19 -268 -123q-10 -25 -11 -31q-8 -37 12.5 -59.5t55.5 -5.5q14 6 49 20q2 0 10 -10q-12 -82 -79 -82q-23 0 -53.5 11t-45.5 44q-14 43 -14 78q0 106 135 170q102 47 227 53q180 8 189 -164q2 -53 -6 -98q25 12 75 25q33 6 62 6q131 0 184 -121 q16 -39 -7 -83t-60 -44q-20 0 -45 31v6h26q20 35 21 57q0 41 -64 56q-35 8 -65 8q-125 0 -160 -137q-4 -29 0 -70q47 -258 96 -422q16 -43 47 -135q61 51 160 74q166 10 170 -160q2 -16 2 -33q0 -98 -119 -98q-29 0 -38 5t-13 5q0 8 -2 12v4q0 4 2 9v8q6 6 10 8q27 0 41 16 q20 2 35 25q6 29 2 39q2 41 -24 69q-115 6 -197 -63q57 -199 115 -360q47 -109 104 -293q20 -59 47 -183q12 -37 -26 -43q-47 -12 -70 50q-109 309 -184 544q-25 68 -64 205q-207 -188 -420 -188l25 65q90 -6 178 62q59 57 186 151q-41 131 -90 279q-45 133 -53 215 q-18 -57 -25 -92q-74 -211 -190 -576q-6 -18 -6 -39l-25 -65q-31 -82 -75 -236q-49 -168 -74 -239q-6 -61 -70 -93q-25 47 -24 97q0 47 20 94q14 33 57 147q2 6 78 254q-29 12 -47 27q-119 90 -119 207zM783 1030q23 348 292 577q104 74 199 80q188 14 301 -114 q66 -74 187 -146q37 -16 63 0q133 80 133 197q0 47 -22 104q-8 4 -66 25h-31q-14 0 -19 -4t-22 -4q-8 -33 -8 -47q-12 -33 -6 -84q4 -2 7 -4.5t4 -8.5t1 -10h13q12 0 12 8q2 2 4 8v3q2 4 14 8l2 -4q2 0 7 -4q6 -20 -7.5 -38t-50.5 -36q-82 41 -82 127q0 27 9 59 q23 82 108 98q209 -4 197 -202q-10 -176 -174 -250q-47 -20 -91 -21q-78 0 -143 70q-84 90 -182 150q-59 29 -137 20q-207 -20 -314 -219q-78 -188 -98 -322q18 16 45 17q119 0 209 49q8 2 113 29q156 0 155 -123q0 -18 -4 -39q-12 -74 -70 -92q-33 -10 -57 -11 q-55 0 -98 62v24v29q8 4 8 10q-2 0 8 2q4 4 13 11q6 -2 12 -9.5t14 -23.5q2 -8 19 -29h45q29 4 30 35q4 6 9 31q-2 2 -3 10q-8 2 -10 14q-4 0 -8 2h-6q-162 -2 -313 -78q-29 -14 -82 -14q-14 6 -37 12q-8 -45 -8 -90t8 -92v-61q-18 -197 151 -297q66 -39 142 -39 q55 0 112 20q156 53 240 178q137 201 350 201q96 0 117 -100q10 -49 10 -92q0 -168 -158 -265q-20 -14 -41 -14q-20 0 -38 14q-84 39 -84 132q0 53 34 86h13q6 -4 8 -13q-4 -16 0 -41q6 -41 37 -82q102 20 127 146q14 68 -4 119q-207 14 -324 -172q-39 -63 -100 -105 q-141 -96 -312 -96q-209 0 -309 145q-45 66 -53 150q-23 240 -10 434z" />
<glyph unicode="&#xc8;" horiz-adv-x="819" d="M33 471q16 223 182 360q55 45 125 52q117 10 188 -72q47 -53 117 -90q23 -12 41 0q82 49 82 121q0 31 -14 65q-12 6 -41 17h-21q-6 0 -10 -3t-12 -3q-4 -10 -9.5 -29t-1.5 -53q2 0 4.5 -2.5t3.5 -5.5t1 -5h6q8 0 9 3t3 5v3l6 6l2 -4q2 0 6 -2q4 -14 -6 -25 q-14 -16 -32 -23q-49 27 -50 80q0 84 74 101q129 -4 123 -127q-6 -113 -109 -158q-31 -12 -57 -12q-43 0 -104 55q-80 72 -101 82q-33 18 -86 12q-135 -14 -194 -137q-45 -94 -62 -201q10 8 29 8q41 0 100 21q74 25 99 29q98 0 98 -76q0 -66 -45 -82q-20 -6 -35 -6 q-37 0 -61 39v14v18q2 2 0 4.5t8 4.5q4 2 8 6q6 -4 8 -6q4 -10 19 -33h28q16 4 21 22q2 2 6 19q-2 2 -2 6q-6 2 -8 8q4 0 -7 2q-104 -2 -198 -47q-16 -10 -51 -10q-8 4 -23 8q-4 -27 -4 -57q0 -29 4 -58q0 -37 0 -36q-8 -127 94 -187q43 -25 90 -24q35 0 70 12 q94 33 150 113q74 106 198 122q78 10 94 -61q6 -31 7 -57q0 -106 -101 -166q-12 -8 -24 -8t-25 8q-61 33 -51 100q2 20 20 35h9q4 -2 6 -6q-4 -12 0 -27q2 -25 22 -51q66 14 80 92q8 41 -4 74q-129 8 -203 -109q-37 -59 -110.5 -92t-145.5 -33q-131 0 -194 92q-27 39 -33 93 q-16 135 -6 272z" />
<glyph unicode="&#xc9;" horiz-adv-x="819" d="M33 471q16 223 182 360q55 45 125 52q117 10 188 -72q47 -53 117 -90q23 -12 41 0q82 49 82 121q0 31 -14 65q-12 6 -41 17h-21q-6 0 -10 -3t-12 -3q-4 -10 -9.5 -29t-1.5 -53q2 0 4.5 -2.5t3.5 -5.5t1 -5h6q8 0 9 3t3 5v3l6 6l2 -4q2 0 6 -2q4 -14 -6 -25 q-14 -16 -32 -23q-49 27 -50 80q0 84 74 101q129 -4 123 -127q-6 -113 -109 -158q-31 -12 -57 -12q-43 0 -104 55q-80 72 -101 82q-33 18 -86 12q-135 -14 -194 -137q-45 -94 -62 -201q10 8 29 8q41 0 100 21q74 25 99 29q98 0 98 -76q0 -66 -45 -82q-20 -6 -35 -6 q-37 0 -61 39v14v18q2 2 0 4.5t8 4.5q4 2 8 6q6 -4 8 -6q4 -10 19 -33h28q16 4 21 22q2 2 6 19q-2 2 -2 6q-6 2 -8 8q4 0 -7 2q-104 -2 -198 -47q-16 -10 -51 -10q-8 4 -23 8q-4 -27 -4 -57q0 -29 4 -58q0 -37 0 -36q-8 -127 94 -187q43 -25 90 -24q35 0 70 12 q94 33 150 113q74 106 198 122q78 10 94 -61q6 -31 7 -57q0 -106 -101 -166q-12 -8 -24 -8t-25 8q-61 33 -51 100q2 20 20 35h9q4 -2 6 -6q-4 -12 0 -27q2 -25 22 -51q66 14 80 92q8 41 -4 74q-129 8 -203 -109q-37 -59 -110.5 -92t-145.5 -33q-131 0 -194 92q-27 39 -33 93 q-16 135 -6 272z" />
<glyph unicode="&#xca;" horiz-adv-x="819" d="M33 471q16 223 182 360q55 45 125 52q117 10 188 -72q47 -53 117 -90q23 -12 41 0q82 49 82 121q0 31 -14 65q-12 6 -41 17h-21q-6 0 -10 -3t-12 -3q-4 -10 -9.5 -29t-1.5 -53q2 0 4.5 -2.5t3.5 -5.5t1 -5h6q8 0 9 3t3 5v3l6 6l2 -4q2 0 6 -2q4 -14 -6 -25 q-14 -16 -32 -23q-49 27 -50 80q0 84 74 101q129 -4 123 -127q-6 -113 -109 -158q-31 -12 -57 -12q-43 0 -104 55q-80 72 -101 82q-33 18 -86 12q-135 -14 -194 -137q-45 -94 -62 -201q10 8 29 8q41 0 100 21q74 25 99 29q98 0 98 -76q0 -66 -45 -82q-20 -6 -35 -6 q-37 0 -61 39v14v18q2 2 0 4.5t8 4.5q4 2 8 6q6 -4 8 -6q4 -10 19 -33h28q16 4 21 22q2 2 6 19q-2 2 -2 6q-6 2 -8 8q4 0 -7 2q-104 -2 -198 -47q-16 -10 -51 -10q-8 4 -23 8q-4 -27 -4 -57q0 -29 4 -58q0 -37 0 -36q-8 -127 94 -187q43 -25 90 -24q35 0 70 12 q94 33 150 113q74 106 198 122q78 10 94 -61q6 -31 7 -57q0 -106 -101 -166q-12 -8 -24 -8t-25 8q-61 33 -51 100q2 20 20 35h9q4 -2 6 -6q-4 -12 0 -27q2 -25 22 -51q66 14 80 92q8 41 -4 74q-129 8 -203 -109q-37 -59 -110.5 -92t-145.5 -33q-131 0 -194 92q-27 39 -33 93 q-16 135 -6 272z" />
<glyph unicode="&#xcb;" horiz-adv-x="819" d="M33 471q16 223 182 360q55 45 125 52q117 10 188 -72q47 -53 117 -90q23 -12 41 0q82 49 82 121q0 31 -14 65q-12 6 -41 17h-21q-6 0 -10 -3t-12 -3q-4 -10 -9.5 -29t-1.5 -53q2 0 4.5 -2.5t3.5 -5.5t1 -5h6q8 0 9 3t3 5v3l6 6l2 -4q2 0 6 -2q4 -14 -6 -25 q-14 -16 -32 -23q-49 27 -50 80q0 84 74 101q129 -4 123 -127q-6 -113 -109 -158q-31 -12 -57 -12q-43 0 -104 55q-80 72 -101 82q-33 18 -86 12q-135 -14 -194 -137q-45 -94 -62 -201q10 8 29 8q41 0 100 21q74 25 99 29q98 0 98 -76q0 -66 -45 -82q-20 -6 -35 -6 q-37 0 -61 39v14v18q2 2 0 4.5t8 4.5q4 2 8 6q6 -4 8 -6q4 -10 19 -33h28q16 4 21 22q2 2 6 19q-2 2 -2 6q-6 2 -8 8q4 0 -7 2q-104 -2 -198 -47q-16 -10 -51 -10q-8 4 -23 8q-4 -27 -4 -57q0 -29 4 -58q0 -37 0 -36q-8 -127 94 -187q43 -25 90 -24q35 0 70 12 q94 33 150 113q74 106 198 122q78 10 94 -61q6 -31 7 -57q0 -106 -101 -166q-12 -8 -24 -8t-25 8q-61 33 -51 100q2 20 20 35h9q4 -2 6 -6q-4 -12 0 -27q2 -25 22 -51q66 14 80 92q8 41 -4 74q-129 8 -203 -109q-37 -59 -110.5 -92t-145.5 -33q-131 0 -194 92q-27 39 -33 93 q-16 135 -6 272z" />
<glyph unicode="&#xd2;" horiz-adv-x="1667" d="M18 795q-10 217 109 413q139 231 371 418q141 115 315 127q283 20 395 -225q16 -33 35 -101q12 -49 12 -94q1 -141 -108 -252q-72 -74 -160 -73q-29 0 -59 8q-49 18 -76 49q-61 68 -61 141q0 70 57 144q51 68 113 67q-102 -86 -103 -200q0 -80 43 -116t86 -36q51 0 98 45 q92 88 93 203q0 102 -58 192q-70 109 -196 121q-39 4 -74 4q-240 0 -404 -172q-322 -338 -321 -629q0 -258 160 -460q227 -291 581 -291q47 0 97 6q227 25 374 188q201 225 201 482q0 68 -12 137q-27 137 -129 231l-8 8q-4 8 -9.5 14.5t-5.5 8.5t2 9l3 10.5t3 3.5q18 4 37 4 q100 0 152 -103q80 -158 80 -317q0 -127 -52 -260q-115 -295 -382 -455q-158 -94 -332 -94q-94 0 -191 26q-387 106 -575 457q-92 170 -101 361z" />
<glyph unicode="&#xd3;" horiz-adv-x="1667" d="M18 795q-10 217 109 413q139 231 371 418q141 115 315 127q283 20 395 -225q16 -33 35 -101q12 -49 12 -94q1 -141 -108 -252q-72 -74 -160 -73q-29 0 -59 8q-49 18 -76 49q-61 68 -61 141q0 70 57 144q51 68 113 67q-102 -86 -103 -200q0 -80 43 -116t86 -36q51 0 98 45 q92 88 93 203q0 102 -58 192q-70 109 -196 121q-39 4 -74 4q-240 0 -404 -172q-322 -338 -321 -629q0 -258 160 -460q227 -291 581 -291q47 0 97 6q227 25 374 188q201 225 201 482q0 68 -12 137q-27 137 -129 231l-8 8q-4 8 -9.5 14.5t-5.5 8.5t2 9l3 10.5t3 3.5q18 4 37 4 q100 0 152 -103q80 -158 80 -317q0 -127 -52 -260q-115 -295 -382 -455q-158 -94 -332 -94q-94 0 -191 26q-387 106 -575 457q-92 170 -101 361z" />
<glyph unicode="&#xd4;" horiz-adv-x="1667" d="M18 795q-10 217 109 413q139 231 371 418q141 115 315 127q283 20 395 -225q16 -33 35 -101q12 -49 12 -94q1 -141 -108 -252q-72 -74 -160 -73q-29 0 -59 8q-49 18 -76 49q-61 68 -61 141q0 70 57 144q51 68 113 67q-102 -86 -103 -200q0 -80 43 -116t86 -36q51 0 98 45 q92 88 93 203q0 102 -58 192q-70 109 -196 121q-39 4 -74 4q-240 0 -404 -172q-322 -338 -321 -629q0 -258 160 -460q227 -291 581 -291q47 0 97 6q227 25 374 188q201 225 201 482q0 68 -12 137q-27 137 -129 231l-8 8q-4 8 -9.5 14.5t-5.5 8.5t2 9l3 10.5t3 3.5q18 4 37 4 q100 0 152 -103q80 -158 80 -317q0 -127 -52 -260q-115 -295 -382 -455q-158 -94 -332 -94q-94 0 -191 26q-387 106 -575 457q-92 170 -101 361z" />
<glyph unicode="&#xd5;" horiz-adv-x="1667" d="M18 795q-10 217 109 413q139 231 371 418q141 115 315 127q283 20 395 -225q16 -33 35 -101q12 -49 12 -94q1 -141 -108 -252q-72 -74 -160 -73q-29 0 -59 8q-49 18 -76 49q-61 68 -61 141q0 70 57 144q51 68 113 67q-102 -86 -103 -200q0 -80 43 -116t86 -36q51 0 98 45 q92 88 93 203q0 102 -58 192q-70 109 -196 121q-39 4 -74 4q-240 0 -404 -172q-322 -338 -321 -629q0 -258 160 -460q227 -291 581 -291q47 0 97 6q227 25 374 188q201 225 201 482q0 68 -12 137q-27 137 -129 231l-8 8q-4 8 -9.5 14.5t-5.5 8.5t2 9l3 10.5t3 3.5q18 4 37 4 q100 0 152 -103q80 -158 80 -317q0 -127 -52 -260q-115 -295 -382 -455q-158 -94 -332 -94q-94 0 -191 26q-387 106 -575 457q-92 170 -101 361z" />
<glyph unicode="&#xd6;" horiz-adv-x="1667" d="M18 795q-10 217 109 413q139 231 371 418q141 115 315 127q283 20 395 -225q16 -33 35 -101q12 -49 12 -94q1 -141 -108 -252q-72 -74 -160 -73q-29 0 -59 8q-49 18 -76 49q-61 68 -61 141q0 70 57 144q51 68 113 67q-102 -86 -103 -200q0 -80 43 -116t86 -36q51 0 98 45 q92 88 93 203q0 102 -58 192q-70 109 -196 121q-39 4 -74 4q-240 0 -404 -172q-322 -338 -321 -629q0 -258 160 -460q227 -291 581 -291q47 0 97 6q227 25 374 188q201 225 201 482q0 68 -12 137q-27 137 -129 231l-8 8q-4 8 -9.5 14.5t-5.5 8.5t2 9l3 10.5t3 3.5q18 4 37 4 q100 0 152 -103q80 -158 80 -317q0 -127 -52 -260q-115 -295 -382 -455q-158 -94 -332 -94q-94 0 -191 26q-387 106 -575 457q-92 170 -101 361z" />
<glyph unicode="&#xd7;" horiz-adv-x="1001" d="M61 733q37 72 99 113q61 61 92 96q0 35 20 47q2 0 7.5 2t7.5 2q49 -29 75 -106q23 -63 44 -129q57 -125 167 -256q133 184 246 368q6 0 14.5 -2t12.5 -2l4 -6v-10q6 0 6 -4v-6q-82 -195 -221 -400l-4 -4q225 -219 389 -420q16 -20 16 -32q0 -16 -32 -31q-23 -6 -46 10 q-164 180 -374 391q-37 -45 -114 -137t-116 -139q0 -6 -6 -6q-10 0 -10 6v4q0 6 -4 6q-8 23 -8 45q0 49 32 88q55 66 160 205q-170 193 -242 440q0 4 -4 11q-68 -74 -184 -164q-25 10 -20 10q-6 4 -7 10z" />
<glyph unicode="&#xd8;" horiz-adv-x="1433" d="M76 709q0 279 211 487q137 135 321 221q25 16 58 27q33 0 82 -12q0 -6 8 -7q0 -8 -8 -8q0 -4 -5 -12q-180 -6 -288 -127q-68 -74 -199 -231q-109 -147 -109 -320q0 -94 33 -197q66 -199 236 -321q131 -94 276 -94q84 0 172 30q203 70 320 236q123 174 123 360 q0 78 -21 160q-59 225 -256 338q-23 16 -82 33q-33 4 -63 4q-152 0 -283 -76q-240 -137 -250 -397q-8 -236 211 -332q100 -45 211 -39q115 18 205 90q68 53 68 174q0 178 -170 256q-45 20 -95 19q-174 -6 -219 -185q-8 -33 -8 -57q0 -72 63 -106q57 -33 130 -25q49 0 90 35 q0 4 -4.5 6t-11.5 12.5t-9 12.5h-6q-25 -6 -47 -7q-49 0 -80 31q18 59 84 60q23 0 49 -9q96 -27 96 -98q0 -25 -12 -55q-18 -39 -59 -51q-70 -31 -133 -31q-96 0 -175 69q-53 47 -55 127q-10 252 217 347q12 8 25 8q39 6 74 6q180 0 284 -160q61 -94 62 -203q0 -31 -4 -61 q-35 -229 -269 -275q-53 -10 -108 -10q-104 0 -213 37q-199 68 -256 260q-25 82 -25 158q0 168 115 311q154 190 397 236q53 10 103 10q209 0 346 -168q162 -199 161 -442q0 -274 -196 -488q-201 -219 -471 -219q-76 0 -154 19q-283 102 -422 378q-66 129 -65 265zM389 -215 q12 123 90 211q0 6 13 6h14q0 -6 6 -12q-20 -104 -76 -199q0 -4 -4 -7t-4 -5h-4l-8 -8q-6 0 -13 8q-2 0 -6 3t-8 3zM563 164q0 111 70 174h8q12 0 12 -8h6q0 -115 -81 -172q-8 0 -15 6zM838 752q0 63 59 122q12 18 12 15q6 -8 19 -8l12 -19v-20q-34 -59 -63 -94h-27 q-4 4 -12 4zM973 1047q6 57 57 153q12 0 12 12h13q8 -2 20 -12l6 -4q-23 -92 -69 -149q0 -4 -8 -13h-25q0 8 -6 13zM1106 1354q41 166 154 307l8 8q27 0 26 -27v-6q-86 -150 -137 -270q-4 -4 -4 -12l-8 -4q-4 -8 -12 -9q-2 0 -27 13z" />
<glyph unicode="&#xd9;" horiz-adv-x="1308" d="M-111 1366q10 186 187 272q119 57 260 80q190 -6 213 -194q14 -115 -27 -215q-82 -205 -209 -408q-139 -223 -139 -463q0 -63 10 -129q14 -98 87 -167.5t171 -69.5q57 0 125 24q47 18 86 64q213 250 221 569q6 188 0 461q-2 84 29 164q90 238 303 317q2 -2 14.5 -7 t12.5 -28v-12q-256 -178 -256 -500q0 -47 8 -274q4 -129 -12 -227q8 -23 8 -43t-8 -43q-25 -180 -25 -277q0 -156 107 -231q23 -16 49 -4q106 49 106 165q0 78 -77 107q-6 0 -13 -4q-20 -23 -39 -64v-8q-14 -18 -28 -18t-27 14q-10 37 -10 57v21q31 96 117 96q29 0 65 -12 q68 -25 90 -113q10 -43 10 -82q0 -143 -135 -229q-53 -33 -94 -33q-61 0 -111 70q-84 123 -84 256v49q-6 -12 -18 -35q-80 -147 -209 -237q-76 -53 -168 -54q-27 0 -55 4q-184 25 -285 197q-70 117 -69 248q0 57 14 121q74 340 266 624q74 109 115 240q12 37 12 74 q0 94 -76 157q-236 12 -387 -151q-45 -47 -45 -111q0 -37 19 -76q2 -10 10 -12q2 -2 2 -6q102 10 150 117q2 20 26 26q2 -2 6 -4l4 -2q8 -2 13 -8q-14 -150 -154 -215q-29 -10 -59 4q-102 47 -97 168z" />
<glyph unicode="&#xda;" horiz-adv-x="1308" d="M-111 1366q10 186 187 272q119 57 260 80q190 -6 213 -194q14 -115 -27 -215q-82 -205 -209 -408q-139 -223 -139 -463q0 -63 10 -129q14 -98 87 -167.5t171 -69.5q57 0 125 24q47 18 86 64q213 250 221 569q6 188 0 461q-2 84 29 164q90 238 303 317q2 -2 14.5 -7 t12.5 -28v-12q-256 -178 -256 -500q0 -47 8 -274q4 -129 -12 -227q8 -23 8 -43t-8 -43q-25 -180 -25 -277q0 -156 107 -231q23 -16 49 -4q106 49 106 165q0 78 -77 107q-6 0 -13 -4q-20 -23 -39 -64v-8q-14 -18 -28 -18t-27 14q-10 37 -10 57v21q31 96 117 96q29 0 65 -12 q68 -25 90 -113q10 -43 10 -82q0 -143 -135 -229q-53 -33 -94 -33q-61 0 -111 70q-84 123 -84 256v49q-6 -12 -18 -35q-80 -147 -209 -237q-76 -53 -168 -54q-27 0 -55 4q-184 25 -285 197q-70 117 -69 248q0 57 14 121q74 340 266 624q74 109 115 240q12 37 12 74 q0 94 -76 157q-236 12 -387 -151q-45 -47 -45 -111q0 -37 19 -76q2 -10 10 -12q2 -2 2 -6q102 10 150 117q2 20 26 26q2 -2 6 -4l4 -2q8 -2 13 -8q-14 -150 -154 -215q-29 -10 -59 4q-102 47 -97 168z" />
<glyph unicode="&#xdb;" horiz-adv-x="1308" d="M-111 1366q10 186 187 272q119 57 260 80q190 -6 213 -194q14 -115 -27 -215q-82 -205 -209 -408q-139 -223 -139 -463q0 -63 10 -129q14 -98 87 -167.5t171 -69.5q57 0 125 24q47 18 86 64q213 250 221 569q6 188 0 461q-2 84 29 164q90 238 303 317q2 -2 14.5 -7 t12.5 -28v-12q-256 -178 -256 -500q0 -47 8 -274q4 -129 -12 -227q8 -23 8 -43t-8 -43q-25 -180 -25 -277q0 -156 107 -231q23 -16 49 -4q106 49 106 165q0 78 -77 107q-6 0 -13 -4q-20 -23 -39 -64v-8q-14 -18 -28 -18t-27 14q-10 37 -10 57v21q31 96 117 96q29 0 65 -12 q68 -25 90 -113q10 -43 10 -82q0 -143 -135 -229q-53 -33 -94 -33q-61 0 -111 70q-84 123 -84 256v49q-6 -12 -18 -35q-80 -147 -209 -237q-76 -53 -168 -54q-27 0 -55 4q-184 25 -285 197q-70 117 -69 248q0 57 14 121q74 340 266 624q74 109 115 240q12 37 12 74 q0 94 -76 157q-236 12 -387 -151q-45 -47 -45 -111q0 -37 19 -76q2 -10 10 -12q2 -2 2 -6q102 10 150 117q2 20 26 26q2 -2 6 -4l4 -2q8 -2 13 -8q-14 -150 -154 -215q-29 -10 -59 4q-102 47 -97 168z" />
<glyph unicode="&#xdc;" horiz-adv-x="1308" d="M-111 1366q10 186 187 272q119 57 260 80q190 -6 213 -194q14 -115 -27 -215q-82 -205 -209 -408q-139 -223 -139 -463q0 -63 10 -129q14 -98 87 -167.5t171 -69.5q57 0 125 24q47 18 86 64q213 250 221 569q6 188 0 461q-2 84 29 164q90 238 303 317q2 -2 14.5 -7 t12.5 -28v-12q-256 -178 -256 -500q0 -47 8 -274q4 -129 -12 -227q8 -23 8 -43t-8 -43q-25 -180 -25 -277q0 -156 107 -231q23 -16 49 -4q106 49 106 165q0 78 -77 107q-6 0 -13 -4q-20 -23 -39 -64v-8q-14 -18 -28 -18t-27 14q-10 37 -10 57v21q31 96 117 96q29 0 65 -12 q68 -25 90 -113q10 -43 10 -82q0 -143 -135 -229q-53 -33 -94 -33q-61 0 -111 70q-84 123 -84 256v49q-6 -12 -18 -35q-80 -147 -209 -237q-76 -53 -168 -54q-27 0 -55 4q-184 25 -285 197q-70 117 -69 248q0 57 14 121q74 340 266 624q74 109 115 240q12 37 12 74 q0 94 -76 157q-236 12 -387 -151q-45 -47 -45 -111q0 -37 19 -76q2 -10 10 -12q2 -2 2 -6q102 10 150 117q2 20 26 26q2 -2 6 -4l4 -2q8 -2 13 -8q-14 -150 -154 -215q-29 -10 -59 4q-102 47 -97 168z" />
<glyph unicode="&#xdd;" horiz-adv-x="974" d="M-27 1542q8 109 133 121q27 4 82 14q27 6 52 6q106 0 145 -104q16 -43 16 -86q0 -51 -24 -100q-68 -137 -66 -299q0 -53 43 -86q90 -72 164 -80q0 -8 8 -8v-9q-6 -6 -10 -18q-29 -6 -55 -6q-135 0 -205 145q-35 72 -23 144q18 113 70 215q29 57 29 116q0 39 -15 80 q-10 27 -94 27q-102 0 -188 -51q4 0 4 -9v-8q0 -6 2 -6q23 -20 45 -20q23 0 47 20q10 12 55 37q2 -10 7.5 -13.5t15.5 -13.5v-8q-53 -86 -121 -86q-41 0 -86 31q-33 23 -31 55zM25 154q2 4 6 8q-4 0 10 2q10 -6 14.5 -15.5t12.5 -21.5q2 -6 12 -21q61 -49 133 -49 q53 0 113 29q154 78 221 240q59 145 59 299t-59 313q-35 96 -35 227q0 311 256 521q63 51 131 63q158 0 145 -154q-8 -98 -112 -125q-31 -8 -55 -8q-92 0 -117 101h43q12 -23 30.5 -32t38.5 -9q53 0 95 41q10 23 10 41q0 51 -78 57h-12q-49 -16 -88 -51q-4 -2 -11 -8 q6 -12 15 -39h-43q-76 -68 -123 -173.5t-47 -207.5q0 -35 6 -72q33 -207 74 -342q31 -102 30 -207q0 -59 -10 -119q-29 -170 -137 -313q-92 -123 -217 -162q-57 -18 -103 -18q-66 0 -120 37q-29 25 -31 47q-2 6 -12 6q-2 10 -6.5 14t-16.5 10v15q-2 10 -2 14q-2 14 -16 55 q0 6 -4 7z" />
<glyph unicode="&#xe0;" horiz-adv-x="956" d="M82 256q0 96 51 160q166 205 426 194q178 -6 209 -180q0 -14 6 -24q70 139 70 278q0 82 -25 166q-8 27 -35 27q-139 0 -231 -109q-27 -31 -72 -66q-6 0 -9 2.5t-5 2.5l-16 16q16 86 67 158q12 27 55 61q6 -4 11 -10v-10q4 -8 4 -15q0 -8 -4 -16l-15 -14q63 43 144 65 q6 0 16 3t14 3q154 0 168 -160q4 -49 4 -98q0 -229 -100 -434q-55 -115 -119 -205q-29 -43 -59 -43q-20 0 -43 23q8 57 57 119q10 12 25 45q23 61 22 120q0 88 -47 166q-20 35 -58 41t-71 6q-150 0 -270 -108q-59 -53 -78 -137q-4 -18 -4 -52q23 -123 154 -118 q113 4 143 112q6 25 -10 41q-2 6 -17 17h-41q-4 -4 -20 -31q-6 -29 -41 -47q-4 4 -14 10l-17 10q0 137 121 137q18 0 39 -4q31 0 51 -30q35 -53 35 -101q0 -72 -80 -133t-156 -61q-82 0 -163 69q-72 61 -72 154z" />
<glyph unicode="&#xe1;" horiz-adv-x="956" d="M82 256q0 96 51 160q166 205 426 194q178 -6 209 -180q0 -14 6 -24q70 139 70 278q0 82 -25 166q-8 27 -35 27q-139 0 -231 -109q-27 -31 -72 -66q-6 0 -9 2.5t-5 2.5l-16 16q16 86 67 158q12 27 55 61q6 -4 11 -10v-10q4 -8 4 -15q0 -8 -4 -16l-15 -14q63 43 144 65 q6 0 16 3t14 3q154 0 168 -160q4 -49 4 -98q0 -229 -100 -434q-55 -115 -119 -205q-29 -43 -59 -43q-20 0 -43 23q8 57 57 119q10 12 25 45q23 61 22 120q0 88 -47 166q-20 35 -58 41t-71 6q-150 0 -270 -108q-59 -53 -78 -137q-4 -18 -4 -52q23 -123 154 -118 q113 4 143 112q6 25 -10 41q-2 6 -17 17h-41q-4 -4 -20 -31q-6 -29 -41 -47q-4 4 -14 10l-17 10q0 137 121 137q18 0 39 -4q31 0 51 -30q35 -53 35 -101q0 -72 -80 -133t-156 -61q-82 0 -163 69q-72 61 -72 154z" />
<glyph unicode="&#xe2;" horiz-adv-x="956" d="M82 256q0 96 51 160q166 205 426 194q178 -6 209 -180q0 -14 6 -24q70 139 70 278q0 82 -25 166q-8 27 -35 27q-139 0 -231 -109q-27 -31 -72 -66q-6 0 -9 2.5t-5 2.5l-16 16q16 86 67 158q12 27 55 61q6 -4 11 -10v-10q4 -8 4 -15q0 -8 -4 -16l-15 -14q63 43 144 65 q6 0 16 3t14 3q154 0 168 -160q4 -49 4 -98q0 -229 -100 -434q-55 -115 -119 -205q-29 -43 -59 -43q-20 0 -43 23q8 57 57 119q10 12 25 45q23 61 22 120q0 88 -47 166q-20 35 -58 41t-71 6q-150 0 -270 -108q-59 -53 -78 -137q-4 -18 -4 -52q23 -123 154 -118 q113 4 143 112q6 25 -10 41q-2 6 -17 17h-41q-4 -4 -20 -31q-6 -29 -41 -47q-4 4 -14 10l-17 10q0 137 121 137q18 0 39 -4q31 0 51 -30q35 -53 35 -101q0 -72 -80 -133t-156 -61q-82 0 -163 69q-72 61 -72 154z" />
<glyph unicode="&#xe3;" horiz-adv-x="956" d="M82 256q0 96 51 160q166 205 426 194q178 -6 209 -180q0 -14 6 -24q70 139 70 278q0 82 -25 166q-8 27 -35 27q-139 0 -231 -109q-27 -31 -72 -66q-6 0 -9 2.5t-5 2.5l-16 16q16 86 67 158q12 27 55 61q6 -4 11 -10v-10q4 -8 4 -15q0 -8 -4 -16l-15 -14q63 43 144 65 q6 0 16 3t14 3q154 0 168 -160q4 -49 4 -98q0 -229 -100 -434q-55 -115 -119 -205q-29 -43 -59 -43q-20 0 -43 23q8 57 57 119q10 12 25 45q23 61 22 120q0 88 -47 166q-20 35 -58 41t-71 6q-150 0 -270 -108q-59 -53 -78 -137q-4 -18 -4 -52q23 -123 154 -118 q113 4 143 112q6 25 -10 41q-2 6 -17 17h-41q-4 -4 -20 -31q-6 -29 -41 -47q-4 4 -14 10l-17 10q0 137 121 137q18 0 39 -4q31 0 51 -30q35 -53 35 -101q0 -72 -80 -133t-156 -61q-82 0 -163 69q-72 61 -72 154z" />
<glyph unicode="&#xe4;" horiz-adv-x="956" d="M82 256q0 96 51 160q166 205 426 194q178 -6 209 -180q0 -14 6 -24q70 139 70 278q0 82 -25 166q-8 27 -35 27q-139 0 -231 -109q-27 -31 -72 -66q-6 0 -9 2.5t-5 2.5l-16 16q16 86 67 158q12 27 55 61q6 -4 11 -10v-10q4 -8 4 -15q0 -8 -4 -16l-15 -14q63 43 144 65 q6 0 16 3t14 3q154 0 168 -160q4 -49 4 -98q0 -229 -100 -434q-55 -115 -119 -205q-29 -43 -59 -43q-20 0 -43 23q8 57 57 119q10 12 25 45q23 61 22 120q0 88 -47 166q-20 35 -58 41t-71 6q-150 0 -270 -108q-59 -53 -78 -137q-4 -18 -4 -52q23 -123 154 -118 q113 4 143 112q6 25 -10 41q-2 6 -17 17h-41q-4 -4 -20 -31q-6 -29 -41 -47q-4 4 -14 10l-17 10q0 137 121 137q18 0 39 -4q31 0 51 -30q35 -53 35 -101q0 -72 -80 -133t-156 -61q-82 0 -163 69q-72 61 -72 154z" />
<glyph unicode="&#xe5;" horiz-adv-x="956" d="M82 256q0 96 51 160q166 205 426 194q178 -6 209 -180q0 -14 6 -24q70 139 70 278q0 82 -25 166q-8 27 -35 27q-139 0 -231 -109q-27 -31 -72 -66q-6 0 -9 2.5t-5 2.5l-16 16q16 86 67 158q12 27 55 61q6 -4 11 -10v-10q4 -8 4 -15q0 -8 -4 -16l-15 -14q63 43 144 65 q6 0 16 3t14 3q154 0 168 -160q4 -49 4 -98q0 -229 -100 -434q-55 -115 -119 -205q-29 -43 -59 -43q-20 0 -43 23q8 57 57 119q10 12 25 45q23 61 22 120q0 88 -47 166q-20 35 -58 41t-71 6q-150 0 -270 -108q-59 -53 -78 -137q-4 -18 -4 -52q23 -123 154 -118 q113 4 143 112q6 25 -10 41q-2 6 -17 17h-41q-4 -4 -20 -31q-6 -29 -41 -47q-4 4 -14 10l-17 10q0 137 121 137q18 0 39 -4q31 0 51 -30q35 -53 35 -101q0 -72 -80 -133t-156 -61q-82 0 -163 69q-72 61 -72 154z" />
<glyph unicode="&#xe7;" horiz-adv-x="645" d="M6 383q0 129 96 293q139 236 410 282q123 -16 109 -129v-10q-62 -109 -160 -123q-20 0 -25 6q-39 23 -30 62l4 4q4 0 9 3t7 3q4 0 8 -4t17 -22q6 0 6 -5q92 31 92 117q0 2 -10 17q-180 0 -305 -145.5t-152 -346.5q0 -45 6 -68q20 -80 96 -133q78 -45 152 -45q84 0 166 62 q31 23 30 55q0 10 -10 10q-8 12 -20 21v10v6q20 31 43 31q25 0 55 -41q16 -43 0 -72q-55 -139 -225 -153q-215 -16 -328 168q-41 68 -41 147z" />
<glyph unicode="&#xe8;" horiz-adv-x="745" d="M37 430v16l4 5q12 12 41 20q20 0 31 6q135 211 333 332q53 33 113 47l-6 -72q-188 -88 -311 -256q0 -6 -6 -10q115 27 327 123q68 31 68 86q0 23 -10 51q-23 23 -68 6l6 72q131 0 131 -113q0 -18 -4 -36q0 -31 -35 -66q-160 -117 -338 -164q-74 -20 -129 -41 q-2 -8 -10 -20q-6 -27 -20 -41v-10q0 -68 30 -132q37 -76 99 -83q41 -10 79 -11q121 0 211 92q41 43 27 103q-23 4 -45 4q-84 0 -160 -55h-10q-4 0 -6 2t-4 2v41q0 4 2 9t2 7q72 66 147 66q51 0 109 -31q31 -16 31 -45q12 -117 -84 -200t-215 -83q-111 0 -217 92 q-78 68 -78 164q0 61 6 88q2 6 10 15q-6 0 -12 3t-8 3q-16 0 -31 14z" />
<glyph unicode="&#xe9;" horiz-adv-x="745" d="M37 430v16l4 5q12 12 41 20q20 0 31 6q135 211 333 332q53 33 113 47l-6 -72q-188 -88 -311 -256q0 -6 -6 -10q115 27 327 123q68 31 68 86q0 23 -10 51q-23 23 -68 6l6 72q131 0 131 -113q0 -18 -4 -36q0 -31 -35 -66q-160 -117 -338 -164q-74 -20 -129 -41 q-2 -8 -10 -20q-6 -27 -20 -41v-10q0 -68 30 -132q37 -76 99 -83q41 -10 79 -11q121 0 211 92q41 43 27 103q-23 4 -45 4q-84 0 -160 -55h-10q-4 0 -6 2t-4 2v41q0 4 2 9t2 7q72 66 147 66q51 0 109 -31q31 -16 31 -45q12 -117 -84 -200t-215 -83q-111 0 -217 92 q-78 68 -78 164q0 61 6 88q2 6 10 15q-6 0 -12 3t-8 3q-16 0 -31 14z" />
<glyph unicode="&#xea;" horiz-adv-x="745" d="M37 430v16l4 5q12 12 41 20q20 0 31 6q135 211 333 332q53 33 113 47l-6 -72q-188 -88 -311 -256q0 -6 -6 -10q115 27 327 123q68 31 68 86q0 23 -10 51q-23 23 -68 6l6 72q131 0 131 -113q0 -18 -4 -36q0 -31 -35 -66q-160 -117 -338 -164q-74 -20 -129 -41 q-2 -8 -10 -20q-6 -27 -20 -41v-10q0 -68 30 -132q37 -76 99 -83q41 -10 79 -11q121 0 211 92q41 43 27 103q-23 4 -45 4q-84 0 -160 -55h-10q-4 0 -6 2t-4 2v41q0 4 2 9t2 7q72 66 147 66q51 0 109 -31q31 -16 31 -45q12 -117 -84 -200t-215 -83q-111 0 -217 92 q-78 68 -78 164q0 61 6 88q2 6 10 15q-6 0 -12 3t-8 3q-16 0 -31 14z" />
<glyph unicode="&#xeb;" horiz-adv-x="745" d="M37 430v16l4 5q12 12 41 20q20 0 31 6q135 211 333 332q53 33 113 47l-6 -72q-188 -88 -311 -256q0 -6 -6 -10q115 27 327 123q68 31 68 86q0 23 -10 51q-23 23 -68 6l6 72q131 0 131 -113q0 -18 -4 -36q0 -31 -35 -66q-160 -117 -338 -164q-74 -20 -129 -41 q-2 -8 -10 -20q-6 -27 -20 -41v-10q0 -68 30 -132q37 -76 99 -83q41 -10 79 -11q121 0 211 92q41 43 27 103q-23 4 -45 4q-84 0 -160 -55h-10q-4 0 -6 2t-4 2v41q0 4 2 9t2 7q72 66 147 66q51 0 109 -31q31 -16 31 -45q12 -117 -84 -200t-215 -83q-111 0 -217 92 q-78 68 -78 164q0 61 6 88q2 6 10 15q-6 0 -12 3t-8 3q-16 0 -31 14z" />
<glyph unicode="&#xec;" horiz-adv-x="405" d="M61 590q-4 10 7 20q0 4 4 11q106 27 235 96q14 0 27 -21v-10q-117 -236 -180 -496q-2 -12 -2 -22q0 -59 114 -59q31 41 68 41q18 0 35 -11q0 -55 -62 -92q-8 0 -24 -16q-39 -12 -70 -13q-92 0 -121 105q-16 59 0 123q51 201 160 395q-29 0 -92 -37q-51 -25 -99 -14z M190 989v10v5q6 10 8.5 12t4.5 4t2 4v37q25 37 71 61q27 10 37 11q109 -15 97 -140q-10 -102 -107 -102q-37 0 -37 31q-2 12 -2 24q0 51 60 78q0 6 4 0q14 0 20 -10v-4v-11q-6 -8 -21.5 -18t-23.5 -39q29 -14 51 21q10 16 11 26q0 14 -7 21q-8 29 -20 41q-33 23 -62 -7 l-24 -24h-6q-10 0 -15.5 -3t-6.5 -6t-6 -8.5t-9 -9.5t-8 -10q-6 6 -11 6z" />
<glyph unicode="&#xed;" horiz-adv-x="405" d="M61 590q-4 10 7 20q0 4 4 11q106 27 235 96q14 0 27 -21v-10q-117 -236 -180 -496q-2 -12 -2 -22q0 -59 114 -59q31 41 68 41q18 0 35 -11q0 -55 -62 -92q-8 0 -24 -16q-39 -12 -70 -13q-92 0 -121 105q-16 59 0 123q51 201 160 395q-29 0 -92 -37q-51 -25 -99 -14z M190 989v10v5q6 10 8.5 12t4.5 4t2 4v37q25 37 71 61q27 10 37 11q109 -15 97 -140q-10 -102 -107 -102q-37 0 -37 31q-2 12 -2 24q0 51 60 78q0 6 4 0q14 0 20 -10v-4v-11q-6 -8 -21.5 -18t-23.5 -39q29 -14 51 21q10 16 11 26q0 14 -7 21q-8 29 -20 41q-33 23 -62 -7 l-24 -24h-6q-10 0 -15.5 -3t-6.5 -6t-6 -8.5t-9 -9.5t-8 -10q-6 6 -11 6z" />
<glyph unicode="&#xee;" horiz-adv-x="405" d="M61 590q-4 10 7 20q0 4 4 11q106 27 235 96q14 0 27 -21v-10q-117 -236 -180 -496q-2 -12 -2 -22q0 -59 114 -59q31 41 68 41q18 0 35 -11q0 -55 -62 -92q-8 0 -24 -16q-39 -12 -70 -13q-92 0 -121 105q-16 59 0 123q51 201 160 395q-29 0 -92 -37q-51 -25 -99 -14z M190 989v10v5q6 10 8.5 12t4.5 4t2 4v37q25 37 71 61q27 10 37 11q109 -15 97 -140q-10 -102 -107 -102q-37 0 -37 31q-2 12 -2 24q0 51 60 78q0 6 4 0q14 0 20 -10v-4v-11q-6 -8 -21.5 -18t-23.5 -39q29 -14 51 21q10 16 11 26q0 14 -7 21q-8 29 -20 41q-33 23 -62 -7 l-24 -24h-6q-10 0 -15.5 -3t-6.5 -6t-6 -8.5t-9 -9.5t-8 -10q-6 6 -11 6z" />
<glyph unicode="&#xef;" horiz-adv-x="405" d="M61 590q-4 10 7 20q0 4 4 11q106 27 235 96q14 0 27 -21v-10q-117 -236 -180 -496q-2 -12 -2 -22q0 -59 114 -59q31 41 68 41q18 0 35 -11q0 -55 -62 -92q-8 0 -24 -16q-39 -12 -70 -13q-92 0 -121 105q-16 59 0 123q51 201 160 395q-29 0 -92 -37q-51 -25 -99 -14z M190 989v10v5q6 10 8.5 12t4.5 4t2 4v37q25 37 71 61q27 10 37 11q109 -15 97 -140q-10 -102 -107 -102q-37 0 -37 31q-2 12 -2 24q0 51 60 78q0 6 4 0q14 0 20 -10v-4v-11q-6 -8 -21.5 -18t-23.5 -39q29 -14 51 21q10 16 11 26q0 14 -7 21q-8 29 -20 41q-33 23 -62 -7 l-24 -24h-6q-10 0 -15.5 -3t-6.5 -6t-6 -8.5t-9 -9.5t-8 -10q-6 6 -11 6z" />
<glyph unicode="&#xf0;" horiz-adv-x="673" d="M33 358q0 94 59 263q88 190 242 290q2 2 20 11q31 0 52 -21l10 -10l4 -4q0 -2 3 -7.5t3 -8.5t4 -11l-20 -20q-4 6 -8.5 7t-22.5 13q-14 -4 -41 -4q-164 -172 -225 -410q-10 -43 -11 -84q0 -76 37 -147q51 -100 148 -100q41 0 88 18.5t82 61.5q72 92 71 190q0 82 -51 168 q-10 25 -37 31q-41 18 -78 18q-78 0 -131 -84q-33 -51 -16 -112q43 -55 94 -56q35 0 76 25q4 4 4 20v21q-4 0 -4 4q-49 0 -78 20v6q6 0 6 5v6q4 4 4 12t7 8q35 18 61 19q51 0 72 -66q6 -20 6 -39q0 -41 -33 -74q-49 -41 -104 -41q-39 0 -80 21q-109 53 -109 160q0 25 6 51 q8 18 21 45q74 123 201 123q39 0 86 -10q109 -37 139 -144q20 -72 20 -137q0 -190 -190 -313q-66 -43 -125 -43t-115 43q-147 115 -147 286z" />
<glyph unicode="&#xf1;" horiz-adv-x="788" d="M55 590q1 49 58 86q135 90 145 96q84 51 158 68q33 -20 33 -58q0 -33 -23 -69q-20 -27 -37 -68q-6 -20 -20 -65q96 68 194 67q41 0 82 -12q6 0 10 -4q29 -68 29 -129q0 -63 -29 -127q-66 -147 -65 -297q0 -4 2 -6t2 -4l6 -7q84 -16 148 7q0 -4 3 -6.5t5 -3.5t2 -7 q-2 -2 -9.5 -4t-11.5 -6l-10 -10q-39 -53 -98 -54q-33 0 -76 17q-8 8 -21 26q-27 53 -26 111q0 45 16 90q55 152 99 322q-2 10 -11 30q0 4 -3 9.5t-3 7.5q-143 0 -256 -98q-47 -41 -82 -117q-25 -57 -61 -172q-10 -41 -10 -94q6 -6 7 -10.5t9 -16.5v-21v-4q-12 -20 -47 -20 q-53 31 -53 94q0 25 8 53q45 180 127 348q35 68 92 201q-18 0 -80.5 -37t-144.5 -123q-23 -25 -52 -14q-6 14 -6 31z" />
<glyph unicode="&#xf2;" horiz-adv-x="673" d="M33 358q0 94 59 263q88 190 242 290q2 2 20 11q31 0 52 -21l10 -10l4 -4q0 -2 3 -7.5t3 -8.5t4 -11l-20 -20q-4 6 -8.5 7t-22.5 13q-14 -4 -41 -4q-164 -172 -225 -410q-10 -43 -11 -84q0 -76 37 -147q51 -100 148 -100q41 0 88 18.5t82 61.5q72 92 71 190q0 82 -51 168 q-10 25 -37 31q-41 18 -78 18q-78 0 -131 -84q-33 -51 -16 -112q43 -55 94 -56q35 0 76 25q4 4 4 20v21q-4 0 -4 4q-49 0 -78 20v6q6 0 6 5v6q4 4 4 12t7 8q35 18 61 19q51 0 72 -66q6 -20 6 -39q0 -41 -33 -74q-49 -41 -104 -41q-39 0 -80 21q-109 53 -109 160q0 25 6 51 q8 18 21 45q74 123 201 123q39 0 86 -10q109 -37 139 -144q20 -72 20 -137q0 -190 -190 -313q-66 -43 -125 -43t-115 43q-147 115 -147 286z" />
<glyph unicode="&#xf3;" horiz-adv-x="673" d="M33 358q0 94 59 263q88 190 242 290q2 2 20 11q31 0 52 -21l10 -10l4 -4q0 -2 3 -7.5t3 -8.5t4 -11l-20 -20q-4 6 -8.5 7t-22.5 13q-14 -4 -41 -4q-164 -172 -225 -410q-10 -43 -11 -84q0 -76 37 -147q51 -100 148 -100q41 0 88 18.5t82 61.5q72 92 71 190q0 82 -51 168 q-10 25 -37 31q-41 18 -78 18q-78 0 -131 -84q-33 -51 -16 -112q43 -55 94 -56q35 0 76 25q4 4 4 20v21q-4 0 -4 4q-49 0 -78 20v6q6 0 6 5v6q4 4 4 12t7 8q35 18 61 19q51 0 72 -66q6 -20 6 -39q0 -41 -33 -74q-49 -41 -104 -41q-39 0 -80 21q-109 53 -109 160q0 25 6 51 q8 18 21 45q74 123 201 123q39 0 86 -10q109 -37 139 -144q20 -72 20 -137q0 -190 -190 -313q-66 -43 -125 -43t-115 43q-147 115 -147 286z" />
<glyph unicode="&#xf4;" horiz-adv-x="673" d="M33 358q0 94 59 263q88 190 242 290q2 2 20 11q31 0 52 -21l10 -10l4 -4q0 -2 3 -7.5t3 -8.5t4 -11l-20 -20q-4 6 -8.5 7t-22.5 13q-14 -4 -41 -4q-164 -172 -225 -410q-10 -43 -11 -84q0 -76 37 -147q51 -100 148 -100q41 0 88 18.5t82 61.5q72 92 71 190q0 82 -51 168 q-10 25 -37 31q-41 18 -78 18q-78 0 -131 -84q-33 -51 -16 -112q43 -55 94 -56q35 0 76 25q4 4 4 20v21q-4 0 -4 4q-49 0 -78 20v6q6 0 6 5v6q4 4 4 12t7 8q35 18 61 19q51 0 72 -66q6 -20 6 -39q0 -41 -33 -74q-49 -41 -104 -41q-39 0 -80 21q-109 53 -109 160q0 25 6 51 q8 18 21 45q74 123 201 123q39 0 86 -10q109 -37 139 -144q20 -72 20 -137q0 -190 -190 -313q-66 -43 -125 -43t-115 43q-147 115 -147 286z" />
<glyph unicode="&#xf5;" horiz-adv-x="673" d="M33 358q0 94 59 263q88 190 242 290q2 2 20 11q31 0 52 -21l10 -10l4 -4q0 -2 3 -7.5t3 -8.5t4 -11l-20 -20q-4 6 -8.5 7t-22.5 13q-14 -4 -41 -4q-164 -172 -225 -410q-10 -43 -11 -84q0 -76 37 -147q51 -100 148 -100q41 0 88 18.5t82 61.5q72 92 71 190q0 82 -51 168 q-10 25 -37 31q-41 18 -78 18q-78 0 -131 -84q-33 -51 -16 -112q43 -55 94 -56q35 0 76 25q4 4 4 20v21q-4 0 -4 4q-49 0 -78 20v6q6 0 6 5v6q4 4 4 12t7 8q35 18 61 19q51 0 72 -66q6 -20 6 -39q0 -41 -33 -74q-49 -41 -104 -41q-39 0 -80 21q-109 53 -109 160q0 25 6 51 q8 18 21 45q74 123 201 123q39 0 86 -10q109 -37 139 -144q20 -72 20 -137q0 -190 -190 -313q-66 -43 -125 -43t-115 43q-147 115 -147 286z" />
<glyph unicode="&#xf6;" horiz-adv-x="673" d="M33 358q0 94 59 263q88 190 242 290q2 2 20 11q31 0 52 -21l10 -10l4 -4q0 -2 3 -7.5t3 -8.5t4 -11l-20 -20q-4 6 -8.5 7t-22.5 13q-14 -4 -41 -4q-164 -172 -225 -410q-10 -43 -11 -84q0 -76 37 -147q51 -100 148 -100q41 0 88 18.5t82 61.5q72 92 71 190q0 82 -51 168 q-10 25 -37 31q-41 18 -78 18q-78 0 -131 -84q-33 -51 -16 -112q43 -55 94 -56q35 0 76 25q4 4 4 20v21q-4 0 -4 4q-49 0 -78 20v6q6 0 6 5v6q4 4 4 12t7 8q35 18 61 19q51 0 72 -66q6 -20 6 -39q0 -41 -33 -74q-49 -41 -104 -41q-39 0 -80 21q-109 53 -109 160q0 25 6 51 q8 18 21 45q74 123 201 123q39 0 86 -10q109 -37 139 -144q20 -72 20 -137q0 -190 -190 -313q-66 -43 -125 -43t-115 43q-147 115 -147 286z" />
<glyph unicode="&#xf9;" horiz-adv-x="735" d="M16 559v10q135 109 271 174q10 0 14 -3t12 -7v-20q-152 -227 -184 -508q-6 -57 41 -96q115 -10 178 102q131 229 242 481q6 23 24 35q2 0 6.5 3t10.5 3q14 0 24 -16q-29 -178 -96 -379q-16 -47 -16 -94q0 -59 26 -115q16 -2 47 -7t46 -9v-4q0 -2 -3.5 -7.5t-3.5 -9.5 q-18 0 -34 -10q-29 -23 -52 -23q-43 0 -67 64q-33 82 -25 160q-70 -145 -201 -232q-31 -20 -61 -20q-109 0 -137 102q-31 109 0 215q47 160 127 293q-55 -31 -164 -98q-18 0 -25 16z" />
<glyph unicode="&#xfa;" horiz-adv-x="735" d="M16 559v10q135 109 271 174q10 0 14 -3t12 -7v-20q-152 -227 -184 -508q-6 -57 41 -96q115 -10 178 102q131 229 242 481q6 23 24 35q2 0 6.5 3t10.5 3q14 0 24 -16q-29 -178 -96 -379q-16 -47 -16 -94q0 -59 26 -115q16 -2 47 -7t46 -9v-4q0 -2 -3.5 -7.5t-3.5 -9.5 q-18 0 -34 -10q-29 -23 -52 -23q-43 0 -67 64q-33 82 -25 160q-70 -145 -201 -232q-31 -20 -61 -20q-109 0 -137 102q-31 109 0 215q47 160 127 293q-55 -31 -164 -98q-18 0 -25 16z" />
<glyph unicode="&#xfb;" horiz-adv-x="735" d="M16 559v10q135 109 271 174q10 0 14 -3t12 -7v-20q-152 -227 -184 -508q-6 -57 41 -96q115 -10 178 102q131 229 242 481q6 23 24 35q2 0 6.5 3t10.5 3q14 0 24 -16q-29 -178 -96 -379q-16 -47 -16 -94q0 -59 26 -115q16 -2 47 -7t46 -9v-4q0 -2 -3.5 -7.5t-3.5 -9.5 q-18 0 -34 -10q-29 -23 -52 -23q-43 0 -67 64q-33 82 -25 160q-70 -145 -201 -232q-31 -20 -61 -20q-109 0 -137 102q-31 109 0 215q47 160 127 293q-55 -31 -164 -98q-18 0 -25 16z" />
<glyph unicode="&#xfc;" horiz-adv-x="735" d="M16 559v10q135 109 271 174q10 0 14 -3t12 -7v-20q-152 -227 -184 -508q-6 -57 41 -96q115 -10 178 102q131 229 242 481q6 23 24 35q2 0 6.5 3t10.5 3q14 0 24 -16q-29 -178 -96 -379q-16 -47 -16 -94q0 -59 26 -115q16 -2 47 -7t46 -9v-4q0 -2 -3.5 -7.5t-3.5 -9.5 q-18 0 -34 -10q-29 -23 -52 -23q-43 0 -67 64q-33 82 -25 160q-70 -145 -201 -232q-31 -20 -61 -20q-109 0 -137 102q-31 109 0 215q47 160 127 293q-55 -31 -164 -98q-18 0 -25 16z" />
<glyph unicode="&#xfd;" horiz-adv-x="778" d="M-43 -442q0 49 23 94q6 12 26 20q98 37 219 21q47 -6 88 -47q2 -6 11 -15q-43 -23 -119 0q-43 12 -84 13q-57 0 -115 -23q0 -150 137 -225q111 0 160 106q104 229 184 531q45 176 123 551q27 131 66 221l6 4q6 4 14 10q23 0 41 -24v-17q0 -4 -4 -4q0 -6 -5 -6t-11 -4 q-35 -143 -107 -518q-55 -289 -123 -539q-49 -180 -184 -342q-45 -53 -119 -51q-84 4 -137 72q-20 23 -63 71q-27 49 -27 101zM88 539v20q53 49 164 143q49 -43 45 -129q-12 -279 164 -512q10 -6 10 -24q-6 -27 -35 -27q-137 96 -174 256q-35 147 -41 334q-33 -18 -88 -82 q-20 -8 -41 10q0 4 -4 11z" />
<glyph unicode="&#xff;" horiz-adv-x="778" d="M-43 -442q0 49 23 94q6 12 26 20q98 37 219 21q47 -6 88 -47q2 -6 11 -15q-43 -23 -119 0q-43 12 -84 13q-57 0 -115 -23q0 -150 137 -225q111 0 160 106q104 229 184 531q45 176 123 551q27 131 66 221l6 4q6 4 14 10q23 0 41 -24v-17q0 -4 -4 -4q0 -6 -5 -6t-11 -4 q-35 -143 -107 -518q-55 -289 -123 -539q-49 -180 -184 -342q-45 -53 -119 -51q-84 4 -137 72q-20 23 -63 71q-27 49 -27 101zM88 539v20q53 49 164 143q49 -43 45 -129q-12 -279 164 -512q10 -6 10 -24q-6 -27 -35 -27q-137 96 -174 256q-35 147 -41 334q-33 -18 -88 -82 q-20 -8 -41 10q0 4 -4 11z" />
<glyph unicode="&#x153;" horiz-adv-x="1161" d="M33 358q0 94 59 263q88 190 242 290q2 2 20 11q31 0 52 -21l10 -10l4 -4q0 -2 3 -7.5t3 -8.5t4 -11l-20 -20q-4 6 -8.5 7t-22.5 13q-14 -4 -41 -4q-164 -172 -225 -410q-10 -43 -11 -84q0 -76 37 -147q51 -100 148 -100q41 0 88 18.5t82 61.5q72 92 71 190q0 82 -51 168 q-10 25 -37 31q-41 18 -78 18q-78 0 -131 -84q-33 -51 -16 -112q43 -55 94 -56q35 0 76 25q4 4 4 20v21q-4 0 -4 4q-49 0 -78 20v6q6 0 6 5v6q4 4 4 12t7 8q35 18 61 19q51 0 72 -66q6 -20 6 -39q0 -41 -33 -74q-49 -41 -104 -41q-39 0 -80 21q-109 53 -109 160q0 25 6 51 q8 18 21 45q74 123 201 123q39 0 86 -10q109 -37 139 -144q20 -72 20 -137q0 -190 -190 -313q-66 -43 -125 -43t-115 43q-147 115 -147 286zM498 522v16l4 5q12 12 41 20q20 0 31 6q135 211 333 332q53 33 113 47l-6 -72q-188 -88 -311 -256q0 -6 -6 -10q115 27 327 123 q68 31 68 86q0 23 -10 51q-23 23 -68 6l6 72q131 0 131 -113q0 -18 -4 -36q0 -31 -35 -66q-160 -117 -338 -164q-74 -20 -129 -41q-2 -8 -10 -20q-6 -27 -20 -41v-10q0 -68 30 -132q37 -76 99 -83q41 -10 79 -11q121 0 211 92q41 43 27 103q-23 4 -45 4q-84 0 -160 -55h-10 q-4 0 -6 2t-4 2v41q0 4 2 9t2 7q72 66 147 66q51 0 109 -31q31 -16 31 -45q12 -117 -84 -200t-215 -83q-111 0 -217 92q-78 68 -78 164q0 61 6 88q2 6 10 15q-6 0 -12 3t-8 3q-16 0 -31 14z" />
<glyph unicode="&#x178;" horiz-adv-x="974" d="M-27 1542q8 109 133 121q27 4 82 14q27 6 52 6q106 0 145 -104q16 -43 16 -86q0 -51 -24 -100q-68 -137 -66 -299q0 -53 43 -86q90 -72 164 -80q0 -8 8 -8v-9q-6 -6 -10 -18q-29 -6 -55 -6q-135 0 -205 145q-35 72 -23 144q18 113 70 215q29 57 29 116q0 39 -15 80 q-10 27 -94 27q-102 0 -188 -51q4 0 4 -9v-8q0 -6 2 -6q23 -20 45 -20q23 0 47 20q10 12 55 37q2 -10 7.5 -13.5t15.5 -13.5v-8q-53 -86 -121 -86q-41 0 -86 31q-33 23 -31 55zM25 154q2 4 6 8q-4 0 10 2q10 -6 14.5 -15.5t12.5 -21.5q2 -6 12 -21q61 -49 133 -49 q53 0 113 29q154 78 221 240q59 145 59 299t-59 313q-35 96 -35 227q0 311 256 521q63 51 131 63q158 0 145 -154q-8 -98 -112 -125q-31 -8 -55 -8q-92 0 -117 101h43q12 -23 30.5 -32t38.5 -9q53 0 95 41q10 23 10 41q0 51 -78 57h-12q-49 -16 -88 -51q-4 -2 -11 -8 q6 -12 15 -39h-43q-76 -68 -123 -173.5t-47 -207.5q0 -35 6 -72q33 -207 74 -342q31 -102 30 -207q0 -59 -10 -119q-29 -170 -137 -313q-92 -123 -217 -162q-57 -18 -103 -18q-66 0 -120 37q-29 25 -31 47q-2 6 -12 6q-2 10 -6.5 14t-16.5 10v15q-2 10 -2 14q-2 14 -16 55 q0 6 -4 7z" />
<glyph unicode="&#x2000;" horiz-adv-x="1008" />
<glyph unicode="&#x2001;" horiz-adv-x="2017" />
<glyph unicode="&#x2002;" horiz-adv-x="1008" />
<glyph unicode="&#x2003;" horiz-adv-x="2017" />
<glyph unicode="&#x2004;" horiz-adv-x="672" />
<glyph unicode="&#x2005;" horiz-adv-x="504" />
<glyph unicode="&#x2006;" horiz-adv-x="336" />
<glyph unicode="&#x2007;" horiz-adv-x="336" />
<glyph unicode="&#x2008;" horiz-adv-x="252" />
<glyph unicode="&#x2009;" horiz-adv-x="403" />
<glyph unicode="&#x200a;" horiz-adv-x="112" />
<glyph unicode="&#x2010;" horiz-adv-x="684" d="M188 686v8q12 25 41 25q41 0 90 16h-40q-8 0 -17 8h-8v17v8v8q8 0 8 8q8 0 8 9h9h8q115 -16 344 -33q49 -10 49 -58q-12 -25 -33 -24q-231 0 -418 -33q-41 0 -41 41z" />
<glyph unicode="&#x2011;" horiz-adv-x="684" d="M188 686v8q12 25 41 25q41 0 90 16h-40q-8 0 -17 8h-8v17v8v8q8 0 8 8q8 0 8 9h9h8q115 -16 344 -33q49 -10 49 -58q-12 -25 -33 -24q-231 0 -418 -33q-41 0 -41 41z" />
<glyph unicode="&#x2012;" horiz-adv-x="684" d="M188 686v8q12 25 41 25q41 0 90 16h-40q-8 0 -17 8h-8v17v8v8q8 0 8 8q8 0 8 9h9h8q115 -16 344 -33q49 -10 49 -58q-12 -25 -33 -24q-231 0 -418 -33q-41 0 -41 41z" />
<glyph unicode="&#x2013;" horiz-adv-x="1216" d="M188 686v8q25 25 85 25q86 0 188 16h-84q-16 0 -35 8h-17v17v8v8q17 0 17 8q17 0 17 9h18h17q239 -16 716 -33q102 -10 102 -58q-25 -25 -69 -24q-480 0 -870 -33q-85 0 -85 41z" />
<glyph unicode="&#x2014;" horiz-adv-x="2240" d="M188 686v8q50 25 171 25q170 0 374 16h-166q-34 0 -71 8h-33v17v8v8q33 0 33 8q33 0 33 9h38h33q479 -16 1432 -33q204 -10 204 -58q-50 -25 -137 -24q-962 0 -1740 -33q-171 0 -171 41z" />
<glyph unicode="&#x201c;" horiz-adv-x="1556" d="M1559 600v8q2 25 22 45h2q6 0 6 -4h2q-14 -25 -18 -53v-4l2 -6l2 -2v-2h4l2 2q0 2 2 2q0 2 -2 2l-2 -2h-6l-2 6q14 20 26 2q4 -6 0 -14q-18 -25 -34 0q-6 10 -6 20zM1618 592q-8 41 24 61q2 0 4.5 -1t2.5 -3l-4 -4q-14 -25 -13 -51q0 -2 2 -6l8 -6q6 0 11 2q0 2 -4 2 q0 -2 -4 -2l-3 -2l-8 6q16 23 31 4q2 -2 2 -8q-6 -27 -33 -15q-12 6 -16 23z" />
<glyph unicode="&#x201d;" horiz-adv-x="1392" d="M1391 662h14q4 -2 8 -5h10v2q0 2 2 5v2q2 6 -2 6q-12 -4 -16 -8l-2 -2h-14q0 8 4 12q14 10 32 14q27 -2 15 -29q-4 -4 -5 -6t-1 -4h2h4q8 -33 -23 -49q-8 -6 -16 -2q-4 0 -4 4q0 2 2 4q29 8 33 41q-27 -14 -43 15zM1464 596v8q16 16 15 33v4q-29 6 -15 29l9 -11h-3l3 -2 v-2q2 2 2 7l-2 -3l-9 11q11 10 17 10q10 -6 10 -14q0 -6 -4 -15q20 -35 -14 -57q-4 2 -9 2z" />
<glyph unicode="&#x202f;" horiz-adv-x="403" />
<glyph unicode="&#x205f;" horiz-adv-x="504" />
<glyph unicode="&#x2122;" horiz-adv-x="1542" d="M158 1475q43 51 133 51q45 0 87 5t67 11q57 119 158 352q6 6 10 7l10 -11q10 -88 -32 -176t-64 -188q-6 0 -10 -4l-7 -6q-119 -279 -178 -517q-29 -115 -20 -210q92 117 225 184l4 -4q0 -14 -14 -21v-10q-6 -6 -6 -16q0 -2 -2 -4.5t-2 -6.5q-145 -145 -242 -290 q-8 -20 -25 -11q-16 4 -26 31q-2 47 -2 94q0 340 196 750q-115 -6 -235 -31q-20 8 -25 21zM654 891q14 193 102 379q63 135 113 250q-106 -63 -164 -113q-10 -35 -41 -4v25q154 113 270 190q6 0 10.5 -3l10.5 -7v-6q0 -2 3 -7t3 -7q-10 -25 -30.5 -74t-30.5 -76 q0 -2 -3.5 -7t-3.5 -7q80 53 164 53q41 0 82 -12l18.5 -18.5t8.5 -32.5q-6 0 -6 -11q127 94 297 117q25 -16 41 -41q-23 -180 -107 -328q-51 -90 -51 -182q0 -41 10 -84q63 -39 137 -14q6 -6 11.5 -8t9.5 -9v-4q0 -10 6 -16q-6 0 -6 -4v-6q-49 -25 -96 -25q-68 0 -123 51 q-20 18 -21 35q-6 35 -6 68q0 123 68 235q82 139 112 287q-129 0 -245 -88q-63 -47 -78 -127q-113 -117 -144 -266v-31q0 -10 -4 -16q2 -2 8.5 -10.5t12.5 -14.5v-10v-6q-4 0 -11 -11q-23 -6 -36 17v4q-4 6 -21 6q0 2 -2 4t-2 6q-6 0 -6 4q-6 209 133 355q59 61 68 133 q-39 12 -74 12q-61 0 -121 -39q-33 -20 -47 -55q-68 -158 -123 -324q-23 -66 -51 -127q-8 -16 -14 -16q-25 0 -31 16z" />
<glyph unicode="&#x25fc;" horiz-adv-x="993" d="M0 0v993h993v-993h-993z" />
</font>
</defs>
</svg>
